G75*
%MOIN*%
%OFA0B0*%
%FSLAX25Y25*%
%IPPOS*%
%LPD*%
%AMOC8*
5,1,8,0,0,1.08239X$1,22.5*
%
%ADD10C,0.00000*%
%ADD11C,0.07400*%
%ADD12C,0.20000*%
%ADD13C,0.07600*%
%ADD14OC8,0.05200*%
%ADD15C,0.18898*%
%ADD16C,0.05543*%
%ADD17OC8,0.06300*%
%ADD18C,0.06300*%
%ADD19C,0.05200*%
%ADD20C,0.04756*%
%ADD21C,0.21000*%
%ADD22OC8,0.07400*%
%ADD23C,0.05600*%
%ADD24R,0.21260X0.24409*%
%ADD25R,0.03937X0.06299*%
%ADD26C,0.06000*%
%ADD27C,0.04000*%
%ADD28C,0.05000*%
%ADD29C,0.02400*%
%ADD30C,0.03200*%
%ADD31C,0.05600*%
%ADD32C,0.01600*%
%ADD33R,0.18000X0.18000*%
%ADD34C,0.03562*%
%ADD35C,0.05315*%
%ADD36C,0.01200*%
%ADD37C,0.06600*%
%ADD38C,0.07000*%
D10*
X0032936Y0031270D02*
X0246885Y0031270D01*
X0247154Y0031273D01*
X0247423Y0031283D01*
X0247692Y0031299D01*
X0247960Y0031322D01*
X0248227Y0031351D01*
X0248494Y0031387D01*
X0248760Y0031429D01*
X0249025Y0031477D01*
X0249288Y0031532D01*
X0249550Y0031594D01*
X0249811Y0031661D01*
X0250069Y0031735D01*
X0250326Y0031815D01*
X0250581Y0031901D01*
X0250834Y0031994D01*
X0251084Y0032092D01*
X0251332Y0032197D01*
X0251578Y0032307D01*
X0251820Y0032423D01*
X0252060Y0032546D01*
X0252297Y0032673D01*
X0252531Y0032807D01*
X0252761Y0032946D01*
X0252988Y0033091D01*
X0253211Y0033241D01*
X0253431Y0033397D01*
X0253646Y0033558D01*
X0253858Y0033724D01*
X0254066Y0033895D01*
X0254270Y0034071D01*
X0254469Y0034251D01*
X0254664Y0034437D01*
X0254854Y0034627D01*
X0255040Y0034822D01*
X0255220Y0035021D01*
X0255396Y0035225D01*
X0255567Y0035433D01*
X0255733Y0035645D01*
X0255894Y0035860D01*
X0256050Y0036080D01*
X0256200Y0036303D01*
X0256345Y0036530D01*
X0256484Y0036760D01*
X0256618Y0036994D01*
X0256745Y0037231D01*
X0256868Y0037471D01*
X0256984Y0037713D01*
X0257094Y0037959D01*
X0257199Y0038207D01*
X0257297Y0038457D01*
X0257390Y0038710D01*
X0257476Y0038965D01*
X0257556Y0039222D01*
X0257630Y0039480D01*
X0257697Y0039741D01*
X0257759Y0040003D01*
X0257814Y0040266D01*
X0257862Y0040531D01*
X0257904Y0040797D01*
X0257940Y0041064D01*
X0257969Y0041331D01*
X0257992Y0041599D01*
X0258008Y0041868D01*
X0258018Y0042137D01*
X0258021Y0042406D01*
X0258020Y0042406D02*
X0258020Y0119115D01*
X0253099Y0119115D01*
X0253099Y0144080D01*
X0258020Y0144080D01*
X0258020Y0268166D01*
X0258045Y0268464D01*
X0258063Y0268762D01*
X0258074Y0269061D01*
X0258077Y0269360D01*
X0258073Y0269659D01*
X0258062Y0269958D01*
X0258044Y0270256D01*
X0258018Y0270554D01*
X0257985Y0270851D01*
X0257945Y0271148D01*
X0257898Y0271443D01*
X0257844Y0271737D01*
X0257783Y0272030D01*
X0257714Y0272321D01*
X0257639Y0272610D01*
X0257557Y0272898D01*
X0257467Y0273183D01*
X0257371Y0273466D01*
X0257268Y0273747D01*
X0257159Y0274025D01*
X0257042Y0274300D01*
X0256919Y0274573D01*
X0256790Y0274842D01*
X0256654Y0275109D01*
X0256511Y0275372D01*
X0256362Y0275631D01*
X0256208Y0275887D01*
X0256046Y0276139D01*
X0255879Y0276386D01*
X0255706Y0276630D01*
X0255527Y0276870D01*
X0255343Y0277105D01*
X0255152Y0277336D01*
X0254957Y0277562D01*
X0254755Y0277783D01*
X0254549Y0277999D01*
X0254337Y0278210D01*
X0254121Y0278416D01*
X0253899Y0278617D01*
X0253673Y0278812D01*
X0253442Y0279002D01*
X0253206Y0279186D01*
X0252966Y0279365D01*
X0252722Y0279537D01*
X0252474Y0279704D01*
X0252221Y0279864D01*
X0251965Y0280019D01*
X0251706Y0280167D01*
X0251442Y0280309D01*
X0251176Y0280444D01*
X0250906Y0280573D01*
X0250633Y0280696D01*
X0250358Y0280812D01*
X0250079Y0280921D01*
X0249798Y0281023D01*
X0249515Y0281118D01*
X0249229Y0281207D01*
X0248942Y0281289D01*
X0248652Y0281364D01*
X0248361Y0281431D01*
X0248068Y0281492D01*
X0247774Y0281546D01*
X0247479Y0281592D01*
X0247182Y0281631D01*
X0246885Y0281663D01*
X0246885Y0281664D02*
X0033374Y0281664D01*
X0033085Y0281651D01*
X0032797Y0281631D01*
X0032508Y0281604D01*
X0032221Y0281570D01*
X0031935Y0281529D01*
X0031649Y0281481D01*
X0031365Y0281426D01*
X0031082Y0281365D01*
X0030801Y0281297D01*
X0030522Y0281222D01*
X0030244Y0281140D01*
X0029969Y0281051D01*
X0029695Y0280956D01*
X0029425Y0280854D01*
X0029156Y0280746D01*
X0028890Y0280632D01*
X0028628Y0280511D01*
X0028368Y0280383D01*
X0028111Y0280250D01*
X0027858Y0280110D01*
X0027608Y0279964D01*
X0027362Y0279812D01*
X0027119Y0279654D01*
X0026880Y0279491D01*
X0026646Y0279321D01*
X0026415Y0279147D01*
X0026189Y0278966D01*
X0025967Y0278780D01*
X0025750Y0278589D01*
X0025537Y0278393D01*
X0025330Y0278191D01*
X0025127Y0277985D01*
X0024929Y0277774D01*
X0024736Y0277558D01*
X0024549Y0277337D01*
X0024367Y0277112D01*
X0024191Y0276883D01*
X0024020Y0276649D01*
X0023855Y0276412D01*
X0023695Y0276170D01*
X0023542Y0275925D01*
X0023394Y0275676D01*
X0023253Y0275424D01*
X0023117Y0275168D01*
X0022988Y0274909D01*
X0022866Y0274647D01*
X0022749Y0274382D01*
X0022639Y0274114D01*
X0022536Y0273844D01*
X0022439Y0273572D01*
X0022348Y0273297D01*
X0022265Y0273020D01*
X0022188Y0272741D01*
X0022117Y0272460D01*
X0022054Y0272178D01*
X0021997Y0271894D01*
X0021948Y0271609D01*
X0021905Y0271323D01*
X0021869Y0271036D01*
X0021840Y0270748D01*
X0021818Y0270459D01*
X0021803Y0270170D01*
X0021795Y0269881D01*
X0021794Y0269592D01*
X0021800Y0269302D01*
X0021800Y0042406D01*
X0021803Y0042137D01*
X0021813Y0041868D01*
X0021829Y0041599D01*
X0021852Y0041331D01*
X0021881Y0041064D01*
X0021917Y0040797D01*
X0021959Y0040531D01*
X0022007Y0040266D01*
X0022062Y0040003D01*
X0022124Y0039741D01*
X0022191Y0039480D01*
X0022265Y0039222D01*
X0022345Y0038965D01*
X0022431Y0038710D01*
X0022524Y0038457D01*
X0022622Y0038207D01*
X0022727Y0037959D01*
X0022837Y0037713D01*
X0022953Y0037471D01*
X0023076Y0037231D01*
X0023203Y0036994D01*
X0023337Y0036760D01*
X0023476Y0036530D01*
X0023621Y0036303D01*
X0023771Y0036080D01*
X0023927Y0035860D01*
X0024088Y0035645D01*
X0024254Y0035433D01*
X0024425Y0035225D01*
X0024601Y0035021D01*
X0024781Y0034822D01*
X0024967Y0034627D01*
X0025157Y0034437D01*
X0025352Y0034251D01*
X0025551Y0034071D01*
X0025755Y0033895D01*
X0025963Y0033724D01*
X0026175Y0033558D01*
X0026390Y0033397D01*
X0026610Y0033241D01*
X0026833Y0033091D01*
X0027060Y0032946D01*
X0027290Y0032807D01*
X0027524Y0032673D01*
X0027761Y0032546D01*
X0028001Y0032423D01*
X0028243Y0032307D01*
X0028489Y0032197D01*
X0028737Y0032092D01*
X0028987Y0031994D01*
X0029240Y0031901D01*
X0029495Y0031815D01*
X0029752Y0031735D01*
X0030010Y0031661D01*
X0030271Y0031594D01*
X0030533Y0031532D01*
X0030796Y0031477D01*
X0031061Y0031429D01*
X0031327Y0031387D01*
X0031594Y0031351D01*
X0031861Y0031322D01*
X0032129Y0031299D01*
X0032398Y0031283D01*
X0032667Y0031273D01*
X0032936Y0031270D01*
D11*
X0120855Y0060955D03*
X0125343Y0070955D03*
X0134359Y0070955D03*
X0143375Y0070955D03*
X0138887Y0060955D03*
X0147902Y0060955D03*
X0156918Y0060955D03*
X0161406Y0070955D03*
X0152391Y0070955D03*
X0147902Y0080955D03*
X0138887Y0080955D03*
X0129871Y0080955D03*
X0120855Y0080955D03*
X0129871Y0060955D03*
X0156918Y0080955D03*
D12*
X0189123Y0070955D03*
X0090698Y0070955D03*
D13*
X0186800Y0097776D03*
X0186800Y0110276D03*
X0226800Y0110276D03*
X0226800Y0097776D03*
D14*
X0175550Y0096526D03*
X0175550Y0106526D03*
X0149300Y0179026D03*
X0139300Y0179026D03*
X0139300Y0193401D03*
X0149300Y0193401D03*
X0096800Y0187776D03*
X0096800Y0157776D03*
X0104300Y0106526D03*
X0074300Y0106526D03*
X0069300Y0074026D03*
X0069300Y0064026D03*
X0041800Y0186526D03*
X0030550Y0186526D03*
X0030550Y0216526D03*
X0041800Y0216526D03*
X0204300Y0193401D03*
X0214300Y0193401D03*
X0214300Y0179026D03*
X0204300Y0179026D03*
X0209300Y0259026D03*
X0209300Y0271526D03*
X0239300Y0271526D03*
X0239300Y0259026D03*
D15*
X0228969Y0079339D03*
X0247473Y0067528D03*
X0228969Y0056111D03*
D16*
X0164300Y0096526D03*
X0164300Y0106526D03*
X0164300Y0116526D03*
X0164300Y0126526D03*
X0164300Y0136526D03*
X0164300Y0146526D03*
X0164300Y0156526D03*
X0164300Y0166526D03*
X0114300Y0166526D03*
X0114300Y0156526D03*
X0114300Y0146526D03*
X0114300Y0136526D03*
X0114300Y0126526D03*
X0114300Y0116526D03*
X0114300Y0106526D03*
X0114300Y0096526D03*
D17*
X0184300Y0169026D03*
X0239300Y0169026D03*
D18*
X0239300Y0159026D03*
X0184300Y0159026D03*
D19*
X0183700Y0189651D02*
X0188900Y0189651D01*
X0191800Y0203926D02*
X0191800Y0209126D01*
X0181800Y0209126D02*
X0181800Y0203926D01*
X0171800Y0203926D02*
X0171800Y0209126D01*
X0161800Y0209126D02*
X0161800Y0203926D01*
X0151800Y0203926D02*
X0151800Y0209126D01*
X0141800Y0209126D02*
X0141800Y0203926D01*
X0131800Y0203926D02*
X0131800Y0209126D01*
X0121800Y0209126D02*
X0121800Y0203926D01*
X0111800Y0203926D02*
X0111800Y0209126D01*
X0101800Y0209126D02*
X0101800Y0203926D01*
X0091800Y0203926D02*
X0091800Y0209126D01*
X0076800Y0211526D02*
X0076800Y0206326D01*
X0066800Y0206326D02*
X0066800Y0211526D01*
X0056800Y0211526D02*
X0056800Y0206326D01*
X0056800Y0191726D02*
X0056800Y0186526D01*
X0066800Y0186526D02*
X0066800Y0191726D01*
X0076800Y0191726D02*
X0076800Y0186526D01*
X0076800Y0156526D02*
X0076800Y0151326D01*
X0066800Y0151326D02*
X0066800Y0156526D01*
X0056800Y0156526D02*
X0056800Y0151326D01*
X0091800Y0233926D02*
X0091800Y0239126D01*
X0101800Y0239126D02*
X0101800Y0233926D01*
X0111800Y0233926D02*
X0111800Y0239126D01*
X0121800Y0239126D02*
X0121800Y0233926D01*
X0131800Y0233926D02*
X0131800Y0239126D01*
X0141800Y0239126D02*
X0141800Y0233926D01*
X0151800Y0233926D02*
X0151800Y0239126D01*
X0161800Y0239126D02*
X0161800Y0233926D01*
X0171800Y0233926D02*
X0171800Y0239126D01*
X0181800Y0239126D02*
X0181800Y0233926D01*
X0191800Y0233926D02*
X0191800Y0239126D01*
X0201800Y0239126D02*
X0201800Y0233926D01*
X0211800Y0233926D02*
X0211800Y0239126D01*
X0221800Y0239126D02*
X0221800Y0233926D01*
X0221800Y0209126D02*
X0221800Y0203926D01*
X0211800Y0203926D02*
X0211800Y0209126D01*
X0201800Y0209126D02*
X0201800Y0203926D01*
X0169900Y0189651D02*
X0164700Y0189651D01*
X0076800Y0241526D02*
X0076800Y0246726D01*
X0066800Y0246726D02*
X0066800Y0241526D01*
X0056800Y0241526D02*
X0056800Y0246726D01*
D20*
X0065894Y0264768D02*
X0065894Y0269524D01*
X0071800Y0269524D02*
X0071800Y0264768D01*
X0077706Y0264768D02*
X0077706Y0269524D01*
X0083611Y0269524D02*
X0083611Y0264768D01*
X0089517Y0264768D02*
X0089517Y0269524D01*
X0116489Y0269455D02*
X0116489Y0264699D01*
X0122394Y0264699D02*
X0122394Y0269455D01*
X0128300Y0269455D02*
X0128300Y0264699D01*
X0134206Y0264699D02*
X0134206Y0269455D01*
X0140111Y0269455D02*
X0140111Y0264699D01*
X0146017Y0264699D02*
X0146017Y0269455D01*
X0151922Y0269455D02*
X0151922Y0264699D01*
X0157828Y0264699D02*
X0157828Y0269455D01*
X0163733Y0269455D02*
X0163733Y0264699D01*
X0169639Y0264699D02*
X0169639Y0269455D01*
X0123725Y0192904D02*
X0118969Y0192904D01*
X0118969Y0186998D02*
X0123725Y0186998D01*
X0036383Y0169065D02*
X0031627Y0169065D01*
X0031627Y0163160D02*
X0036383Y0163160D01*
X0036383Y0157254D02*
X0031627Y0157254D01*
X0031627Y0151349D02*
X0036383Y0151349D01*
X0036426Y0127678D02*
X0031670Y0127678D01*
X0031670Y0121772D02*
X0036426Y0121772D01*
X0036426Y0115867D02*
X0031670Y0115867D01*
X0031670Y0109961D02*
X0036426Y0109961D01*
X0036776Y0229302D02*
X0032020Y0229302D01*
X0032020Y0235207D02*
X0036776Y0235207D01*
X0036776Y0241113D02*
X0032020Y0241113D01*
X0243517Y0195876D02*
X0248272Y0195876D01*
X0248272Y0189971D02*
X0243517Y0189971D01*
D21*
X0246209Y0233632D03*
X0246209Y0098199D03*
X0033611Y0082451D03*
X0033611Y0269853D03*
D22*
X0076800Y0129026D03*
X0076800Y0119026D03*
X0086800Y0119026D03*
X0086800Y0129026D03*
X0096800Y0129026D03*
X0096800Y0119026D03*
D23*
X0184300Y0127589D03*
X0184300Y0135463D03*
X0240550Y0135463D03*
X0240550Y0127589D03*
D24*
X0211564Y0134164D03*
D25*
X0220540Y0162904D03*
X0202587Y0162904D03*
D26*
X0071800Y0049526D02*
X0071800Y0043526D01*
X0061800Y0043526D02*
X0061800Y0049526D01*
X0051800Y0049526D02*
X0051800Y0043526D01*
X0041800Y0043526D02*
X0041800Y0049526D01*
X0031800Y0049526D02*
X0031800Y0043526D01*
D27*
X0149300Y0193401D02*
X0151800Y0195901D01*
X0151800Y0206526D01*
X0229300Y0224026D02*
X0236800Y0216526D01*
X0236800Y0196526D01*
X0236800Y0184026D01*
X0229300Y0176526D01*
X0229300Y0149026D01*
X0229300Y0224026D02*
X0229300Y0244026D01*
X0239300Y0254026D01*
X0239300Y0259026D01*
D28*
X0239300Y0271526D01*
X0239300Y0159026D02*
X0223887Y0143357D01*
X0175550Y0106526D02*
X0164300Y0106526D01*
D29*
X0164300Y0166526D02*
X0164477Y0166703D01*
X0229300Y0149026D02*
X0239300Y0159026D01*
X0245894Y0195876D02*
X0242745Y0196526D01*
X0236800Y0196526D01*
D30*
X0204300Y0179026D02*
X0193675Y0189651D01*
X0186300Y0189651D01*
X0181800Y0189651D01*
X0181800Y0206526D01*
X0171800Y0206526D02*
X0171800Y0189651D01*
X0167300Y0189651D01*
X0159925Y0189651D01*
X0149300Y0179026D01*
X0147391Y0146526D02*
X0129300Y0129026D01*
X0129300Y0086526D01*
X0129871Y0080955D01*
X0136800Y0086526D02*
X0139123Y0084203D01*
X0139123Y0081191D01*
X0138887Y0080955D01*
X0136800Y0086526D02*
X0136623Y0124735D01*
X0148414Y0136526D01*
X0164300Y0136526D01*
X0164300Y0126526D02*
X0151800Y0126526D01*
X0144300Y0119026D01*
X0144300Y0089026D01*
X0147784Y0085542D01*
X0147784Y0081073D01*
X0147902Y0080955D01*
X0156446Y0081428D02*
X0156918Y0080955D01*
X0156446Y0081428D02*
X0156800Y0086526D01*
X0151446Y0091880D01*
X0151446Y0113298D01*
X0154674Y0116526D01*
X0164300Y0116526D01*
X0114300Y0116526D02*
X0114300Y0126526D01*
X0096800Y0119026D02*
X0086800Y0119026D01*
X0076800Y0119026D01*
X0074300Y0116526D01*
X0074300Y0106526D01*
X0171800Y0236526D02*
X0171800Y0241526D01*
X0168050Y0245276D01*
X0139300Y0245276D01*
X0126800Y0257776D01*
X0120550Y0257776D01*
X0116800Y0261526D01*
X0116489Y0267077D01*
D31*
X0164477Y0166703D02*
X0167981Y0166703D01*
X0176800Y0159026D01*
X0184300Y0159026D01*
X0184300Y0135463D01*
X0184300Y0127589D02*
X0184300Y0112776D01*
X0186800Y0110276D01*
X0214064Y0138357D02*
X0221800Y0143357D01*
X0223887Y0143357D01*
X0240550Y0127589D02*
X0240698Y0125246D01*
X0240786Y0121585D01*
X0240550Y0119085D01*
X0230550Y0110276D01*
X0226800Y0110276D01*
X0189300Y0159026D02*
X0184300Y0159026D01*
X0189300Y0159026D02*
X0193050Y0162776D01*
X0201175Y0162776D01*
X0202587Y0162904D01*
D32*
X0028697Y0034088D02*
X0026334Y0035804D01*
X0024617Y0038167D01*
X0023715Y0040945D01*
X0023600Y0042406D01*
X0023600Y0075277D01*
X0024425Y0074242D01*
X0025402Y0073265D01*
X0026482Y0072404D01*
X0027652Y0071669D01*
X0028897Y0071070D01*
X0030201Y0070613D01*
X0031547Y0070306D01*
X0032811Y0070163D01*
X0032811Y0081651D01*
X0034411Y0081651D01*
X0034411Y0070163D01*
X0035675Y0070306D01*
X0037021Y0070613D01*
X0038325Y0071070D01*
X0039570Y0071669D01*
X0040740Y0072404D01*
X0041820Y0073265D01*
X0042797Y0074242D01*
X0043658Y0075322D01*
X0044393Y0076492D01*
X0044993Y0077737D01*
X0045449Y0079041D01*
X0045756Y0080388D01*
X0045899Y0081651D01*
X0034411Y0081651D01*
X0034411Y0083251D01*
X0045899Y0083251D01*
X0045756Y0084515D01*
X0045449Y0085862D01*
X0044993Y0087166D01*
X0044393Y0088410D01*
X0043658Y0089580D01*
X0042797Y0090660D01*
X0041820Y0091637D01*
X0040740Y0092498D01*
X0039570Y0093233D01*
X0038325Y0093833D01*
X0037021Y0094289D01*
X0035675Y0094596D01*
X0034411Y0094739D01*
X0034411Y0083251D01*
X0032811Y0083251D01*
X0032811Y0094739D01*
X0031547Y0094596D01*
X0030201Y0094289D01*
X0028897Y0093833D01*
X0027652Y0093233D01*
X0026482Y0092498D01*
X0025402Y0091637D01*
X0024425Y0090660D01*
X0023600Y0089625D01*
X0023600Y0262679D01*
X0024425Y0261644D01*
X0025402Y0260667D01*
X0026482Y0259806D01*
X0027652Y0259071D01*
X0028897Y0258471D01*
X0030201Y0258015D01*
X0031547Y0257707D01*
X0032811Y0257565D01*
X0032811Y0269053D01*
X0034411Y0269053D01*
X0034411Y0270653D01*
X0045899Y0270653D01*
X0045756Y0271916D01*
X0045449Y0273263D01*
X0044993Y0274567D01*
X0044393Y0275812D01*
X0043658Y0276982D01*
X0042797Y0278062D01*
X0041820Y0279039D01*
X0040785Y0279864D01*
X0246760Y0279864D01*
X0248347Y0279585D01*
X0251381Y0278267D01*
X0253860Y0276076D01*
X0255540Y0273226D01*
X0256257Y0269997D01*
X0256239Y0268930D01*
X0256220Y0268912D01*
X0256220Y0268252D01*
X0256158Y0267596D01*
X0256220Y0267519D01*
X0256220Y0240806D01*
X0255395Y0241841D01*
X0254418Y0242818D01*
X0253338Y0243679D01*
X0252169Y0244414D01*
X0250924Y0245014D01*
X0249620Y0245470D01*
X0248273Y0245778D01*
X0247009Y0245920D01*
X0247009Y0234432D01*
X0245409Y0234432D01*
X0245409Y0232832D01*
X0233922Y0232832D01*
X0234064Y0231569D01*
X0234372Y0230222D01*
X0234828Y0228918D01*
X0235427Y0227673D01*
X0236162Y0226503D01*
X0237024Y0225423D01*
X0238000Y0224446D01*
X0239081Y0223585D01*
X0240250Y0222850D01*
X0241495Y0222251D01*
X0242799Y0221794D01*
X0244146Y0221487D01*
X0245409Y0221345D01*
X0245409Y0232832D01*
X0247009Y0232832D01*
X0247009Y0221345D01*
X0248273Y0221487D01*
X0249620Y0221794D01*
X0250924Y0222251D01*
X0252169Y0222850D01*
X0253338Y0223585D01*
X0254418Y0224446D01*
X0255395Y0225423D01*
X0256220Y0226458D01*
X0256220Y0145880D01*
X0252354Y0145880D01*
X0251299Y0144826D01*
X0251299Y0118369D01*
X0252354Y0117315D01*
X0256220Y0117315D01*
X0256220Y0105373D01*
X0255395Y0106408D01*
X0254418Y0107385D01*
X0253338Y0108246D01*
X0252169Y0108981D01*
X0250924Y0109581D01*
X0249620Y0110037D01*
X0248273Y0110345D01*
X0247009Y0110487D01*
X0247009Y0098999D01*
X0245409Y0098999D01*
X0245409Y0097399D01*
X0233922Y0097399D01*
X0234064Y0096136D01*
X0234372Y0094789D01*
X0234828Y0093485D01*
X0235427Y0092240D01*
X0236162Y0091070D01*
X0237024Y0089990D01*
X0238000Y0089013D01*
X0239081Y0088152D01*
X0240250Y0087417D01*
X0241495Y0086818D01*
X0242799Y0086361D01*
X0244146Y0086054D01*
X0245409Y0085912D01*
X0245409Y0097399D01*
X0247009Y0097399D01*
X0247009Y0085912D01*
X0248273Y0086054D01*
X0249620Y0086361D01*
X0250924Y0086818D01*
X0252169Y0087417D01*
X0253338Y0088152D01*
X0254418Y0089013D01*
X0255395Y0089990D01*
X0256220Y0091025D01*
X0256220Y0074601D01*
X0255874Y0075036D01*
X0254981Y0075929D01*
X0253993Y0076717D01*
X0252923Y0077389D01*
X0251785Y0077937D01*
X0250592Y0078355D01*
X0249360Y0078636D01*
X0248273Y0078758D01*
X0248273Y0068328D01*
X0246673Y0068328D01*
X0246673Y0066728D01*
X0248273Y0066728D01*
X0248273Y0056298D01*
X0249360Y0056421D01*
X0250592Y0056702D01*
X0251785Y0057119D01*
X0252923Y0057668D01*
X0253993Y0058340D01*
X0254981Y0059128D01*
X0255874Y0060021D01*
X0256220Y0060455D01*
X0256220Y0042406D01*
X0256106Y0040945D01*
X0255203Y0038167D01*
X0253486Y0035804D01*
X0251123Y0034088D01*
X0248345Y0033185D01*
X0246885Y0033070D01*
X0032936Y0033070D01*
X0031475Y0033185D01*
X0028697Y0034088D01*
X0030260Y0033580D02*
X0249561Y0033580D01*
X0252625Y0035178D02*
X0027196Y0035178D01*
X0025628Y0036777D02*
X0254193Y0036777D01*
X0255271Y0038375D02*
X0024550Y0038375D01*
X0024031Y0039974D02*
X0029130Y0039974D01*
X0029308Y0039796D02*
X0030925Y0039126D01*
X0032675Y0039126D01*
X0034292Y0039796D01*
X0035530Y0041034D01*
X0036200Y0042651D01*
X0036200Y0050401D01*
X0035530Y0052018D01*
X0034292Y0053256D01*
X0034186Y0053300D01*
X0054000Y0073115D01*
X0054000Y0107437D01*
X0044000Y0117437D01*
X0044000Y0117437D01*
X0042711Y0118726D01*
X0038909Y0118726D01*
X0038816Y0118819D01*
X0039323Y0119326D01*
X0044501Y0119326D01*
X0044998Y0118829D01*
X0046167Y0118345D01*
X0046870Y0118345D01*
X0054600Y0110615D01*
X0054600Y0069937D01*
X0039600Y0054937D01*
X0039600Y0053377D01*
X0039308Y0053256D01*
X0038070Y0052018D01*
X0037400Y0050401D01*
X0037400Y0042651D01*
X0038070Y0041034D01*
X0039308Y0039796D01*
X0040925Y0039126D01*
X0042675Y0039126D01*
X0044292Y0039796D01*
X0045530Y0041034D01*
X0046200Y0042651D01*
X0046200Y0050401D01*
X0045530Y0052018D01*
X0044292Y0053256D01*
X0044186Y0053300D01*
X0057711Y0066826D01*
X0059000Y0068115D01*
X0059000Y0112437D01*
X0049981Y0121456D01*
X0049981Y0122159D01*
X0049497Y0123328D01*
X0048602Y0124223D01*
X0047433Y0124707D01*
X0046167Y0124707D01*
X0044998Y0124223D01*
X0044501Y0123726D01*
X0039706Y0123726D01*
X0039629Y0123912D01*
X0039091Y0124450D01*
X0039148Y0124491D01*
X0039613Y0124956D01*
X0039999Y0125488D01*
X0040298Y0126074D01*
X0040501Y0126699D01*
X0040604Y0127349D01*
X0040604Y0127677D01*
X0034048Y0127677D01*
X0027492Y0127677D01*
X0027492Y0127349D01*
X0027595Y0126699D01*
X0027798Y0126074D01*
X0028097Y0125488D01*
X0028483Y0124956D01*
X0028948Y0124491D01*
X0029005Y0124450D01*
X0028467Y0123912D01*
X0027892Y0122524D01*
X0027892Y0121021D01*
X0028467Y0119632D01*
X0029280Y0118819D01*
X0028467Y0118007D01*
X0027892Y0116618D01*
X0027892Y0115115D01*
X0028467Y0113726D01*
X0029280Y0112914D01*
X0028467Y0112101D01*
X0027892Y0110712D01*
X0027892Y0109210D01*
X0028467Y0107821D01*
X0029530Y0106758D01*
X0030919Y0106183D01*
X0037177Y0106183D01*
X0038566Y0106758D01*
X0039629Y0107821D01*
X0040204Y0109210D01*
X0040204Y0110712D01*
X0039629Y0112101D01*
X0038816Y0112914D01*
X0039629Y0113726D01*
X0039877Y0114326D01*
X0040889Y0114326D01*
X0049600Y0105615D01*
X0049600Y0074937D01*
X0029600Y0054937D01*
X0029600Y0053377D01*
X0029308Y0053256D01*
X0028070Y0052018D01*
X0027400Y0050401D01*
X0027400Y0042651D01*
X0028070Y0041034D01*
X0029308Y0039796D01*
X0027847Y0041572D02*
X0023666Y0041572D01*
X0023600Y0043171D02*
X0027400Y0043171D01*
X0027400Y0044769D02*
X0023600Y0044769D01*
X0023600Y0046368D02*
X0027400Y0046368D01*
X0027400Y0047966D02*
X0023600Y0047966D01*
X0023600Y0049565D02*
X0027400Y0049565D01*
X0027716Y0051163D02*
X0023600Y0051163D01*
X0023600Y0052762D02*
X0028813Y0052762D01*
X0029600Y0054360D02*
X0023600Y0054360D01*
X0023600Y0055959D02*
X0030622Y0055959D01*
X0032220Y0057558D02*
X0023600Y0057558D01*
X0023600Y0059156D02*
X0033819Y0059156D01*
X0035417Y0060755D02*
X0023600Y0060755D01*
X0023600Y0062353D02*
X0037016Y0062353D01*
X0038614Y0063952D02*
X0023600Y0063952D01*
X0023600Y0065550D02*
X0040213Y0065550D01*
X0041811Y0067149D02*
X0023600Y0067149D01*
X0023600Y0068747D02*
X0043410Y0068747D01*
X0045008Y0070346D02*
X0035849Y0070346D01*
X0034411Y0070346D02*
X0032811Y0070346D01*
X0031373Y0070346D02*
X0023600Y0070346D01*
X0023600Y0071944D02*
X0027214Y0071944D01*
X0025125Y0073543D02*
X0023600Y0073543D01*
X0023600Y0075141D02*
X0023708Y0075141D01*
X0032811Y0075141D02*
X0034411Y0075141D01*
X0034411Y0073543D02*
X0032811Y0073543D01*
X0032811Y0071944D02*
X0034411Y0071944D01*
X0034411Y0076740D02*
X0032811Y0076740D01*
X0032811Y0078338D02*
X0034411Y0078338D01*
X0034411Y0079937D02*
X0032811Y0079937D01*
X0032811Y0081535D02*
X0034411Y0081535D01*
X0034411Y0083134D02*
X0049600Y0083134D01*
X0049600Y0084732D02*
X0045707Y0084732D01*
X0045285Y0086331D02*
X0049600Y0086331D01*
X0049600Y0087929D02*
X0044625Y0087929D01*
X0043691Y0089528D02*
X0049600Y0089528D01*
X0049600Y0091126D02*
X0042331Y0091126D01*
X0040380Y0092725D02*
X0049600Y0092725D01*
X0049600Y0094323D02*
X0036872Y0094323D01*
X0034411Y0094323D02*
X0032811Y0094323D01*
X0032811Y0092725D02*
X0034411Y0092725D01*
X0034411Y0091126D02*
X0032811Y0091126D01*
X0032811Y0089528D02*
X0034411Y0089528D01*
X0034411Y0087929D02*
X0032811Y0087929D01*
X0032811Y0086331D02*
X0034411Y0086331D01*
X0034411Y0084732D02*
X0032811Y0084732D01*
X0024891Y0091126D02*
X0023600Y0091126D01*
X0023600Y0092725D02*
X0026842Y0092725D01*
X0023600Y0094323D02*
X0030350Y0094323D01*
X0023600Y0095922D02*
X0049600Y0095922D01*
X0049600Y0097520D02*
X0023600Y0097520D01*
X0023600Y0099119D02*
X0049600Y0099119D01*
X0049600Y0100717D02*
X0023600Y0100717D01*
X0023600Y0102316D02*
X0049600Y0102316D01*
X0049600Y0103914D02*
X0023600Y0103914D01*
X0023600Y0105513D02*
X0049600Y0105513D01*
X0048103Y0107111D02*
X0038919Y0107111D01*
X0039997Y0108710D02*
X0046505Y0108710D01*
X0044906Y0110308D02*
X0040204Y0110308D01*
X0039709Y0111907D02*
X0043308Y0111907D01*
X0041709Y0113505D02*
X0039408Y0113505D01*
X0041800Y0116526D02*
X0036800Y0116526D01*
X0034048Y0115867D01*
X0028762Y0118301D02*
X0023600Y0118301D01*
X0023600Y0119899D02*
X0028356Y0119899D01*
X0027892Y0121498D02*
X0023600Y0121498D01*
X0023600Y0123096D02*
X0028129Y0123096D01*
X0028744Y0124695D02*
X0023600Y0124695D01*
X0023600Y0126293D02*
X0027727Y0126293D01*
X0027492Y0127678D02*
X0034048Y0127678D01*
X0034048Y0131855D01*
X0031341Y0131855D01*
X0030692Y0131753D01*
X0030066Y0131549D01*
X0029480Y0131251D01*
X0028948Y0130864D01*
X0028483Y0130399D01*
X0028097Y0129867D01*
X0027798Y0129281D01*
X0027595Y0128656D01*
X0027492Y0128006D01*
X0027492Y0127678D01*
X0027492Y0127892D02*
X0023600Y0127892D01*
X0023600Y0129491D02*
X0027905Y0129491D01*
X0029258Y0131089D02*
X0023600Y0131089D01*
X0023600Y0132688D02*
X0059600Y0132688D01*
X0059600Y0134286D02*
X0023600Y0134286D01*
X0023600Y0135885D02*
X0060547Y0135885D01*
X0060889Y0136226D02*
X0059600Y0134937D01*
X0059600Y0080615D01*
X0065300Y0074915D01*
X0065300Y0072369D01*
X0067643Y0070026D01*
X0070957Y0070026D01*
X0073300Y0072369D01*
X0073300Y0075683D01*
X0070957Y0078026D01*
X0068411Y0078026D01*
X0064000Y0082437D01*
X0064000Y0133115D01*
X0070211Y0139326D01*
X0075211Y0139326D01*
X0076500Y0140615D01*
X0086500Y0150615D01*
X0086500Y0165615D01*
X0099000Y0178115D01*
X0099000Y0184319D01*
X0100800Y0186119D01*
X0100800Y0189433D01*
X0098457Y0191776D01*
X0095143Y0191776D01*
X0092800Y0189433D01*
X0092800Y0186119D01*
X0094600Y0184319D01*
X0094600Y0179937D01*
X0083389Y0168726D01*
X0082100Y0167437D01*
X0082100Y0152437D01*
X0080800Y0151137D01*
X0080800Y0157322D01*
X0080191Y0158792D01*
X0079066Y0159917D01*
X0077596Y0160526D01*
X0076004Y0160526D01*
X0074534Y0159917D01*
X0073409Y0158792D01*
X0072800Y0157322D01*
X0072800Y0150530D01*
X0073409Y0149060D01*
X0074534Y0147935D01*
X0076004Y0147326D01*
X0076989Y0147326D01*
X0073389Y0143726D01*
X0068389Y0143726D01*
X0060889Y0136226D01*
X0062146Y0137483D02*
X0023600Y0137483D01*
X0023600Y0139082D02*
X0063744Y0139082D01*
X0065343Y0140680D02*
X0023600Y0140680D01*
X0023600Y0142279D02*
X0066941Y0142279D01*
X0069300Y0141526D02*
X0061800Y0134026D01*
X0061800Y0081526D01*
X0069300Y0074026D01*
X0072243Y0076740D02*
X0080874Y0076740D01*
X0081575Y0077955D02*
X0080075Y0075355D01*
X0079298Y0072456D01*
X0079298Y0069454D01*
X0080075Y0066555D01*
X0081575Y0063955D01*
X0083698Y0061833D01*
X0086297Y0060332D01*
X0089197Y0059555D01*
X0092198Y0059555D01*
X0095098Y0060332D01*
X0097697Y0061833D01*
X0099820Y0063955D01*
X0101321Y0066555D01*
X0102098Y0069454D01*
X0102098Y0072456D01*
X0101321Y0075355D01*
X0099820Y0077955D01*
X0097697Y0080077D01*
X0095098Y0081578D01*
X0092198Y0082355D01*
X0089197Y0082355D01*
X0086297Y0081578D01*
X0083698Y0080077D01*
X0081575Y0077955D01*
X0081959Y0078338D02*
X0068099Y0078338D01*
X0066501Y0079937D02*
X0071515Y0079937D01*
X0071603Y0079724D02*
X0071119Y0080893D01*
X0071119Y0082159D01*
X0071603Y0083328D01*
X0072498Y0084223D01*
X0073667Y0084707D01*
X0074370Y0084707D01*
X0074600Y0084937D01*
X0074600Y0085615D01*
X0064600Y0095615D01*
X0064600Y0132437D01*
X0065889Y0133726D01*
X0070889Y0138726D01*
X0075889Y0138726D01*
X0087100Y0149937D01*
X0087100Y0164937D01*
X0088389Y0166226D01*
X0107100Y0184937D01*
X0107100Y0192437D01*
X0108389Y0193726D01*
X0109600Y0194937D01*
X0109600Y0200508D01*
X0109534Y0200535D01*
X0108409Y0201660D01*
X0107800Y0203130D01*
X0107800Y0209922D01*
X0108409Y0211392D01*
X0109534Y0212517D01*
X0111004Y0213126D01*
X0112596Y0213126D01*
X0114066Y0212517D01*
X0115191Y0211392D01*
X0115800Y0209922D01*
X0115800Y0203130D01*
X0115191Y0201660D01*
X0114066Y0200535D01*
X0114000Y0200508D01*
X0114000Y0193115D01*
X0111500Y0190615D01*
X0111500Y0183115D01*
X0091500Y0163115D01*
X0091500Y0148115D01*
X0079000Y0135615D01*
X0077711Y0134326D01*
X0072711Y0134326D01*
X0069000Y0130615D01*
X0069000Y0097437D01*
X0077711Y0088726D01*
X0079000Y0087437D01*
X0079000Y0083115D01*
X0077481Y0081596D01*
X0077481Y0080893D01*
X0076997Y0079724D01*
X0076102Y0078829D01*
X0074933Y0078345D01*
X0073667Y0078345D01*
X0072498Y0078829D01*
X0071603Y0079724D01*
X0071119Y0081535D02*
X0064902Y0081535D01*
X0064000Y0083134D02*
X0071523Y0083134D01*
X0074300Y0081526D02*
X0076800Y0084026D01*
X0076800Y0086526D01*
X0066800Y0096526D01*
X0066800Y0131526D01*
X0071800Y0136526D01*
X0076800Y0136526D01*
X0089300Y0149026D01*
X0089300Y0164026D01*
X0109300Y0184026D01*
X0109300Y0191526D01*
X0111800Y0194026D01*
X0111800Y0206526D01*
X0115800Y0206219D02*
X0117800Y0206219D01*
X0117800Y0204621D02*
X0115800Y0204621D01*
X0115755Y0203022D02*
X0117845Y0203022D01*
X0117800Y0203130D02*
X0118409Y0201660D01*
X0119534Y0200535D01*
X0121004Y0199926D01*
X0122596Y0199926D01*
X0124066Y0200535D01*
X0125191Y0201660D01*
X0125800Y0203130D01*
X0125800Y0209922D01*
X0125191Y0211392D01*
X0124066Y0212517D01*
X0122596Y0213126D01*
X0121004Y0213126D01*
X0119534Y0212517D01*
X0118409Y0211392D01*
X0117800Y0209922D01*
X0117800Y0203130D01*
X0118646Y0201424D02*
X0114954Y0201424D01*
X0114000Y0199825D02*
X0129600Y0199825D01*
X0129600Y0200508D02*
X0129600Y0197437D01*
X0127139Y0194976D01*
X0126956Y0194976D01*
X0126928Y0195044D01*
X0125865Y0196107D01*
X0124477Y0196682D01*
X0118218Y0196682D01*
X0116829Y0196107D01*
X0115766Y0195044D01*
X0115191Y0193655D01*
X0115191Y0192152D01*
X0115766Y0190764D01*
X0116304Y0190226D01*
X0116248Y0190185D01*
X0115783Y0189720D01*
X0115396Y0189188D01*
X0115097Y0188602D01*
X0114894Y0187977D01*
X0114791Y0187327D01*
X0114791Y0186998D01*
X0114791Y0186670D01*
X0114894Y0186020D01*
X0115097Y0185395D01*
X0115396Y0184809D01*
X0115783Y0184277D01*
X0116248Y0183812D01*
X0116780Y0183425D01*
X0117366Y0183127D01*
X0117991Y0182923D01*
X0118640Y0182820D01*
X0121347Y0182820D01*
X0121347Y0186998D01*
X0121347Y0186998D01*
X0114791Y0186998D01*
X0121347Y0186998D01*
X0121347Y0186998D01*
X0121347Y0182820D01*
X0124054Y0182820D01*
X0124704Y0182923D01*
X0125329Y0183127D01*
X0125915Y0183425D01*
X0126447Y0183812D01*
X0126912Y0184277D01*
X0127298Y0184809D01*
X0127597Y0185395D01*
X0127800Y0186020D01*
X0127903Y0186670D01*
X0127903Y0186998D01*
X0121347Y0186998D01*
X0121347Y0186998D01*
X0127903Y0186998D01*
X0127903Y0187327D01*
X0127800Y0187977D01*
X0127597Y0188602D01*
X0127298Y0189188D01*
X0126912Y0189720D01*
X0126447Y0190185D01*
X0126390Y0190226D01*
X0126740Y0190576D01*
X0128961Y0190576D01*
X0130250Y0191865D01*
X0134000Y0195615D01*
X0134000Y0200508D01*
X0134066Y0200535D01*
X0135191Y0201660D01*
X0135800Y0203130D01*
X0135800Y0209922D01*
X0135191Y0211392D01*
X0134066Y0212517D01*
X0132596Y0213126D01*
X0131004Y0213126D01*
X0129534Y0212517D01*
X0128409Y0211392D01*
X0127800Y0209922D01*
X0127800Y0203130D01*
X0128409Y0201660D01*
X0129534Y0200535D01*
X0129600Y0200508D01*
X0128646Y0201424D02*
X0124954Y0201424D01*
X0125755Y0203022D02*
X0127845Y0203022D01*
X0127800Y0204621D02*
X0125800Y0204621D01*
X0125800Y0206219D02*
X0127800Y0206219D01*
X0127800Y0207818D02*
X0125800Y0207818D01*
X0125800Y0209416D02*
X0127800Y0209416D01*
X0128253Y0211015D02*
X0125347Y0211015D01*
X0123834Y0212613D02*
X0129766Y0212613D01*
X0133834Y0212613D02*
X0139766Y0212613D01*
X0139534Y0212517D02*
X0138409Y0211392D01*
X0137800Y0209922D01*
X0137800Y0203130D01*
X0138409Y0201660D01*
X0139534Y0200535D01*
X0139783Y0200432D01*
X0142100Y0198115D01*
X0142100Y0196823D01*
X0141123Y0197801D01*
X0139300Y0197801D01*
X0139300Y0193401D01*
X0139300Y0193401D01*
X0139300Y0197801D01*
X0137477Y0197801D01*
X0134900Y0195224D01*
X0134900Y0193401D01*
X0139300Y0193401D01*
X0139300Y0193401D01*
X0139300Y0189001D01*
X0141123Y0189001D01*
X0142100Y0189978D01*
X0142100Y0189937D01*
X0140889Y0188726D01*
X0133389Y0188726D01*
X0120889Y0176226D01*
X0119600Y0174937D01*
X0119600Y0169029D01*
X0119464Y0104801D01*
X0115293Y0100630D01*
X0115130Y0100698D01*
X0113470Y0100698D01*
X0111937Y0100063D01*
X0110763Y0098889D01*
X0110128Y0097356D01*
X0110128Y0095696D01*
X0110763Y0094163D01*
X0111937Y0092989D01*
X0113470Y0092354D01*
X0115130Y0092354D01*
X0116663Y0092989D01*
X0117837Y0094163D01*
X0118472Y0095696D01*
X0118472Y0097356D01*
X0118404Y0097519D01*
X0123217Y0102332D01*
X0123860Y0102972D01*
X0123860Y0102975D01*
X0123862Y0102977D01*
X0123862Y0103885D01*
X0123998Y0168113D01*
X0124000Y0168115D01*
X0124000Y0169025D01*
X0124002Y0169933D01*
X0124000Y0169935D01*
X0124000Y0173115D01*
X0135211Y0184326D01*
X0142711Y0184326D01*
X0144000Y0185615D01*
X0146500Y0188115D01*
X0146500Y0190544D01*
X0147643Y0189401D01*
X0150957Y0189401D01*
X0153300Y0191744D01*
X0153300Y0192593D01*
X0154682Y0193975D01*
X0155200Y0195225D01*
X0155200Y0201682D01*
X0155800Y0203130D01*
X0155800Y0209922D01*
X0155191Y0211392D01*
X0154066Y0212517D01*
X0152596Y0213126D01*
X0151004Y0213126D01*
X0149534Y0212517D01*
X0148409Y0211392D01*
X0147800Y0209922D01*
X0147800Y0203130D01*
X0148400Y0201682D01*
X0148400Y0197401D01*
X0147643Y0197401D01*
X0146500Y0196258D01*
X0146500Y0199937D01*
X0145211Y0201226D01*
X0144984Y0201453D01*
X0145191Y0201660D01*
X0145800Y0203130D01*
X0145800Y0209922D01*
X0145191Y0211392D01*
X0144066Y0212517D01*
X0142596Y0213126D01*
X0141004Y0213126D01*
X0139534Y0212517D01*
X0138253Y0211015D02*
X0135347Y0211015D01*
X0135800Y0209416D02*
X0137800Y0209416D01*
X0137800Y0207818D02*
X0135800Y0207818D01*
X0135800Y0206219D02*
X0137800Y0206219D01*
X0137800Y0204621D02*
X0135800Y0204621D01*
X0135755Y0203022D02*
X0137845Y0203022D01*
X0138646Y0201424D02*
X0134954Y0201424D01*
X0134000Y0199825D02*
X0140390Y0199825D01*
X0141800Y0201526D02*
X0144300Y0199026D01*
X0144300Y0189026D01*
X0141800Y0186526D01*
X0134300Y0186526D01*
X0121800Y0174026D01*
X0121800Y0169026D01*
X0121662Y0103888D01*
X0114300Y0096526D01*
X0116024Y0092725D02*
X0126300Y0092725D01*
X0126300Y0094323D02*
X0117903Y0094323D01*
X0118472Y0095922D02*
X0126300Y0095922D01*
X0126300Y0097520D02*
X0118406Y0097520D01*
X0120004Y0099119D02*
X0126300Y0099119D01*
X0126300Y0100717D02*
X0121603Y0100717D01*
X0123201Y0102316D02*
X0126300Y0102316D01*
X0126300Y0103914D02*
X0123862Y0103914D01*
X0123866Y0105513D02*
X0126300Y0105513D01*
X0126300Y0107111D02*
X0123869Y0107111D01*
X0123872Y0108710D02*
X0126300Y0108710D01*
X0126300Y0110308D02*
X0123876Y0110308D01*
X0123879Y0111907D02*
X0126300Y0111907D01*
X0126300Y0113505D02*
X0123883Y0113505D01*
X0123886Y0115104D02*
X0126300Y0115104D01*
X0126300Y0116702D02*
X0123889Y0116702D01*
X0123893Y0118301D02*
X0126300Y0118301D01*
X0126300Y0119899D02*
X0123896Y0119899D01*
X0123899Y0121498D02*
X0126300Y0121498D01*
X0126300Y0123096D02*
X0123903Y0123096D01*
X0123906Y0124695D02*
X0126300Y0124695D01*
X0126300Y0126293D02*
X0123910Y0126293D01*
X0123913Y0127892D02*
X0126300Y0127892D01*
X0126300Y0128455D02*
X0126300Y0086965D01*
X0126255Y0086814D01*
X0126300Y0086373D01*
X0126300Y0085929D01*
X0126360Y0085783D01*
X0126465Y0084762D01*
X0125552Y0083848D01*
X0125050Y0084538D01*
X0124438Y0085150D01*
X0123738Y0085659D01*
X0122966Y0086052D01*
X0122143Y0086320D01*
X0121288Y0086455D01*
X0121055Y0086455D01*
X0121055Y0081155D01*
X0120655Y0081155D01*
X0120655Y0080755D01*
X0121055Y0080755D01*
X0121055Y0075455D01*
X0121288Y0075455D01*
X0122143Y0075591D01*
X0122648Y0075755D01*
X0122461Y0075659D01*
X0121760Y0075150D01*
X0121148Y0074538D01*
X0120639Y0073838D01*
X0120246Y0073066D01*
X0119979Y0072243D01*
X0119843Y0071388D01*
X0119843Y0071155D01*
X0125143Y0071155D01*
X0125143Y0070755D01*
X0119843Y0070755D01*
X0119843Y0070522D01*
X0119979Y0069667D01*
X0120246Y0068844D01*
X0120639Y0068072D01*
X0120764Y0067901D01*
X0116036Y0067901D01*
X0114000Y0069937D01*
X0114000Y0084937D01*
X0112711Y0086226D01*
X0109981Y0088956D01*
X0109981Y0089659D01*
X0109497Y0090828D01*
X0108602Y0091723D01*
X0107433Y0092207D01*
X0106167Y0092207D01*
X0104998Y0091723D01*
X0104103Y0090828D01*
X0103619Y0089659D01*
X0103619Y0088393D01*
X0104103Y0087224D01*
X0104998Y0086329D01*
X0106167Y0085845D01*
X0106870Y0085845D01*
X0109600Y0083115D01*
X0109600Y0068115D01*
X0114014Y0063701D01*
X0115836Y0063701D01*
X0116036Y0063901D01*
X0116589Y0063901D01*
X0116532Y0063844D01*
X0115755Y0061970D01*
X0115755Y0059941D01*
X0116532Y0058066D01*
X0117966Y0056632D01*
X0119841Y0055855D01*
X0121870Y0055855D01*
X0123744Y0056632D01*
X0125179Y0058066D01*
X0125363Y0058511D01*
X0125547Y0058066D01*
X0126982Y0056632D01*
X0128856Y0055855D01*
X0130885Y0055855D01*
X0132760Y0056632D01*
X0134194Y0058066D01*
X0134379Y0058511D01*
X0134563Y0058066D01*
X0135998Y0056632D01*
X0137872Y0055855D01*
X0139360Y0055855D01*
X0150889Y0044326D01*
X0200211Y0044326D01*
X0201500Y0045615D01*
X0211500Y0055615D01*
X0211500Y0107437D01*
X0210211Y0108726D01*
X0199000Y0119937D01*
X0199000Y0146865D01*
X0200211Y0148076D01*
X0210211Y0148076D01*
X0211500Y0149365D01*
X0216500Y0154365D01*
X0216500Y0168115D01*
X0226121Y0177736D01*
X0225900Y0177202D01*
X0225900Y0150965D01*
X0222756Y0147768D01*
X0200354Y0147768D01*
X0199534Y0146948D01*
X0199534Y0121379D01*
X0200354Y0120559D01*
X0222722Y0120559D01*
X0213389Y0111226D01*
X0212100Y0109937D01*
X0212100Y0054937D01*
X0200889Y0043726D01*
X0145477Y0043726D01*
X0142437Y0048287D01*
X0142481Y0048393D01*
X0142481Y0049659D01*
X0141997Y0050828D01*
X0141102Y0051723D01*
X0139933Y0052207D01*
X0138667Y0052207D01*
X0137498Y0051723D01*
X0136603Y0050828D01*
X0136119Y0049659D01*
X0136119Y0048393D01*
X0136603Y0047224D01*
X0137498Y0046329D01*
X0138667Y0045845D01*
X0138777Y0045845D01*
X0142100Y0040860D01*
X0142100Y0040615D01*
X0142590Y0040124D01*
X0142975Y0039547D01*
X0143215Y0039499D01*
X0143389Y0039326D01*
X0144082Y0039326D01*
X0144762Y0039190D01*
X0144966Y0039326D01*
X0202711Y0039326D01*
X0204000Y0040615D01*
X0216500Y0053115D01*
X0216500Y0108115D01*
X0229000Y0120615D01*
X0229000Y0133115D01*
X0246730Y0150845D01*
X0247433Y0150845D01*
X0248602Y0151329D01*
X0249497Y0152224D01*
X0249981Y0153393D01*
X0249981Y0154659D01*
X0249497Y0155828D01*
X0248602Y0156723D01*
X0247433Y0157207D01*
X0246167Y0157207D01*
X0244998Y0156723D01*
X0244103Y0155828D01*
X0243619Y0154659D01*
X0243619Y0153956D01*
X0225889Y0136226D01*
X0224600Y0134937D01*
X0224600Y0122437D01*
X0223594Y0121431D01*
X0223594Y0139157D01*
X0224722Y0139157D01*
X0226266Y0139796D01*
X0227447Y0140978D01*
X0227760Y0141733D01*
X0240357Y0154539D01*
X0241877Y0155169D01*
X0243157Y0156449D01*
X0243850Y0158121D01*
X0243850Y0159931D01*
X0243157Y0161603D01*
X0241877Y0162883D01*
X0240205Y0163576D01*
X0238395Y0163576D01*
X0236723Y0162883D01*
X0235443Y0161603D01*
X0234772Y0159984D01*
X0232700Y0157878D01*
X0232700Y0175118D01*
X0238726Y0181144D01*
X0239682Y0182100D01*
X0240200Y0183350D01*
X0240200Y0187428D01*
X0240330Y0187249D01*
X0240795Y0186784D01*
X0241327Y0186398D01*
X0241913Y0186099D01*
X0242538Y0185896D01*
X0243188Y0185793D01*
X0245894Y0185793D01*
X0245894Y0189971D01*
X0245895Y0189971D01*
X0252450Y0189971D01*
X0252450Y0190300D01*
X0252348Y0190949D01*
X0252144Y0191575D01*
X0251846Y0192161D01*
X0251459Y0192693D01*
X0250994Y0193158D01*
X0250938Y0193199D01*
X0251475Y0193736D01*
X0252050Y0195125D01*
X0252050Y0196628D01*
X0256220Y0196628D01*
X0256220Y0198227D02*
X0251265Y0198227D01*
X0251475Y0198016D02*
X0250412Y0199079D01*
X0249024Y0199654D01*
X0242765Y0199654D01*
X0241490Y0199126D01*
X0240200Y0199126D01*
X0240200Y0217202D01*
X0239682Y0218452D01*
X0238726Y0219408D01*
X0232700Y0225434D01*
X0232700Y0242618D01*
X0242182Y0252100D01*
X0242700Y0253350D01*
X0242700Y0256769D01*
X0243300Y0257369D01*
X0243300Y0260683D01*
X0243200Y0260783D01*
X0243200Y0269769D01*
X0243300Y0269869D01*
X0243300Y0273183D01*
X0240957Y0275526D01*
X0237643Y0275526D01*
X0235300Y0273183D01*
X0235300Y0269869D01*
X0235400Y0269769D01*
X0235400Y0260783D01*
X0235300Y0260683D01*
X0235300Y0257369D01*
X0235900Y0256769D01*
X0235900Y0255434D01*
X0227374Y0246908D01*
X0226418Y0245952D01*
X0225900Y0244702D01*
X0225900Y0223350D01*
X0226121Y0222816D01*
X0224000Y0224937D01*
X0224000Y0230508D01*
X0224066Y0230535D01*
X0225191Y0231660D01*
X0225800Y0233130D01*
X0225800Y0239922D01*
X0225191Y0241392D01*
X0224066Y0242517D01*
X0222596Y0243126D01*
X0221004Y0243126D01*
X0219534Y0242517D01*
X0218409Y0241392D01*
X0217800Y0239922D01*
X0217800Y0233130D01*
X0218409Y0231660D01*
X0219534Y0230535D01*
X0219600Y0230508D01*
X0219600Y0223115D01*
X0229600Y0213115D01*
X0229600Y0187437D01*
X0213389Y0171226D01*
X0212100Y0169937D01*
X0212100Y0156187D01*
X0208389Y0152476D01*
X0198389Y0152476D01*
X0195889Y0149976D01*
X0194600Y0148687D01*
X0194600Y0118115D01*
X0207100Y0105615D01*
X0207100Y0057437D01*
X0198389Y0048726D01*
X0152711Y0048726D01*
X0143257Y0058180D01*
X0143394Y0058511D01*
X0143579Y0058066D01*
X0145013Y0056632D01*
X0146840Y0055875D01*
X0152100Y0050615D01*
X0153389Y0049326D01*
X0197711Y0049326D01*
X0205211Y0056826D01*
X0206500Y0058115D01*
X0206500Y0104937D01*
X0194000Y0117437D01*
X0194000Y0149365D01*
X0197711Y0153076D01*
X0207711Y0153076D01*
X0210211Y0155576D01*
X0211500Y0156865D01*
X0211500Y0175603D01*
X0212477Y0174626D01*
X0214300Y0174626D01*
X0216123Y0174626D01*
X0218700Y0177203D01*
X0218700Y0179026D01*
X0218700Y0180849D01*
X0216123Y0183426D01*
X0214300Y0183426D01*
X0214300Y0179026D01*
X0214300Y0179026D01*
X0214300Y0183426D01*
X0212477Y0183426D01*
X0211500Y0182448D01*
X0211500Y0183115D01*
X0212711Y0184326D01*
X0220211Y0184326D01*
X0227711Y0191826D01*
X0229000Y0193115D01*
X0229000Y0212437D01*
X0212750Y0228687D01*
X0211511Y0229926D01*
X0212596Y0229926D01*
X0214066Y0230535D01*
X0215191Y0231660D01*
X0215800Y0233130D01*
X0215800Y0239922D01*
X0215191Y0241392D01*
X0214066Y0242517D01*
X0213817Y0242620D01*
X0179000Y0277437D01*
X0177711Y0278726D01*
X0148389Y0278726D01*
X0144642Y0274979D01*
X0144002Y0274376D01*
X0144001Y0274338D01*
X0143975Y0274312D01*
X0143975Y0273433D01*
X0143953Y0272690D01*
X0143876Y0272658D01*
X0143064Y0271845D01*
X0142251Y0272658D01*
X0140863Y0273233D01*
X0139360Y0273233D01*
X0137971Y0272658D01*
X0137158Y0271845D01*
X0136346Y0272658D01*
X0134957Y0273233D01*
X0133454Y0273233D01*
X0132065Y0272658D01*
X0131253Y0271845D01*
X0130440Y0272658D01*
X0129051Y0273233D01*
X0127549Y0273233D01*
X0126160Y0272658D01*
X0125347Y0271845D01*
X0124535Y0272658D01*
X0123146Y0273233D01*
X0121643Y0273233D01*
X0120254Y0272658D01*
X0119442Y0271845D01*
X0118629Y0272658D01*
X0117240Y0273233D01*
X0115737Y0273233D01*
X0114349Y0272658D01*
X0113286Y0271595D01*
X0112711Y0270207D01*
X0112711Y0263948D01*
X0113286Y0262559D01*
X0113764Y0262081D01*
X0113800Y0261442D01*
X0113800Y0260929D01*
X0113833Y0260849D01*
X0113838Y0260762D01*
X0114060Y0260300D01*
X0114257Y0259827D01*
X0114318Y0259765D01*
X0114356Y0259687D01*
X0114738Y0259345D01*
X0118007Y0256077D01*
X0118851Y0255233D01*
X0119953Y0254776D01*
X0125557Y0254776D01*
X0126607Y0253726D01*
X0100211Y0253726D01*
X0092014Y0261923D01*
X0092719Y0262628D01*
X0093294Y0264017D01*
X0093294Y0270275D01*
X0092719Y0271664D01*
X0091657Y0272727D01*
X0090268Y0273302D01*
X0088765Y0273302D01*
X0087376Y0272727D01*
X0086839Y0272189D01*
X0086798Y0272246D01*
X0086333Y0272711D01*
X0085801Y0273097D01*
X0085215Y0273396D01*
X0084589Y0273599D01*
X0083940Y0273702D01*
X0083611Y0273702D01*
X0083282Y0273702D01*
X0082633Y0273599D01*
X0082007Y0273396D01*
X0081421Y0273097D01*
X0080889Y0272711D01*
X0080424Y0272246D01*
X0080383Y0272189D01*
X0079846Y0272727D01*
X0078457Y0273302D01*
X0076954Y0273302D01*
X0075565Y0272727D01*
X0075028Y0272189D01*
X0074987Y0272246D01*
X0074522Y0272711D01*
X0073990Y0273097D01*
X0073404Y0273396D01*
X0072778Y0273599D01*
X0072129Y0273702D01*
X0071800Y0273702D01*
X0071800Y0267146D01*
X0071800Y0260590D01*
X0072129Y0260590D01*
X0072778Y0260693D01*
X0073404Y0260896D01*
X0073990Y0261195D01*
X0074522Y0261581D01*
X0074987Y0262046D01*
X0075028Y0262103D01*
X0075494Y0261637D01*
X0075506Y0261164D01*
X0075506Y0260280D01*
X0075528Y0260258D01*
X0075529Y0260226D01*
X0076169Y0259617D01*
X0076794Y0258991D01*
X0076826Y0258991D01*
X0079731Y0256226D01*
X0072711Y0256226D01*
X0068341Y0260596D01*
X0068295Y0261826D01*
X0068572Y0262103D01*
X0068613Y0262046D01*
X0069078Y0261581D01*
X0069610Y0261195D01*
X0070196Y0260896D01*
X0070822Y0260693D01*
X0071471Y0260590D01*
X0071800Y0260590D01*
X0071800Y0267146D01*
X0071800Y0267146D01*
X0071800Y0267146D01*
X0071800Y0273702D01*
X0071471Y0273702D01*
X0070822Y0273599D01*
X0070196Y0273396D01*
X0069610Y0273097D01*
X0069078Y0272711D01*
X0068613Y0272246D01*
X0068572Y0272189D01*
X0068035Y0272727D01*
X0066646Y0273302D01*
X0065143Y0273302D01*
X0063754Y0272727D01*
X0062692Y0271664D01*
X0062117Y0270275D01*
X0062117Y0264017D01*
X0062692Y0262628D01*
X0063754Y0261565D01*
X0063904Y0261503D01*
X0063975Y0259610D01*
X0063975Y0258740D01*
X0064009Y0258706D01*
X0064011Y0258658D01*
X0064648Y0258066D01*
X0069600Y0253115D01*
X0070889Y0251826D01*
X0078389Y0251826D01*
X0082100Y0248115D01*
X0082100Y0230615D01*
X0086475Y0226240D01*
X0087764Y0224951D01*
X0123876Y0224951D01*
X0124373Y0224454D01*
X0125542Y0223970D01*
X0126808Y0223970D01*
X0127977Y0224454D01*
X0128872Y0225349D01*
X0129356Y0226518D01*
X0129356Y0227784D01*
X0128872Y0228953D01*
X0127977Y0229848D01*
X0126808Y0230332D01*
X0125542Y0230332D01*
X0124373Y0229848D01*
X0123876Y0229351D01*
X0089586Y0229351D01*
X0086500Y0232437D01*
X0086500Y0249783D01*
X0090263Y0246201D01*
X0090889Y0245576D01*
X0090920Y0245576D01*
X0090943Y0245554D01*
X0091827Y0245576D01*
X0124639Y0245576D01*
X0128616Y0241599D01*
X0128409Y0241392D01*
X0127800Y0239922D01*
X0127800Y0233130D01*
X0128409Y0231660D01*
X0129534Y0230535D01*
X0131004Y0229926D01*
X0132596Y0229926D01*
X0134066Y0230535D01*
X0135191Y0231660D01*
X0135800Y0233130D01*
X0135800Y0239415D01*
X0137800Y0237415D01*
X0137800Y0233130D01*
X0138409Y0231660D01*
X0139534Y0230535D01*
X0141004Y0229926D01*
X0142596Y0229926D01*
X0144066Y0230535D01*
X0145191Y0231660D01*
X0145800Y0233130D01*
X0145800Y0239922D01*
X0145191Y0241392D01*
X0144307Y0242276D01*
X0148727Y0242276D01*
X0148444Y0241992D01*
X0148037Y0241432D01*
X0147722Y0240815D01*
X0147508Y0240156D01*
X0147400Y0239472D01*
X0147400Y0236526D01*
X0151800Y0236526D01*
X0156200Y0236526D01*
X0156200Y0239472D01*
X0156092Y0240156D01*
X0155878Y0240815D01*
X0155563Y0241432D01*
X0155156Y0241992D01*
X0154873Y0242276D01*
X0159293Y0242276D01*
X0158409Y0241392D01*
X0157800Y0239922D01*
X0157800Y0233130D01*
X0158409Y0231660D01*
X0159534Y0230535D01*
X0159783Y0230432D01*
X0167100Y0223115D01*
X0167739Y0222476D01*
X0097086Y0222476D01*
X0096500Y0223062D01*
X0095211Y0224351D01*
X0038206Y0224351D01*
X0037459Y0224458D01*
X0037317Y0224351D01*
X0037139Y0224351D01*
X0036605Y0223817D01*
X0032211Y0220522D01*
X0032207Y0220526D01*
X0028893Y0220526D01*
X0026550Y0218183D01*
X0026550Y0214869D01*
X0028893Y0212526D01*
X0032207Y0212526D01*
X0034550Y0214869D01*
X0034550Y0216776D01*
X0038783Y0219951D01*
X0039568Y0219951D01*
X0037800Y0218183D01*
X0037800Y0214869D01*
X0040143Y0212526D01*
X0043457Y0212526D01*
X0045800Y0214869D01*
X0045800Y0216266D01*
X0047956Y0216334D01*
X0090855Y0216334D01*
X0092101Y0215022D01*
X0092101Y0214987D01*
X0092725Y0214364D01*
X0093332Y0213725D01*
X0093367Y0213724D01*
X0093391Y0213700D01*
X0094273Y0213701D01*
X0095154Y0213678D01*
X0095179Y0213702D01*
X0198759Y0213833D01*
X0199600Y0213060D01*
X0199600Y0212544D01*
X0199534Y0212517D01*
X0198409Y0211392D01*
X0197800Y0209922D01*
X0197800Y0203130D01*
X0198409Y0201660D01*
X0199534Y0200535D01*
X0201004Y0199926D01*
X0202596Y0199926D01*
X0204066Y0200535D01*
X0205191Y0201660D01*
X0205800Y0203130D01*
X0205800Y0209922D01*
X0205191Y0211392D01*
X0204066Y0212517D01*
X0204000Y0212544D01*
X0204000Y0213169D01*
X0204036Y0213208D01*
X0204000Y0214072D01*
X0204000Y0214937D01*
X0203962Y0214975D01*
X0203960Y0215029D01*
X0203323Y0215614D01*
X0202711Y0216226D01*
X0202657Y0216226D01*
X0201137Y0217623D01*
X0200683Y0218076D01*
X0204639Y0218076D01*
X0209600Y0213115D01*
X0209600Y0212544D01*
X0209534Y0212517D01*
X0208409Y0211392D01*
X0207800Y0209922D01*
X0207800Y0203130D01*
X0208409Y0201660D01*
X0209534Y0200535D01*
X0211004Y0199926D01*
X0212596Y0199926D01*
X0214066Y0200535D01*
X0214600Y0201069D01*
X0214600Y0197401D01*
X0212643Y0197401D01*
X0210300Y0195058D01*
X0210300Y0191744D01*
X0212643Y0189401D01*
X0215957Y0189401D01*
X0218300Y0191744D01*
X0218300Y0194290D01*
X0219000Y0194990D01*
X0219000Y0201069D01*
X0219534Y0200535D01*
X0221004Y0199926D01*
X0222596Y0199926D01*
X0224066Y0200535D01*
X0224600Y0201069D01*
X0224600Y0194937D01*
X0218389Y0188726D01*
X0210889Y0188726D01*
X0209600Y0187437D01*
X0207100Y0184937D01*
X0207100Y0181883D01*
X0205957Y0183026D01*
X0204543Y0183026D01*
X0195374Y0192194D01*
X0194272Y0192651D01*
X0191557Y0192651D01*
X0191166Y0193042D01*
X0189696Y0193651D01*
X0184800Y0193651D01*
X0184800Y0201269D01*
X0185191Y0201660D01*
X0185800Y0203130D01*
X0185800Y0209922D01*
X0185191Y0211392D01*
X0184066Y0212517D01*
X0182596Y0213126D01*
X0181004Y0213126D01*
X0179534Y0212517D01*
X0178409Y0211392D01*
X0177800Y0209922D01*
X0177800Y0203130D01*
X0178409Y0201660D01*
X0178800Y0201269D01*
X0178800Y0189054D01*
X0179257Y0187952D01*
X0180101Y0187108D01*
X0180930Y0186764D01*
X0181434Y0186260D01*
X0182904Y0185651D01*
X0189696Y0185651D01*
X0191166Y0186260D01*
X0191557Y0186651D01*
X0192432Y0186651D01*
X0200300Y0178783D01*
X0200300Y0177369D01*
X0202643Y0175026D01*
X0205957Y0175026D01*
X0207100Y0176169D01*
X0207100Y0158687D01*
X0205889Y0157476D01*
X0195889Y0157476D01*
X0194600Y0156187D01*
X0189600Y0151187D01*
X0189600Y0115615D01*
X0190889Y0114326D01*
X0202100Y0103115D01*
X0202100Y0059937D01*
X0195889Y0053726D01*
X0155211Y0053726D01*
X0151548Y0057389D01*
X0152226Y0058066D01*
X0152410Y0058511D01*
X0152595Y0058066D01*
X0154029Y0056632D01*
X0155904Y0055855D01*
X0157933Y0055855D01*
X0158932Y0056269D01*
X0159046Y0056169D01*
X0159639Y0055576D01*
X0159723Y0055576D01*
X0159787Y0055520D01*
X0160623Y0055576D01*
X0178251Y0055576D01*
X0178748Y0055079D01*
X0179917Y0054595D01*
X0181183Y0054595D01*
X0182352Y0055079D01*
X0183247Y0055974D01*
X0183731Y0057143D01*
X0183731Y0058409D01*
X0183247Y0059578D01*
X0182352Y0060473D01*
X0181183Y0060957D01*
X0179917Y0060957D01*
X0178748Y0060473D01*
X0178251Y0059976D01*
X0162018Y0059976D01*
X0162018Y0061970D01*
X0161242Y0063844D01*
X0159807Y0065279D01*
X0157933Y0066055D01*
X0155904Y0066055D01*
X0154029Y0065279D01*
X0152595Y0063844D01*
X0152410Y0063399D01*
X0152226Y0063844D01*
X0150791Y0065279D01*
X0148917Y0066055D01*
X0146888Y0066055D01*
X0145013Y0065279D01*
X0143579Y0063844D01*
X0143394Y0063399D01*
X0143210Y0063844D01*
X0141776Y0065279D01*
X0139901Y0066055D01*
X0137872Y0066055D01*
X0135998Y0065279D01*
X0134563Y0063844D01*
X0134379Y0063399D01*
X0134194Y0063844D01*
X0132760Y0065279D01*
X0131877Y0065644D01*
X0132456Y0066223D01*
X0133345Y0065855D01*
X0135374Y0065855D01*
X0137248Y0066632D01*
X0138683Y0068066D01*
X0138867Y0068511D01*
X0139051Y0068066D01*
X0140486Y0066632D01*
X0142360Y0065855D01*
X0144389Y0065855D01*
X0146264Y0066632D01*
X0147698Y0068066D01*
X0147883Y0068511D01*
X0148067Y0068066D01*
X0149502Y0066632D01*
X0151376Y0065855D01*
X0153405Y0065855D01*
X0155279Y0066632D01*
X0156714Y0068066D01*
X0156898Y0068511D01*
X0157083Y0068066D01*
X0158517Y0066632D01*
X0160392Y0065855D01*
X0162421Y0065855D01*
X0164295Y0066632D01*
X0165730Y0068066D01*
X0166506Y0069941D01*
X0166506Y0071970D01*
X0166169Y0072784D01*
X0166500Y0073115D01*
X0166500Y0087437D01*
X0165211Y0088726D01*
X0159000Y0094937D01*
X0159000Y0108115D01*
X0160211Y0109326D01*
X0161200Y0109326D01*
X0160763Y0108889D01*
X0160128Y0107356D01*
X0160128Y0105696D01*
X0160763Y0104163D01*
X0161937Y0102989D01*
X0163470Y0102354D01*
X0165130Y0102354D01*
X0165786Y0102626D01*
X0173793Y0102626D01*
X0173893Y0102526D01*
X0177207Y0102526D01*
X0179550Y0104869D01*
X0179550Y0108183D01*
X0177207Y0110526D01*
X0173893Y0110526D01*
X0173793Y0110426D01*
X0168811Y0110426D01*
X0169000Y0110615D01*
X0174000Y0115615D01*
X0174000Y0137437D01*
X0169000Y0142437D01*
X0167711Y0143726D01*
X0167400Y0143726D01*
X0167837Y0144163D01*
X0168472Y0145696D01*
X0168472Y0147356D01*
X0167837Y0148889D01*
X0166663Y0150063D01*
X0165130Y0150698D01*
X0163470Y0150698D01*
X0161937Y0150063D01*
X0160763Y0148889D01*
X0160128Y0147356D01*
X0160128Y0145696D01*
X0160763Y0144163D01*
X0161200Y0143726D01*
X0160211Y0143726D01*
X0156500Y0147437D01*
X0156500Y0165615D01*
X0165211Y0174326D01*
X0172711Y0174326D01*
X0174000Y0175615D01*
X0179000Y0180615D01*
X0179000Y0183602D01*
X0179497Y0184099D01*
X0179981Y0185268D01*
X0179981Y0186534D01*
X0179497Y0187703D01*
X0178602Y0188598D01*
X0177433Y0189082D01*
X0176167Y0189082D01*
X0174998Y0188598D01*
X0174103Y0187703D01*
X0173619Y0186534D01*
X0173619Y0185268D01*
X0174103Y0184099D01*
X0174600Y0183602D01*
X0174600Y0182437D01*
X0170889Y0178726D01*
X0163389Y0178726D01*
X0152100Y0167437D01*
X0152100Y0145615D01*
X0158189Y0139526D01*
X0147817Y0139526D01*
X0146715Y0139069D01*
X0134918Y0127273D01*
X0134912Y0127270D01*
X0134497Y0126851D01*
X0134080Y0126434D01*
X0134077Y0126427D01*
X0134072Y0126422D01*
X0133849Y0125877D01*
X0133623Y0125331D01*
X0133623Y0125324D01*
X0133620Y0125317D01*
X0133623Y0124728D01*
X0133623Y0124138D01*
X0133626Y0124131D01*
X0133800Y0086520D01*
X0133800Y0085929D01*
X0133803Y0085923D01*
X0133803Y0085915D01*
X0134031Y0085373D01*
X0134257Y0084827D01*
X0134262Y0084821D01*
X0134265Y0084815D01*
X0134683Y0084400D01*
X0134901Y0084182D01*
X0134563Y0083844D01*
X0134379Y0083399D01*
X0134194Y0083844D01*
X0132760Y0085279D01*
X0132429Y0085415D01*
X0132300Y0086679D01*
X0132300Y0127754D01*
X0147511Y0142469D01*
X0148198Y0142469D01*
X0149689Y0143086D01*
X0150830Y0144228D01*
X0151448Y0145719D01*
X0151448Y0147333D01*
X0150830Y0148824D01*
X0149689Y0149966D01*
X0148198Y0150583D01*
X0146583Y0150583D01*
X0145092Y0149966D01*
X0143951Y0148824D01*
X0143333Y0147333D01*
X0143333Y0146775D01*
X0127625Y0131579D01*
X0127601Y0131569D01*
X0127196Y0131165D01*
X0126785Y0130767D01*
X0126775Y0130744D01*
X0126757Y0130725D01*
X0126538Y0130197D01*
X0126310Y0129672D01*
X0126310Y0129647D01*
X0126300Y0129623D01*
X0126300Y0129051D01*
X0126291Y0128479D01*
X0126300Y0128455D01*
X0126300Y0129491D02*
X0123916Y0129491D01*
X0123920Y0131089D02*
X0127118Y0131089D01*
X0128770Y0132688D02*
X0123923Y0132688D01*
X0123926Y0134286D02*
X0130423Y0134286D01*
X0132075Y0135885D02*
X0123930Y0135885D01*
X0123933Y0137483D02*
X0133728Y0137483D01*
X0135380Y0139082D02*
X0123937Y0139082D01*
X0123940Y0140680D02*
X0137033Y0140680D01*
X0138685Y0142279D02*
X0134519Y0142279D01*
X0134497Y0142224D02*
X0134981Y0143393D01*
X0134981Y0144659D01*
X0134497Y0145828D01*
X0134000Y0146325D01*
X0134000Y0150615D01*
X0161730Y0178345D01*
X0162433Y0178345D01*
X0163602Y0178829D01*
X0164497Y0179724D01*
X0164981Y0180893D01*
X0164981Y0182159D01*
X0164497Y0183328D01*
X0163602Y0184223D01*
X0162433Y0184707D01*
X0161167Y0184707D01*
X0159998Y0184223D01*
X0159103Y0183328D01*
X0158619Y0182159D01*
X0158619Y0181456D01*
X0130889Y0153726D01*
X0129600Y0152437D01*
X0129600Y0146325D01*
X0129103Y0145828D01*
X0128619Y0144659D01*
X0128619Y0143393D01*
X0129103Y0142224D01*
X0129998Y0141329D01*
X0131167Y0140845D01*
X0132433Y0140845D01*
X0133602Y0141329D01*
X0134497Y0142224D01*
X0134981Y0143877D02*
X0140337Y0143877D01*
X0141990Y0145476D02*
X0134643Y0145476D01*
X0134000Y0147074D02*
X0143333Y0147074D01*
X0143888Y0148673D02*
X0134000Y0148673D01*
X0134000Y0150271D02*
X0145830Y0150271D01*
X0148952Y0150271D02*
X0152100Y0150271D01*
X0152100Y0148673D02*
X0150893Y0148673D01*
X0151448Y0147074D02*
X0152100Y0147074D01*
X0152239Y0145476D02*
X0151347Y0145476D01*
X0150480Y0143877D02*
X0153838Y0143877D01*
X0155436Y0142279D02*
X0147315Y0142279D01*
X0145662Y0140680D02*
X0157035Y0140680D01*
X0159300Y0141526D02*
X0154300Y0146526D01*
X0154300Y0166526D01*
X0164300Y0176526D01*
X0171800Y0176526D01*
X0176800Y0181526D01*
X0176800Y0185901D01*
X0179773Y0187037D02*
X0180272Y0187037D01*
X0179981Y0185438D02*
X0193645Y0185438D01*
X0195243Y0183840D02*
X0179238Y0183840D01*
X0179000Y0182241D02*
X0196842Y0182241D01*
X0198440Y0180643D02*
X0179000Y0180643D01*
X0177430Y0179044D02*
X0200039Y0179044D01*
X0200300Y0177446D02*
X0175831Y0177446D01*
X0174233Y0175847D02*
X0201822Y0175847D01*
X0206778Y0175847D02*
X0207100Y0175847D01*
X0207100Y0174249D02*
X0165134Y0174249D01*
X0163536Y0172650D02*
X0180924Y0172650D01*
X0182250Y0173976D02*
X0179350Y0171076D01*
X0179350Y0169026D01*
X0184300Y0169026D01*
X0184300Y0169026D01*
X0184300Y0173976D01*
X0186350Y0173976D01*
X0189250Y0171076D01*
X0189250Y0169026D01*
X0184300Y0169026D01*
X0184300Y0173976D01*
X0182250Y0173976D01*
X0184300Y0172650D02*
X0184300Y0172650D01*
X0184300Y0171052D02*
X0184300Y0171052D01*
X0184300Y0169453D02*
X0184300Y0169453D01*
X0184300Y0169026D02*
X0184300Y0169026D01*
X0184300Y0169026D01*
X0189250Y0169026D01*
X0189250Y0166976D01*
X0186350Y0164076D01*
X0184300Y0164076D01*
X0184300Y0169026D01*
X0184300Y0169026D01*
X0179350Y0169026D01*
X0179350Y0166976D01*
X0182250Y0164076D01*
X0184300Y0164076D01*
X0184300Y0169026D01*
X0184300Y0167855D02*
X0184300Y0167855D01*
X0184300Y0166256D02*
X0184300Y0166256D01*
X0184300Y0164658D02*
X0184300Y0164658D01*
X0183395Y0163576D02*
X0182550Y0163226D01*
X0178372Y0163226D01*
X0170848Y0169776D01*
X0170360Y0170264D01*
X0170222Y0170321D01*
X0170109Y0170420D01*
X0169454Y0170639D01*
X0168817Y0170903D01*
X0168667Y0170903D01*
X0168525Y0170951D01*
X0167836Y0170903D01*
X0163642Y0170903D01*
X0162098Y0170264D01*
X0160917Y0169082D01*
X0160888Y0169014D01*
X0160763Y0168889D01*
X0160128Y0167356D01*
X0160128Y0165696D01*
X0160763Y0164163D01*
X0161937Y0162989D01*
X0163470Y0162354D01*
X0165130Y0162354D01*
X0165489Y0162503D01*
X0166409Y0162503D01*
X0173933Y0155953D01*
X0174421Y0155465D01*
X0174559Y0155408D01*
X0174672Y0155310D01*
X0175327Y0155090D01*
X0175965Y0154826D01*
X0176114Y0154826D01*
X0176257Y0154778D01*
X0176945Y0154826D01*
X0180100Y0154826D01*
X0180100Y0134628D01*
X0180739Y0133084D01*
X0181921Y0131902D01*
X0182830Y0131526D01*
X0181921Y0131150D01*
X0180739Y0129968D01*
X0180100Y0128424D01*
X0180100Y0111941D01*
X0180739Y0110397D01*
X0181600Y0109536D01*
X0181600Y0109242D01*
X0182100Y0108035D01*
X0182100Y0100017D01*
X0181600Y0098810D01*
X0181600Y0096742D01*
X0182392Y0094830D01*
X0183854Y0093368D01*
X0185766Y0092576D01*
X0187834Y0092576D01*
X0189746Y0093368D01*
X0191208Y0094830D01*
X0192000Y0096742D01*
X0192000Y0098810D01*
X0191500Y0100017D01*
X0191500Y0108035D01*
X0192000Y0109242D01*
X0192000Y0111310D01*
X0191208Y0113222D01*
X0189746Y0114684D01*
X0188500Y0115200D01*
X0188500Y0128424D01*
X0187861Y0129968D01*
X0186679Y0131150D01*
X0185770Y0131526D01*
X0186679Y0131902D01*
X0187861Y0133084D01*
X0188500Y0134628D01*
X0188500Y0154826D01*
X0190135Y0154826D01*
X0191679Y0155465D01*
X0192861Y0156647D01*
X0194790Y0158576D01*
X0199817Y0158576D01*
X0200039Y0158354D01*
X0205136Y0158354D01*
X0205956Y0159174D01*
X0205956Y0160385D01*
X0206348Y0160856D01*
X0206846Y0162451D01*
X0206695Y0164115D01*
X0205956Y0165524D01*
X0205956Y0166633D01*
X0205136Y0167454D01*
X0200039Y0167454D01*
X0199561Y0166976D01*
X0192215Y0166976D01*
X0190671Y0166337D01*
X0187560Y0163226D01*
X0186050Y0163226D01*
X0185205Y0163576D01*
X0183395Y0163576D01*
X0181668Y0164658D02*
X0176727Y0164658D01*
X0174891Y0166256D02*
X0180069Y0166256D01*
X0179350Y0167855D02*
X0173055Y0167855D01*
X0171219Y0169453D02*
X0179350Y0169453D01*
X0179350Y0171052D02*
X0161937Y0171052D01*
X0161288Y0169453D02*
X0160339Y0169453D01*
X0160335Y0167855D02*
X0158740Y0167855D01*
X0160128Y0166256D02*
X0157142Y0166256D01*
X0156500Y0164658D02*
X0160558Y0164658D01*
X0161867Y0163059D02*
X0156500Y0163059D01*
X0156500Y0161461D02*
X0167607Y0161461D01*
X0166696Y0160436D02*
X0166055Y0160763D01*
X0165371Y0160985D01*
X0164660Y0161098D01*
X0164386Y0161098D01*
X0164386Y0156612D01*
X0164214Y0156612D01*
X0164214Y0161098D01*
X0163940Y0161098D01*
X0163229Y0160985D01*
X0162545Y0160763D01*
X0161904Y0160436D01*
X0161322Y0160013D01*
X0160813Y0159504D01*
X0160390Y0158922D01*
X0160063Y0158281D01*
X0159841Y0157597D01*
X0159728Y0156886D01*
X0159728Y0156612D01*
X0164214Y0156612D01*
X0164214Y0156440D01*
X0164386Y0156440D01*
X0164386Y0156612D01*
X0168872Y0156612D01*
X0168872Y0156886D01*
X0168759Y0157597D01*
X0168537Y0158281D01*
X0168210Y0158922D01*
X0167787Y0159504D01*
X0167278Y0160013D01*
X0166696Y0160436D01*
X0167429Y0159862D02*
X0169443Y0159862D01*
X0168542Y0158264D02*
X0171279Y0158264D01*
X0173115Y0156665D02*
X0168872Y0156665D01*
X0168872Y0156440D02*
X0164386Y0156440D01*
X0164386Y0151954D01*
X0164660Y0151954D01*
X0165371Y0152067D01*
X0166055Y0152289D01*
X0166696Y0152616D01*
X0167278Y0153039D01*
X0167787Y0153548D01*
X0168210Y0154130D01*
X0168537Y0154771D01*
X0168759Y0155455D01*
X0168872Y0156166D01*
X0168872Y0156440D01*
X0168633Y0155067D02*
X0175383Y0155067D01*
X0180100Y0153468D02*
X0167707Y0153468D01*
X0164386Y0153468D02*
X0164214Y0153468D01*
X0164214Y0151954D02*
X0164214Y0156440D01*
X0159728Y0156440D01*
X0159728Y0156166D01*
X0159841Y0155455D01*
X0160063Y0154771D01*
X0160390Y0154130D01*
X0160813Y0153548D01*
X0161322Y0153039D01*
X0161904Y0152616D01*
X0162545Y0152289D01*
X0163229Y0152067D01*
X0163940Y0151954D01*
X0164214Y0151954D01*
X0162441Y0150271D02*
X0156500Y0150271D01*
X0156500Y0148673D02*
X0160674Y0148673D01*
X0160128Y0147074D02*
X0156863Y0147074D01*
X0158462Y0145476D02*
X0160220Y0145476D01*
X0160060Y0143877D02*
X0161049Y0143877D01*
X0159300Y0141526D02*
X0166800Y0141526D01*
X0171800Y0136526D01*
X0171800Y0116526D01*
X0166800Y0111526D01*
X0159300Y0111526D01*
X0156800Y0109026D01*
X0156800Y0094026D01*
X0164300Y0086526D01*
X0164300Y0074026D01*
X0161800Y0071526D01*
X0161406Y0070955D01*
X0158000Y0067149D02*
X0155796Y0067149D01*
X0154684Y0065550D02*
X0150136Y0065550D01*
X0148985Y0067149D02*
X0146781Y0067149D01*
X0145669Y0065550D02*
X0141120Y0065550D01*
X0139969Y0067149D02*
X0137765Y0067149D01*
X0136653Y0065550D02*
X0132105Y0065550D01*
X0134087Y0063952D02*
X0134671Y0063952D01*
X0138887Y0060955D02*
X0129871Y0060955D01*
X0133686Y0057558D02*
X0135072Y0057558D01*
X0137621Y0055959D02*
X0131136Y0055959D01*
X0128606Y0055959D02*
X0122120Y0055959D01*
X0119590Y0055959D02*
X0056844Y0055959D01*
X0055246Y0054360D02*
X0140854Y0054360D01*
X0142453Y0052762D02*
X0074787Y0052762D01*
X0074292Y0053256D02*
X0075530Y0052018D01*
X0076200Y0050401D01*
X0076200Y0042651D01*
X0075530Y0041034D01*
X0074292Y0039796D01*
X0072675Y0039126D01*
X0070925Y0039126D01*
X0069308Y0039796D01*
X0068070Y0041034D01*
X0067400Y0042651D01*
X0067400Y0050401D01*
X0068070Y0052018D01*
X0069308Y0053256D01*
X0070925Y0053926D01*
X0072675Y0053926D01*
X0074292Y0053256D01*
X0075884Y0051163D02*
X0136939Y0051163D01*
X0136119Y0049565D02*
X0076200Y0049565D01*
X0076200Y0047966D02*
X0136296Y0047966D01*
X0137459Y0046368D02*
X0076200Y0046368D01*
X0076200Y0044769D02*
X0139494Y0044769D01*
X0140559Y0043171D02*
X0076200Y0043171D01*
X0075753Y0041572D02*
X0141625Y0041572D01*
X0142691Y0039974D02*
X0074470Y0039974D01*
X0069130Y0039974D02*
X0065036Y0039974D01*
X0064927Y0039865D02*
X0065461Y0040399D01*
X0065905Y0041010D01*
X0066248Y0041683D01*
X0066482Y0042402D01*
X0066600Y0043148D01*
X0066600Y0046326D01*
X0062000Y0046326D01*
X0062000Y0046726D01*
X0061600Y0046726D01*
X0061600Y0054326D01*
X0061422Y0054326D01*
X0060676Y0054208D01*
X0059957Y0053974D01*
X0059284Y0053631D01*
X0058673Y0053187D01*
X0058139Y0052653D01*
X0057695Y0052042D01*
X0057352Y0051369D01*
X0057118Y0050650D01*
X0057000Y0049904D01*
X0057000Y0046726D01*
X0061600Y0046726D01*
X0061600Y0046326D01*
X0057000Y0046326D01*
X0057000Y0043148D01*
X0057118Y0042402D01*
X0057352Y0041683D01*
X0057695Y0041010D01*
X0058139Y0040399D01*
X0058673Y0039865D01*
X0059284Y0039421D01*
X0059957Y0039078D01*
X0060676Y0038844D01*
X0061422Y0038726D01*
X0061600Y0038726D01*
X0061600Y0046326D01*
X0062000Y0046326D01*
X0062000Y0038726D01*
X0062178Y0038726D01*
X0062924Y0038844D01*
X0063643Y0039078D01*
X0064316Y0039421D01*
X0064927Y0039865D01*
X0066192Y0041572D02*
X0067847Y0041572D01*
X0067400Y0043171D02*
X0066600Y0043171D01*
X0066600Y0044769D02*
X0067400Y0044769D01*
X0067400Y0046368D02*
X0062000Y0046368D01*
X0062000Y0046726D02*
X0066600Y0046726D01*
X0066600Y0049904D01*
X0066482Y0050650D01*
X0066248Y0051369D01*
X0065905Y0052042D01*
X0065461Y0052653D01*
X0064927Y0053187D01*
X0064316Y0053631D01*
X0063643Y0053974D01*
X0062924Y0054208D01*
X0062178Y0054326D01*
X0062000Y0054326D01*
X0062000Y0046726D01*
X0061600Y0046368D02*
X0056200Y0046368D01*
X0056200Y0047966D02*
X0057000Y0047966D01*
X0057000Y0049565D02*
X0056200Y0049565D01*
X0056200Y0050401D02*
X0055530Y0052018D01*
X0054292Y0053256D01*
X0054186Y0053300D01*
X0062711Y0061826D01*
X0065843Y0061826D01*
X0067643Y0060026D01*
X0070957Y0060026D01*
X0073300Y0062369D01*
X0073300Y0065683D01*
X0070957Y0068026D01*
X0067643Y0068026D01*
X0065843Y0066226D01*
X0060889Y0066226D01*
X0059600Y0064937D01*
X0049600Y0054937D01*
X0049600Y0053377D01*
X0049308Y0053256D01*
X0048070Y0052018D01*
X0047400Y0050401D01*
X0047400Y0042651D01*
X0048070Y0041034D01*
X0049308Y0039796D01*
X0050925Y0039126D01*
X0052675Y0039126D01*
X0054292Y0039796D01*
X0055530Y0041034D01*
X0056200Y0042651D01*
X0056200Y0050401D01*
X0055884Y0051163D02*
X0057285Y0051163D01*
X0058248Y0052762D02*
X0054787Y0052762D01*
X0051800Y0054026D02*
X0061800Y0064026D01*
X0069300Y0064026D01*
X0073300Y0063952D02*
X0081579Y0063952D01*
X0080655Y0065550D02*
X0073300Y0065550D01*
X0071834Y0067149D02*
X0079915Y0067149D01*
X0079487Y0068747D02*
X0059000Y0068747D01*
X0059000Y0070346D02*
X0067324Y0070346D01*
X0065725Y0071944D02*
X0059000Y0071944D01*
X0059000Y0073543D02*
X0065300Y0073543D01*
X0065074Y0075141D02*
X0059000Y0075141D01*
X0059000Y0076740D02*
X0063475Y0076740D01*
X0061877Y0078338D02*
X0059000Y0078338D01*
X0059000Y0079937D02*
X0060278Y0079937D01*
X0059600Y0081535D02*
X0059000Y0081535D01*
X0059000Y0083134D02*
X0059600Y0083134D01*
X0059600Y0084732D02*
X0059000Y0084732D01*
X0059000Y0086331D02*
X0059600Y0086331D01*
X0059600Y0087929D02*
X0059000Y0087929D01*
X0059000Y0089528D02*
X0059600Y0089528D01*
X0059600Y0091126D02*
X0059000Y0091126D01*
X0059000Y0092725D02*
X0059600Y0092725D01*
X0059600Y0094323D02*
X0059000Y0094323D01*
X0059000Y0095922D02*
X0059600Y0095922D01*
X0059600Y0097520D02*
X0059000Y0097520D01*
X0059000Y0099119D02*
X0059600Y0099119D01*
X0059600Y0100717D02*
X0059000Y0100717D01*
X0059000Y0102316D02*
X0059600Y0102316D01*
X0059600Y0103914D02*
X0059000Y0103914D01*
X0059000Y0105513D02*
X0059600Y0105513D01*
X0059600Y0107111D02*
X0059000Y0107111D01*
X0059000Y0108710D02*
X0059600Y0108710D01*
X0059600Y0110308D02*
X0059000Y0110308D01*
X0059000Y0111907D02*
X0059600Y0111907D01*
X0059600Y0113505D02*
X0057932Y0113505D01*
X0056333Y0115104D02*
X0059600Y0115104D01*
X0059600Y0116702D02*
X0054735Y0116702D01*
X0053136Y0118301D02*
X0059600Y0118301D01*
X0059600Y0119899D02*
X0051538Y0119899D01*
X0049981Y0121498D02*
X0059600Y0121498D01*
X0059600Y0123096D02*
X0049593Y0123096D01*
X0047462Y0124695D02*
X0059600Y0124695D01*
X0059600Y0126293D02*
X0040369Y0126293D01*
X0040604Y0127678D02*
X0040604Y0128006D01*
X0040501Y0128656D01*
X0040298Y0129281D01*
X0039999Y0129867D01*
X0039613Y0130399D01*
X0039148Y0130864D01*
X0038616Y0131251D01*
X0038030Y0131549D01*
X0037404Y0131753D01*
X0036755Y0131855D01*
X0034048Y0131855D01*
X0034048Y0127678D01*
X0034048Y0127678D01*
X0034048Y0127677D01*
X0034048Y0127678D01*
X0040604Y0127678D01*
X0040604Y0127892D02*
X0059600Y0127892D01*
X0059600Y0129491D02*
X0040191Y0129491D01*
X0038838Y0131089D02*
X0059600Y0131089D01*
X0064000Y0131089D02*
X0064600Y0131089D01*
X0064600Y0129491D02*
X0064000Y0129491D01*
X0064000Y0127892D02*
X0064600Y0127892D01*
X0064600Y0126293D02*
X0064000Y0126293D01*
X0064000Y0124695D02*
X0064600Y0124695D01*
X0064600Y0123096D02*
X0064000Y0123096D01*
X0064000Y0121498D02*
X0064600Y0121498D01*
X0064600Y0119899D02*
X0064000Y0119899D01*
X0064000Y0118301D02*
X0064600Y0118301D01*
X0064600Y0116702D02*
X0064000Y0116702D01*
X0064000Y0115104D02*
X0064600Y0115104D01*
X0064600Y0113505D02*
X0064000Y0113505D01*
X0064000Y0111907D02*
X0064600Y0111907D01*
X0064600Y0110308D02*
X0064000Y0110308D01*
X0064000Y0108710D02*
X0064600Y0108710D01*
X0064600Y0107111D02*
X0064000Y0107111D01*
X0064000Y0105513D02*
X0064600Y0105513D01*
X0064600Y0103914D02*
X0064000Y0103914D01*
X0064000Y0102316D02*
X0064600Y0102316D01*
X0064600Y0100717D02*
X0064000Y0100717D01*
X0064000Y0099119D02*
X0064600Y0099119D01*
X0064600Y0097520D02*
X0064000Y0097520D01*
X0064000Y0095922D02*
X0064600Y0095922D01*
X0064000Y0094323D02*
X0065891Y0094323D01*
X0067490Y0092725D02*
X0064000Y0092725D01*
X0064000Y0091126D02*
X0069088Y0091126D01*
X0070687Y0089528D02*
X0064000Y0089528D01*
X0064000Y0087929D02*
X0072285Y0087929D01*
X0073884Y0086331D02*
X0064000Y0086331D01*
X0064000Y0084732D02*
X0074395Y0084732D01*
X0077085Y0079937D02*
X0083557Y0079937D01*
X0086223Y0081535D02*
X0077481Y0081535D01*
X0079000Y0083134D02*
X0109581Y0083134D01*
X0109600Y0081535D02*
X0095172Y0081535D01*
X0097838Y0079937D02*
X0109600Y0079937D01*
X0109600Y0078338D02*
X0099437Y0078338D01*
X0100522Y0076740D02*
X0109600Y0076740D01*
X0109600Y0075141D02*
X0101378Y0075141D01*
X0101806Y0073543D02*
X0109600Y0073543D01*
X0109600Y0071944D02*
X0102098Y0071944D01*
X0102098Y0070346D02*
X0109600Y0070346D01*
X0109600Y0068747D02*
X0101908Y0068747D01*
X0101480Y0067149D02*
X0110566Y0067149D01*
X0111800Y0069026D02*
X0114925Y0065901D01*
X0113763Y0063952D02*
X0099816Y0063952D01*
X0100741Y0065550D02*
X0112165Y0065550D01*
X0111800Y0069026D02*
X0111800Y0084026D01*
X0106800Y0089026D01*
X0103811Y0087929D02*
X0078508Y0087929D01*
X0079000Y0086331D02*
X0104997Y0086331D01*
X0107983Y0084732D02*
X0079000Y0084732D01*
X0076910Y0089528D02*
X0103619Y0089528D01*
X0104402Y0091126D02*
X0075311Y0091126D01*
X0073712Y0092725D02*
X0112576Y0092725D01*
X0110697Y0094323D02*
X0072114Y0094323D01*
X0070515Y0095922D02*
X0110128Y0095922D01*
X0110196Y0097520D02*
X0069000Y0097520D01*
X0069000Y0099119D02*
X0110993Y0099119D01*
X0111937Y0102989D02*
X0113470Y0102354D01*
X0115130Y0102354D01*
X0116663Y0102989D01*
X0117837Y0104163D01*
X0118472Y0105696D01*
X0118472Y0107356D01*
X0117837Y0108889D01*
X0116663Y0110063D01*
X0115130Y0110698D01*
X0113470Y0110698D01*
X0111937Y0110063D01*
X0110763Y0108889D01*
X0110128Y0107356D01*
X0110128Y0105696D01*
X0110763Y0104163D01*
X0111937Y0102989D01*
X0111012Y0103914D02*
X0107345Y0103914D01*
X0108300Y0104869D02*
X0105957Y0102526D01*
X0102643Y0102526D01*
X0100300Y0104869D01*
X0100300Y0108183D01*
X0102277Y0110160D01*
X0102277Y0113284D01*
X0103566Y0114572D01*
X0107719Y0118726D01*
X0110696Y0118726D01*
X0110763Y0118889D01*
X0111300Y0119426D01*
X0111300Y0123626D01*
X0110763Y0124163D01*
X0110128Y0125696D01*
X0110128Y0127356D01*
X0110763Y0128889D01*
X0111937Y0130063D01*
X0113470Y0130698D01*
X0115130Y0130698D01*
X0116663Y0130063D01*
X0117837Y0128889D01*
X0118472Y0127356D01*
X0118472Y0125696D01*
X0117837Y0124163D01*
X0117300Y0123626D01*
X0117300Y0119426D01*
X0117837Y0118889D01*
X0118472Y0117356D01*
X0118472Y0115696D01*
X0117837Y0114163D01*
X0116663Y0112989D01*
X0115130Y0112354D01*
X0113470Y0112354D01*
X0111937Y0112989D01*
X0110763Y0114163D01*
X0110696Y0114326D01*
X0109542Y0114326D01*
X0106677Y0111461D01*
X0106677Y0109806D01*
X0108300Y0108183D01*
X0108300Y0104869D01*
X0108300Y0105513D02*
X0110204Y0105513D01*
X0110128Y0107111D02*
X0108300Y0107111D01*
X0107773Y0108710D02*
X0110689Y0108710D01*
X0112530Y0110308D02*
X0106677Y0110308D01*
X0107123Y0111907D02*
X0119479Y0111907D01*
X0119483Y0113505D02*
X0117179Y0113505D01*
X0118226Y0115104D02*
X0119486Y0115104D01*
X0119489Y0116702D02*
X0118472Y0116702D01*
X0118080Y0118301D02*
X0119493Y0118301D01*
X0119496Y0119899D02*
X0117300Y0119899D01*
X0117300Y0121498D02*
X0119499Y0121498D01*
X0119503Y0123096D02*
X0117300Y0123096D01*
X0118057Y0124695D02*
X0119506Y0124695D01*
X0119510Y0126293D02*
X0118472Y0126293D01*
X0118250Y0127892D02*
X0119513Y0127892D01*
X0119516Y0129491D02*
X0117235Y0129491D01*
X0119520Y0131089D02*
X0101900Y0131089D01*
X0101900Y0131138D02*
X0099462Y0133577D01*
X0100211Y0134326D01*
X0110696Y0134326D01*
X0110763Y0134163D01*
X0111937Y0132989D01*
X0113470Y0132354D01*
X0115130Y0132354D01*
X0116663Y0132989D01*
X0117837Y0134163D01*
X0118472Y0135696D01*
X0118472Y0137356D01*
X0117837Y0138889D01*
X0116663Y0140063D01*
X0115130Y0140698D01*
X0113470Y0140698D01*
X0111937Y0140063D01*
X0110763Y0138889D01*
X0110696Y0138726D01*
X0098389Y0138726D01*
X0095889Y0136226D01*
X0094600Y0134937D01*
X0094600Y0134038D01*
X0091800Y0131238D01*
X0090712Y0132327D01*
X0102711Y0144326D01*
X0110696Y0144326D01*
X0110763Y0144163D01*
X0111937Y0142989D01*
X0113470Y0142354D01*
X0115130Y0142354D01*
X0116663Y0142989D01*
X0117837Y0144163D01*
X0118472Y0145696D01*
X0118472Y0147356D01*
X0117837Y0148889D01*
X0116663Y0150063D01*
X0115130Y0150698D01*
X0113470Y0150698D01*
X0111937Y0150063D01*
X0110763Y0148889D01*
X0110696Y0148726D01*
X0100889Y0148726D01*
X0099600Y0147437D01*
X0086289Y0134126D01*
X0085011Y0134126D01*
X0100211Y0149326D01*
X0110211Y0149326D01*
X0111500Y0150615D01*
X0113307Y0152422D01*
X0113470Y0152354D01*
X0115130Y0152354D01*
X0116663Y0152989D01*
X0117837Y0154163D01*
X0118472Y0155696D01*
X0118472Y0157356D01*
X0117837Y0158889D01*
X0116663Y0160063D01*
X0115130Y0160698D01*
X0113470Y0160698D01*
X0111937Y0160063D01*
X0110763Y0158889D01*
X0110128Y0157356D01*
X0110128Y0155696D01*
X0110196Y0155533D01*
X0108389Y0153726D01*
X0098389Y0153726D01*
X0078789Y0134126D01*
X0074688Y0134126D01*
X0071700Y0131138D01*
X0071700Y0126913D01*
X0074588Y0124026D01*
X0071700Y0121138D01*
X0071700Y0118088D01*
X0071300Y0117123D01*
X0071300Y0109183D01*
X0070300Y0108183D01*
X0070300Y0104869D01*
X0072643Y0102526D01*
X0075957Y0102526D01*
X0078300Y0104869D01*
X0078300Y0108183D01*
X0077300Y0109183D01*
X0077300Y0113926D01*
X0078912Y0113926D01*
X0081012Y0116026D01*
X0082588Y0116026D01*
X0084688Y0113926D01*
X0088912Y0113926D01*
X0091012Y0116026D01*
X0092588Y0116026D01*
X0094688Y0113926D01*
X0098912Y0113926D01*
X0101900Y0116913D01*
X0101900Y0121138D01*
X0099012Y0124026D01*
X0101900Y0126913D01*
X0101900Y0131138D01*
X0101900Y0129491D02*
X0111365Y0129491D01*
X0110350Y0127892D02*
X0101900Y0127892D01*
X0101280Y0126293D02*
X0110128Y0126293D01*
X0110543Y0124695D02*
X0099681Y0124695D01*
X0099942Y0123096D02*
X0111300Y0123096D01*
X0111300Y0121498D02*
X0101540Y0121498D01*
X0101900Y0119899D02*
X0111300Y0119899D01*
X0108631Y0116526D02*
X0104477Y0112372D01*
X0104477Y0108681D01*
X0104300Y0106526D01*
X0101255Y0103914D02*
X0077345Y0103914D01*
X0078300Y0105513D02*
X0100300Y0105513D01*
X0100300Y0107111D02*
X0078300Y0107111D01*
X0077773Y0108710D02*
X0100827Y0108710D01*
X0102277Y0110308D02*
X0077300Y0110308D01*
X0077300Y0111907D02*
X0102277Y0111907D01*
X0102499Y0113505D02*
X0077300Y0113505D01*
X0080090Y0115104D02*
X0083510Y0115104D01*
X0090090Y0115104D02*
X0093510Y0115104D01*
X0100090Y0115104D02*
X0104097Y0115104D01*
X0105696Y0116702D02*
X0101689Y0116702D01*
X0101900Y0118301D02*
X0107294Y0118301D01*
X0108631Y0116526D02*
X0114300Y0116526D01*
X0111421Y0113505D02*
X0108721Y0113505D01*
X0116070Y0110308D02*
X0119476Y0110308D01*
X0119472Y0108710D02*
X0117911Y0108710D01*
X0118472Y0107111D02*
X0119469Y0107111D01*
X0119466Y0105513D02*
X0118396Y0105513D01*
X0118577Y0103914D02*
X0117588Y0103914D01*
X0116979Y0102316D02*
X0069000Y0102316D01*
X0069000Y0103914D02*
X0071255Y0103914D01*
X0070300Y0105513D02*
X0069000Y0105513D01*
X0069000Y0107111D02*
X0070300Y0107111D01*
X0070827Y0108710D02*
X0069000Y0108710D01*
X0069000Y0110308D02*
X0071300Y0110308D01*
X0071300Y0111907D02*
X0069000Y0111907D01*
X0069000Y0113505D02*
X0071300Y0113505D01*
X0071300Y0115104D02*
X0069000Y0115104D01*
X0069000Y0116702D02*
X0071300Y0116702D01*
X0071700Y0118301D02*
X0069000Y0118301D01*
X0069000Y0119899D02*
X0071700Y0119899D01*
X0072059Y0121498D02*
X0069000Y0121498D01*
X0069000Y0123096D02*
X0073658Y0123096D01*
X0073919Y0124695D02*
X0069000Y0124695D01*
X0069000Y0126293D02*
X0072320Y0126293D01*
X0071700Y0127892D02*
X0069000Y0127892D01*
X0069000Y0129491D02*
X0071700Y0129491D01*
X0071700Y0131089D02*
X0069474Y0131089D01*
X0071073Y0132688D02*
X0073249Y0132688D01*
X0072671Y0134286D02*
X0078949Y0134286D01*
X0079270Y0135885D02*
X0080547Y0135885D01*
X0080868Y0137483D02*
X0082146Y0137483D01*
X0082467Y0139082D02*
X0083744Y0139082D01*
X0084065Y0140680D02*
X0085343Y0140680D01*
X0085664Y0142279D02*
X0086941Y0142279D01*
X0087262Y0143877D02*
X0088540Y0143877D01*
X0088861Y0145476D02*
X0090138Y0145476D01*
X0090459Y0147074D02*
X0091737Y0147074D01*
X0091500Y0148673D02*
X0093335Y0148673D01*
X0094934Y0150271D02*
X0091500Y0150271D01*
X0091500Y0151870D02*
X0096532Y0151870D01*
X0098131Y0153468D02*
X0091500Y0153468D01*
X0091500Y0155067D02*
X0093852Y0155067D01*
X0092800Y0156119D02*
X0095143Y0153776D01*
X0098457Y0153776D01*
X0100800Y0156119D01*
X0100800Y0159433D01*
X0098457Y0161776D01*
X0095143Y0161776D01*
X0092800Y0159433D01*
X0092800Y0156119D01*
X0092800Y0156665D02*
X0091500Y0156665D01*
X0091500Y0158264D02*
X0092800Y0158264D01*
X0093229Y0159862D02*
X0091500Y0159862D01*
X0091500Y0161461D02*
X0094828Y0161461D01*
X0093043Y0164658D02*
X0110558Y0164658D01*
X0110763Y0164163D02*
X0111937Y0162989D01*
X0113470Y0162354D01*
X0115130Y0162354D01*
X0116663Y0162989D01*
X0117837Y0164163D01*
X0118472Y0165696D01*
X0118472Y0167356D01*
X0117837Y0168889D01*
X0116663Y0170063D01*
X0115130Y0170698D01*
X0113470Y0170698D01*
X0111937Y0170063D01*
X0110763Y0168889D01*
X0110128Y0167356D01*
X0110128Y0165696D01*
X0110763Y0164163D01*
X0111867Y0163059D02*
X0091500Y0163059D01*
X0088419Y0166256D02*
X0087142Y0166256D01*
X0087100Y0164658D02*
X0086500Y0164658D01*
X0086500Y0163059D02*
X0087100Y0163059D01*
X0087100Y0161461D02*
X0086500Y0161461D01*
X0086500Y0159862D02*
X0087100Y0159862D01*
X0087100Y0158264D02*
X0086500Y0158264D01*
X0086500Y0156665D02*
X0087100Y0156665D01*
X0087100Y0155067D02*
X0086500Y0155067D01*
X0086500Y0153468D02*
X0087100Y0153468D01*
X0087100Y0151870D02*
X0086500Y0151870D01*
X0086156Y0150271D02*
X0087100Y0150271D01*
X0085835Y0148673D02*
X0084558Y0148673D01*
X0084237Y0147074D02*
X0082959Y0147074D01*
X0082638Y0145476D02*
X0081361Y0145476D01*
X0081040Y0143877D02*
X0079762Y0143877D01*
X0079441Y0142279D02*
X0078164Y0142279D01*
X0077843Y0140680D02*
X0076565Y0140680D01*
X0076244Y0139082D02*
X0069967Y0139082D01*
X0069646Y0137483D02*
X0068368Y0137483D01*
X0068047Y0135885D02*
X0066770Y0135885D01*
X0066449Y0134286D02*
X0065171Y0134286D01*
X0064850Y0132688D02*
X0064000Y0132688D01*
X0069300Y0141526D02*
X0074300Y0141526D01*
X0084300Y0151526D01*
X0084300Y0166526D01*
X0096800Y0179026D01*
X0096800Y0187776D01*
X0099999Y0190234D02*
X0107100Y0190234D01*
X0107100Y0191832D02*
X0102718Y0191832D01*
X0102711Y0191826D02*
X0104230Y0193345D01*
X0104933Y0193345D01*
X0106102Y0193829D01*
X0106997Y0194724D01*
X0107481Y0195893D01*
X0107481Y0197159D01*
X0106997Y0198328D01*
X0106102Y0199223D01*
X0104933Y0199707D01*
X0103667Y0199707D01*
X0102498Y0199223D01*
X0101603Y0198328D01*
X0101119Y0197159D01*
X0101119Y0196456D01*
X0100889Y0196226D01*
X0090889Y0196226D01*
X0089600Y0194937D01*
X0087100Y0192437D01*
X0087100Y0179937D01*
X0083389Y0176226D01*
X0063389Y0176226D01*
X0062100Y0174937D01*
X0040712Y0153549D01*
X0039525Y0153549D01*
X0039048Y0154026D01*
X0039104Y0154068D01*
X0039569Y0154533D01*
X0039956Y0155065D01*
X0040255Y0155651D01*
X0040458Y0156276D01*
X0040561Y0156926D01*
X0040561Y0157254D01*
X0034005Y0157254D01*
X0034005Y0157254D01*
X0040561Y0157254D01*
X0040561Y0157583D01*
X0040458Y0158233D01*
X0040255Y0158858D01*
X0039956Y0159444D01*
X0039569Y0159976D01*
X0039104Y0160441D01*
X0039048Y0160482D01*
X0039526Y0160960D01*
X0046845Y0160960D01*
X0048134Y0162249D01*
X0062711Y0176826D01*
X0080836Y0176826D01*
X0082355Y0178345D01*
X0083058Y0178345D01*
X0084227Y0178829D01*
X0085122Y0179724D01*
X0085606Y0180893D01*
X0085606Y0182159D01*
X0085122Y0183328D01*
X0084227Y0184223D01*
X0083058Y0184707D01*
X0081792Y0184707D01*
X0080623Y0184223D01*
X0079728Y0183328D01*
X0079244Y0182159D01*
X0079244Y0181456D01*
X0079014Y0181226D01*
X0060889Y0181226D01*
X0045023Y0165360D01*
X0039526Y0165360D01*
X0039048Y0165837D01*
X0039104Y0165879D01*
X0039569Y0166344D01*
X0039956Y0166876D01*
X0040255Y0167462D01*
X0040458Y0168087D01*
X0040561Y0168737D01*
X0040561Y0169065D01*
X0034005Y0169065D01*
X0034005Y0169065D01*
X0040561Y0169065D01*
X0040561Y0169394D01*
X0040458Y0170044D01*
X0040255Y0170669D01*
X0039956Y0171255D01*
X0039569Y0171787D01*
X0039104Y0172252D01*
X0038572Y0172639D01*
X0037986Y0172937D01*
X0037361Y0173140D01*
X0036711Y0173243D01*
X0034005Y0173243D01*
X0034005Y0169065D01*
X0027449Y0169065D01*
X0027449Y0168737D01*
X0027552Y0168087D01*
X0027755Y0167462D01*
X0028053Y0166876D01*
X0028440Y0166344D01*
X0028905Y0165879D01*
X0028962Y0165837D01*
X0028424Y0165300D01*
X0027849Y0163911D01*
X0027849Y0162408D01*
X0028424Y0161020D01*
X0028962Y0160482D01*
X0028905Y0160441D01*
X0028440Y0159976D01*
X0028053Y0159444D01*
X0027755Y0158858D01*
X0027552Y0158233D01*
X0027449Y0157583D01*
X0027449Y0157254D01*
X0027449Y0156926D01*
X0027552Y0156276D01*
X0027755Y0155651D01*
X0028053Y0155065D01*
X0028440Y0154533D01*
X0028905Y0154068D01*
X0028962Y0154026D01*
X0028424Y0153489D01*
X0027849Y0152100D01*
X0027849Y0150597D01*
X0028424Y0149209D01*
X0029487Y0148146D01*
X0030875Y0147571D01*
X0037134Y0147571D01*
X0038523Y0148146D01*
X0039525Y0149149D01*
X0042534Y0149149D01*
X0065211Y0171826D01*
X0085211Y0171826D01*
X0090211Y0176826D01*
X0091500Y0178115D01*
X0091500Y0190615D01*
X0092711Y0191826D01*
X0102711Y0191826D01*
X0101800Y0194026D02*
X0104300Y0196526D01*
X0107481Y0196628D02*
X0109600Y0196628D01*
X0109600Y0198227D02*
X0107039Y0198227D01*
X0109600Y0199825D02*
X0100710Y0199825D01*
X0100868Y0199983D02*
X0101004Y0199926D01*
X0102596Y0199926D01*
X0104066Y0200535D01*
X0105191Y0201660D01*
X0105800Y0203130D01*
X0105800Y0209922D01*
X0105191Y0211392D01*
X0104066Y0212517D01*
X0102596Y0213126D01*
X0101004Y0213126D01*
X0099534Y0212517D01*
X0098409Y0211392D01*
X0097800Y0209922D01*
X0097800Y0203137D01*
X0095889Y0201226D01*
X0094757Y0201226D01*
X0095191Y0201660D01*
X0095800Y0203130D01*
X0095800Y0209922D01*
X0095191Y0211392D01*
X0094066Y0212517D01*
X0092596Y0213126D01*
X0091004Y0213126D01*
X0089534Y0212517D01*
X0088409Y0211392D01*
X0087800Y0209922D01*
X0087800Y0203130D01*
X0088409Y0201660D01*
X0088843Y0201226D01*
X0053389Y0201226D01*
X0048389Y0196226D01*
X0047100Y0194937D01*
X0047100Y0178200D01*
X0046603Y0177703D01*
X0046119Y0176534D01*
X0046119Y0175268D01*
X0046603Y0174099D01*
X0047498Y0173204D01*
X0048667Y0172720D01*
X0049933Y0172720D01*
X0051102Y0173204D01*
X0051997Y0174099D01*
X0052481Y0175268D01*
X0052481Y0176534D01*
X0051997Y0177703D01*
X0051500Y0178200D01*
X0051500Y0193115D01*
X0055211Y0196826D01*
X0097711Y0196826D01*
X0099000Y0198115D01*
X0100868Y0199983D01*
X0101561Y0198227D02*
X0099112Y0198227D01*
X0096800Y0199026D02*
X0054300Y0199026D01*
X0049300Y0194026D01*
X0049300Y0175901D01*
X0046119Y0175847D02*
X0023600Y0175847D01*
X0023600Y0174249D02*
X0046541Y0174249D01*
X0046497Y0177446D02*
X0023600Y0177446D01*
X0023600Y0179044D02*
X0047100Y0179044D01*
X0047100Y0180643D02*
X0023600Y0180643D01*
X0023600Y0182241D02*
X0047100Y0182241D01*
X0047100Y0183840D02*
X0044771Y0183840D01*
X0045800Y0184869D02*
X0043457Y0182526D01*
X0040143Y0182526D01*
X0037800Y0184869D01*
X0037800Y0188183D01*
X0039600Y0189983D01*
X0039600Y0204937D01*
X0047737Y0213074D01*
X0048366Y0213716D01*
X0048379Y0213716D01*
X0048389Y0213726D01*
X0049289Y0213726D01*
X0053400Y0213769D01*
X0053409Y0213792D01*
X0054534Y0214917D01*
X0056004Y0215526D01*
X0057596Y0215526D01*
X0059066Y0214917D01*
X0060191Y0213792D01*
X0060800Y0212322D01*
X0060800Y0205530D01*
X0060191Y0204060D01*
X0059066Y0202935D01*
X0057596Y0202326D01*
X0056004Y0202326D01*
X0054534Y0202935D01*
X0053409Y0204060D01*
X0052800Y0205530D01*
X0052800Y0209363D01*
X0050221Y0209336D01*
X0044000Y0203115D01*
X0044000Y0189983D01*
X0045800Y0188183D01*
X0045800Y0184869D01*
X0045800Y0185438D02*
X0047100Y0185438D01*
X0047100Y0187037D02*
X0045800Y0187037D01*
X0045347Y0188635D02*
X0047100Y0188635D01*
X0047100Y0190234D02*
X0044000Y0190234D01*
X0044000Y0191832D02*
X0047100Y0191832D01*
X0047100Y0193431D02*
X0044000Y0193431D01*
X0044000Y0195029D02*
X0047192Y0195029D01*
X0048791Y0196628D02*
X0044000Y0196628D01*
X0044000Y0198227D02*
X0050389Y0198227D01*
X0051988Y0199825D02*
X0044000Y0199825D01*
X0044000Y0201424D02*
X0088646Y0201424D01*
X0087845Y0203022D02*
X0079153Y0203022D01*
X0079066Y0202935D02*
X0080191Y0204060D01*
X0080800Y0205530D01*
X0080800Y0212322D01*
X0080191Y0213792D01*
X0079066Y0214917D01*
X0077596Y0215526D01*
X0076004Y0215526D01*
X0074534Y0214917D01*
X0073409Y0213792D01*
X0072800Y0212322D01*
X0072800Y0205530D01*
X0073409Y0204060D01*
X0074534Y0202935D01*
X0076004Y0202326D01*
X0077596Y0202326D01*
X0079066Y0202935D01*
X0080423Y0204621D02*
X0087800Y0204621D01*
X0087800Y0206219D02*
X0080800Y0206219D01*
X0080800Y0207818D02*
X0087800Y0207818D01*
X0087800Y0209416D02*
X0080800Y0209416D01*
X0080800Y0211015D02*
X0088253Y0211015D01*
X0089766Y0212613D02*
X0080679Y0212613D01*
X0079771Y0214212D02*
X0092870Y0214212D01*
X0093834Y0212613D02*
X0099766Y0212613D01*
X0098253Y0211015D02*
X0095347Y0211015D01*
X0095800Y0209416D02*
X0097800Y0209416D01*
X0097800Y0207818D02*
X0095800Y0207818D01*
X0095800Y0206219D02*
X0097800Y0206219D01*
X0097800Y0204621D02*
X0095800Y0204621D01*
X0095755Y0203022D02*
X0097685Y0203022D01*
X0096086Y0201424D02*
X0094954Y0201424D01*
X0096800Y0199026D02*
X0101800Y0204026D01*
X0101800Y0206526D01*
X0105800Y0206219D02*
X0107800Y0206219D01*
X0107800Y0204621D02*
X0105800Y0204621D01*
X0105755Y0203022D02*
X0107845Y0203022D01*
X0108646Y0201424D02*
X0104954Y0201424D01*
X0101119Y0196628D02*
X0055013Y0196628D01*
X0056004Y0195726D02*
X0054534Y0195117D01*
X0053409Y0193992D01*
X0052800Y0192522D01*
X0052800Y0185730D01*
X0053409Y0184260D01*
X0054534Y0183135D01*
X0056004Y0182526D01*
X0057596Y0182526D01*
X0059066Y0183135D01*
X0060191Y0184260D01*
X0060800Y0185730D01*
X0060800Y0192522D01*
X0060191Y0193992D01*
X0059066Y0195117D01*
X0057596Y0195726D01*
X0056004Y0195726D01*
X0054447Y0195029D02*
X0053415Y0195029D01*
X0053177Y0193431D02*
X0051816Y0193431D01*
X0051500Y0191832D02*
X0052800Y0191832D01*
X0052800Y0190234D02*
X0051500Y0190234D01*
X0051500Y0188635D02*
X0052800Y0188635D01*
X0052800Y0187037D02*
X0051500Y0187037D01*
X0051500Y0185438D02*
X0052921Y0185438D01*
X0053829Y0183840D02*
X0051500Y0183840D01*
X0051500Y0182241D02*
X0079278Y0182241D01*
X0079066Y0183135D02*
X0080191Y0184260D01*
X0080800Y0185730D01*
X0080800Y0192522D01*
X0080191Y0193992D01*
X0079066Y0195117D01*
X0077596Y0195726D01*
X0076004Y0195726D01*
X0074534Y0195117D01*
X0073409Y0193992D01*
X0072800Y0192522D01*
X0072800Y0185730D01*
X0073409Y0184260D01*
X0074534Y0183135D01*
X0076004Y0182526D01*
X0077596Y0182526D01*
X0079066Y0183135D01*
X0079771Y0183840D02*
X0080240Y0183840D01*
X0080679Y0185438D02*
X0087100Y0185438D01*
X0087100Y0183840D02*
X0084610Y0183840D01*
X0085572Y0182241D02*
X0087100Y0182241D01*
X0087100Y0180643D02*
X0085502Y0180643D01*
X0086207Y0179044D02*
X0084442Y0179044D01*
X0084609Y0177446D02*
X0081456Y0177446D01*
X0079925Y0179026D02*
X0061800Y0179026D01*
X0045934Y0163160D01*
X0034005Y0163160D01*
X0034005Y0169065D02*
X0034005Y0169065D01*
X0034005Y0169065D01*
X0027449Y0169065D01*
X0027449Y0169394D01*
X0027552Y0170044D01*
X0027755Y0170669D01*
X0028053Y0171255D01*
X0028440Y0171787D01*
X0028905Y0172252D01*
X0029437Y0172639D01*
X0030023Y0172937D01*
X0030648Y0173140D01*
X0031298Y0173243D01*
X0034005Y0173243D01*
X0034005Y0169065D01*
X0034005Y0169453D02*
X0034005Y0169453D01*
X0034005Y0171052D02*
X0034005Y0171052D01*
X0034005Y0172650D02*
X0034005Y0172650D01*
X0038549Y0172650D02*
X0052313Y0172650D01*
X0052059Y0174249D02*
X0053912Y0174249D01*
X0052481Y0175847D02*
X0055510Y0175847D01*
X0057109Y0177446D02*
X0052103Y0177446D01*
X0051500Y0179044D02*
X0058707Y0179044D01*
X0060306Y0180643D02*
X0051500Y0180643D01*
X0059771Y0183840D02*
X0063829Y0183840D01*
X0063409Y0184260D02*
X0064534Y0183135D01*
X0066004Y0182526D01*
X0067596Y0182526D01*
X0069066Y0183135D01*
X0070191Y0184260D01*
X0070800Y0185730D01*
X0070800Y0192522D01*
X0070191Y0193992D01*
X0069066Y0195117D01*
X0067596Y0195726D01*
X0066004Y0195726D01*
X0064534Y0195117D01*
X0063409Y0193992D01*
X0062800Y0192522D01*
X0062800Y0185730D01*
X0063409Y0184260D01*
X0062921Y0185438D02*
X0060679Y0185438D01*
X0060800Y0187037D02*
X0062800Y0187037D01*
X0062800Y0188635D02*
X0060800Y0188635D01*
X0060800Y0190234D02*
X0062800Y0190234D01*
X0062800Y0191832D02*
X0060800Y0191832D01*
X0060423Y0193431D02*
X0063177Y0193431D01*
X0064447Y0195029D02*
X0059153Y0195029D01*
X0059153Y0203022D02*
X0063881Y0203022D01*
X0063934Y0202970D02*
X0064494Y0202563D01*
X0065111Y0202248D01*
X0065770Y0202034D01*
X0066454Y0201926D01*
X0066800Y0201926D01*
X0067146Y0201926D01*
X0067830Y0202034D01*
X0068489Y0202248D01*
X0069106Y0202563D01*
X0069666Y0202970D01*
X0070156Y0203460D01*
X0070563Y0204020D01*
X0070878Y0204637D01*
X0071092Y0205296D01*
X0071200Y0205980D01*
X0071200Y0211526D01*
X0071200Y0211872D01*
X0071092Y0212556D01*
X0070878Y0213215D01*
X0070563Y0213832D01*
X0070156Y0214392D01*
X0069666Y0214882D01*
X0069106Y0215289D01*
X0068489Y0215604D01*
X0067830Y0215818D01*
X0067146Y0215926D01*
X0066800Y0215926D01*
X0066800Y0211526D01*
X0066800Y0211526D01*
X0066800Y0215926D01*
X0066454Y0215926D01*
X0065770Y0215818D01*
X0065111Y0215604D01*
X0064494Y0215289D01*
X0063934Y0214882D01*
X0063444Y0214392D01*
X0063037Y0213832D01*
X0062722Y0213215D01*
X0062508Y0212556D01*
X0062400Y0211872D01*
X0062400Y0211526D01*
X0066800Y0211526D01*
X0071200Y0211526D01*
X0066800Y0211526D01*
X0066800Y0211526D01*
X0066800Y0211526D01*
X0066800Y0201926D01*
X0066800Y0211526D01*
X0066800Y0211526D01*
X0062400Y0211526D01*
X0062400Y0205980D01*
X0062508Y0205296D01*
X0062722Y0204637D01*
X0063037Y0204020D01*
X0063444Y0203460D01*
X0063934Y0202970D01*
X0062731Y0204621D02*
X0060423Y0204621D01*
X0060800Y0206219D02*
X0062400Y0206219D01*
X0062400Y0207818D02*
X0060800Y0207818D01*
X0060800Y0209416D02*
X0062400Y0209416D01*
X0062400Y0211015D02*
X0060800Y0211015D01*
X0060679Y0212613D02*
X0062527Y0212613D01*
X0063313Y0214212D02*
X0059771Y0214212D01*
X0056800Y0211526D02*
X0054930Y0211585D01*
X0049300Y0211526D01*
X0041800Y0204026D01*
X0041800Y0186526D01*
X0038829Y0183840D02*
X0033521Y0183840D01*
X0034550Y0184869D02*
X0032207Y0182526D01*
X0028893Y0182526D01*
X0026550Y0184869D01*
X0026550Y0188183D01*
X0028893Y0190526D01*
X0032207Y0190526D01*
X0034550Y0188183D01*
X0034550Y0184869D01*
X0034550Y0185438D02*
X0037800Y0185438D01*
X0037800Y0187037D02*
X0034550Y0187037D01*
X0034097Y0188635D02*
X0038253Y0188635D01*
X0039600Y0190234D02*
X0032499Y0190234D01*
X0028601Y0190234D02*
X0023600Y0190234D01*
X0023600Y0191832D02*
X0039600Y0191832D01*
X0039600Y0193431D02*
X0023600Y0193431D01*
X0023600Y0195029D02*
X0039600Y0195029D01*
X0039600Y0196628D02*
X0023600Y0196628D01*
X0023600Y0198227D02*
X0039600Y0198227D01*
X0039600Y0199825D02*
X0023600Y0199825D01*
X0023600Y0201424D02*
X0039600Y0201424D01*
X0039600Y0203022D02*
X0023600Y0203022D01*
X0023600Y0204621D02*
X0039600Y0204621D01*
X0040882Y0206219D02*
X0023600Y0206219D01*
X0023600Y0207818D02*
X0042480Y0207818D01*
X0044079Y0209416D02*
X0023600Y0209416D01*
X0023600Y0211015D02*
X0045677Y0211015D01*
X0047276Y0212613D02*
X0043544Y0212613D01*
X0045142Y0214212D02*
X0053829Y0214212D01*
X0052800Y0207818D02*
X0048703Y0207818D01*
X0047104Y0206219D02*
X0052800Y0206219D01*
X0053177Y0204621D02*
X0045506Y0204621D01*
X0044000Y0203022D02*
X0054447Y0203022D01*
X0045800Y0215810D02*
X0065747Y0215810D01*
X0066800Y0215810D02*
X0066800Y0215810D01*
X0067853Y0215810D02*
X0091352Y0215810D01*
X0091800Y0218534D02*
X0047922Y0218534D01*
X0043675Y0218401D01*
X0041800Y0216526D01*
X0038624Y0219007D02*
X0037525Y0219007D01*
X0037800Y0217409D02*
X0035394Y0217409D01*
X0034550Y0215810D02*
X0037800Y0215810D01*
X0038458Y0214212D02*
X0033892Y0214212D01*
X0032294Y0212613D02*
X0040056Y0212613D01*
X0038050Y0222151D02*
X0030550Y0216526D01*
X0032323Y0220606D02*
X0023600Y0220606D01*
X0023600Y0222204D02*
X0034454Y0222204D01*
X0036586Y0223803D02*
X0023600Y0223803D01*
X0023600Y0225401D02*
X0087314Y0225401D01*
X0088675Y0227151D02*
X0126175Y0227151D01*
X0129356Y0227000D02*
X0163215Y0227000D01*
X0161616Y0228598D02*
X0129019Y0228598D01*
X0130351Y0230197D02*
X0127135Y0230197D01*
X0125215Y0230197D02*
X0123249Y0230197D01*
X0122596Y0229926D02*
X0124066Y0230535D01*
X0125191Y0231660D01*
X0125800Y0233130D01*
X0125800Y0239922D01*
X0125191Y0241392D01*
X0124066Y0242517D01*
X0122596Y0243126D01*
X0121004Y0243126D01*
X0119534Y0242517D01*
X0118409Y0241392D01*
X0117800Y0239922D01*
X0117800Y0233130D01*
X0118409Y0231660D01*
X0119534Y0230535D01*
X0121004Y0229926D01*
X0122596Y0229926D01*
X0120351Y0230197D02*
X0113249Y0230197D01*
X0112596Y0229926D02*
X0114066Y0230535D01*
X0115191Y0231660D01*
X0115800Y0233130D01*
X0115800Y0239922D01*
X0115191Y0241392D01*
X0114066Y0242517D01*
X0112596Y0243126D01*
X0111004Y0243126D01*
X0109534Y0242517D01*
X0108409Y0241392D01*
X0107800Y0239922D01*
X0107800Y0233130D01*
X0108409Y0231660D01*
X0109534Y0230535D01*
X0111004Y0229926D01*
X0112596Y0229926D01*
X0110351Y0230197D02*
X0103249Y0230197D01*
X0102596Y0229926D02*
X0104066Y0230535D01*
X0105191Y0231660D01*
X0105800Y0233130D01*
X0105800Y0239922D01*
X0105191Y0241392D01*
X0104066Y0242517D01*
X0102596Y0243126D01*
X0101004Y0243126D01*
X0099534Y0242517D01*
X0098409Y0241392D01*
X0097800Y0239922D01*
X0097800Y0233130D01*
X0098409Y0231660D01*
X0099534Y0230535D01*
X0101004Y0229926D01*
X0102596Y0229926D01*
X0100351Y0230197D02*
X0093249Y0230197D01*
X0092596Y0229926D02*
X0094066Y0230535D01*
X0095191Y0231660D01*
X0095800Y0233130D01*
X0095800Y0239922D01*
X0095191Y0241392D01*
X0094066Y0242517D01*
X0092596Y0243126D01*
X0091004Y0243126D01*
X0089534Y0242517D01*
X0088409Y0241392D01*
X0087800Y0239922D01*
X0087800Y0233130D01*
X0088409Y0231660D01*
X0089534Y0230535D01*
X0091004Y0229926D01*
X0092596Y0229926D01*
X0090351Y0230197D02*
X0088741Y0230197D01*
X0088353Y0231795D02*
X0087142Y0231795D01*
X0086500Y0233394D02*
X0087800Y0233394D01*
X0087800Y0234992D02*
X0086500Y0234992D01*
X0086500Y0236591D02*
X0087800Y0236591D01*
X0087800Y0238189D02*
X0086500Y0238189D01*
X0086500Y0239788D02*
X0087800Y0239788D01*
X0088407Y0241386D02*
X0086500Y0241386D01*
X0086500Y0242985D02*
X0090664Y0242985D01*
X0092936Y0242985D02*
X0100664Y0242985D01*
X0102936Y0242985D02*
X0110664Y0242985D01*
X0112936Y0242985D02*
X0120664Y0242985D01*
X0122936Y0242985D02*
X0127230Y0242985D01*
X0128407Y0241386D02*
X0125193Y0241386D01*
X0125800Y0239788D02*
X0127800Y0239788D01*
X0127800Y0238189D02*
X0125800Y0238189D01*
X0125800Y0236591D02*
X0127800Y0236591D01*
X0127800Y0234992D02*
X0125800Y0234992D01*
X0125800Y0233394D02*
X0127800Y0233394D01*
X0128353Y0231795D02*
X0125247Y0231795D01*
X0128893Y0225401D02*
X0164814Y0225401D01*
X0166412Y0223803D02*
X0095760Y0223803D01*
X0094300Y0222151D02*
X0038050Y0222151D01*
X0037528Y0225524D02*
X0038916Y0226099D01*
X0039979Y0227162D01*
X0040554Y0228550D01*
X0040554Y0230053D01*
X0039979Y0231442D01*
X0039166Y0232254D01*
X0039919Y0233007D01*
X0047244Y0233007D01*
X0047270Y0232982D01*
X0048150Y0233007D01*
X0049030Y0233007D01*
X0049056Y0233033D01*
X0050581Y0233076D01*
X0073961Y0233076D01*
X0077711Y0236826D01*
X0078988Y0238103D01*
X0079066Y0238135D01*
X0080191Y0239260D01*
X0080800Y0240730D01*
X0080800Y0247522D01*
X0080191Y0248992D01*
X0079066Y0250117D01*
X0077596Y0250726D01*
X0076004Y0250726D01*
X0074534Y0250117D01*
X0073409Y0248992D01*
X0072800Y0247522D01*
X0072800Y0240730D01*
X0073409Y0239260D01*
X0073666Y0239003D01*
X0072139Y0237476D01*
X0051425Y0237476D01*
X0051399Y0237501D01*
X0050519Y0237476D01*
X0049639Y0237476D01*
X0049613Y0237450D01*
X0048088Y0237407D01*
X0039919Y0237407D01*
X0039166Y0238160D01*
X0039979Y0238973D01*
X0040126Y0239326D01*
X0042711Y0239326D01*
X0044000Y0240615D01*
X0055211Y0251826D01*
X0060889Y0251826D01*
X0063566Y0249149D01*
X0063409Y0248992D01*
X0062800Y0247522D01*
X0062800Y0240730D01*
X0063409Y0239260D01*
X0064534Y0238135D01*
X0066004Y0237526D01*
X0067596Y0237526D01*
X0069066Y0238135D01*
X0070191Y0239260D01*
X0070800Y0240730D01*
X0070800Y0247522D01*
X0070191Y0248992D01*
X0069066Y0250117D01*
X0068647Y0250291D01*
X0064000Y0254937D01*
X0062711Y0256226D01*
X0053389Y0256226D01*
X0040889Y0243726D01*
X0039506Y0243726D01*
X0038916Y0244315D01*
X0037528Y0244891D01*
X0031269Y0244891D01*
X0029880Y0244315D01*
X0028818Y0243253D01*
X0028243Y0241864D01*
X0028243Y0240361D01*
X0028818Y0238973D01*
X0029630Y0238160D01*
X0028818Y0237347D01*
X0028243Y0235959D01*
X0028243Y0234456D01*
X0028818Y0233067D01*
X0029630Y0232254D01*
X0028818Y0231442D01*
X0028243Y0230053D01*
X0028243Y0228550D01*
X0028818Y0227162D01*
X0029880Y0226099D01*
X0031269Y0225524D01*
X0037528Y0225524D01*
X0039817Y0227000D02*
X0085715Y0227000D01*
X0084116Y0228598D02*
X0040554Y0228598D01*
X0040495Y0230197D02*
X0082518Y0230197D01*
X0082100Y0231795D02*
X0039626Y0231795D01*
X0036800Y0235207D02*
X0048119Y0235207D01*
X0050550Y0235276D01*
X0073050Y0235276D01*
X0076800Y0239026D01*
X0076800Y0241526D01*
X0072800Y0241386D02*
X0070800Y0241386D01*
X0070800Y0242985D02*
X0072800Y0242985D01*
X0072800Y0244583D02*
X0070800Y0244583D01*
X0070800Y0246182D02*
X0072800Y0246182D01*
X0072907Y0247780D02*
X0070693Y0247780D01*
X0069804Y0249379D02*
X0073796Y0249379D01*
X0070139Y0252576D02*
X0066361Y0252576D01*
X0064763Y0254174D02*
X0068540Y0254174D01*
X0066942Y0255773D02*
X0063164Y0255773D01*
X0061800Y0254026D02*
X0054300Y0254026D01*
X0041800Y0241526D01*
X0036800Y0241526D01*
X0034398Y0241113D01*
X0030527Y0244583D02*
X0023600Y0244583D01*
X0023600Y0242985D02*
X0028707Y0242985D01*
X0028243Y0241386D02*
X0023600Y0241386D01*
X0023600Y0239788D02*
X0028480Y0239788D01*
X0029601Y0238189D02*
X0023600Y0238189D01*
X0023600Y0236591D02*
X0028504Y0236591D01*
X0028243Y0234992D02*
X0023600Y0234992D01*
X0023600Y0233394D02*
X0028682Y0233394D01*
X0029171Y0231795D02*
X0023600Y0231795D01*
X0023600Y0230197D02*
X0028302Y0230197D01*
X0028243Y0228598D02*
X0023600Y0228598D01*
X0023600Y0227000D02*
X0028980Y0227000D01*
X0027374Y0219007D02*
X0023600Y0219007D01*
X0023600Y0217409D02*
X0026550Y0217409D01*
X0026550Y0215810D02*
X0023600Y0215810D01*
X0023600Y0214212D02*
X0027208Y0214212D01*
X0028806Y0212613D02*
X0023600Y0212613D01*
X0023600Y0188635D02*
X0027003Y0188635D01*
X0026550Y0187037D02*
X0023600Y0187037D01*
X0023600Y0185438D02*
X0026550Y0185438D01*
X0027579Y0183840D02*
X0023600Y0183840D01*
X0023600Y0172650D02*
X0029460Y0172650D01*
X0027950Y0171052D02*
X0023600Y0171052D01*
X0023600Y0169453D02*
X0027458Y0169453D01*
X0027627Y0167855D02*
X0023600Y0167855D01*
X0023600Y0166256D02*
X0028527Y0166256D01*
X0028158Y0164658D02*
X0023600Y0164658D01*
X0023600Y0163059D02*
X0027849Y0163059D01*
X0028241Y0161461D02*
X0023600Y0161461D01*
X0023600Y0159862D02*
X0028357Y0159862D01*
X0027562Y0158264D02*
X0023600Y0158264D01*
X0023600Y0156665D02*
X0027490Y0156665D01*
X0027449Y0157254D02*
X0034005Y0157254D01*
X0034005Y0157254D01*
X0027449Y0157254D01*
X0028052Y0155067D02*
X0023600Y0155067D01*
X0023600Y0153468D02*
X0028415Y0153468D01*
X0027849Y0151870D02*
X0023600Y0151870D01*
X0023600Y0150271D02*
X0027984Y0150271D01*
X0028960Y0148673D02*
X0023600Y0148673D01*
X0023600Y0147074D02*
X0065647Y0147074D01*
X0065770Y0147034D02*
X0066454Y0146926D01*
X0066800Y0146926D01*
X0067146Y0146926D01*
X0067830Y0147034D01*
X0068489Y0147248D01*
X0069106Y0147563D01*
X0069666Y0147970D01*
X0070156Y0148460D01*
X0070563Y0149020D01*
X0070878Y0149637D01*
X0071092Y0150296D01*
X0071200Y0150980D01*
X0071200Y0156526D01*
X0071200Y0156872D01*
X0071092Y0157556D01*
X0070878Y0158215D01*
X0070563Y0158832D01*
X0070156Y0159392D01*
X0069666Y0159882D01*
X0069106Y0160289D01*
X0068489Y0160604D01*
X0067830Y0160818D01*
X0067146Y0160926D01*
X0066800Y0160926D01*
X0066800Y0156526D01*
X0066800Y0156526D01*
X0066800Y0160926D01*
X0066454Y0160926D01*
X0065770Y0160818D01*
X0065111Y0160604D01*
X0064494Y0160289D01*
X0063934Y0159882D01*
X0063444Y0159392D01*
X0063037Y0158832D01*
X0062722Y0158215D01*
X0062508Y0157556D01*
X0062400Y0156872D01*
X0062400Y0156526D01*
X0066800Y0156526D01*
X0071200Y0156526D01*
X0066800Y0156526D01*
X0066800Y0156526D01*
X0066800Y0156526D01*
X0066800Y0146926D01*
X0066800Y0156526D01*
X0066800Y0156526D01*
X0062400Y0156526D01*
X0062400Y0150980D01*
X0062508Y0150296D01*
X0062722Y0149637D01*
X0063037Y0149020D01*
X0063444Y0148460D01*
X0063934Y0147970D01*
X0064494Y0147563D01*
X0065111Y0147248D01*
X0065770Y0147034D01*
X0066800Y0147074D02*
X0066800Y0147074D01*
X0067953Y0147074D02*
X0076737Y0147074D01*
X0075138Y0145476D02*
X0023600Y0145476D01*
X0023600Y0143877D02*
X0073540Y0143877D01*
X0073796Y0148673D02*
X0070311Y0148673D01*
X0071084Y0150271D02*
X0072907Y0150271D01*
X0072800Y0151870D02*
X0071200Y0151870D01*
X0071200Y0153468D02*
X0072800Y0153468D01*
X0072800Y0155067D02*
X0071200Y0155067D01*
X0071200Y0156665D02*
X0072800Y0156665D01*
X0073190Y0158264D02*
X0070853Y0158264D01*
X0069686Y0159862D02*
X0074479Y0159862D01*
X0079121Y0159862D02*
X0082100Y0159862D01*
X0082100Y0158264D02*
X0080410Y0158264D01*
X0080800Y0156665D02*
X0082100Y0156665D01*
X0082100Y0155067D02*
X0080800Y0155067D01*
X0080800Y0153468D02*
X0082100Y0153468D01*
X0081532Y0151870D02*
X0080800Y0151870D01*
X0082100Y0161461D02*
X0054846Y0161461D01*
X0056004Y0160526D02*
X0054534Y0159917D01*
X0053409Y0158792D01*
X0052800Y0157322D01*
X0052800Y0150530D01*
X0053409Y0149060D01*
X0054534Y0147935D01*
X0056004Y0147326D01*
X0057596Y0147326D01*
X0059066Y0147935D01*
X0060191Y0149060D01*
X0060800Y0150530D01*
X0060800Y0157322D01*
X0060191Y0158792D01*
X0059066Y0159917D01*
X0057596Y0160526D01*
X0056004Y0160526D01*
X0054479Y0159862D02*
X0053248Y0159862D01*
X0053190Y0158264D02*
X0051649Y0158264D01*
X0052800Y0156665D02*
X0050050Y0156665D01*
X0048452Y0155067D02*
X0052800Y0155067D01*
X0052800Y0153468D02*
X0046853Y0153468D01*
X0045255Y0151870D02*
X0052800Y0151870D01*
X0052907Y0150271D02*
X0043656Y0150271D01*
X0041623Y0151349D02*
X0064300Y0174026D01*
X0084300Y0174026D01*
X0089300Y0179026D01*
X0089300Y0191526D01*
X0091800Y0194026D01*
X0101800Y0194026D01*
X0105141Y0193431D02*
X0108094Y0193431D01*
X0107123Y0195029D02*
X0109600Y0195029D01*
X0112718Y0191832D02*
X0115324Y0191832D01*
X0115191Y0193431D02*
X0114000Y0193431D01*
X0114000Y0195029D02*
X0115761Y0195029D01*
X0114000Y0196628D02*
X0118088Y0196628D01*
X0114000Y0198227D02*
X0129600Y0198227D01*
X0128791Y0196628D02*
X0124607Y0196628D01*
X0126934Y0195029D02*
X0127192Y0195029D01*
X0128050Y0192776D02*
X0124300Y0192776D01*
X0121347Y0192904D01*
X0116296Y0190234D02*
X0111500Y0190234D01*
X0111500Y0188635D02*
X0115114Y0188635D01*
X0114791Y0187037D02*
X0111500Y0187037D01*
X0111500Y0185438D02*
X0115083Y0185438D01*
X0116219Y0183840D02*
X0111500Y0183840D01*
X0110627Y0182241D02*
X0126904Y0182241D01*
X0126475Y0183840D02*
X0128503Y0183840D01*
X0127611Y0185438D02*
X0130101Y0185438D01*
X0131700Y0187037D02*
X0127903Y0187037D01*
X0127580Y0188635D02*
X0133298Y0188635D01*
X0134900Y0191578D02*
X0137477Y0189001D01*
X0139300Y0189001D01*
X0139300Y0193401D01*
X0139300Y0193401D01*
X0134900Y0193401D01*
X0134900Y0191578D01*
X0134900Y0191832D02*
X0130218Y0191832D01*
X0131816Y0193431D02*
X0134900Y0193431D01*
X0134900Y0195029D02*
X0133415Y0195029D01*
X0134000Y0196628D02*
X0136304Y0196628D01*
X0134000Y0198227D02*
X0141988Y0198227D01*
X0139300Y0196628D02*
X0139300Y0196628D01*
X0139300Y0195029D02*
X0139300Y0195029D01*
X0139300Y0193431D02*
X0139300Y0193431D01*
X0139300Y0191832D02*
X0139300Y0191832D01*
X0139300Y0190234D02*
X0139300Y0190234D01*
X0136245Y0190234D02*
X0126398Y0190234D01*
X0128050Y0192776D02*
X0131800Y0196526D01*
X0131800Y0206526D01*
X0141800Y0206526D02*
X0141800Y0201526D01*
X0145014Y0201424D02*
X0148400Y0201424D01*
X0148400Y0199825D02*
X0146500Y0199825D01*
X0146500Y0198227D02*
X0148400Y0198227D01*
X0146870Y0196628D02*
X0146500Y0196628D01*
X0146500Y0190234D02*
X0146810Y0190234D01*
X0146500Y0188635D02*
X0154667Y0188635D01*
X0153068Y0187037D02*
X0145422Y0187037D01*
X0143824Y0185438D02*
X0151470Y0185438D01*
X0149871Y0183840D02*
X0134725Y0183840D01*
X0136293Y0182241D02*
X0133127Y0182241D01*
X0134900Y0180849D02*
X0134900Y0179026D01*
X0139300Y0179026D01*
X0139300Y0179026D01*
X0139300Y0183426D01*
X0141123Y0183426D01*
X0143700Y0180849D01*
X0143700Y0179026D01*
X0139300Y0179026D01*
X0139300Y0179026D01*
X0139300Y0183426D01*
X0137477Y0183426D01*
X0134900Y0180849D01*
X0134900Y0180643D02*
X0131528Y0180643D01*
X0129930Y0179044D02*
X0134900Y0179044D01*
X0134900Y0179026D02*
X0134900Y0177203D01*
X0137477Y0174626D01*
X0139300Y0174626D01*
X0141123Y0174626D01*
X0143700Y0177203D01*
X0143700Y0179026D01*
X0139300Y0179026D01*
X0139300Y0179026D01*
X0139300Y0174626D01*
X0139300Y0179026D01*
X0139300Y0179026D01*
X0134900Y0179026D01*
X0134900Y0177446D02*
X0128331Y0177446D01*
X0126733Y0175847D02*
X0136256Y0175847D01*
X0139300Y0175847D02*
X0139300Y0175847D01*
X0139300Y0177446D02*
X0139300Y0177446D01*
X0139300Y0179044D02*
X0139300Y0179044D01*
X0139300Y0180643D02*
X0139300Y0180643D01*
X0139300Y0182241D02*
X0139300Y0182241D01*
X0142307Y0182241D02*
X0146859Y0182241D01*
X0147643Y0183026D02*
X0145300Y0180683D01*
X0145300Y0177369D01*
X0147643Y0175026D01*
X0150957Y0175026D01*
X0153300Y0177369D01*
X0153300Y0178783D01*
X0161168Y0186651D01*
X0162043Y0186651D01*
X0162434Y0186260D01*
X0163904Y0185651D01*
X0170696Y0185651D01*
X0172166Y0186260D01*
X0172670Y0186764D01*
X0173499Y0187108D01*
X0174343Y0187952D01*
X0174800Y0189054D01*
X0174800Y0201269D01*
X0175191Y0201660D01*
X0175800Y0203130D01*
X0175800Y0209922D01*
X0175191Y0211392D01*
X0174066Y0212517D01*
X0172596Y0213126D01*
X0171004Y0213126D01*
X0169534Y0212517D01*
X0168409Y0211392D01*
X0167800Y0209922D01*
X0167800Y0203130D01*
X0168409Y0201660D01*
X0168800Y0201269D01*
X0168800Y0193651D01*
X0163904Y0193651D01*
X0162434Y0193042D01*
X0162043Y0192651D01*
X0159328Y0192651D01*
X0158226Y0192194D01*
X0149057Y0183026D01*
X0147643Y0183026D01*
X0145300Y0180643D02*
X0143700Y0180643D01*
X0143700Y0179044D02*
X0145300Y0179044D01*
X0145300Y0177446D02*
X0143700Y0177446D01*
X0142344Y0175847D02*
X0146822Y0175847D01*
X0149813Y0172650D02*
X0124000Y0172650D01*
X0124000Y0171052D02*
X0148215Y0171052D01*
X0146616Y0169453D02*
X0124001Y0169453D01*
X0123998Y0167855D02*
X0145018Y0167855D01*
X0143419Y0166256D02*
X0123994Y0166256D01*
X0123991Y0164658D02*
X0141821Y0164658D01*
X0140222Y0163059D02*
X0123987Y0163059D01*
X0123984Y0161461D02*
X0138623Y0161461D01*
X0137025Y0159862D02*
X0123981Y0159862D01*
X0123977Y0158264D02*
X0135426Y0158264D01*
X0133828Y0156665D02*
X0123974Y0156665D01*
X0123970Y0155067D02*
X0132229Y0155067D01*
X0130631Y0153468D02*
X0123967Y0153468D01*
X0123964Y0151870D02*
X0129600Y0151870D01*
X0129600Y0150271D02*
X0123960Y0150271D01*
X0123957Y0148673D02*
X0129600Y0148673D01*
X0129600Y0147074D02*
X0123954Y0147074D01*
X0123950Y0145476D02*
X0128957Y0145476D01*
X0128619Y0143877D02*
X0123947Y0143877D01*
X0123943Y0142279D02*
X0129081Y0142279D01*
X0131800Y0144026D02*
X0131800Y0151526D01*
X0161800Y0181526D01*
X0163985Y0183840D02*
X0174362Y0183840D01*
X0174404Y0182241D02*
X0164947Y0182241D01*
X0164877Y0180643D02*
X0172806Y0180643D01*
X0171207Y0179044D02*
X0163817Y0179044D01*
X0162109Y0177446D02*
X0160831Y0177446D01*
X0160510Y0175847D02*
X0159233Y0175847D01*
X0158912Y0174249D02*
X0157634Y0174249D01*
X0157313Y0172650D02*
X0156036Y0172650D01*
X0155715Y0171052D02*
X0154437Y0171052D01*
X0154116Y0169453D02*
X0152839Y0169453D01*
X0152518Y0167855D02*
X0151240Y0167855D01*
X0152100Y0166256D02*
X0149642Y0166256D01*
X0148043Y0164658D02*
X0152100Y0164658D01*
X0152100Y0163059D02*
X0146445Y0163059D01*
X0144846Y0161461D02*
X0152100Y0161461D01*
X0152100Y0159862D02*
X0143248Y0159862D01*
X0141649Y0158264D02*
X0152100Y0158264D01*
X0152100Y0156665D02*
X0140050Y0156665D01*
X0138452Y0155067D02*
X0152100Y0155067D01*
X0152100Y0153468D02*
X0136853Y0153468D01*
X0135255Y0151870D02*
X0152100Y0151870D01*
X0156500Y0151870D02*
X0180100Y0151870D01*
X0180100Y0150271D02*
X0166159Y0150271D01*
X0167926Y0148673D02*
X0180100Y0148673D01*
X0180100Y0147074D02*
X0168472Y0147074D01*
X0168380Y0145476D02*
X0180100Y0145476D01*
X0180100Y0143877D02*
X0167551Y0143877D01*
X0169159Y0142279D02*
X0180100Y0142279D01*
X0180100Y0140680D02*
X0170757Y0140680D01*
X0172356Y0139082D02*
X0180100Y0139082D01*
X0180100Y0137483D02*
X0173954Y0137483D01*
X0174000Y0135885D02*
X0180100Y0135885D01*
X0180241Y0134286D02*
X0174000Y0134286D01*
X0174000Y0132688D02*
X0181136Y0132688D01*
X0181860Y0131089D02*
X0174000Y0131089D01*
X0174000Y0129491D02*
X0180542Y0129491D01*
X0180100Y0127892D02*
X0174000Y0127892D01*
X0174000Y0126293D02*
X0180100Y0126293D01*
X0180100Y0124695D02*
X0174000Y0124695D01*
X0174000Y0123096D02*
X0180100Y0123096D01*
X0180100Y0121498D02*
X0174000Y0121498D01*
X0174000Y0119899D02*
X0180100Y0119899D01*
X0180100Y0118301D02*
X0174000Y0118301D01*
X0174000Y0116702D02*
X0180100Y0116702D01*
X0180100Y0115104D02*
X0173489Y0115104D01*
X0171891Y0113505D02*
X0180100Y0113505D01*
X0180114Y0111907D02*
X0170292Y0111907D01*
X0177424Y0110308D02*
X0180828Y0110308D01*
X0181820Y0108710D02*
X0179023Y0108710D01*
X0179550Y0107111D02*
X0182100Y0107111D01*
X0182100Y0105513D02*
X0179550Y0105513D01*
X0178595Y0103914D02*
X0182100Y0103914D01*
X0182100Y0102316D02*
X0159000Y0102316D01*
X0159000Y0103914D02*
X0161012Y0103914D01*
X0160204Y0105513D02*
X0159000Y0105513D01*
X0159000Y0107111D02*
X0160128Y0107111D01*
X0159595Y0108710D02*
X0160689Y0108710D01*
X0156570Y0111907D02*
X0154446Y0111907D01*
X0154446Y0112055D02*
X0154446Y0093123D01*
X0158575Y0088993D01*
X0158672Y0088945D01*
X0158995Y0088574D01*
X0159343Y0088225D01*
X0159384Y0088126D01*
X0159455Y0088045D01*
X0159611Y0087578D01*
X0159800Y0087123D01*
X0159800Y0087015D01*
X0159834Y0086913D01*
X0159800Y0086422D01*
X0159800Y0085929D01*
X0159759Y0085830D01*
X0159723Y0085313D01*
X0159807Y0085279D01*
X0161242Y0083844D01*
X0162018Y0081970D01*
X0162018Y0079941D01*
X0161242Y0078066D01*
X0159807Y0076632D01*
X0157933Y0075855D01*
X0155904Y0075855D01*
X0154029Y0076632D01*
X0152595Y0078066D01*
X0152410Y0078511D01*
X0152226Y0078066D01*
X0150791Y0076632D01*
X0148917Y0075855D01*
X0146888Y0075855D01*
X0145013Y0076632D01*
X0143579Y0078066D01*
X0143394Y0078511D01*
X0143210Y0078066D01*
X0141776Y0076632D01*
X0139901Y0075855D01*
X0137872Y0075855D01*
X0135998Y0076632D01*
X0134563Y0078066D01*
X0134379Y0078511D01*
X0134194Y0078066D01*
X0132760Y0076632D01*
X0130885Y0075855D01*
X0128856Y0075855D01*
X0126982Y0076632D01*
X0125552Y0078062D01*
X0125050Y0077372D01*
X0124438Y0076760D01*
X0123738Y0076251D01*
X0123550Y0076155D01*
X0124055Y0076320D01*
X0124910Y0076455D01*
X0125143Y0076455D01*
X0125143Y0071155D01*
X0125543Y0071155D01*
X0125543Y0076455D01*
X0125776Y0076455D01*
X0126631Y0076320D01*
X0127455Y0076052D01*
X0128226Y0075659D01*
X0128926Y0075150D01*
X0129538Y0074538D01*
X0130040Y0073848D01*
X0131470Y0075279D01*
X0133345Y0076055D01*
X0135374Y0076055D01*
X0137248Y0075279D01*
X0138683Y0073844D01*
X0138867Y0073399D01*
X0139051Y0073844D01*
X0140486Y0075279D01*
X0142360Y0076055D01*
X0144389Y0076055D01*
X0146264Y0075279D01*
X0147698Y0073844D01*
X0147883Y0073399D01*
X0148067Y0073844D01*
X0149502Y0075279D01*
X0151376Y0076055D01*
X0153405Y0076055D01*
X0155279Y0075279D01*
X0156714Y0073844D01*
X0156898Y0073399D01*
X0157083Y0073844D01*
X0158517Y0075279D01*
X0160392Y0076055D01*
X0162100Y0076055D01*
X0162100Y0085615D01*
X0154600Y0093115D01*
X0154600Y0109937D01*
X0155889Y0111226D01*
X0158189Y0113526D01*
X0155917Y0113526D01*
X0154446Y0112055D01*
X0154446Y0110308D02*
X0154971Y0110308D01*
X0154600Y0108710D02*
X0154446Y0108710D01*
X0154446Y0107111D02*
X0154600Y0107111D01*
X0154600Y0105513D02*
X0154446Y0105513D01*
X0154446Y0103914D02*
X0154600Y0103914D01*
X0154600Y0102316D02*
X0154446Y0102316D01*
X0154446Y0100717D02*
X0154600Y0100717D01*
X0154600Y0099119D02*
X0154446Y0099119D01*
X0154446Y0097520D02*
X0154600Y0097520D01*
X0154600Y0095922D02*
X0154446Y0095922D01*
X0154446Y0094323D02*
X0154600Y0094323D01*
X0154844Y0092725D02*
X0154990Y0092725D01*
X0156442Y0091126D02*
X0156588Y0091126D01*
X0158041Y0089528D02*
X0158187Y0089528D01*
X0159494Y0087929D02*
X0159785Y0087929D01*
X0159800Y0086331D02*
X0161384Y0086331D01*
X0162100Y0084732D02*
X0160354Y0084732D01*
X0161536Y0083134D02*
X0162100Y0083134D01*
X0162100Y0081535D02*
X0162018Y0081535D01*
X0162016Y0079937D02*
X0162100Y0079937D01*
X0162100Y0078338D02*
X0161354Y0078338D01*
X0162100Y0076740D02*
X0159915Y0076740D01*
X0158380Y0075141D02*
X0155417Y0075141D01*
X0156839Y0073543D02*
X0156958Y0073543D01*
X0153921Y0076740D02*
X0150899Y0076740D01*
X0152339Y0078338D02*
X0152482Y0078338D01*
X0149364Y0075141D02*
X0146401Y0075141D01*
X0147823Y0073543D02*
X0147942Y0073543D01*
X0144905Y0076740D02*
X0141884Y0076740D01*
X0143323Y0078338D02*
X0143466Y0078338D01*
X0140348Y0075141D02*
X0137386Y0075141D01*
X0138807Y0073543D02*
X0138926Y0073543D01*
X0135890Y0076740D02*
X0132868Y0076740D01*
X0134307Y0078338D02*
X0134450Y0078338D01*
X0131333Y0075141D02*
X0128935Y0075141D01*
X0126874Y0076740D02*
X0124410Y0076740D01*
X0125143Y0075141D02*
X0125543Y0075141D01*
X0125543Y0073543D02*
X0125143Y0073543D01*
X0125143Y0071944D02*
X0125543Y0071944D01*
X0121751Y0075141D02*
X0114000Y0075141D01*
X0114000Y0073543D02*
X0120489Y0073543D01*
X0119931Y0071944D02*
X0114000Y0071944D01*
X0114000Y0070346D02*
X0119871Y0070346D01*
X0120296Y0068747D02*
X0115190Y0068747D01*
X0115914Y0062353D02*
X0098218Y0062353D01*
X0095830Y0060755D02*
X0115755Y0060755D01*
X0116080Y0059156D02*
X0060041Y0059156D01*
X0058443Y0057558D02*
X0117040Y0057558D01*
X0124670Y0057558D02*
X0126056Y0057558D01*
X0138887Y0060955D02*
X0139300Y0060542D01*
X0139300Y0059026D01*
X0151800Y0046526D01*
X0199300Y0046526D01*
X0209300Y0056526D01*
X0209300Y0106526D01*
X0196800Y0119026D01*
X0196800Y0147776D01*
X0199300Y0150276D01*
X0209300Y0150276D01*
X0214300Y0155276D01*
X0214300Y0169026D01*
X0231800Y0186526D01*
X0231800Y0214026D01*
X0221800Y0224026D01*
X0221800Y0236526D01*
X0225800Y0236591D02*
X0225900Y0236591D01*
X0225900Y0238189D02*
X0225800Y0238189D01*
X0225800Y0239788D02*
X0225900Y0239788D01*
X0225900Y0241386D02*
X0225193Y0241386D01*
X0225900Y0242985D02*
X0222936Y0242985D01*
X0220664Y0242985D02*
X0213452Y0242985D01*
X0211800Y0241526D02*
X0176800Y0276526D01*
X0149300Y0276526D01*
X0146175Y0273401D01*
X0146047Y0268983D01*
X0146017Y0267077D01*
X0148969Y0271845D02*
X0148350Y0272465D01*
X0150211Y0274326D01*
X0175889Y0274326D01*
X0208616Y0241599D01*
X0208409Y0241392D01*
X0207800Y0239922D01*
X0207800Y0233130D01*
X0208409Y0231660D01*
X0209534Y0230535D01*
X0210884Y0229976D01*
X0206461Y0229976D01*
X0204984Y0231453D01*
X0205191Y0231660D01*
X0205800Y0233130D01*
X0205800Y0239922D01*
X0205191Y0241392D01*
X0204066Y0242517D01*
X0203817Y0242620D01*
X0186461Y0259976D01*
X0143961Y0259976D01*
X0142346Y0261591D01*
X0143064Y0262309D01*
X0143876Y0261496D01*
X0145265Y0260921D01*
X0146768Y0260921D01*
X0148157Y0261496D01*
X0148969Y0262309D01*
X0149782Y0261496D01*
X0151171Y0260921D01*
X0152674Y0260921D01*
X0154062Y0261496D01*
X0154875Y0262309D01*
X0155688Y0261496D01*
X0157076Y0260921D01*
X0158579Y0260921D01*
X0159968Y0261496D01*
X0160780Y0262309D01*
X0161593Y0261496D01*
X0162982Y0260921D01*
X0164485Y0260921D01*
X0165873Y0261496D01*
X0166411Y0262034D01*
X0166452Y0261977D01*
X0166917Y0261512D01*
X0167449Y0261126D01*
X0168035Y0260827D01*
X0168660Y0260624D01*
X0169310Y0260521D01*
X0169639Y0260521D01*
X0169967Y0260521D01*
X0170617Y0260624D01*
X0171242Y0260827D01*
X0171828Y0261126D01*
X0172360Y0261512D01*
X0172825Y0261977D01*
X0173212Y0262509D01*
X0173510Y0263095D01*
X0173714Y0263721D01*
X0173817Y0264370D01*
X0173817Y0267077D01*
X0169639Y0267077D01*
X0169639Y0267077D01*
X0173817Y0267077D01*
X0173817Y0269784D01*
X0173714Y0270433D01*
X0173510Y0271059D01*
X0173212Y0271645D01*
X0172825Y0272177D01*
X0172360Y0272642D01*
X0171828Y0273028D01*
X0171242Y0273327D01*
X0170617Y0273530D01*
X0169967Y0273633D01*
X0169639Y0273633D01*
X0169639Y0267077D01*
X0169639Y0260521D01*
X0169639Y0267077D01*
X0169639Y0267077D01*
X0169639Y0267077D01*
X0169639Y0273633D01*
X0169310Y0273633D01*
X0168660Y0273530D01*
X0168035Y0273327D01*
X0167449Y0273028D01*
X0166917Y0272642D01*
X0166452Y0272177D01*
X0166411Y0272120D01*
X0165873Y0272658D01*
X0164485Y0273233D01*
X0162982Y0273233D01*
X0161593Y0272658D01*
X0160780Y0271845D01*
X0159968Y0272658D01*
X0158579Y0273233D01*
X0157076Y0273233D01*
X0155688Y0272658D01*
X0154875Y0271845D01*
X0154062Y0272658D01*
X0152674Y0273233D01*
X0151171Y0273233D01*
X0149782Y0272658D01*
X0148969Y0271845D01*
X0149242Y0273357D02*
X0168126Y0273357D01*
X0169639Y0273357D02*
X0169639Y0273357D01*
X0171151Y0273357D02*
X0176858Y0273357D01*
X0178457Y0271758D02*
X0173130Y0271758D01*
X0173757Y0270160D02*
X0180055Y0270160D01*
X0181654Y0268561D02*
X0173817Y0268561D01*
X0173817Y0266962D02*
X0183252Y0266962D01*
X0184851Y0265364D02*
X0173817Y0265364D01*
X0173721Y0263765D02*
X0186449Y0263765D01*
X0188048Y0262167D02*
X0172963Y0262167D01*
X0170265Y0260568D02*
X0189646Y0260568D01*
X0191245Y0258970D02*
X0187467Y0258970D01*
X0185550Y0257776D02*
X0143050Y0257776D01*
X0139925Y0260901D01*
X0139910Y0266876D01*
X0140111Y0267077D01*
X0142922Y0262167D02*
X0143206Y0262167D01*
X0143369Y0260568D02*
X0169012Y0260568D01*
X0169639Y0260568D02*
X0169639Y0260568D01*
X0169639Y0262167D02*
X0169639Y0262167D01*
X0169639Y0263765D02*
X0169639Y0263765D01*
X0169639Y0265364D02*
X0169639Y0265364D01*
X0169639Y0266962D02*
X0169639Y0266962D01*
X0169639Y0268561D02*
X0169639Y0268561D01*
X0169639Y0270160D02*
X0169639Y0270160D01*
X0169639Y0271758D02*
X0169639Y0271758D01*
X0178285Y0278152D02*
X0251511Y0278152D01*
X0253319Y0276554D02*
X0179884Y0276554D01*
X0181482Y0274955D02*
X0207072Y0274955D01*
X0207643Y0275526D02*
X0205300Y0273183D01*
X0205300Y0269869D01*
X0207643Y0267526D01*
X0210957Y0267526D01*
X0213300Y0269869D01*
X0213300Y0273183D01*
X0210957Y0275526D01*
X0207643Y0275526D01*
X0205474Y0273357D02*
X0183081Y0273357D01*
X0184679Y0271758D02*
X0205300Y0271758D01*
X0205300Y0270160D02*
X0186278Y0270160D01*
X0187876Y0268561D02*
X0206608Y0268561D01*
X0211992Y0268561D02*
X0235400Y0268561D01*
X0235400Y0266962D02*
X0189475Y0266962D01*
X0191073Y0265364D02*
X0235400Y0265364D01*
X0235400Y0263765D02*
X0192672Y0263765D01*
X0194270Y0262167D02*
X0206784Y0262167D01*
X0207643Y0263026D02*
X0205300Y0260683D01*
X0205300Y0257369D01*
X0207643Y0255026D01*
X0210957Y0255026D01*
X0213300Y0257369D01*
X0213300Y0260683D01*
X0210957Y0263026D01*
X0207643Y0263026D01*
X0205300Y0260568D02*
X0195869Y0260568D01*
X0197467Y0258970D02*
X0205300Y0258970D01*
X0205300Y0257371D02*
X0199066Y0257371D01*
X0200664Y0255773D02*
X0206896Y0255773D01*
X0203861Y0252576D02*
X0233042Y0252576D01*
X0234640Y0254174D02*
X0202263Y0254174D01*
X0199237Y0250977D02*
X0195460Y0250977D01*
X0197058Y0249379D02*
X0200836Y0249379D01*
X0202434Y0247780D02*
X0198657Y0247780D01*
X0200255Y0246182D02*
X0204033Y0246182D01*
X0205631Y0244583D02*
X0201854Y0244583D01*
X0203452Y0242985D02*
X0207230Y0242985D01*
X0208407Y0241386D02*
X0205193Y0241386D01*
X0205800Y0239788D02*
X0207800Y0239788D01*
X0207800Y0238189D02*
X0205800Y0238189D01*
X0205800Y0236591D02*
X0207800Y0236591D01*
X0207800Y0234992D02*
X0205800Y0234992D01*
X0205800Y0233394D02*
X0207800Y0233394D01*
X0208353Y0231795D02*
X0205247Y0231795D01*
X0206241Y0230197D02*
X0210351Y0230197D01*
X0210550Y0227776D02*
X0205550Y0227776D01*
X0201800Y0231526D01*
X0201800Y0236526D01*
X0201800Y0241526D01*
X0185550Y0257776D01*
X0189066Y0257371D02*
X0192843Y0257371D01*
X0194442Y0255773D02*
X0190664Y0255773D01*
X0192263Y0254174D02*
X0196040Y0254174D01*
X0197639Y0252576D02*
X0193861Y0252576D01*
X0191800Y0241526D02*
X0179300Y0254026D01*
X0141800Y0254026D01*
X0134300Y0261526D01*
X0134398Y0266884D01*
X0134206Y0267077D01*
X0128300Y0267077D02*
X0128099Y0266876D01*
X0128050Y0262776D01*
X0140550Y0250276D01*
X0173050Y0250276D01*
X0181800Y0241526D01*
X0181800Y0236526D01*
X0191800Y0236526D02*
X0191800Y0241526D01*
X0205460Y0250977D02*
X0231443Y0250977D01*
X0229845Y0249379D02*
X0207058Y0249379D01*
X0208657Y0247780D02*
X0228246Y0247780D01*
X0226648Y0246182D02*
X0210255Y0246182D01*
X0211854Y0244583D02*
X0225900Y0244583D01*
X0218407Y0241386D02*
X0215193Y0241386D01*
X0215800Y0239788D02*
X0217800Y0239788D01*
X0217800Y0238189D02*
X0215800Y0238189D01*
X0215800Y0236591D02*
X0217800Y0236591D01*
X0217800Y0234992D02*
X0215800Y0234992D01*
X0215800Y0233394D02*
X0217800Y0233394D01*
X0218353Y0231795D02*
X0215247Y0231795D01*
X0213249Y0230197D02*
X0219600Y0230197D01*
X0219600Y0228598D02*
X0212839Y0228598D01*
X0214438Y0227000D02*
X0219600Y0227000D01*
X0219600Y0225401D02*
X0216036Y0225401D01*
X0217635Y0223803D02*
X0219600Y0223803D01*
X0219233Y0222204D02*
X0220511Y0222204D01*
X0220832Y0220606D02*
X0222109Y0220606D01*
X0222430Y0219007D02*
X0223708Y0219007D01*
X0224029Y0217409D02*
X0225306Y0217409D01*
X0225627Y0215810D02*
X0226905Y0215810D01*
X0227226Y0214212D02*
X0228503Y0214212D01*
X0228824Y0212613D02*
X0229600Y0212613D01*
X0229600Y0211015D02*
X0229000Y0211015D01*
X0229000Y0209416D02*
X0229600Y0209416D01*
X0229600Y0207818D02*
X0229000Y0207818D01*
X0229000Y0206219D02*
X0229600Y0206219D01*
X0229600Y0204621D02*
X0229000Y0204621D01*
X0229000Y0203022D02*
X0229600Y0203022D01*
X0229600Y0201424D02*
X0229000Y0201424D01*
X0229000Y0199825D02*
X0229600Y0199825D01*
X0229600Y0198227D02*
X0229000Y0198227D01*
X0229000Y0196628D02*
X0229600Y0196628D01*
X0229600Y0195029D02*
X0229000Y0195029D01*
X0229000Y0193431D02*
X0229600Y0193431D01*
X0229600Y0191832D02*
X0227718Y0191832D01*
X0226119Y0190234D02*
X0229600Y0190234D01*
X0229600Y0188635D02*
X0224521Y0188635D01*
X0222922Y0187037D02*
X0229200Y0187037D01*
X0227601Y0185438D02*
X0221324Y0185438D01*
X0219300Y0186526D02*
X0226800Y0194026D01*
X0226800Y0211526D01*
X0210550Y0227776D01*
X0208050Y0224026D02*
X0216800Y0215276D01*
X0216800Y0195901D01*
X0214300Y0193401D01*
X0210300Y0193431D02*
X0208700Y0193431D01*
X0208700Y0193401D02*
X0208700Y0195224D01*
X0206123Y0197801D01*
X0204300Y0197801D01*
X0204300Y0193401D01*
X0204300Y0193401D01*
X0208700Y0193401D01*
X0204300Y0193401D01*
X0204300Y0193401D01*
X0204300Y0197801D01*
X0202477Y0197801D01*
X0199900Y0195224D01*
X0199900Y0193401D01*
X0204300Y0193401D01*
X0204300Y0193401D01*
X0204300Y0189001D01*
X0206123Y0189001D01*
X0208700Y0191578D01*
X0208700Y0193401D01*
X0208700Y0191832D02*
X0210300Y0191832D01*
X0211810Y0190234D02*
X0207355Y0190234D01*
X0209200Y0187037D02*
X0200532Y0187037D01*
X0202130Y0185438D02*
X0207601Y0185438D01*
X0207100Y0183840D02*
X0203729Y0183840D01*
X0206741Y0182241D02*
X0207100Y0182241D01*
X0209300Y0184026D02*
X0211800Y0186526D01*
X0219300Y0186526D01*
X0219897Y0190234D02*
X0216790Y0190234D01*
X0218300Y0191832D02*
X0221495Y0191832D01*
X0223094Y0193431D02*
X0218300Y0193431D01*
X0219000Y0195029D02*
X0224600Y0195029D01*
X0224600Y0196628D02*
X0219000Y0196628D01*
X0219000Y0198227D02*
X0224600Y0198227D01*
X0224600Y0199825D02*
X0219000Y0199825D01*
X0214600Y0199825D02*
X0184800Y0199825D01*
X0184800Y0198227D02*
X0214600Y0198227D01*
X0211870Y0196628D02*
X0207296Y0196628D01*
X0208700Y0195029D02*
X0210300Y0195029D01*
X0210798Y0188635D02*
X0198933Y0188635D01*
X0197335Y0190234D02*
X0201245Y0190234D01*
X0202477Y0189001D02*
X0199900Y0191578D01*
X0199900Y0193401D01*
X0204300Y0193401D01*
X0204300Y0193401D01*
X0204300Y0189001D01*
X0202477Y0189001D01*
X0204300Y0190234D02*
X0204300Y0190234D01*
X0204300Y0191832D02*
X0204300Y0191832D01*
X0204300Y0193431D02*
X0204300Y0193431D01*
X0204300Y0195029D02*
X0204300Y0195029D01*
X0204300Y0196628D02*
X0204300Y0196628D01*
X0201304Y0196628D02*
X0184800Y0196628D01*
X0184800Y0195029D02*
X0199900Y0195029D01*
X0199900Y0193431D02*
X0190227Y0193431D01*
X0195736Y0191832D02*
X0199900Y0191832D01*
X0194066Y0200535D02*
X0192596Y0199926D01*
X0191004Y0199926D01*
X0189534Y0200535D01*
X0188409Y0201660D01*
X0187800Y0203130D01*
X0187800Y0209922D01*
X0188409Y0211392D01*
X0189534Y0212517D01*
X0191004Y0213126D01*
X0192596Y0213126D01*
X0194066Y0212517D01*
X0195191Y0211392D01*
X0195800Y0209922D01*
X0195800Y0203130D01*
X0195191Y0201660D01*
X0194066Y0200535D01*
X0194954Y0201424D02*
X0198646Y0201424D01*
X0197845Y0203022D02*
X0195755Y0203022D01*
X0195800Y0204621D02*
X0197800Y0204621D01*
X0197800Y0206219D02*
X0195800Y0206219D01*
X0195800Y0207818D02*
X0197800Y0207818D01*
X0197800Y0209416D02*
X0195800Y0209416D01*
X0195347Y0211015D02*
X0198253Y0211015D01*
X0199600Y0212613D02*
X0193834Y0212613D01*
X0189766Y0212613D02*
X0183834Y0212613D01*
X0185347Y0211015D02*
X0188253Y0211015D01*
X0187800Y0209416D02*
X0185800Y0209416D01*
X0185800Y0207818D02*
X0187800Y0207818D01*
X0187800Y0206219D02*
X0185800Y0206219D01*
X0185800Y0204621D02*
X0187800Y0204621D01*
X0187845Y0203022D02*
X0185755Y0203022D01*
X0184954Y0201424D02*
X0188646Y0201424D01*
X0179766Y0212613D02*
X0173834Y0212613D01*
X0175347Y0211015D02*
X0178253Y0211015D01*
X0177800Y0209416D02*
X0175800Y0209416D01*
X0175800Y0207818D02*
X0177800Y0207818D01*
X0177800Y0206219D02*
X0175800Y0206219D01*
X0175800Y0204621D02*
X0177800Y0204621D01*
X0177845Y0203022D02*
X0175755Y0203022D01*
X0174954Y0201424D02*
X0178646Y0201424D01*
X0178800Y0199825D02*
X0174800Y0199825D01*
X0174800Y0198227D02*
X0178800Y0198227D01*
X0178800Y0196628D02*
X0174800Y0196628D01*
X0174800Y0195029D02*
X0178800Y0195029D01*
X0178800Y0193431D02*
X0174800Y0193431D01*
X0174800Y0191832D02*
X0178800Y0191832D01*
X0178800Y0190234D02*
X0174800Y0190234D01*
X0174627Y0188635D02*
X0175089Y0188635D01*
X0173827Y0187037D02*
X0173328Y0187037D01*
X0173619Y0185438D02*
X0159955Y0185438D01*
X0159615Y0183840D02*
X0158357Y0183840D01*
X0158653Y0182241D02*
X0156758Y0182241D01*
X0157806Y0180643D02*
X0155160Y0180643D01*
X0156207Y0179044D02*
X0153561Y0179044D01*
X0153300Y0177446D02*
X0154609Y0177446D01*
X0153010Y0175847D02*
X0151778Y0175847D01*
X0151412Y0174249D02*
X0125134Y0174249D01*
X0122109Y0177446D02*
X0105831Y0177446D01*
X0107430Y0179044D02*
X0123707Y0179044D01*
X0125306Y0180643D02*
X0109028Y0180643D01*
X0106003Y0183840D02*
X0099000Y0183840D01*
X0099000Y0182241D02*
X0104404Y0182241D01*
X0102806Y0180643D02*
X0099000Y0180643D01*
X0099000Y0179044D02*
X0101207Y0179044D01*
X0099609Y0177446D02*
X0098331Y0177446D01*
X0098010Y0175847D02*
X0096733Y0175847D01*
X0096412Y0174249D02*
X0095134Y0174249D01*
X0094813Y0172650D02*
X0093536Y0172650D01*
X0093215Y0171052D02*
X0091937Y0171052D01*
X0091616Y0169453D02*
X0090339Y0169453D01*
X0090018Y0167855D02*
X0088740Y0167855D01*
X0085715Y0171052D02*
X0064437Y0171052D01*
X0062839Y0169453D02*
X0084116Y0169453D01*
X0082518Y0167855D02*
X0061240Y0167855D01*
X0059642Y0166256D02*
X0082100Y0166256D01*
X0082100Y0164658D02*
X0058043Y0164658D01*
X0056445Y0163059D02*
X0082100Y0163059D01*
X0086036Y0172650D02*
X0087313Y0172650D01*
X0087634Y0174249D02*
X0088912Y0174249D01*
X0089233Y0175847D02*
X0090510Y0175847D01*
X0090831Y0177446D02*
X0092109Y0177446D01*
X0091500Y0179044D02*
X0093707Y0179044D01*
X0094600Y0180643D02*
X0091500Y0180643D01*
X0091500Y0182241D02*
X0094600Y0182241D01*
X0094600Y0183840D02*
X0091500Y0183840D01*
X0091500Y0185438D02*
X0093481Y0185438D01*
X0092800Y0187037D02*
X0091500Y0187037D01*
X0091500Y0188635D02*
X0092800Y0188635D01*
X0093601Y0190234D02*
X0091500Y0190234D01*
X0089692Y0195029D02*
X0079153Y0195029D01*
X0080423Y0193431D02*
X0088094Y0193431D01*
X0087100Y0191832D02*
X0080800Y0191832D01*
X0080800Y0190234D02*
X0087100Y0190234D01*
X0087100Y0188635D02*
X0080800Y0188635D01*
X0080800Y0187037D02*
X0087100Y0187037D01*
X0082425Y0181526D02*
X0079925Y0179026D01*
X0073829Y0183840D02*
X0069771Y0183840D01*
X0070679Y0185438D02*
X0072921Y0185438D01*
X0072800Y0187037D02*
X0070800Y0187037D01*
X0070800Y0188635D02*
X0072800Y0188635D01*
X0072800Y0190234D02*
X0070800Y0190234D01*
X0070800Y0191832D02*
X0072800Y0191832D01*
X0073177Y0193431D02*
X0070423Y0193431D01*
X0069153Y0195029D02*
X0074447Y0195029D01*
X0074447Y0203022D02*
X0069719Y0203022D01*
X0070869Y0204621D02*
X0073177Y0204621D01*
X0072800Y0206219D02*
X0071200Y0206219D01*
X0071200Y0207818D02*
X0072800Y0207818D01*
X0072800Y0209416D02*
X0071200Y0209416D01*
X0071200Y0211015D02*
X0072800Y0211015D01*
X0072921Y0212613D02*
X0071073Y0212613D01*
X0070287Y0214212D02*
X0073829Y0214212D01*
X0066800Y0214212D02*
X0066800Y0214212D01*
X0066800Y0212613D02*
X0066800Y0212613D01*
X0066800Y0211015D02*
X0066800Y0211015D01*
X0066800Y0209416D02*
X0066800Y0209416D01*
X0066800Y0207818D02*
X0066800Y0207818D01*
X0066800Y0206219D02*
X0066800Y0206219D01*
X0066800Y0204621D02*
X0066800Y0204621D01*
X0066800Y0203022D02*
X0066800Y0203022D01*
X0088675Y0227151D02*
X0084300Y0231526D01*
X0084300Y0249026D01*
X0079300Y0254026D01*
X0071800Y0254026D01*
X0066175Y0259651D01*
X0065894Y0267146D01*
X0062117Y0266962D02*
X0045568Y0266962D01*
X0045449Y0266442D02*
X0045756Y0267789D01*
X0045899Y0269053D01*
X0034411Y0269053D01*
X0034411Y0257565D01*
X0035675Y0257707D01*
X0037021Y0258015D01*
X0038325Y0258471D01*
X0039570Y0259071D01*
X0040740Y0259806D01*
X0041820Y0260667D01*
X0042797Y0261644D01*
X0043658Y0262724D01*
X0044393Y0263894D01*
X0044993Y0265138D01*
X0045449Y0266442D01*
X0045072Y0265364D02*
X0062117Y0265364D01*
X0062221Y0263765D02*
X0044313Y0263765D01*
X0043214Y0262167D02*
X0063153Y0262167D01*
X0063939Y0260568D02*
X0041697Y0260568D01*
X0039361Y0258970D02*
X0063975Y0258970D01*
X0065343Y0257371D02*
X0023600Y0257371D01*
X0023600Y0255773D02*
X0052936Y0255773D01*
X0051337Y0254174D02*
X0023600Y0254174D01*
X0023600Y0252576D02*
X0049739Y0252576D01*
X0048140Y0250977D02*
X0023600Y0250977D01*
X0023600Y0249379D02*
X0046542Y0249379D01*
X0044943Y0247780D02*
X0023600Y0247780D01*
X0023600Y0246182D02*
X0043345Y0246182D01*
X0041746Y0244583D02*
X0038270Y0244583D01*
X0039196Y0238189D02*
X0054480Y0238189D01*
X0054534Y0238135D02*
X0056004Y0237526D01*
X0057596Y0237526D01*
X0059066Y0238135D01*
X0060191Y0239260D01*
X0060800Y0240730D01*
X0060800Y0247522D01*
X0060191Y0248992D01*
X0059066Y0250117D01*
X0057596Y0250726D01*
X0056004Y0250726D01*
X0054534Y0250117D01*
X0053409Y0248992D01*
X0052800Y0247522D01*
X0052800Y0240730D01*
X0053409Y0239260D01*
X0054534Y0238135D01*
X0053190Y0239788D02*
X0043173Y0239788D01*
X0044772Y0241386D02*
X0052800Y0241386D01*
X0052800Y0242985D02*
X0046370Y0242985D01*
X0047969Y0244583D02*
X0052800Y0244583D01*
X0052800Y0246182D02*
X0049567Y0246182D01*
X0051166Y0247780D02*
X0052907Y0247780D01*
X0052764Y0249379D02*
X0053796Y0249379D01*
X0054363Y0250977D02*
X0061737Y0250977D01*
X0063336Y0249379D02*
X0059804Y0249379D01*
X0060693Y0247780D02*
X0062907Y0247780D01*
X0062800Y0246182D02*
X0060800Y0246182D01*
X0060800Y0244583D02*
X0062800Y0244583D01*
X0062800Y0242985D02*
X0060800Y0242985D01*
X0060800Y0241386D02*
X0062800Y0241386D01*
X0063190Y0239788D02*
X0060410Y0239788D01*
X0059120Y0238189D02*
X0064480Y0238189D01*
X0066800Y0241526D02*
X0066800Y0249026D01*
X0061800Y0254026D01*
X0067960Y0250977D02*
X0079237Y0250977D01*
X0079804Y0249379D02*
X0080836Y0249379D01*
X0080693Y0247780D02*
X0082100Y0247780D01*
X0082100Y0246182D02*
X0080800Y0246182D01*
X0080800Y0244583D02*
X0082100Y0244583D01*
X0082100Y0242985D02*
X0080800Y0242985D01*
X0080800Y0241386D02*
X0082100Y0241386D01*
X0082100Y0239788D02*
X0080410Y0239788D01*
X0079120Y0238189D02*
X0082100Y0238189D01*
X0082100Y0236591D02*
X0077476Y0236591D01*
X0075878Y0234992D02*
X0082100Y0234992D01*
X0082100Y0233394D02*
X0074279Y0233394D01*
X0072852Y0238189D02*
X0069120Y0238189D01*
X0070410Y0239788D02*
X0073190Y0239788D01*
X0086500Y0244583D02*
X0125631Y0244583D01*
X0125550Y0247776D02*
X0091800Y0247776D01*
X0077706Y0261191D01*
X0077706Y0267146D01*
X0080383Y0262103D02*
X0080166Y0261886D01*
X0092680Y0249976D01*
X0097739Y0249976D01*
X0088389Y0259326D01*
X0087100Y0260615D01*
X0087100Y0261842D01*
X0086839Y0262103D01*
X0086798Y0262046D01*
X0086333Y0261581D01*
X0085801Y0261195D01*
X0085215Y0260896D01*
X0084589Y0260693D01*
X0083940Y0260590D01*
X0083611Y0260590D01*
X0083611Y0267146D01*
X0083611Y0267146D01*
X0083611Y0260590D01*
X0083282Y0260590D01*
X0082633Y0260693D01*
X0082007Y0260896D01*
X0081421Y0261195D01*
X0080889Y0261581D01*
X0080424Y0262046D01*
X0080383Y0262103D01*
X0081551Y0260568D02*
X0087146Y0260568D01*
X0088745Y0258970D02*
X0083230Y0258970D01*
X0084910Y0257371D02*
X0090343Y0257371D01*
X0091942Y0255773D02*
X0086589Y0255773D01*
X0088269Y0254174D02*
X0093540Y0254174D01*
X0095139Y0252576D02*
X0089948Y0252576D01*
X0091628Y0250977D02*
X0096737Y0250977D01*
X0099300Y0251526D02*
X0089300Y0261526D01*
X0089300Y0266526D01*
X0089517Y0267146D01*
X0093294Y0266962D02*
X0112711Y0266962D01*
X0112711Y0265364D02*
X0093294Y0265364D01*
X0093190Y0263765D02*
X0112787Y0263765D01*
X0113678Y0262167D02*
X0092258Y0262167D01*
X0093369Y0260568D02*
X0113931Y0260568D01*
X0115113Y0258970D02*
X0094967Y0258970D01*
X0096566Y0257371D02*
X0116712Y0257371D01*
X0118310Y0255773D02*
X0098164Y0255773D01*
X0099763Y0254174D02*
X0126159Y0254174D01*
X0126800Y0251526D02*
X0099300Y0251526D01*
X0090283Y0246182D02*
X0086500Y0246182D01*
X0086500Y0247780D02*
X0088604Y0247780D01*
X0086925Y0249379D02*
X0086500Y0249379D01*
X0078528Y0257371D02*
X0071566Y0257371D01*
X0069967Y0258970D02*
X0076848Y0258970D01*
X0075506Y0260568D02*
X0068369Y0260568D01*
X0071800Y0262167D02*
X0071800Y0262167D01*
X0071800Y0263765D02*
X0071800Y0263765D01*
X0071800Y0265364D02*
X0071800Y0265364D01*
X0071800Y0266962D02*
X0071800Y0266962D01*
X0071800Y0268561D02*
X0071800Y0268561D01*
X0071800Y0270160D02*
X0071800Y0270160D01*
X0071800Y0271758D02*
X0071800Y0271758D01*
X0071800Y0273357D02*
X0071800Y0273357D01*
X0073481Y0273357D02*
X0081930Y0273357D01*
X0083611Y0273357D02*
X0083611Y0273357D01*
X0083611Y0273702D02*
X0083611Y0267146D01*
X0083611Y0267146D01*
X0083611Y0273702D01*
X0085292Y0273357D02*
X0143973Y0273357D01*
X0144616Y0274955D02*
X0044806Y0274955D01*
X0045416Y0273357D02*
X0070119Y0273357D01*
X0062786Y0271758D02*
X0045774Y0271758D01*
X0045843Y0268561D02*
X0062117Y0268561D01*
X0062117Y0270160D02*
X0034411Y0270160D01*
X0034411Y0268561D02*
X0032811Y0268561D01*
X0032811Y0266962D02*
X0034411Y0266962D01*
X0034411Y0265364D02*
X0032811Y0265364D01*
X0032811Y0263765D02*
X0034411Y0263765D01*
X0034411Y0262167D02*
X0032811Y0262167D01*
X0032811Y0260568D02*
X0034411Y0260568D01*
X0034411Y0258970D02*
X0032811Y0258970D01*
X0027861Y0258970D02*
X0023600Y0258970D01*
X0023600Y0260568D02*
X0025526Y0260568D01*
X0024008Y0262167D02*
X0023600Y0262167D01*
X0040927Y0279751D02*
X0247403Y0279751D01*
X0241528Y0274955D02*
X0254520Y0274955D01*
X0255463Y0273357D02*
X0243126Y0273357D01*
X0243300Y0271758D02*
X0255866Y0271758D01*
X0256221Y0270160D02*
X0243300Y0270160D01*
X0243200Y0268561D02*
X0256220Y0268561D01*
X0256220Y0266962D02*
X0243200Y0266962D01*
X0243200Y0265364D02*
X0256220Y0265364D01*
X0256220Y0263765D02*
X0243200Y0263765D01*
X0243200Y0262167D02*
X0256220Y0262167D01*
X0256220Y0260568D02*
X0243300Y0260568D01*
X0243300Y0258970D02*
X0256220Y0258970D01*
X0256220Y0257371D02*
X0243300Y0257371D01*
X0242700Y0255773D02*
X0256220Y0255773D01*
X0256220Y0254174D02*
X0242700Y0254174D01*
X0242379Y0252576D02*
X0256220Y0252576D01*
X0256220Y0250977D02*
X0241060Y0250977D01*
X0239461Y0249379D02*
X0256220Y0249379D01*
X0256220Y0247780D02*
X0237863Y0247780D01*
X0236264Y0246182D02*
X0256220Y0246182D01*
X0256220Y0244583D02*
X0251818Y0244583D01*
X0254209Y0242985D02*
X0256220Y0242985D01*
X0256220Y0241386D02*
X0255758Y0241386D01*
X0247009Y0241386D02*
X0245409Y0241386D01*
X0245409Y0239788D02*
X0247009Y0239788D01*
X0247009Y0238189D02*
X0245409Y0238189D01*
X0245409Y0236591D02*
X0247009Y0236591D01*
X0247009Y0234992D02*
X0245409Y0234992D01*
X0245409Y0234432D02*
X0245409Y0245920D01*
X0244146Y0245778D01*
X0242799Y0245470D01*
X0241495Y0245014D01*
X0240250Y0244414D01*
X0239081Y0243679D01*
X0238000Y0242818D01*
X0237024Y0241841D01*
X0236162Y0240761D01*
X0235427Y0239591D01*
X0234828Y0238347D01*
X0234372Y0237043D01*
X0234064Y0235696D01*
X0233922Y0234432D01*
X0245409Y0234432D01*
X0245409Y0233394D02*
X0232700Y0233394D01*
X0232700Y0234992D02*
X0233985Y0234992D01*
X0234268Y0236591D02*
X0232700Y0236591D01*
X0232700Y0238189D02*
X0234773Y0238189D01*
X0235551Y0239788D02*
X0232700Y0239788D01*
X0232700Y0241386D02*
X0236661Y0241386D01*
X0238209Y0242985D02*
X0233067Y0242985D01*
X0234666Y0244583D02*
X0240601Y0244583D01*
X0245409Y0244583D02*
X0247009Y0244583D01*
X0247009Y0242985D02*
X0245409Y0242985D01*
X0245409Y0231795D02*
X0247009Y0231795D01*
X0247009Y0230197D02*
X0245409Y0230197D01*
X0245409Y0228598D02*
X0247009Y0228598D01*
X0247009Y0227000D02*
X0245409Y0227000D01*
X0245409Y0225401D02*
X0247009Y0225401D01*
X0247009Y0223803D02*
X0245409Y0223803D01*
X0245409Y0222204D02*
X0247009Y0222204D01*
X0250791Y0222204D02*
X0256220Y0222204D01*
X0256220Y0220606D02*
X0237529Y0220606D01*
X0239127Y0219007D02*
X0256220Y0219007D01*
X0256220Y0217409D02*
X0240115Y0217409D01*
X0240200Y0215810D02*
X0256220Y0215810D01*
X0256220Y0214212D02*
X0240200Y0214212D01*
X0240200Y0212613D02*
X0256220Y0212613D01*
X0256220Y0211015D02*
X0240200Y0211015D01*
X0240200Y0209416D02*
X0256220Y0209416D01*
X0256220Y0207818D02*
X0240200Y0207818D01*
X0240200Y0206219D02*
X0256220Y0206219D01*
X0256220Y0204621D02*
X0240200Y0204621D01*
X0240200Y0203022D02*
X0256220Y0203022D01*
X0256220Y0201424D02*
X0240200Y0201424D01*
X0240200Y0199825D02*
X0256220Y0199825D01*
X0251475Y0198016D02*
X0252050Y0196628D01*
X0252011Y0195029D02*
X0256220Y0195029D01*
X0256220Y0193431D02*
X0251170Y0193431D01*
X0252013Y0191832D02*
X0256220Y0191832D01*
X0256220Y0190234D02*
X0252450Y0190234D01*
X0252450Y0189971D02*
X0245895Y0189971D01*
X0245895Y0189971D01*
X0245895Y0185793D01*
X0248601Y0185793D01*
X0249251Y0185896D01*
X0249876Y0186099D01*
X0250462Y0186398D01*
X0250994Y0186784D01*
X0251459Y0187249D01*
X0251846Y0187781D01*
X0252144Y0188367D01*
X0252348Y0188993D01*
X0252450Y0189642D01*
X0252450Y0189971D01*
X0252231Y0188635D02*
X0256220Y0188635D01*
X0256220Y0187037D02*
X0251247Y0187037D01*
X0245895Y0187037D02*
X0245894Y0187037D01*
X0245894Y0188635D02*
X0245895Y0188635D01*
X0240542Y0187037D02*
X0240200Y0187037D01*
X0240200Y0185438D02*
X0256220Y0185438D01*
X0256220Y0183840D02*
X0240200Y0183840D01*
X0239741Y0182241D02*
X0256220Y0182241D01*
X0256220Y0180643D02*
X0238225Y0180643D01*
X0236627Y0179044D02*
X0256220Y0179044D01*
X0256220Y0177446D02*
X0235028Y0177446D01*
X0233430Y0175847D02*
X0256220Y0175847D01*
X0256220Y0174249D02*
X0232700Y0174249D01*
X0232700Y0172650D02*
X0235924Y0172650D01*
X0237250Y0173976D02*
X0234350Y0171076D01*
X0234350Y0169026D01*
X0239300Y0169026D01*
X0239300Y0169026D01*
X0239300Y0173976D01*
X0241350Y0173976D01*
X0244250Y0171076D01*
X0244250Y0169026D01*
X0239300Y0169026D01*
X0239300Y0173976D01*
X0237250Y0173976D01*
X0239300Y0172650D02*
X0239300Y0172650D01*
X0239300Y0171052D02*
X0239300Y0171052D01*
X0239300Y0169453D02*
X0239300Y0169453D01*
X0239300Y0169026D02*
X0239300Y0169026D01*
X0239300Y0169026D01*
X0244250Y0169026D01*
X0244250Y0166976D01*
X0241350Y0164076D01*
X0239300Y0164076D01*
X0239300Y0169026D01*
X0239300Y0169026D01*
X0234350Y0169026D01*
X0234350Y0166976D01*
X0237250Y0164076D01*
X0239300Y0164076D01*
X0239300Y0169026D01*
X0239300Y0167855D02*
X0239300Y0167855D01*
X0239300Y0166256D02*
X0239300Y0166256D01*
X0239300Y0164658D02*
X0239300Y0164658D01*
X0241932Y0164658D02*
X0256220Y0164658D01*
X0256220Y0166256D02*
X0243531Y0166256D01*
X0244250Y0167855D02*
X0256220Y0167855D01*
X0256220Y0169453D02*
X0244250Y0169453D01*
X0244250Y0171052D02*
X0256220Y0171052D01*
X0256220Y0172650D02*
X0242676Y0172650D01*
X0235069Y0166256D02*
X0232700Y0166256D01*
X0232700Y0164658D02*
X0236668Y0164658D01*
X0237147Y0163059D02*
X0232700Y0163059D01*
X0232700Y0161461D02*
X0235384Y0161461D01*
X0234652Y0159862D02*
X0232700Y0159862D01*
X0232700Y0158264D02*
X0233080Y0158264D01*
X0239304Y0153468D02*
X0243131Y0153468D01*
X0243788Y0155067D02*
X0241631Y0155067D01*
X0243247Y0156665D02*
X0244940Y0156665D01*
X0243850Y0158264D02*
X0256220Y0158264D01*
X0256220Y0159862D02*
X0243850Y0159862D01*
X0243216Y0161461D02*
X0256220Y0161461D01*
X0256220Y0163059D02*
X0241453Y0163059D01*
X0234350Y0167855D02*
X0232700Y0167855D01*
X0232700Y0169453D02*
X0234350Y0169453D01*
X0234350Y0171052D02*
X0232700Y0171052D01*
X0225900Y0171052D02*
X0219437Y0171052D01*
X0221036Y0172650D02*
X0225900Y0172650D01*
X0225900Y0174249D02*
X0222634Y0174249D01*
X0224233Y0175847D02*
X0225900Y0175847D01*
X0225831Y0177446D02*
X0226001Y0177446D01*
X0221207Y0179044D02*
X0218700Y0179044D01*
X0218700Y0179026D02*
X0214300Y0179026D01*
X0214300Y0179026D01*
X0218700Y0179026D01*
X0218700Y0177446D02*
X0219609Y0177446D01*
X0218010Y0175847D02*
X0217344Y0175847D01*
X0216412Y0174249D02*
X0211500Y0174249D01*
X0211500Y0172650D02*
X0214813Y0172650D01*
X0214300Y0174626D02*
X0214300Y0179026D01*
X0214300Y0179026D01*
X0214300Y0174626D01*
X0214300Y0175847D02*
X0214300Y0175847D01*
X0214300Y0177446D02*
X0214300Y0177446D01*
X0214300Y0179044D02*
X0214300Y0179044D01*
X0214300Y0180643D02*
X0214300Y0180643D01*
X0214300Y0182241D02*
X0214300Y0182241D01*
X0212225Y0183840D02*
X0226003Y0183840D01*
X0224404Y0182241D02*
X0217307Y0182241D01*
X0218700Y0180643D02*
X0222806Y0180643D01*
X0225900Y0169453D02*
X0217839Y0169453D01*
X0218335Y0167854D02*
X0217877Y0167731D01*
X0217466Y0167494D01*
X0217131Y0167159D01*
X0216894Y0166748D01*
X0216772Y0166291D01*
X0216772Y0163088D01*
X0220356Y0163088D01*
X0220356Y0162720D01*
X0216772Y0162720D01*
X0216772Y0159517D01*
X0216894Y0159060D01*
X0217131Y0158649D01*
X0217466Y0158314D01*
X0217877Y0158077D01*
X0218335Y0157954D01*
X0220356Y0157954D01*
X0220356Y0162720D01*
X0220724Y0162720D01*
X0220724Y0157954D01*
X0222746Y0157954D01*
X0223203Y0158077D01*
X0223614Y0158314D01*
X0223949Y0158649D01*
X0224186Y0159060D01*
X0224309Y0159517D01*
X0224309Y0162720D01*
X0220724Y0162720D01*
X0220724Y0163088D01*
X0220356Y0163088D01*
X0220356Y0167854D01*
X0218335Y0167854D01*
X0216500Y0167855D02*
X0225900Y0167855D01*
X0225900Y0166256D02*
X0224309Y0166256D01*
X0224309Y0166291D02*
X0224186Y0166748D01*
X0223949Y0167159D01*
X0223614Y0167494D01*
X0223203Y0167731D01*
X0222746Y0167854D01*
X0220724Y0167854D01*
X0220724Y0163088D01*
X0224309Y0163088D01*
X0224309Y0166291D01*
X0224309Y0164658D02*
X0225900Y0164658D01*
X0225900Y0163059D02*
X0220724Y0163059D01*
X0220356Y0163059D02*
X0216500Y0163059D01*
X0216500Y0161461D02*
X0216772Y0161461D01*
X0216772Y0159862D02*
X0216500Y0159862D01*
X0216500Y0158264D02*
X0217553Y0158264D01*
X0216500Y0156665D02*
X0225900Y0156665D01*
X0225900Y0155067D02*
X0216500Y0155067D01*
X0215603Y0153468D02*
X0225900Y0153468D01*
X0225900Y0151870D02*
X0214005Y0151870D01*
X0212406Y0150271D02*
X0225218Y0150271D01*
X0223645Y0148673D02*
X0210808Y0148673D01*
X0209381Y0153468D02*
X0208103Y0153468D01*
X0206800Y0155276D02*
X0209300Y0157776D01*
X0209300Y0184026D01*
X0207100Y0172650D02*
X0187676Y0172650D01*
X0189250Y0171052D02*
X0207100Y0171052D01*
X0207100Y0169453D02*
X0189250Y0169453D01*
X0189250Y0167855D02*
X0207100Y0167855D01*
X0207100Y0166256D02*
X0205956Y0166256D01*
X0206410Y0164658D02*
X0207100Y0164658D01*
X0207100Y0163059D02*
X0206791Y0163059D01*
X0206537Y0161461D02*
X0207100Y0161461D01*
X0207100Y0159862D02*
X0205956Y0159862D01*
X0206676Y0158264D02*
X0194477Y0158264D01*
X0195078Y0156665D02*
X0192879Y0156665D01*
X0192861Y0156647D02*
X0192861Y0156647D01*
X0193479Y0155067D02*
X0190717Y0155067D01*
X0191881Y0153468D02*
X0188500Y0153468D01*
X0188500Y0151870D02*
X0190282Y0151870D01*
X0189600Y0150271D02*
X0188500Y0150271D01*
X0188500Y0148673D02*
X0189600Y0148673D01*
X0189600Y0147074D02*
X0188500Y0147074D01*
X0188500Y0145476D02*
X0189600Y0145476D01*
X0189600Y0143877D02*
X0188500Y0143877D01*
X0188500Y0142279D02*
X0189600Y0142279D01*
X0189600Y0140680D02*
X0188500Y0140680D01*
X0188500Y0139082D02*
X0189600Y0139082D01*
X0189600Y0137483D02*
X0188500Y0137483D01*
X0188500Y0135885D02*
X0189600Y0135885D01*
X0189600Y0134286D02*
X0188359Y0134286D01*
X0187464Y0132688D02*
X0189600Y0132688D01*
X0189600Y0131089D02*
X0186740Y0131089D01*
X0188058Y0129491D02*
X0189600Y0129491D01*
X0189600Y0127892D02*
X0188500Y0127892D01*
X0188500Y0126293D02*
X0189600Y0126293D01*
X0189600Y0124695D02*
X0188500Y0124695D01*
X0188500Y0123096D02*
X0189600Y0123096D01*
X0189600Y0121498D02*
X0188500Y0121498D01*
X0188500Y0119899D02*
X0189600Y0119899D01*
X0189600Y0118301D02*
X0188500Y0118301D01*
X0188500Y0116702D02*
X0189600Y0116702D01*
X0190111Y0115104D02*
X0188733Y0115104D01*
X0190924Y0113505D02*
X0191709Y0113505D01*
X0191753Y0111907D02*
X0193308Y0111907D01*
X0192000Y0110308D02*
X0194906Y0110308D01*
X0196505Y0108710D02*
X0191780Y0108710D01*
X0191500Y0107111D02*
X0198103Y0107111D01*
X0199702Y0105513D02*
X0191500Y0105513D01*
X0191500Y0103914D02*
X0201300Y0103914D01*
X0202100Y0102316D02*
X0191500Y0102316D01*
X0191500Y0100717D02*
X0202100Y0100717D01*
X0202100Y0099119D02*
X0191872Y0099119D01*
X0192000Y0097520D02*
X0202100Y0097520D01*
X0202100Y0095922D02*
X0191660Y0095922D01*
X0190701Y0094323D02*
X0202100Y0094323D01*
X0202100Y0092725D02*
X0188193Y0092725D01*
X0185406Y0092725D02*
X0177971Y0092725D01*
X0177373Y0092126D02*
X0179950Y0094703D01*
X0179950Y0096526D01*
X0179950Y0098349D01*
X0177373Y0100926D01*
X0175550Y0100926D01*
X0175550Y0096526D01*
X0175550Y0096526D01*
X0175550Y0100926D01*
X0173727Y0100926D01*
X0171150Y0098349D01*
X0171150Y0096526D01*
X0175550Y0096526D01*
X0179950Y0096526D01*
X0175550Y0096526D01*
X0175550Y0096526D01*
X0175550Y0096526D01*
X0175550Y0092126D01*
X0177373Y0092126D01*
X0175550Y0092126D02*
X0175550Y0096526D01*
X0175550Y0096526D01*
X0171150Y0096526D01*
X0171150Y0094703D01*
X0173727Y0092126D01*
X0175550Y0092126D01*
X0175550Y0092725D02*
X0175550Y0092725D01*
X0175550Y0094323D02*
X0175550Y0094323D01*
X0175550Y0095922D02*
X0175550Y0095922D01*
X0175550Y0097520D02*
X0175550Y0097520D01*
X0175550Y0099119D02*
X0175550Y0099119D01*
X0175550Y0100717D02*
X0175550Y0100717D01*
X0177581Y0100717D02*
X0182100Y0100717D01*
X0181728Y0099119D02*
X0179180Y0099119D01*
X0179950Y0097520D02*
X0181600Y0097520D01*
X0181940Y0095922D02*
X0179950Y0095922D01*
X0179570Y0094323D02*
X0182899Y0094323D01*
X0173129Y0092725D02*
X0166846Y0092725D01*
X0166696Y0092616D02*
X0167278Y0093039D01*
X0167787Y0093548D01*
X0168210Y0094130D01*
X0168537Y0094771D01*
X0168759Y0095455D01*
X0168872Y0096166D01*
X0168872Y0096440D01*
X0164386Y0096440D01*
X0164386Y0096612D01*
X0164214Y0096612D01*
X0164214Y0101098D01*
X0163940Y0101098D01*
X0163229Y0100985D01*
X0162545Y0100763D01*
X0161904Y0100436D01*
X0161322Y0100013D01*
X0160813Y0099504D01*
X0160390Y0098922D01*
X0160063Y0098281D01*
X0159841Y0097597D01*
X0159728Y0096886D01*
X0159728Y0096612D01*
X0164214Y0096612D01*
X0164214Y0096440D01*
X0164386Y0096440D01*
X0164386Y0091954D01*
X0164660Y0091954D01*
X0165371Y0092067D01*
X0166055Y0092289D01*
X0166696Y0092616D01*
X0164386Y0092725D02*
X0164214Y0092725D01*
X0164214Y0091954D02*
X0164214Y0096440D01*
X0159728Y0096440D01*
X0159728Y0096166D01*
X0159841Y0095455D01*
X0160063Y0094771D01*
X0160390Y0094130D01*
X0160813Y0093548D01*
X0161322Y0093039D01*
X0161904Y0092616D01*
X0162545Y0092289D01*
X0163229Y0092067D01*
X0163940Y0091954D01*
X0164214Y0091954D01*
X0162811Y0091126D02*
X0202100Y0091126D01*
X0202100Y0089528D02*
X0164410Y0089528D01*
X0166008Y0087929D02*
X0202100Y0087929D01*
X0202100Y0086331D02*
X0166500Y0086331D01*
X0166500Y0084732D02*
X0202100Y0084732D01*
X0202100Y0083134D02*
X0166500Y0083134D01*
X0166500Y0081535D02*
X0184648Y0081535D01*
X0184723Y0081578D02*
X0182123Y0080077D01*
X0180001Y0077955D01*
X0178500Y0075355D01*
X0177723Y0072456D01*
X0177723Y0069454D01*
X0178500Y0066555D01*
X0180001Y0063955D01*
X0182123Y0061833D01*
X0184723Y0060332D01*
X0187622Y0059555D01*
X0190624Y0059555D01*
X0193523Y0060332D01*
X0196123Y0061833D01*
X0198245Y0063955D01*
X0199746Y0066555D01*
X0200523Y0069454D01*
X0200523Y0072456D01*
X0199746Y0075355D01*
X0198245Y0077955D01*
X0196123Y0080077D01*
X0193523Y0081578D01*
X0190624Y0082355D01*
X0187622Y0082355D01*
X0184723Y0081578D01*
X0181982Y0079937D02*
X0166500Y0079937D01*
X0166500Y0078338D02*
X0180384Y0078338D01*
X0179299Y0076740D02*
X0166500Y0076740D01*
X0166500Y0075141D02*
X0178442Y0075141D01*
X0178014Y0073543D02*
X0166500Y0073543D01*
X0166506Y0071944D02*
X0177723Y0071944D01*
X0177723Y0070346D02*
X0166506Y0070346D01*
X0166012Y0068747D02*
X0177912Y0068747D01*
X0178341Y0067149D02*
X0164812Y0067149D01*
X0161134Y0063952D02*
X0180004Y0063952D01*
X0179080Y0065550D02*
X0159152Y0065550D01*
X0161859Y0062353D02*
X0181603Y0062353D01*
X0181672Y0060755D02*
X0183991Y0060755D01*
X0183422Y0059156D02*
X0201319Y0059156D01*
X0202100Y0060755D02*
X0194255Y0060755D01*
X0196643Y0062353D02*
X0202100Y0062353D01*
X0202100Y0063952D02*
X0198241Y0063952D01*
X0199166Y0065550D02*
X0202100Y0065550D01*
X0202100Y0067149D02*
X0199905Y0067149D01*
X0200333Y0068747D02*
X0202100Y0068747D01*
X0202100Y0070346D02*
X0200523Y0070346D01*
X0200523Y0071944D02*
X0202100Y0071944D01*
X0202100Y0073543D02*
X0200232Y0073543D01*
X0199803Y0075141D02*
X0202100Y0075141D01*
X0202100Y0076740D02*
X0198947Y0076740D01*
X0197862Y0078338D02*
X0202100Y0078338D01*
X0202100Y0079937D02*
X0196263Y0079937D01*
X0193598Y0081535D02*
X0202100Y0081535D01*
X0206500Y0081535D02*
X0207100Y0081535D01*
X0207100Y0079937D02*
X0206500Y0079937D01*
X0206500Y0078338D02*
X0207100Y0078338D01*
X0207100Y0076740D02*
X0206500Y0076740D01*
X0206500Y0075141D02*
X0207100Y0075141D01*
X0207100Y0073543D02*
X0206500Y0073543D01*
X0206500Y0071944D02*
X0207100Y0071944D01*
X0207100Y0070346D02*
X0206500Y0070346D01*
X0206500Y0068747D02*
X0207100Y0068747D01*
X0207100Y0067149D02*
X0206500Y0067149D01*
X0206500Y0065550D02*
X0207100Y0065550D01*
X0207100Y0063952D02*
X0206500Y0063952D01*
X0206500Y0062353D02*
X0207100Y0062353D01*
X0207100Y0060755D02*
X0206500Y0060755D01*
X0206500Y0059156D02*
X0207100Y0059156D01*
X0207100Y0057558D02*
X0205943Y0057558D01*
X0205622Y0055959D02*
X0204344Y0055959D01*
X0204023Y0054360D02*
X0202746Y0054360D01*
X0202425Y0052762D02*
X0201147Y0052762D01*
X0200826Y0051163D02*
X0199549Y0051163D01*
X0199228Y0049565D02*
X0197950Y0049565D01*
X0196800Y0051526D02*
X0204300Y0059026D01*
X0204300Y0104026D01*
X0191800Y0116526D01*
X0191800Y0150276D01*
X0196800Y0155276D01*
X0206800Y0155276D01*
X0209702Y0155067D02*
X0210979Y0155067D01*
X0211300Y0156665D02*
X0212100Y0156665D01*
X0212100Y0158264D02*
X0211500Y0158264D01*
X0211500Y0159862D02*
X0212100Y0159862D01*
X0212100Y0161461D02*
X0211500Y0161461D01*
X0211500Y0163059D02*
X0212100Y0163059D01*
X0212100Y0164658D02*
X0211500Y0164658D01*
X0211500Y0166256D02*
X0212100Y0166256D01*
X0212100Y0167855D02*
X0211500Y0167855D01*
X0211500Y0169453D02*
X0212100Y0169453D01*
X0211500Y0171052D02*
X0213215Y0171052D01*
X0216500Y0166256D02*
X0216772Y0166256D01*
X0216772Y0164658D02*
X0216500Y0164658D01*
X0220356Y0164658D02*
X0220724Y0164658D01*
X0220724Y0166256D02*
X0220356Y0166256D01*
X0220356Y0161461D02*
X0220724Y0161461D01*
X0220724Y0159862D02*
X0220356Y0159862D01*
X0220356Y0158264D02*
X0220724Y0158264D01*
X0223527Y0158264D02*
X0225900Y0158264D01*
X0225900Y0159862D02*
X0224309Y0159862D01*
X0224309Y0161461D02*
X0225900Y0161461D01*
X0236159Y0150271D02*
X0239934Y0150271D01*
X0238335Y0148673D02*
X0234586Y0148673D01*
X0233014Y0147074D02*
X0236737Y0147074D01*
X0235138Y0145476D02*
X0231442Y0145476D01*
X0229869Y0143877D02*
X0233540Y0143877D01*
X0231941Y0142279D02*
X0228297Y0142279D01*
X0227150Y0140680D02*
X0230343Y0140680D01*
X0228744Y0139082D02*
X0223594Y0139082D01*
X0223594Y0137483D02*
X0227146Y0137483D01*
X0225547Y0135885D02*
X0223594Y0135885D01*
X0223594Y0134286D02*
X0224600Y0134286D01*
X0224600Y0132688D02*
X0223594Y0132688D01*
X0223594Y0131089D02*
X0224600Y0131089D01*
X0224600Y0129491D02*
X0223594Y0129491D01*
X0223594Y0127892D02*
X0224600Y0127892D01*
X0224600Y0126293D02*
X0223594Y0126293D01*
X0223594Y0124695D02*
X0224600Y0124695D01*
X0224600Y0123096D02*
X0223594Y0123096D01*
X0223594Y0121498D02*
X0223661Y0121498D01*
X0222062Y0119899D02*
X0199038Y0119899D01*
X0199000Y0121498D02*
X0199534Y0121498D01*
X0199534Y0123096D02*
X0199000Y0123096D01*
X0199000Y0124695D02*
X0199534Y0124695D01*
X0199534Y0126293D02*
X0199000Y0126293D01*
X0199000Y0127892D02*
X0199534Y0127892D01*
X0199534Y0129491D02*
X0199000Y0129491D01*
X0199000Y0131089D02*
X0199534Y0131089D01*
X0199534Y0132688D02*
X0199000Y0132688D01*
X0199000Y0134286D02*
X0199534Y0134286D01*
X0199534Y0135885D02*
X0199000Y0135885D01*
X0199000Y0137483D02*
X0199534Y0137483D01*
X0199534Y0139082D02*
X0199000Y0139082D01*
X0199000Y0140680D02*
X0199534Y0140680D01*
X0199534Y0142279D02*
X0199000Y0142279D01*
X0199000Y0143877D02*
X0199534Y0143877D01*
X0199534Y0145476D02*
X0199000Y0145476D01*
X0199209Y0147074D02*
X0199660Y0147074D01*
X0196184Y0150271D02*
X0194906Y0150271D01*
X0194600Y0148673D02*
X0194000Y0148673D01*
X0194000Y0147074D02*
X0194600Y0147074D01*
X0194600Y0145476D02*
X0194000Y0145476D01*
X0194000Y0143877D02*
X0194600Y0143877D01*
X0194600Y0142279D02*
X0194000Y0142279D01*
X0194000Y0140680D02*
X0194600Y0140680D01*
X0194600Y0139082D02*
X0194000Y0139082D01*
X0194000Y0137483D02*
X0194600Y0137483D01*
X0194600Y0135885D02*
X0194000Y0135885D01*
X0194000Y0134286D02*
X0194600Y0134286D01*
X0194600Y0132688D02*
X0194000Y0132688D01*
X0194000Y0131089D02*
X0194600Y0131089D01*
X0194600Y0129491D02*
X0194000Y0129491D01*
X0194000Y0127892D02*
X0194600Y0127892D01*
X0194600Y0126293D02*
X0194000Y0126293D01*
X0194000Y0124695D02*
X0194600Y0124695D01*
X0194600Y0123096D02*
X0194000Y0123096D01*
X0194000Y0121498D02*
X0194600Y0121498D01*
X0194600Y0119899D02*
X0194000Y0119899D01*
X0194000Y0118301D02*
X0194600Y0118301D01*
X0194735Y0116702D02*
X0196012Y0116702D01*
X0196333Y0115104D02*
X0197611Y0115104D01*
X0197932Y0113505D02*
X0199209Y0113505D01*
X0199530Y0111907D02*
X0200808Y0111907D01*
X0201129Y0110308D02*
X0202406Y0110308D01*
X0202727Y0108710D02*
X0204005Y0108710D01*
X0204326Y0107111D02*
X0205603Y0107111D01*
X0205924Y0105513D02*
X0207100Y0105513D01*
X0207100Y0103914D02*
X0206500Y0103914D01*
X0206500Y0102316D02*
X0207100Y0102316D01*
X0207100Y0100717D02*
X0206500Y0100717D01*
X0206500Y0099119D02*
X0207100Y0099119D01*
X0207100Y0097520D02*
X0206500Y0097520D01*
X0206500Y0095922D02*
X0207100Y0095922D01*
X0207100Y0094323D02*
X0206500Y0094323D01*
X0206500Y0092725D02*
X0207100Y0092725D01*
X0207100Y0091126D02*
X0206500Y0091126D01*
X0206500Y0089528D02*
X0207100Y0089528D01*
X0207100Y0087929D02*
X0206500Y0087929D01*
X0206500Y0086331D02*
X0207100Y0086331D01*
X0207100Y0084732D02*
X0206500Y0084732D01*
X0206500Y0083134D02*
X0207100Y0083134D01*
X0211500Y0083134D02*
X0212100Y0083134D01*
X0212100Y0084732D02*
X0211500Y0084732D01*
X0211500Y0086331D02*
X0212100Y0086331D01*
X0212100Y0087929D02*
X0211500Y0087929D01*
X0211500Y0089528D02*
X0212100Y0089528D01*
X0212100Y0091126D02*
X0211500Y0091126D01*
X0211500Y0092725D02*
X0212100Y0092725D01*
X0212100Y0094323D02*
X0211500Y0094323D01*
X0211500Y0095922D02*
X0212100Y0095922D01*
X0212100Y0097520D02*
X0211500Y0097520D01*
X0211500Y0099119D02*
X0212100Y0099119D01*
X0212100Y0100717D02*
X0211500Y0100717D01*
X0211500Y0102316D02*
X0212100Y0102316D01*
X0212100Y0103914D02*
X0211500Y0103914D01*
X0211500Y0105513D02*
X0212100Y0105513D01*
X0212100Y0107111D02*
X0211500Y0107111D01*
X0212100Y0108710D02*
X0210227Y0108710D01*
X0208629Y0110308D02*
X0212471Y0110308D01*
X0214300Y0109026D02*
X0214300Y0054026D01*
X0201800Y0041526D01*
X0144300Y0041526D01*
X0139300Y0049026D01*
X0141661Y0051163D02*
X0144051Y0051163D01*
X0142481Y0049565D02*
X0145650Y0049565D01*
X0147248Y0047966D02*
X0142650Y0047966D01*
X0143716Y0046368D02*
X0148847Y0046368D01*
X0150445Y0044769D02*
X0144782Y0044769D01*
X0150274Y0051163D02*
X0151551Y0051163D01*
X0151872Y0049565D02*
X0153150Y0049565D01*
X0154300Y0051526D02*
X0196800Y0051526D01*
X0196523Y0054360D02*
X0154577Y0054360D01*
X0155653Y0055959D02*
X0152978Y0055959D01*
X0153103Y0057558D02*
X0151717Y0057558D01*
X0147902Y0057924D02*
X0147902Y0060955D01*
X0147902Y0057924D02*
X0154300Y0051526D01*
X0149953Y0052762D02*
X0148675Y0052762D01*
X0148354Y0054360D02*
X0147077Y0054360D01*
X0146637Y0055959D02*
X0145478Y0055959D01*
X0144087Y0057558D02*
X0143880Y0057558D01*
X0143686Y0063952D02*
X0143103Y0063952D01*
X0152118Y0063952D02*
X0152702Y0063952D01*
X0156918Y0060955D02*
X0160550Y0057776D01*
X0180550Y0057776D01*
X0179428Y0060755D02*
X0162018Y0060755D01*
X0159256Y0055959D02*
X0158183Y0055959D01*
X0183232Y0055959D02*
X0198122Y0055959D01*
X0199720Y0057558D02*
X0183731Y0057558D01*
X0200655Y0044769D02*
X0201932Y0044769D01*
X0202253Y0046368D02*
X0203531Y0046368D01*
X0203852Y0047966D02*
X0205129Y0047966D01*
X0205450Y0049565D02*
X0206728Y0049565D01*
X0207049Y0051163D02*
X0208326Y0051163D01*
X0208647Y0052762D02*
X0209925Y0052762D01*
X0210246Y0054360D02*
X0211523Y0054360D01*
X0211500Y0055959D02*
X0212100Y0055959D01*
X0212100Y0057558D02*
X0211500Y0057558D01*
X0211500Y0059156D02*
X0212100Y0059156D01*
X0212100Y0060755D02*
X0211500Y0060755D01*
X0211500Y0062353D02*
X0212100Y0062353D01*
X0212100Y0063952D02*
X0211500Y0063952D01*
X0211500Y0065550D02*
X0212100Y0065550D01*
X0212100Y0067149D02*
X0211500Y0067149D01*
X0211500Y0068747D02*
X0212100Y0068747D01*
X0212100Y0070346D02*
X0211500Y0070346D01*
X0211500Y0071944D02*
X0212100Y0071944D01*
X0212100Y0073543D02*
X0211500Y0073543D01*
X0211500Y0075141D02*
X0212100Y0075141D01*
X0212100Y0076740D02*
X0211500Y0076740D01*
X0211500Y0078338D02*
X0212100Y0078338D01*
X0212100Y0079937D02*
X0211500Y0079937D01*
X0211500Y0081535D02*
X0212100Y0081535D01*
X0216500Y0081535D02*
X0218326Y0081535D01*
X0218120Y0080768D02*
X0218120Y0077911D01*
X0218860Y0075152D01*
X0220288Y0072678D01*
X0222308Y0070658D01*
X0224782Y0069230D01*
X0227541Y0068491D01*
X0230398Y0068491D01*
X0233157Y0069230D01*
X0235631Y0070658D01*
X0237298Y0072326D01*
X0237064Y0071840D01*
X0236647Y0070647D01*
X0236366Y0069416D01*
X0236243Y0068328D01*
X0246673Y0068328D01*
X0246673Y0078758D01*
X0245586Y0078636D01*
X0244354Y0078355D01*
X0243162Y0077937D01*
X0242023Y0077389D01*
X0240954Y0076717D01*
X0239966Y0075929D01*
X0239072Y0075036D01*
X0238853Y0074760D01*
X0239079Y0075152D01*
X0239818Y0077911D01*
X0239818Y0080768D01*
X0239079Y0083527D01*
X0237650Y0086001D01*
X0235631Y0088021D01*
X0233157Y0089449D01*
X0231700Y0089839D01*
X0231700Y0096017D01*
X0232000Y0096742D01*
X0232000Y0098810D01*
X0231208Y0100722D01*
X0229746Y0102184D01*
X0227834Y0102976D01*
X0225766Y0102976D01*
X0223854Y0102184D01*
X0222392Y0100722D01*
X0221600Y0098810D01*
X0221600Y0096742D01*
X0221900Y0096017D01*
X0221900Y0087613D01*
X0220288Y0086001D01*
X0218860Y0083527D01*
X0218120Y0080768D01*
X0218120Y0079937D02*
X0216500Y0079937D01*
X0216500Y0078338D02*
X0218120Y0078338D01*
X0218434Y0076740D02*
X0216500Y0076740D01*
X0216500Y0075141D02*
X0218866Y0075141D01*
X0219789Y0073543D02*
X0216500Y0073543D01*
X0216500Y0071944D02*
X0221022Y0071944D01*
X0222849Y0070346D02*
X0216500Y0070346D01*
X0216500Y0068747D02*
X0226584Y0068747D01*
X0227082Y0067218D02*
X0225850Y0066937D01*
X0224658Y0066520D01*
X0223519Y0065972D01*
X0222450Y0065300D01*
X0221462Y0064512D01*
X0220568Y0063618D01*
X0219781Y0062631D01*
X0219109Y0061561D01*
X0218560Y0060423D01*
X0218143Y0059230D01*
X0217862Y0057998D01*
X0217739Y0056911D01*
X0228169Y0056911D01*
X0228169Y0055311D01*
X0217739Y0055311D01*
X0217862Y0054224D01*
X0218143Y0052992D01*
X0218560Y0051799D01*
X0219109Y0050661D01*
X0219781Y0049591D01*
X0220568Y0048604D01*
X0221462Y0047710D01*
X0222450Y0046922D01*
X0223519Y0046250D01*
X0224658Y0045702D01*
X0225850Y0045285D01*
X0227082Y0045004D01*
X0228169Y0044881D01*
X0228169Y0055311D01*
X0229769Y0055311D01*
X0229769Y0044881D01*
X0230857Y0045004D01*
X0232088Y0045285D01*
X0233281Y0045702D01*
X0234419Y0046250D01*
X0235489Y0046922D01*
X0236477Y0047710D01*
X0237370Y0048604D01*
X0238158Y0049591D01*
X0238830Y0050661D01*
X0239378Y0051799D01*
X0239795Y0052992D01*
X0240077Y0054224D01*
X0240199Y0055311D01*
X0229769Y0055311D01*
X0229769Y0056911D01*
X0228169Y0056911D01*
X0228169Y0067341D01*
X0227082Y0067218D01*
X0226776Y0067149D02*
X0216500Y0067149D01*
X0216500Y0065550D02*
X0222848Y0065550D01*
X0220902Y0063952D02*
X0216500Y0063952D01*
X0216500Y0062353D02*
X0219606Y0062353D01*
X0218720Y0060755D02*
X0216500Y0060755D01*
X0216500Y0059156D02*
X0218126Y0059156D01*
X0217812Y0057558D02*
X0216500Y0057558D01*
X0216500Y0055959D02*
X0228169Y0055959D01*
X0228169Y0057558D02*
X0229769Y0057558D01*
X0229769Y0056911D02*
X0229769Y0067341D01*
X0230857Y0067218D01*
X0232088Y0066937D01*
X0233281Y0066520D01*
X0234419Y0065972D01*
X0235489Y0065300D01*
X0236477Y0064512D01*
X0236684Y0064305D01*
X0236647Y0064409D01*
X0236366Y0065641D01*
X0236243Y0066728D01*
X0246673Y0066728D01*
X0246673Y0056298D01*
X0245586Y0056421D01*
X0244354Y0056702D01*
X0243162Y0057119D01*
X0242023Y0057668D01*
X0240954Y0058340D01*
X0239966Y0059128D01*
X0239759Y0059334D01*
X0239795Y0059230D01*
X0240077Y0057998D01*
X0240199Y0056911D01*
X0229769Y0056911D01*
X0229769Y0055959D02*
X0256220Y0055959D01*
X0256220Y0057558D02*
X0252694Y0057558D01*
X0255009Y0059156D02*
X0256220Y0059156D01*
X0256220Y0054360D02*
X0240092Y0054360D01*
X0239715Y0052762D02*
X0256220Y0052762D01*
X0256220Y0051163D02*
X0239072Y0051163D01*
X0238137Y0049565D02*
X0256220Y0049565D01*
X0256220Y0047966D02*
X0236733Y0047966D01*
X0234606Y0046368D02*
X0256220Y0046368D01*
X0256220Y0044769D02*
X0208155Y0044769D01*
X0206556Y0043171D02*
X0256220Y0043171D01*
X0256155Y0041572D02*
X0204958Y0041572D01*
X0203359Y0039974D02*
X0255790Y0039974D01*
X0248273Y0057558D02*
X0246673Y0057558D01*
X0246673Y0059156D02*
X0248273Y0059156D01*
X0248273Y0060755D02*
X0246673Y0060755D01*
X0246673Y0062353D02*
X0248273Y0062353D01*
X0248273Y0063952D02*
X0246673Y0063952D01*
X0246673Y0065550D02*
X0248273Y0065550D01*
X0246673Y0067149D02*
X0231162Y0067149D01*
X0229769Y0067149D02*
X0228169Y0067149D01*
X0228169Y0065550D02*
X0229769Y0065550D01*
X0229769Y0063952D02*
X0228169Y0063952D01*
X0228169Y0062353D02*
X0229769Y0062353D01*
X0229769Y0060755D02*
X0228169Y0060755D01*
X0228169Y0059156D02*
X0229769Y0059156D01*
X0229769Y0054360D02*
X0228169Y0054360D01*
X0228169Y0052762D02*
X0229769Y0052762D01*
X0229769Y0051163D02*
X0228169Y0051163D01*
X0228169Y0049565D02*
X0229769Y0049565D01*
X0229769Y0047966D02*
X0228169Y0047966D01*
X0228169Y0046368D02*
X0229769Y0046368D01*
X0223332Y0046368D02*
X0209753Y0046368D01*
X0211352Y0047966D02*
X0221206Y0047966D01*
X0219802Y0049565D02*
X0212950Y0049565D01*
X0214549Y0051163D02*
X0218867Y0051163D01*
X0218224Y0052762D02*
X0216147Y0052762D01*
X0216500Y0054360D02*
X0217847Y0054360D01*
X0231355Y0068747D02*
X0236291Y0068747D01*
X0236578Y0070346D02*
X0235089Y0070346D01*
X0236917Y0071944D02*
X0237115Y0071944D01*
X0239073Y0075141D02*
X0239178Y0075141D01*
X0239504Y0076740D02*
X0240990Y0076740D01*
X0239818Y0078338D02*
X0244307Y0078338D01*
X0246673Y0078338D02*
X0248273Y0078338D01*
X0248273Y0076740D02*
X0246673Y0076740D01*
X0246673Y0075141D02*
X0248273Y0075141D01*
X0248273Y0073543D02*
X0246673Y0073543D01*
X0246673Y0071944D02*
X0248273Y0071944D01*
X0248273Y0070346D02*
X0246673Y0070346D01*
X0246673Y0068747D02*
X0248273Y0068747D01*
X0253957Y0076740D02*
X0256220Y0076740D01*
X0256220Y0078338D02*
X0250639Y0078338D01*
X0256220Y0079937D02*
X0239818Y0079937D01*
X0239612Y0081535D02*
X0256220Y0081535D01*
X0256220Y0083134D02*
X0239184Y0083134D01*
X0238383Y0084732D02*
X0256220Y0084732D01*
X0256220Y0086331D02*
X0249486Y0086331D01*
X0247009Y0086331D02*
X0245409Y0086331D01*
X0245409Y0087929D02*
X0247009Y0087929D01*
X0247009Y0089528D02*
X0245409Y0089528D01*
X0245409Y0091126D02*
X0247009Y0091126D01*
X0247009Y0092725D02*
X0245409Y0092725D01*
X0245409Y0094323D02*
X0247009Y0094323D01*
X0247009Y0095922D02*
X0245409Y0095922D01*
X0245409Y0097520D02*
X0232000Y0097520D01*
X0231872Y0099119D02*
X0233935Y0099119D01*
X0233922Y0098999D02*
X0245409Y0098999D01*
X0245409Y0110487D01*
X0244146Y0110345D01*
X0242799Y0110037D01*
X0241495Y0109581D01*
X0240250Y0108981D01*
X0239081Y0108246D01*
X0238000Y0107385D01*
X0237024Y0106408D01*
X0236162Y0105328D01*
X0235427Y0104158D01*
X0234828Y0102914D01*
X0234372Y0101610D01*
X0234064Y0100263D01*
X0233922Y0098999D01*
X0234168Y0100717D02*
X0231210Y0100717D01*
X0229428Y0102316D02*
X0234619Y0102316D01*
X0235310Y0103914D02*
X0216500Y0103914D01*
X0216500Y0102316D02*
X0224172Y0102316D01*
X0222390Y0100717D02*
X0216500Y0100717D01*
X0216500Y0099119D02*
X0221728Y0099119D01*
X0221600Y0097520D02*
X0216500Y0097520D01*
X0216500Y0095922D02*
X0221900Y0095922D01*
X0221900Y0094323D02*
X0216500Y0094323D01*
X0216500Y0092725D02*
X0221900Y0092725D01*
X0221900Y0091126D02*
X0216500Y0091126D01*
X0216500Y0089528D02*
X0221900Y0089528D01*
X0221900Y0087929D02*
X0216500Y0087929D01*
X0216500Y0086331D02*
X0220618Y0086331D01*
X0219556Y0084732D02*
X0216500Y0084732D01*
X0216500Y0083134D02*
X0218754Y0083134D01*
X0231700Y0091126D02*
X0236127Y0091126D01*
X0235194Y0092725D02*
X0231700Y0092725D01*
X0231700Y0094323D02*
X0234534Y0094323D01*
X0234113Y0095922D02*
X0231700Y0095922D01*
X0232862Y0089528D02*
X0237486Y0089528D01*
X0235722Y0087929D02*
X0239435Y0087929D01*
X0237320Y0086331D02*
X0242933Y0086331D01*
X0252984Y0087929D02*
X0256220Y0087929D01*
X0256220Y0089528D02*
X0254933Y0089528D01*
X0247009Y0099119D02*
X0245409Y0099119D01*
X0245409Y0100717D02*
X0247009Y0100717D01*
X0247009Y0102316D02*
X0245409Y0102316D01*
X0245409Y0103914D02*
X0247009Y0103914D01*
X0247009Y0105513D02*
X0245409Y0105513D01*
X0245409Y0107111D02*
X0247009Y0107111D01*
X0247009Y0108710D02*
X0245409Y0108710D01*
X0245409Y0110308D02*
X0247009Y0110308D01*
X0248431Y0110308D02*
X0256220Y0110308D01*
X0256220Y0108710D02*
X0252601Y0108710D01*
X0254692Y0107111D02*
X0256220Y0107111D01*
X0256220Y0105513D02*
X0256109Y0105513D01*
X0256220Y0111907D02*
X0238755Y0111907D01*
X0236941Y0110308D02*
X0243988Y0110308D01*
X0240570Y0113505D02*
X0256220Y0113505D01*
X0256220Y0115104D02*
X0242385Y0115104D01*
X0243277Y0115891D02*
X0243871Y0116382D01*
X0243903Y0116441D01*
X0243953Y0116486D01*
X0244292Y0117177D01*
X0244653Y0117858D01*
X0244659Y0117925D01*
X0244689Y0117986D01*
X0244737Y0118755D01*
X0244913Y0120613D01*
X0245005Y0120851D01*
X0244991Y0121438D01*
X0245046Y0122022D01*
X0244971Y0122266D01*
X0244915Y0124597D01*
X0244942Y0124677D01*
X0244894Y0125429D01*
X0244876Y0126183D01*
X0244842Y0126260D01*
X0244750Y0127721D01*
X0244750Y0128424D01*
X0244698Y0128551D01*
X0244689Y0128687D01*
X0244380Y0129318D01*
X0244111Y0129968D01*
X0244014Y0130065D01*
X0243954Y0130187D01*
X0243426Y0130652D01*
X0242929Y0131150D01*
X0242803Y0131202D01*
X0242700Y0131292D01*
X0242579Y0131334D01*
X0242961Y0131529D01*
X0243547Y0131954D01*
X0244059Y0132466D01*
X0244484Y0133052D01*
X0244813Y0133697D01*
X0245037Y0134386D01*
X0245150Y0135101D01*
X0245150Y0135463D01*
X0245150Y0135825D01*
X0245037Y0136540D01*
X0244813Y0137229D01*
X0244484Y0137874D01*
X0244059Y0138460D01*
X0243547Y0138972D01*
X0242961Y0139397D01*
X0242316Y0139726D01*
X0241627Y0139950D01*
X0240912Y0140063D01*
X0240550Y0140063D01*
X0240550Y0135463D01*
X0240550Y0135463D01*
X0240550Y0140063D01*
X0240188Y0140063D01*
X0239473Y0139950D01*
X0238784Y0139726D01*
X0238139Y0139397D01*
X0237553Y0138972D01*
X0237041Y0138460D01*
X0236616Y0137874D01*
X0236287Y0137229D01*
X0236063Y0136540D01*
X0235950Y0135825D01*
X0235950Y0135463D01*
X0240550Y0135463D01*
X0245150Y0135463D01*
X0240550Y0135463D01*
X0240550Y0135463D01*
X0240550Y0135463D01*
X0235950Y0135463D01*
X0235950Y0135101D01*
X0236063Y0134386D01*
X0236287Y0133697D01*
X0236616Y0133052D01*
X0237041Y0132466D01*
X0237553Y0131954D01*
X0238139Y0131529D01*
X0238564Y0131312D01*
X0238171Y0131150D01*
X0238074Y0131053D01*
X0237952Y0130993D01*
X0237487Y0130465D01*
X0236989Y0129968D01*
X0236937Y0129842D01*
X0236847Y0129739D01*
X0236619Y0129074D01*
X0236350Y0128424D01*
X0236350Y0128288D01*
X0236306Y0128159D01*
X0236350Y0127457D01*
X0236350Y0126754D01*
X0236402Y0126627D01*
X0236501Y0125063D01*
X0236581Y0121732D01*
X0236525Y0121137D01*
X0229375Y0114838D01*
X0227834Y0115476D01*
X0225766Y0115476D01*
X0223854Y0114684D01*
X0222392Y0113222D01*
X0221600Y0111310D01*
X0221600Y0109242D01*
X0222392Y0107330D01*
X0223854Y0105868D01*
X0225766Y0105076D01*
X0227834Y0105076D01*
X0229746Y0105868D01*
X0229954Y0106076D01*
X0230417Y0106076D01*
X0231118Y0106032D01*
X0231248Y0106076D01*
X0231385Y0106076D01*
X0232035Y0106345D01*
X0232699Y0106572D01*
X0232802Y0106663D01*
X0232929Y0106715D01*
X0233426Y0107212D01*
X0243277Y0115891D01*
X0244059Y0116702D02*
X0256220Y0116702D01*
X0251367Y0118301D02*
X0244709Y0118301D01*
X0244846Y0119899D02*
X0251299Y0119899D01*
X0251299Y0121498D02*
X0244997Y0121498D01*
X0244951Y0123096D02*
X0251299Y0123096D01*
X0251299Y0124695D02*
X0244941Y0124695D01*
X0244840Y0126293D02*
X0251299Y0126293D01*
X0251299Y0127892D02*
X0244750Y0127892D01*
X0244308Y0129491D02*
X0251299Y0129491D01*
X0251299Y0131089D02*
X0242990Y0131089D01*
X0244219Y0132688D02*
X0251299Y0132688D01*
X0251299Y0134286D02*
X0245004Y0134286D01*
X0245141Y0135885D02*
X0251299Y0135885D01*
X0251299Y0137483D02*
X0244683Y0137483D01*
X0243395Y0139082D02*
X0251299Y0139082D01*
X0251299Y0140680D02*
X0236565Y0140680D01*
X0237705Y0139082D02*
X0234967Y0139082D01*
X0236417Y0137483D02*
X0233368Y0137483D01*
X0231770Y0135885D02*
X0235959Y0135885D01*
X0236096Y0134286D02*
X0230171Y0134286D01*
X0229000Y0132688D02*
X0236881Y0132688D01*
X0238110Y0131089D02*
X0229000Y0131089D01*
X0229000Y0129491D02*
X0236762Y0129491D01*
X0236323Y0127892D02*
X0229000Y0127892D01*
X0229000Y0126293D02*
X0236423Y0126293D01*
X0236510Y0124695D02*
X0229000Y0124695D01*
X0229000Y0123096D02*
X0236548Y0123096D01*
X0236559Y0121498D02*
X0229000Y0121498D01*
X0228285Y0119899D02*
X0235121Y0119899D01*
X0233306Y0118301D02*
X0226686Y0118301D01*
X0225088Y0116702D02*
X0231491Y0116702D01*
X0229677Y0115104D02*
X0228733Y0115104D01*
X0224867Y0115104D02*
X0223489Y0115104D01*
X0222676Y0113505D02*
X0221891Y0113505D01*
X0221847Y0111907D02*
X0220292Y0111907D01*
X0221600Y0110308D02*
X0218694Y0110308D01*
X0217095Y0108710D02*
X0221820Y0108710D01*
X0222611Y0107111D02*
X0216500Y0107111D01*
X0216500Y0105513D02*
X0224711Y0105513D01*
X0228889Y0105513D02*
X0236310Y0105513D01*
X0237727Y0107111D02*
X0233325Y0107111D01*
X0235126Y0108710D02*
X0239818Y0108710D01*
X0226800Y0121526D02*
X0214300Y0109026D01*
X0214070Y0111907D02*
X0207030Y0111907D01*
X0205432Y0113505D02*
X0215668Y0113505D01*
X0217267Y0115104D02*
X0203833Y0115104D01*
X0202235Y0116702D02*
X0218865Y0116702D01*
X0220464Y0118301D02*
X0200636Y0118301D01*
X0211564Y0134164D02*
X0211800Y0134164D01*
X0211800Y0134026D01*
X0211564Y0134164D02*
X0219300Y0136664D01*
X0219300Y0139026D01*
X0221800Y0143357D01*
X0226800Y0134026D02*
X0226800Y0121526D01*
X0226800Y0134026D02*
X0246800Y0154026D01*
X0249142Y0151870D02*
X0256220Y0151870D01*
X0256220Y0153468D02*
X0249981Y0153468D01*
X0249812Y0155067D02*
X0256220Y0155067D01*
X0256220Y0156665D02*
X0248660Y0156665D01*
X0246156Y0150271D02*
X0256220Y0150271D01*
X0256220Y0148673D02*
X0244558Y0148673D01*
X0242959Y0147074D02*
X0256220Y0147074D01*
X0251949Y0145476D02*
X0241361Y0145476D01*
X0239762Y0143877D02*
X0251299Y0143877D01*
X0251299Y0142279D02*
X0238164Y0142279D01*
X0240550Y0139082D02*
X0240550Y0139082D01*
X0240550Y0137483D02*
X0240550Y0137483D01*
X0240550Y0135885D02*
X0240550Y0135885D01*
X0241532Y0151870D02*
X0237731Y0151870D01*
X0197782Y0151870D02*
X0196505Y0151870D01*
X0188992Y0164658D02*
X0186932Y0164658D01*
X0188531Y0166256D02*
X0190591Y0166256D01*
X0178973Y0188635D02*
X0178511Y0188635D01*
X0168800Y0195029D02*
X0155119Y0195029D01*
X0155200Y0196628D02*
X0168800Y0196628D01*
X0168800Y0198227D02*
X0155200Y0198227D01*
X0155200Y0199825D02*
X0160183Y0199825D01*
X0160111Y0199848D02*
X0160770Y0199634D01*
X0161454Y0199526D01*
X0161800Y0199526D01*
X0162146Y0199526D01*
X0162830Y0199634D01*
X0163489Y0199848D01*
X0164106Y0200163D01*
X0164666Y0200570D01*
X0165156Y0201060D01*
X0165563Y0201620D01*
X0165878Y0202237D01*
X0166092Y0202896D01*
X0166200Y0203580D01*
X0166200Y0206526D01*
X0166200Y0209472D01*
X0166092Y0210156D01*
X0165878Y0210815D01*
X0165563Y0211432D01*
X0165156Y0211992D01*
X0164666Y0212482D01*
X0164106Y0212889D01*
X0163489Y0213204D01*
X0162830Y0213418D01*
X0162146Y0213526D01*
X0161800Y0213526D01*
X0161800Y0206526D01*
X0161800Y0206526D01*
X0166200Y0206526D01*
X0161800Y0206526D01*
X0161800Y0206526D01*
X0161800Y0213526D01*
X0161454Y0213526D01*
X0160770Y0213418D01*
X0160111Y0213204D01*
X0159494Y0212889D01*
X0158934Y0212482D01*
X0158444Y0211992D01*
X0158037Y0211432D01*
X0157722Y0210815D01*
X0157508Y0210156D01*
X0157400Y0209472D01*
X0157400Y0206526D01*
X0161800Y0206526D01*
X0161800Y0206526D01*
X0161800Y0199526D01*
X0161800Y0206526D01*
X0161800Y0206526D01*
X0157400Y0206526D01*
X0157400Y0203580D01*
X0157508Y0202896D01*
X0157722Y0202237D01*
X0158037Y0201620D01*
X0158444Y0201060D01*
X0158934Y0200570D01*
X0159494Y0200163D01*
X0160111Y0199848D01*
X0161800Y0199825D02*
X0161800Y0199825D01*
X0161800Y0201424D02*
X0161800Y0201424D01*
X0161800Y0203022D02*
X0161800Y0203022D01*
X0161800Y0204621D02*
X0161800Y0204621D01*
X0161800Y0206219D02*
X0161800Y0206219D01*
X0161800Y0207818D02*
X0161800Y0207818D01*
X0161800Y0209416D02*
X0161800Y0209416D01*
X0161800Y0211015D02*
X0161800Y0211015D01*
X0161800Y0212613D02*
X0161800Y0212613D01*
X0159114Y0212613D02*
X0153834Y0212613D01*
X0155347Y0211015D02*
X0157824Y0211015D01*
X0157400Y0209416D02*
X0155800Y0209416D01*
X0155800Y0207818D02*
X0157400Y0207818D01*
X0157400Y0206219D02*
X0155800Y0206219D01*
X0155800Y0204621D02*
X0157400Y0204621D01*
X0157488Y0203022D02*
X0155755Y0203022D01*
X0155200Y0201424D02*
X0158179Y0201424D01*
X0163417Y0199825D02*
X0168800Y0199825D01*
X0168646Y0201424D02*
X0165421Y0201424D01*
X0166112Y0203022D02*
X0167845Y0203022D01*
X0167800Y0204621D02*
X0166200Y0204621D01*
X0166200Y0206219D02*
X0167800Y0206219D01*
X0167800Y0207818D02*
X0166200Y0207818D01*
X0166200Y0209416D02*
X0167800Y0209416D01*
X0168253Y0211015D02*
X0165776Y0211015D01*
X0164486Y0212613D02*
X0169766Y0212613D01*
X0169300Y0224026D02*
X0208050Y0224026D01*
X0205550Y0220276D02*
X0096175Y0220276D01*
X0094300Y0222151D01*
X0091800Y0218534D02*
X0094300Y0215901D01*
X0199615Y0216034D01*
X0201800Y0214026D01*
X0201800Y0206526D01*
X0205800Y0206219D02*
X0207800Y0206219D01*
X0207800Y0204621D02*
X0205800Y0204621D01*
X0205755Y0203022D02*
X0207845Y0203022D01*
X0208646Y0201424D02*
X0204954Y0201424D01*
X0205800Y0207818D02*
X0207800Y0207818D01*
X0207800Y0209416D02*
X0205800Y0209416D01*
X0205347Y0211015D02*
X0208253Y0211015D01*
X0209600Y0212613D02*
X0204000Y0212613D01*
X0204000Y0214212D02*
X0208503Y0214212D01*
X0206905Y0215810D02*
X0203127Y0215810D01*
X0201370Y0217409D02*
X0205306Y0217409D01*
X0205550Y0220276D02*
X0211800Y0214026D01*
X0211800Y0206526D01*
X0225135Y0223803D02*
X0225900Y0223803D01*
X0225900Y0225401D02*
X0224000Y0225401D01*
X0224000Y0227000D02*
X0225900Y0227000D01*
X0225900Y0228598D02*
X0224000Y0228598D01*
X0224000Y0230197D02*
X0225900Y0230197D01*
X0225900Y0231795D02*
X0225247Y0231795D01*
X0225800Y0233394D02*
X0225900Y0233394D01*
X0225900Y0234992D02*
X0225800Y0234992D01*
X0232700Y0231795D02*
X0234039Y0231795D01*
X0234380Y0230197D02*
X0232700Y0230197D01*
X0232700Y0228598D02*
X0234982Y0228598D01*
X0235850Y0227000D02*
X0232700Y0227000D01*
X0232733Y0225401D02*
X0237046Y0225401D01*
X0238808Y0223803D02*
X0234332Y0223803D01*
X0235930Y0222204D02*
X0241628Y0222204D01*
X0253611Y0223803D02*
X0256220Y0223803D01*
X0256220Y0225401D02*
X0255373Y0225401D01*
X0235900Y0255773D02*
X0211704Y0255773D01*
X0213300Y0257371D02*
X0235300Y0257371D01*
X0235300Y0258970D02*
X0213300Y0258970D01*
X0213300Y0260568D02*
X0235300Y0260568D01*
X0235400Y0262167D02*
X0211816Y0262167D01*
X0213300Y0270160D02*
X0235300Y0270160D01*
X0235300Y0271758D02*
X0213300Y0271758D01*
X0213126Y0273357D02*
X0235474Y0273357D01*
X0237072Y0274955D02*
X0211528Y0274955D01*
X0211800Y0241526D02*
X0211800Y0236526D01*
X0169300Y0224026D02*
X0161800Y0231526D01*
X0161800Y0236526D01*
X0157800Y0236591D02*
X0156200Y0236591D01*
X0156200Y0236526D02*
X0151800Y0236526D01*
X0151800Y0236526D01*
X0151800Y0236526D01*
X0151800Y0229526D01*
X0152146Y0229526D01*
X0152830Y0229634D01*
X0153489Y0229848D01*
X0154106Y0230163D01*
X0154666Y0230570D01*
X0155156Y0231060D01*
X0155563Y0231620D01*
X0155878Y0232237D01*
X0156092Y0232896D01*
X0156200Y0233580D01*
X0156200Y0236526D01*
X0156200Y0234992D02*
X0157800Y0234992D01*
X0157800Y0233394D02*
X0156171Y0233394D01*
X0155653Y0231795D02*
X0158353Y0231795D01*
X0160018Y0230197D02*
X0154153Y0230197D01*
X0151800Y0230197D02*
X0151800Y0230197D01*
X0151800Y0229526D02*
X0151800Y0236526D01*
X0151800Y0236526D01*
X0147400Y0236526D01*
X0147400Y0233580D01*
X0147508Y0232896D01*
X0147722Y0232237D01*
X0148037Y0231620D01*
X0148444Y0231060D01*
X0148934Y0230570D01*
X0149494Y0230163D01*
X0150111Y0229848D01*
X0150770Y0229634D01*
X0151454Y0229526D01*
X0151800Y0229526D01*
X0151800Y0231795D02*
X0151800Y0231795D01*
X0151800Y0233394D02*
X0151800Y0233394D01*
X0151800Y0234992D02*
X0151800Y0234992D01*
X0147400Y0234992D02*
X0145800Y0234992D01*
X0145800Y0233394D02*
X0147429Y0233394D01*
X0147947Y0231795D02*
X0145247Y0231795D01*
X0143249Y0230197D02*
X0149447Y0230197D01*
X0147400Y0236591D02*
X0145800Y0236591D01*
X0145800Y0238189D02*
X0147400Y0238189D01*
X0147450Y0239788D02*
X0145800Y0239788D01*
X0145193Y0241386D02*
X0148013Y0241386D01*
X0141800Y0239026D02*
X0141800Y0236526D01*
X0141800Y0239026D02*
X0139300Y0239026D01*
X0126800Y0251526D01*
X0125550Y0247776D02*
X0131800Y0241526D01*
X0131800Y0236526D01*
X0135247Y0231795D02*
X0138353Y0231795D01*
X0137800Y0233394D02*
X0135800Y0233394D01*
X0135800Y0234992D02*
X0137800Y0234992D01*
X0137800Y0236591D02*
X0135800Y0236591D01*
X0135800Y0238189D02*
X0137025Y0238189D01*
X0140351Y0230197D02*
X0133249Y0230197D01*
X0118353Y0231795D02*
X0115247Y0231795D01*
X0115800Y0233394D02*
X0117800Y0233394D01*
X0117800Y0234992D02*
X0115800Y0234992D01*
X0115800Y0236591D02*
X0117800Y0236591D01*
X0117800Y0238189D02*
X0115800Y0238189D01*
X0115800Y0239788D02*
X0117800Y0239788D01*
X0118407Y0241386D02*
X0115193Y0241386D01*
X0108407Y0241386D02*
X0105193Y0241386D01*
X0105800Y0239788D02*
X0107800Y0239788D01*
X0107800Y0238189D02*
X0105800Y0238189D01*
X0105800Y0236591D02*
X0107800Y0236591D01*
X0107800Y0234992D02*
X0105800Y0234992D01*
X0105800Y0233394D02*
X0107800Y0233394D01*
X0108353Y0231795D02*
X0105247Y0231795D01*
X0098353Y0231795D02*
X0095247Y0231795D01*
X0095800Y0233394D02*
X0097800Y0233394D01*
X0097800Y0234992D02*
X0095800Y0234992D01*
X0095800Y0236591D02*
X0097800Y0236591D01*
X0097800Y0238189D02*
X0095800Y0238189D01*
X0095800Y0239788D02*
X0097800Y0239788D01*
X0098407Y0241386D02*
X0095193Y0241386D01*
X0083611Y0262167D02*
X0083611Y0262167D01*
X0083611Y0263765D02*
X0083611Y0263765D01*
X0083611Y0265364D02*
X0083611Y0265364D01*
X0083611Y0266962D02*
X0083611Y0266962D01*
X0083611Y0268561D02*
X0083611Y0268561D01*
X0083611Y0270160D02*
X0083611Y0270160D01*
X0083611Y0271758D02*
X0083611Y0271758D01*
X0092625Y0271758D02*
X0113449Y0271758D01*
X0112711Y0270160D02*
X0093294Y0270160D01*
X0093294Y0268561D02*
X0112711Y0268561D01*
X0146216Y0276554D02*
X0043927Y0276554D01*
X0042707Y0278152D02*
X0147815Y0278152D01*
X0148827Y0262167D02*
X0149111Y0262167D01*
X0154733Y0262167D02*
X0155017Y0262167D01*
X0160638Y0262167D02*
X0160922Y0262167D01*
X0158407Y0241386D02*
X0155587Y0241386D01*
X0156150Y0239788D02*
X0157800Y0239788D01*
X0157800Y0238189D02*
X0156200Y0238189D01*
X0149766Y0212613D02*
X0143834Y0212613D01*
X0145347Y0211015D02*
X0148253Y0211015D01*
X0147800Y0209416D02*
X0145800Y0209416D01*
X0145800Y0207818D02*
X0147800Y0207818D01*
X0147800Y0206219D02*
X0145800Y0206219D01*
X0145800Y0204621D02*
X0147800Y0204621D01*
X0147845Y0203022D02*
X0145755Y0203022D01*
X0154138Y0193431D02*
X0163373Y0193431D01*
X0157864Y0191832D02*
X0153300Y0191832D01*
X0151790Y0190234D02*
X0156265Y0190234D01*
X0156500Y0159862D02*
X0161171Y0159862D01*
X0160058Y0158264D02*
X0156500Y0158264D01*
X0156500Y0156665D02*
X0159728Y0156665D01*
X0159967Y0155067D02*
X0156500Y0155067D01*
X0156500Y0153468D02*
X0160892Y0153468D01*
X0164214Y0155067D02*
X0164386Y0155067D01*
X0164386Y0156665D02*
X0164214Y0156665D01*
X0164214Y0158264D02*
X0164386Y0158264D01*
X0164386Y0159862D02*
X0164214Y0159862D01*
X0146745Y0139082D02*
X0144010Y0139082D01*
X0145129Y0137483D02*
X0142357Y0137483D01*
X0143530Y0135885D02*
X0140705Y0135885D01*
X0141932Y0134286D02*
X0139052Y0134286D01*
X0140333Y0132688D02*
X0137400Y0132688D01*
X0138735Y0131089D02*
X0135747Y0131089D01*
X0137136Y0129491D02*
X0134095Y0129491D01*
X0135538Y0127892D02*
X0132443Y0127892D01*
X0132300Y0126293D02*
X0134019Y0126293D01*
X0133623Y0124695D02*
X0132300Y0124695D01*
X0132300Y0123096D02*
X0133630Y0123096D01*
X0133638Y0121498D02*
X0132300Y0121498D01*
X0132300Y0119899D02*
X0133645Y0119899D01*
X0133653Y0118301D02*
X0132300Y0118301D01*
X0132300Y0116702D02*
X0133660Y0116702D01*
X0133667Y0115104D02*
X0132300Y0115104D01*
X0132300Y0113505D02*
X0133675Y0113505D01*
X0133682Y0111907D02*
X0132300Y0111907D01*
X0132300Y0110308D02*
X0133690Y0110308D01*
X0133697Y0108710D02*
X0132300Y0108710D01*
X0132300Y0107111D02*
X0133705Y0107111D01*
X0133712Y0105513D02*
X0132300Y0105513D01*
X0132300Y0103914D02*
X0133719Y0103914D01*
X0133727Y0102316D02*
X0132300Y0102316D01*
X0132300Y0100717D02*
X0133734Y0100717D01*
X0133742Y0099119D02*
X0132300Y0099119D01*
X0132300Y0097520D02*
X0133749Y0097520D01*
X0133756Y0095922D02*
X0132300Y0095922D01*
X0132300Y0094323D02*
X0133764Y0094323D01*
X0133771Y0092725D02*
X0132300Y0092725D01*
X0132300Y0091126D02*
X0133779Y0091126D01*
X0133786Y0089528D02*
X0132300Y0089528D01*
X0132300Y0087929D02*
X0133793Y0087929D01*
X0133800Y0086331D02*
X0132336Y0086331D01*
X0133306Y0084732D02*
X0134348Y0084732D01*
X0126435Y0084732D02*
X0124856Y0084732D01*
X0126300Y0086331D02*
X0122073Y0086331D01*
X0121055Y0086331D02*
X0120655Y0086331D01*
X0120655Y0086455D02*
X0120422Y0086455D01*
X0119567Y0086320D01*
X0118744Y0086052D01*
X0117972Y0085659D01*
X0117272Y0085150D01*
X0116660Y0084538D01*
X0116151Y0083838D01*
X0115758Y0083066D01*
X0115491Y0082243D01*
X0115355Y0081388D01*
X0115355Y0081155D01*
X0120655Y0081155D01*
X0120655Y0086455D01*
X0119637Y0086331D02*
X0112607Y0086331D01*
X0114000Y0084732D02*
X0116854Y0084732D01*
X0115792Y0083134D02*
X0114000Y0083134D01*
X0114000Y0081535D02*
X0115378Y0081535D01*
X0115355Y0080755D02*
X0115355Y0080522D01*
X0115491Y0079667D01*
X0115758Y0078844D01*
X0116151Y0078072D01*
X0116660Y0077372D01*
X0117272Y0076760D01*
X0117972Y0076251D01*
X0118744Y0075858D01*
X0119567Y0075591D01*
X0120422Y0075455D01*
X0120655Y0075455D01*
X0120655Y0080755D01*
X0115355Y0080755D01*
X0115448Y0079937D02*
X0114000Y0079937D01*
X0114000Y0078338D02*
X0116016Y0078338D01*
X0117300Y0076740D02*
X0114000Y0076740D01*
X0120655Y0076740D02*
X0121055Y0076740D01*
X0121055Y0078338D02*
X0120655Y0078338D01*
X0120655Y0079937D02*
X0121055Y0079937D01*
X0121055Y0081535D02*
X0120655Y0081535D01*
X0120655Y0083134D02*
X0121055Y0083134D01*
X0121055Y0084732D02*
X0120655Y0084732D01*
X0126300Y0087929D02*
X0111008Y0087929D01*
X0109981Y0089528D02*
X0126300Y0089528D01*
X0126300Y0091126D02*
X0109198Y0091126D01*
X0115380Y0100717D02*
X0069000Y0100717D01*
X0056800Y0111526D02*
X0046800Y0121526D01*
X0036800Y0121526D01*
X0034097Y0121821D01*
X0034048Y0121772D01*
X0039352Y0124695D02*
X0046138Y0124695D01*
X0046914Y0118301D02*
X0043136Y0118301D01*
X0041800Y0116526D02*
X0051800Y0106526D01*
X0051800Y0074026D01*
X0031800Y0054026D01*
X0031800Y0046526D01*
X0035753Y0041572D02*
X0037847Y0041572D01*
X0037400Y0043171D02*
X0036200Y0043171D01*
X0036200Y0044769D02*
X0037400Y0044769D01*
X0037400Y0046368D02*
X0036200Y0046368D01*
X0036200Y0047966D02*
X0037400Y0047966D01*
X0037400Y0049565D02*
X0036200Y0049565D01*
X0035884Y0051163D02*
X0037716Y0051163D01*
X0038813Y0052762D02*
X0034787Y0052762D01*
X0035246Y0054360D02*
X0039600Y0054360D01*
X0040622Y0055959D02*
X0036844Y0055959D01*
X0038443Y0057558D02*
X0042220Y0057558D01*
X0043819Y0059156D02*
X0040041Y0059156D01*
X0041640Y0060755D02*
X0045417Y0060755D01*
X0047016Y0062353D02*
X0043238Y0062353D01*
X0044837Y0063952D02*
X0048614Y0063952D01*
X0050213Y0065550D02*
X0046435Y0065550D01*
X0048034Y0067149D02*
X0051811Y0067149D01*
X0053410Y0068747D02*
X0049632Y0068747D01*
X0051231Y0070346D02*
X0054600Y0070346D01*
X0054600Y0071944D02*
X0052829Y0071944D01*
X0054000Y0073543D02*
X0054600Y0073543D01*
X0054600Y0075141D02*
X0054000Y0075141D01*
X0054000Y0076740D02*
X0054600Y0076740D01*
X0054600Y0078338D02*
X0054000Y0078338D01*
X0054000Y0079937D02*
X0054600Y0079937D01*
X0054600Y0081535D02*
X0054000Y0081535D01*
X0054000Y0083134D02*
X0054600Y0083134D01*
X0054600Y0084732D02*
X0054000Y0084732D01*
X0054000Y0086331D02*
X0054600Y0086331D01*
X0054600Y0087929D02*
X0054000Y0087929D01*
X0054000Y0089528D02*
X0054600Y0089528D01*
X0054600Y0091126D02*
X0054000Y0091126D01*
X0054000Y0092725D02*
X0054600Y0092725D01*
X0054600Y0094323D02*
X0054000Y0094323D01*
X0054000Y0095922D02*
X0054600Y0095922D01*
X0054600Y0097520D02*
X0054000Y0097520D01*
X0054000Y0099119D02*
X0054600Y0099119D01*
X0054600Y0100717D02*
X0054000Y0100717D01*
X0054000Y0102316D02*
X0054600Y0102316D01*
X0054600Y0103914D02*
X0054000Y0103914D01*
X0054000Y0105513D02*
X0054600Y0105513D01*
X0054600Y0107111D02*
X0054000Y0107111D01*
X0054600Y0108710D02*
X0052727Y0108710D01*
X0051129Y0110308D02*
X0054600Y0110308D01*
X0053308Y0111907D02*
X0049530Y0111907D01*
X0047932Y0113505D02*
X0051709Y0113505D01*
X0050111Y0115104D02*
X0046333Y0115104D01*
X0044735Y0116702D02*
X0048512Y0116702D01*
X0056800Y0111526D02*
X0056800Y0069026D01*
X0041800Y0054026D01*
X0041800Y0046526D01*
X0046200Y0046368D02*
X0047400Y0046368D01*
X0047400Y0047966D02*
X0046200Y0047966D01*
X0046200Y0049565D02*
X0047400Y0049565D01*
X0047716Y0051163D02*
X0045884Y0051163D01*
X0044787Y0052762D02*
X0048813Y0052762D01*
X0049600Y0054360D02*
X0045246Y0054360D01*
X0046844Y0055959D02*
X0050622Y0055959D01*
X0052220Y0057558D02*
X0048443Y0057558D01*
X0050041Y0059156D02*
X0053819Y0059156D01*
X0055417Y0060755D02*
X0051640Y0060755D01*
X0053238Y0062353D02*
X0057016Y0062353D01*
X0058614Y0063952D02*
X0054837Y0063952D01*
X0056435Y0065550D02*
X0060213Y0065550D01*
X0058034Y0067149D02*
X0066766Y0067149D01*
X0071276Y0070346D02*
X0079298Y0070346D01*
X0079298Y0071944D02*
X0072875Y0071944D01*
X0073300Y0073543D02*
X0079589Y0073543D01*
X0080017Y0075141D02*
X0073300Y0075141D01*
X0073284Y0062353D02*
X0083178Y0062353D01*
X0085566Y0060755D02*
X0071685Y0060755D01*
X0066915Y0060755D02*
X0061640Y0060755D01*
X0061600Y0052762D02*
X0062000Y0052762D01*
X0062000Y0051163D02*
X0061600Y0051163D01*
X0061600Y0049565D02*
X0062000Y0049565D01*
X0062000Y0047966D02*
X0061600Y0047966D01*
X0061600Y0044769D02*
X0062000Y0044769D01*
X0062000Y0043171D02*
X0061600Y0043171D01*
X0061600Y0041572D02*
X0062000Y0041572D01*
X0062000Y0039974D02*
X0061600Y0039974D01*
X0058564Y0039974D02*
X0054470Y0039974D01*
X0055753Y0041572D02*
X0057408Y0041572D01*
X0057000Y0043171D02*
X0056200Y0043171D01*
X0056200Y0044769D02*
X0057000Y0044769D01*
X0051800Y0046526D02*
X0051800Y0054026D01*
X0047400Y0044769D02*
X0046200Y0044769D01*
X0046200Y0043171D02*
X0047400Y0043171D01*
X0047847Y0041572D02*
X0045753Y0041572D01*
X0044470Y0039974D02*
X0049130Y0039974D01*
X0039130Y0039974D02*
X0034470Y0039974D01*
X0040008Y0071944D02*
X0046607Y0071944D01*
X0048205Y0073543D02*
X0042097Y0073543D01*
X0043514Y0075141D02*
X0049600Y0075141D01*
X0049600Y0076740D02*
X0044512Y0076740D01*
X0045203Y0078338D02*
X0049600Y0078338D01*
X0049600Y0079937D02*
X0045653Y0079937D01*
X0045886Y0081535D02*
X0049600Y0081535D01*
X0029177Y0107111D02*
X0023600Y0107111D01*
X0023600Y0108710D02*
X0028099Y0108710D01*
X0027892Y0110308D02*
X0023600Y0110308D01*
X0023600Y0111907D02*
X0028387Y0111907D01*
X0028688Y0113505D02*
X0023600Y0113505D01*
X0023600Y0115104D02*
X0027897Y0115104D01*
X0027927Y0116702D02*
X0023600Y0116702D01*
X0034048Y0127892D02*
X0034048Y0127892D01*
X0034048Y0129491D02*
X0034048Y0129491D01*
X0034048Y0131089D02*
X0034048Y0131089D01*
X0039049Y0148673D02*
X0053796Y0148673D01*
X0059804Y0148673D02*
X0063289Y0148673D01*
X0062516Y0150271D02*
X0060693Y0150271D01*
X0060800Y0151870D02*
X0062400Y0151870D01*
X0062400Y0153468D02*
X0060800Y0153468D01*
X0060800Y0155067D02*
X0062400Y0155067D01*
X0062400Y0156665D02*
X0060800Y0156665D01*
X0060410Y0158264D02*
X0062747Y0158264D01*
X0063914Y0159862D02*
X0059121Y0159862D01*
X0053419Y0166256D02*
X0052142Y0166256D01*
X0051821Y0164658D02*
X0050543Y0164658D01*
X0050222Y0163059D02*
X0048945Y0163059D01*
X0048134Y0162249D02*
X0048134Y0162249D01*
X0048623Y0161461D02*
X0047346Y0161461D01*
X0047025Y0159862D02*
X0039652Y0159862D01*
X0040448Y0158264D02*
X0045426Y0158264D01*
X0043828Y0156665D02*
X0040519Y0156665D01*
X0039957Y0155067D02*
X0042229Y0155067D01*
X0041623Y0151349D02*
X0034005Y0151349D01*
X0039482Y0166256D02*
X0045919Y0166256D01*
X0047518Y0167855D02*
X0040382Y0167855D01*
X0040551Y0169453D02*
X0049116Y0169453D01*
X0050715Y0171052D02*
X0040060Y0171052D01*
X0053740Y0167855D02*
X0055018Y0167855D01*
X0055339Y0169453D02*
X0056616Y0169453D01*
X0056937Y0171052D02*
X0058215Y0171052D01*
X0058536Y0172650D02*
X0059813Y0172650D01*
X0060134Y0174249D02*
X0061412Y0174249D01*
X0061733Y0175847D02*
X0063010Y0175847D01*
X0066800Y0159862D02*
X0066800Y0159862D01*
X0066800Y0158264D02*
X0066800Y0158264D01*
X0066800Y0156665D02*
X0066800Y0156665D01*
X0066800Y0155067D02*
X0066800Y0155067D01*
X0066800Y0153468D02*
X0066800Y0153468D01*
X0066800Y0151870D02*
X0066800Y0151870D01*
X0066800Y0150271D02*
X0066800Y0150271D01*
X0066800Y0148673D02*
X0066800Y0148673D01*
X0085171Y0134286D02*
X0086449Y0134286D01*
X0086770Y0135885D02*
X0088047Y0135885D01*
X0088368Y0137483D02*
X0089646Y0137483D01*
X0089967Y0139082D02*
X0091244Y0139082D01*
X0091565Y0140680D02*
X0092843Y0140680D01*
X0093164Y0142279D02*
X0094441Y0142279D01*
X0094762Y0143877D02*
X0096040Y0143877D01*
X0096361Y0145476D02*
X0097638Y0145476D01*
X0097959Y0147074D02*
X0099237Y0147074D01*
X0099600Y0147437D02*
X0099600Y0147437D01*
X0099558Y0148673D02*
X0100835Y0148673D01*
X0101800Y0146526D02*
X0086800Y0131526D01*
X0086800Y0129026D01*
X0091073Y0132688D02*
X0093249Y0132688D01*
X0092671Y0134286D02*
X0094600Y0134286D01*
X0094270Y0135885D02*
X0095547Y0135885D01*
X0095868Y0137483D02*
X0097146Y0137483D01*
X0097467Y0139082D02*
X0110956Y0139082D01*
X0113428Y0140680D02*
X0099065Y0140680D01*
X0100664Y0142279D02*
X0119543Y0142279D01*
X0119547Y0143877D02*
X0117551Y0143877D01*
X0118380Y0145476D02*
X0119550Y0145476D01*
X0119554Y0147074D02*
X0118472Y0147074D01*
X0117926Y0148673D02*
X0119557Y0148673D01*
X0119560Y0150271D02*
X0116159Y0150271D01*
X0117142Y0153468D02*
X0119567Y0153468D01*
X0119564Y0151870D02*
X0112755Y0151870D01*
X0112441Y0150271D02*
X0111156Y0150271D01*
X0109300Y0151526D02*
X0099300Y0151526D01*
X0076800Y0129026D01*
X0096800Y0129026D02*
X0096800Y0134026D01*
X0099300Y0136526D01*
X0114300Y0136526D01*
X0117644Y0139082D02*
X0119537Y0139082D01*
X0119540Y0140680D02*
X0115172Y0140680D01*
X0118419Y0137483D02*
X0119533Y0137483D01*
X0119530Y0135885D02*
X0118472Y0135885D01*
X0117888Y0134286D02*
X0119527Y0134286D01*
X0119523Y0132688D02*
X0115934Y0132688D01*
X0112666Y0132688D02*
X0100351Y0132688D01*
X0100171Y0134286D02*
X0110712Y0134286D01*
X0111049Y0143877D02*
X0102262Y0143877D01*
X0101800Y0146526D02*
X0114300Y0146526D01*
X0109300Y0151526D02*
X0114300Y0156526D01*
X0118472Y0156665D02*
X0119574Y0156665D01*
X0119570Y0155067D02*
X0118211Y0155067D01*
X0118096Y0158264D02*
X0119577Y0158264D01*
X0119581Y0159862D02*
X0116863Y0159862D01*
X0119584Y0161461D02*
X0098772Y0161461D01*
X0100371Y0159862D02*
X0111737Y0159862D01*
X0110504Y0158264D02*
X0100800Y0158264D01*
X0100800Y0156665D02*
X0110128Y0156665D01*
X0109729Y0155067D02*
X0099748Y0155067D01*
X0094642Y0166256D02*
X0110128Y0166256D01*
X0110335Y0167855D02*
X0096240Y0167855D01*
X0097839Y0169453D02*
X0111328Y0169453D01*
X0117272Y0169453D02*
X0119600Y0169453D01*
X0119598Y0167855D02*
X0118265Y0167855D01*
X0118472Y0166256D02*
X0119594Y0166256D01*
X0119591Y0164658D02*
X0118042Y0164658D01*
X0116733Y0163059D02*
X0119587Y0163059D01*
X0119600Y0171052D02*
X0099437Y0171052D01*
X0101036Y0172650D02*
X0119600Y0172650D01*
X0119600Y0174249D02*
X0102634Y0174249D01*
X0104233Y0175847D02*
X0120510Y0175847D01*
X0121347Y0183840D02*
X0121347Y0183840D01*
X0121347Y0185438D02*
X0121347Y0185438D01*
X0107100Y0185438D02*
X0100119Y0185438D01*
X0100800Y0187037D02*
X0107100Y0187037D01*
X0107100Y0188635D02*
X0100800Y0188635D01*
X0105800Y0207818D02*
X0107800Y0207818D01*
X0107800Y0209416D02*
X0105800Y0209416D01*
X0105347Y0211015D02*
X0108253Y0211015D01*
X0109766Y0212613D02*
X0103834Y0212613D01*
X0113834Y0212613D02*
X0119766Y0212613D01*
X0118253Y0211015D02*
X0115347Y0211015D01*
X0115800Y0209416D02*
X0117800Y0209416D01*
X0117800Y0207818D02*
X0115800Y0207818D01*
X0036800Y0235207D02*
X0036800Y0235276D01*
X0034398Y0235207D01*
X0155896Y0113505D02*
X0158168Y0113505D01*
X0159000Y0100717D02*
X0162456Y0100717D01*
X0164214Y0100717D02*
X0164386Y0100717D01*
X0164386Y0101098D02*
X0164660Y0101098D01*
X0165371Y0100985D01*
X0166055Y0100763D01*
X0166696Y0100436D01*
X0167278Y0100013D01*
X0167787Y0099504D01*
X0168210Y0098922D01*
X0168537Y0098281D01*
X0168759Y0097597D01*
X0168872Y0096886D01*
X0168872Y0096612D01*
X0164386Y0096612D01*
X0164386Y0101098D01*
X0166144Y0100717D02*
X0173519Y0100717D01*
X0171920Y0099119D02*
X0168067Y0099119D01*
X0168771Y0097520D02*
X0171150Y0097520D01*
X0171150Y0095922D02*
X0168833Y0095922D01*
X0168309Y0094323D02*
X0171530Y0094323D01*
X0164386Y0094323D02*
X0164214Y0094323D01*
X0164214Y0095922D02*
X0164386Y0095922D01*
X0164386Y0097520D02*
X0164214Y0097520D01*
X0164214Y0099119D02*
X0164386Y0099119D01*
X0160533Y0099119D02*
X0159000Y0099119D01*
X0159000Y0097520D02*
X0159829Y0097520D01*
X0159767Y0095922D02*
X0159000Y0095922D01*
X0159614Y0094323D02*
X0160291Y0094323D01*
X0161212Y0092725D02*
X0161754Y0092725D01*
X0235090Y0065550D02*
X0236387Y0065550D01*
X0239812Y0059156D02*
X0239937Y0059156D01*
X0240126Y0057558D02*
X0242252Y0057558D01*
X0255769Y0075141D02*
X0256220Y0075141D01*
X0068813Y0052762D02*
X0065352Y0052762D01*
X0066315Y0051163D02*
X0067716Y0051163D01*
X0067400Y0049565D02*
X0066600Y0049565D01*
X0066600Y0047966D02*
X0067400Y0047966D01*
D33*
X0211800Y0134026D03*
D34*
X0246800Y0154026D03*
X0176800Y0185901D03*
X0161800Y0181526D03*
X0146800Y0159026D03*
X0131800Y0144026D03*
X0129300Y0159026D03*
X0104300Y0196526D03*
X0082425Y0181526D03*
X0049300Y0175901D03*
X0031800Y0204026D03*
X0046800Y0121526D03*
X0074300Y0081526D03*
X0089300Y0106526D03*
X0106800Y0089026D03*
X0139300Y0049026D03*
X0176800Y0084026D03*
X0180550Y0057776D03*
X0146800Y0226526D03*
X0126175Y0227151D03*
X0224300Y0271526D03*
D35*
X0147391Y0146526D03*
D36*
X0134359Y0070955D02*
X0129305Y0065901D01*
X0114925Y0065901D01*
D37*
X0186800Y0097776D02*
X0186800Y0110276D01*
D38*
X0226800Y0097776D02*
X0226800Y0084026D01*
X0228969Y0079339D01*
M02*
