%
M48
M72
T01C0.02362
T02C0.02756
T03C0.03150
T04C0.03200
T05C0.03543
T06C0.04000
T07C0.04400
T08C0.11024
T09C0.11811
T10C0.13000
T11C0.14000
%
T01
X74300Y81526
X89300Y106526
X106800Y89026
X139300Y49026
X176800Y84026
X180550Y57776
X131800Y144026
X129300Y159026
X146800Y159026
X161800Y181526
X176800Y185901
X146800Y226526
X126175Y227151
X104300Y196526
X82425Y181526
X49300Y175901
X31800Y204026
X46800Y121526
X224300Y271526
X246800Y154026
T02
X121347Y186998
X121347Y192904
X122394Y267077
X116489Y267077
X128300Y267077
X134206Y267077
X140111Y267077
X146017Y267077
X151922Y267077
X157828Y267077
X163733Y267077
X169639Y267077
X245894Y195876
X245894Y189971
X89517Y267146
X83611Y267146
X77706Y267146
X71800Y267146
X65894Y267146
X34398Y241113
X34398Y235207
X34398Y229302
X34005Y169065
X34005Y163160
X34005Y157254
X34005Y151349
X34048Y127678
X34048Y121772
X34048Y115867
X34048Y109961
T03
X184300Y127589
X184300Y135463
X240550Y135463
X240550Y127589
T04
X175550Y96526
X175550Y106526
X184300Y159026
X184300Y169026
X186300Y189651
X181800Y206526
X171800Y206526
X161800Y206526
X151800Y206526
X141800Y206526
X131800Y206526
X121800Y206526
X111800Y206526
X101800Y206526
X91800Y206526
X76800Y211526
X66800Y211526
X56800Y211526
X41800Y216526
X30550Y216526
X56800Y241526
X66800Y241526
X76800Y241526
X91800Y236526
X101800Y236526
X111800Y236526
X121800Y236526
X131800Y236526
X141800Y236526
X151800Y236526
X161800Y236526
X171800Y236526
X181800Y236526
X191800Y236526
X201800Y236526
X211800Y236526
X221800Y236526
X209300Y259026
X209300Y271526
X239300Y271526
X239300Y259026
X221800Y206526
X211800Y206526
X201800Y206526
X191800Y206526
X204300Y193401
X214300Y193401
X214300Y179026
X204300Y179026
X239300Y169026
X239300Y159026
X167300Y189651
X149300Y193401
X139300Y193401
X139300Y179026
X149300Y179026
X96800Y187776
X76800Y186526
X66800Y186526
X56800Y186526
X41800Y186526
X30550Y186526
X56800Y156526
X66800Y156526
X76800Y156526
X96800Y157776
X104300Y106526
X74300Y106526
X69300Y74026
X69300Y64026
T05
X114300Y96526
X114300Y106526
X114300Y116526
X114300Y126526
X114300Y136526
X114300Y146526
X114300Y156526
X114300Y166526
X147391Y146526
X164300Y146526
X164300Y156526
X164300Y166526
X164300Y136526
X164300Y126526
X164300Y116526
X164300Y106526
X164300Y96526
T06
X161406Y70955
X152391Y70955
X147902Y60955
X138887Y60955
X129871Y60955
X134359Y70955
X125343Y70955
X120855Y60955
X120855Y80955
X129871Y80955
X138887Y80955
X147902Y80955
X156918Y80955
X143375Y70955
X156918Y60955
X96800Y119026
X96800Y129026
X86800Y129026
X86800Y119026
X76800Y119026
X76800Y129026
X71800Y46526
X61800Y46526
X51800Y46526
X41800Y46526
X31800Y46526
T07
X186800Y97776
X186800Y110276
X226800Y110276
X226800Y97776
T08
X33611Y269853
X246209Y98199
X246209Y233632
X33611Y82451
T09
X228969Y56111
X247473Y67528
X228969Y79339
T10
X189123Y70955
X90698Y70955
T11
X211800Y134026
M30
