G75*
%MOIN*%
%OFA0B0*%
%FSLAX25Y25*%
%IPPOS*%
%LPD*%
%AMOC8*
5,1,8,0,0,1.08239X$1,22.5*
%
%ADD10C,0.00000*%
%ADD11C,0.07400*%
%ADD12C,0.20000*%
%ADD13C,0.07600*%
%ADD14OC8,0.05200*%
%ADD15C,0.18898*%
%ADD16C,0.05543*%
%ADD17OC8,0.06300*%
%ADD18C,0.06300*%
%ADD19C,0.05200*%
%ADD20C,0.04756*%
%ADD21C,0.21000*%
%ADD22OC8,0.07400*%
%ADD23C,0.05600*%
%ADD24C,0.06000*%
%ADD25C,0.05600*%
%ADD26C,0.02400*%
%ADD27C,0.04000*%
%ADD28R,0.18000X0.18000*%
%ADD29C,0.01600*%
%ADD30C,0.05000*%
%ADD31C,0.03562*%
%ADD32C,0.01200*%
%ADD33C,0.03200*%
%ADD34C,0.05315*%
D10*
X0032936Y0031270D02*
X0246885Y0031270D01*
X0247154Y0031273D01*
X0247423Y0031283D01*
X0247692Y0031299D01*
X0247960Y0031322D01*
X0248227Y0031351D01*
X0248494Y0031387D01*
X0248760Y0031429D01*
X0249025Y0031477D01*
X0249288Y0031532D01*
X0249550Y0031594D01*
X0249811Y0031661D01*
X0250069Y0031735D01*
X0250326Y0031815D01*
X0250581Y0031901D01*
X0250834Y0031994D01*
X0251084Y0032092D01*
X0251332Y0032197D01*
X0251578Y0032307D01*
X0251820Y0032423D01*
X0252060Y0032546D01*
X0252297Y0032673D01*
X0252531Y0032807D01*
X0252761Y0032946D01*
X0252988Y0033091D01*
X0253211Y0033241D01*
X0253431Y0033397D01*
X0253646Y0033558D01*
X0253858Y0033724D01*
X0254066Y0033895D01*
X0254270Y0034071D01*
X0254469Y0034251D01*
X0254664Y0034437D01*
X0254854Y0034627D01*
X0255040Y0034822D01*
X0255220Y0035021D01*
X0255396Y0035225D01*
X0255567Y0035433D01*
X0255733Y0035645D01*
X0255894Y0035860D01*
X0256050Y0036080D01*
X0256200Y0036303D01*
X0256345Y0036530D01*
X0256484Y0036760D01*
X0256618Y0036994D01*
X0256745Y0037231D01*
X0256868Y0037471D01*
X0256984Y0037713D01*
X0257094Y0037959D01*
X0257199Y0038207D01*
X0257297Y0038457D01*
X0257390Y0038710D01*
X0257476Y0038965D01*
X0257556Y0039222D01*
X0257630Y0039480D01*
X0257697Y0039741D01*
X0257759Y0040003D01*
X0257814Y0040266D01*
X0257862Y0040531D01*
X0257904Y0040797D01*
X0257940Y0041064D01*
X0257969Y0041331D01*
X0257992Y0041599D01*
X0258008Y0041868D01*
X0258018Y0042137D01*
X0258021Y0042406D01*
X0258020Y0042406D02*
X0258020Y0119115D01*
X0253099Y0119115D01*
X0253099Y0144080D01*
X0258020Y0144080D01*
X0258020Y0268166D01*
X0258045Y0268464D01*
X0258063Y0268762D01*
X0258074Y0269061D01*
X0258077Y0269360D01*
X0258073Y0269659D01*
X0258062Y0269958D01*
X0258044Y0270256D01*
X0258018Y0270554D01*
X0257985Y0270851D01*
X0257945Y0271148D01*
X0257898Y0271443D01*
X0257844Y0271737D01*
X0257783Y0272030D01*
X0257714Y0272321D01*
X0257639Y0272610D01*
X0257557Y0272898D01*
X0257467Y0273183D01*
X0257371Y0273466D01*
X0257268Y0273747D01*
X0257159Y0274025D01*
X0257042Y0274300D01*
X0256919Y0274573D01*
X0256790Y0274842D01*
X0256654Y0275109D01*
X0256511Y0275372D01*
X0256362Y0275631D01*
X0256208Y0275887D01*
X0256046Y0276139D01*
X0255879Y0276386D01*
X0255706Y0276630D01*
X0255527Y0276870D01*
X0255343Y0277105D01*
X0255152Y0277336D01*
X0254957Y0277562D01*
X0254755Y0277783D01*
X0254549Y0277999D01*
X0254337Y0278210D01*
X0254121Y0278416D01*
X0253899Y0278617D01*
X0253673Y0278812D01*
X0253442Y0279002D01*
X0253206Y0279186D01*
X0252966Y0279365D01*
X0252722Y0279537D01*
X0252474Y0279704D01*
X0252221Y0279864D01*
X0251965Y0280019D01*
X0251706Y0280167D01*
X0251442Y0280309D01*
X0251176Y0280444D01*
X0250906Y0280573D01*
X0250633Y0280696D01*
X0250358Y0280812D01*
X0250079Y0280921D01*
X0249798Y0281023D01*
X0249515Y0281118D01*
X0249229Y0281207D01*
X0248942Y0281289D01*
X0248652Y0281364D01*
X0248361Y0281431D01*
X0248068Y0281492D01*
X0247774Y0281546D01*
X0247479Y0281592D01*
X0247182Y0281631D01*
X0246885Y0281663D01*
X0246885Y0281664D02*
X0033374Y0281664D01*
X0033085Y0281651D01*
X0032797Y0281631D01*
X0032508Y0281604D01*
X0032221Y0281570D01*
X0031935Y0281529D01*
X0031649Y0281481D01*
X0031365Y0281426D01*
X0031082Y0281365D01*
X0030801Y0281297D01*
X0030522Y0281222D01*
X0030244Y0281140D01*
X0029969Y0281051D01*
X0029695Y0280956D01*
X0029425Y0280854D01*
X0029156Y0280746D01*
X0028890Y0280632D01*
X0028628Y0280511D01*
X0028368Y0280383D01*
X0028111Y0280250D01*
X0027858Y0280110D01*
X0027608Y0279964D01*
X0027362Y0279812D01*
X0027119Y0279654D01*
X0026880Y0279491D01*
X0026646Y0279321D01*
X0026415Y0279147D01*
X0026189Y0278966D01*
X0025967Y0278780D01*
X0025750Y0278589D01*
X0025537Y0278393D01*
X0025330Y0278191D01*
X0025127Y0277985D01*
X0024929Y0277774D01*
X0024736Y0277558D01*
X0024549Y0277337D01*
X0024367Y0277112D01*
X0024191Y0276883D01*
X0024020Y0276649D01*
X0023855Y0276412D01*
X0023695Y0276170D01*
X0023542Y0275925D01*
X0023394Y0275676D01*
X0023253Y0275424D01*
X0023117Y0275168D01*
X0022988Y0274909D01*
X0022866Y0274647D01*
X0022749Y0274382D01*
X0022639Y0274114D01*
X0022536Y0273844D01*
X0022439Y0273572D01*
X0022348Y0273297D01*
X0022265Y0273020D01*
X0022188Y0272741D01*
X0022117Y0272460D01*
X0022054Y0272178D01*
X0021997Y0271894D01*
X0021948Y0271609D01*
X0021905Y0271323D01*
X0021869Y0271036D01*
X0021840Y0270748D01*
X0021818Y0270459D01*
X0021803Y0270170D01*
X0021795Y0269881D01*
X0021794Y0269592D01*
X0021800Y0269302D01*
X0021800Y0042406D01*
X0021803Y0042137D01*
X0021813Y0041868D01*
X0021829Y0041599D01*
X0021852Y0041331D01*
X0021881Y0041064D01*
X0021917Y0040797D01*
X0021959Y0040531D01*
X0022007Y0040266D01*
X0022062Y0040003D01*
X0022124Y0039741D01*
X0022191Y0039480D01*
X0022265Y0039222D01*
X0022345Y0038965D01*
X0022431Y0038710D01*
X0022524Y0038457D01*
X0022622Y0038207D01*
X0022727Y0037959D01*
X0022837Y0037713D01*
X0022953Y0037471D01*
X0023076Y0037231D01*
X0023203Y0036994D01*
X0023337Y0036760D01*
X0023476Y0036530D01*
X0023621Y0036303D01*
X0023771Y0036080D01*
X0023927Y0035860D01*
X0024088Y0035645D01*
X0024254Y0035433D01*
X0024425Y0035225D01*
X0024601Y0035021D01*
X0024781Y0034822D01*
X0024967Y0034627D01*
X0025157Y0034437D01*
X0025352Y0034251D01*
X0025551Y0034071D01*
X0025755Y0033895D01*
X0025963Y0033724D01*
X0026175Y0033558D01*
X0026390Y0033397D01*
X0026610Y0033241D01*
X0026833Y0033091D01*
X0027060Y0032946D01*
X0027290Y0032807D01*
X0027524Y0032673D01*
X0027761Y0032546D01*
X0028001Y0032423D01*
X0028243Y0032307D01*
X0028489Y0032197D01*
X0028737Y0032092D01*
X0028987Y0031994D01*
X0029240Y0031901D01*
X0029495Y0031815D01*
X0029752Y0031735D01*
X0030010Y0031661D01*
X0030271Y0031594D01*
X0030533Y0031532D01*
X0030796Y0031477D01*
X0031061Y0031429D01*
X0031327Y0031387D01*
X0031594Y0031351D01*
X0031861Y0031322D01*
X0032129Y0031299D01*
X0032398Y0031283D01*
X0032667Y0031273D01*
X0032936Y0031270D01*
D11*
X0120855Y0060955D03*
X0125343Y0070955D03*
X0134359Y0070955D03*
X0143375Y0070955D03*
X0138887Y0060955D03*
X0147902Y0060955D03*
X0156918Y0060955D03*
X0161406Y0070955D03*
X0152391Y0070955D03*
X0147902Y0080955D03*
X0138887Y0080955D03*
X0129871Y0080955D03*
X0120855Y0080955D03*
X0129871Y0060955D03*
X0156918Y0080955D03*
D12*
X0189123Y0070955D03*
X0090698Y0070955D03*
D13*
X0186800Y0097776D03*
X0186800Y0110276D03*
X0226800Y0110276D03*
X0226800Y0097776D03*
D14*
X0175550Y0096526D03*
X0175550Y0106526D03*
X0149300Y0179026D03*
X0139300Y0179026D03*
X0139300Y0193401D03*
X0149300Y0193401D03*
X0096800Y0187776D03*
X0096800Y0157776D03*
X0104300Y0106526D03*
X0074300Y0106526D03*
X0069300Y0074026D03*
X0069300Y0064026D03*
X0041800Y0186526D03*
X0030550Y0186526D03*
X0030550Y0216526D03*
X0041800Y0216526D03*
X0204300Y0193401D03*
X0214300Y0193401D03*
X0214300Y0179026D03*
X0204300Y0179026D03*
X0209300Y0259026D03*
X0209300Y0271526D03*
X0239300Y0271526D03*
X0239300Y0259026D03*
D15*
X0228969Y0079339D03*
X0247473Y0067528D03*
X0228969Y0056111D03*
D16*
X0164300Y0096526D03*
X0164300Y0106526D03*
X0164300Y0116526D03*
X0164300Y0126526D03*
X0164300Y0136526D03*
X0164300Y0146526D03*
X0164300Y0156526D03*
X0164300Y0166526D03*
X0114300Y0166526D03*
X0114300Y0156526D03*
X0114300Y0146526D03*
X0114300Y0136526D03*
X0114300Y0126526D03*
X0114300Y0116526D03*
X0114300Y0106526D03*
X0114300Y0096526D03*
D17*
X0184300Y0169026D03*
X0239300Y0169026D03*
D18*
X0239300Y0159026D03*
X0184300Y0159026D03*
D19*
X0183700Y0189651D02*
X0188900Y0189651D01*
X0191800Y0203926D02*
X0191800Y0209126D01*
X0181800Y0209126D02*
X0181800Y0203926D01*
X0171800Y0203926D02*
X0171800Y0209126D01*
X0161800Y0209126D02*
X0161800Y0203926D01*
X0151800Y0203926D02*
X0151800Y0209126D01*
X0141800Y0209126D02*
X0141800Y0203926D01*
X0131800Y0203926D02*
X0131800Y0209126D01*
X0121800Y0209126D02*
X0121800Y0203926D01*
X0111800Y0203926D02*
X0111800Y0209126D01*
X0101800Y0209126D02*
X0101800Y0203926D01*
X0091800Y0203926D02*
X0091800Y0209126D01*
X0076800Y0211526D02*
X0076800Y0206326D01*
X0066800Y0206326D02*
X0066800Y0211526D01*
X0056800Y0211526D02*
X0056800Y0206326D01*
X0056800Y0191726D02*
X0056800Y0186526D01*
X0066800Y0186526D02*
X0066800Y0191726D01*
X0076800Y0191726D02*
X0076800Y0186526D01*
X0076800Y0156526D02*
X0076800Y0151326D01*
X0066800Y0151326D02*
X0066800Y0156526D01*
X0056800Y0156526D02*
X0056800Y0151326D01*
X0091800Y0233926D02*
X0091800Y0239126D01*
X0101800Y0239126D02*
X0101800Y0233926D01*
X0111800Y0233926D02*
X0111800Y0239126D01*
X0121800Y0239126D02*
X0121800Y0233926D01*
X0131800Y0233926D02*
X0131800Y0239126D01*
X0141800Y0239126D02*
X0141800Y0233926D01*
X0151800Y0233926D02*
X0151800Y0239126D01*
X0161800Y0239126D02*
X0161800Y0233926D01*
X0171800Y0233926D02*
X0171800Y0239126D01*
X0181800Y0239126D02*
X0181800Y0233926D01*
X0191800Y0233926D02*
X0191800Y0239126D01*
X0201800Y0239126D02*
X0201800Y0233926D01*
X0211800Y0233926D02*
X0211800Y0239126D01*
X0221800Y0239126D02*
X0221800Y0233926D01*
X0221800Y0209126D02*
X0221800Y0203926D01*
X0211800Y0203926D02*
X0211800Y0209126D01*
X0201800Y0209126D02*
X0201800Y0203926D01*
X0169900Y0189651D02*
X0164700Y0189651D01*
X0076800Y0241526D02*
X0076800Y0246726D01*
X0066800Y0246726D02*
X0066800Y0241526D01*
X0056800Y0241526D02*
X0056800Y0246726D01*
D20*
X0065894Y0264768D02*
X0065894Y0269524D01*
X0071800Y0269524D02*
X0071800Y0264768D01*
X0077706Y0264768D02*
X0077706Y0269524D01*
X0083611Y0269524D02*
X0083611Y0264768D01*
X0089517Y0264768D02*
X0089517Y0269524D01*
X0116489Y0269455D02*
X0116489Y0264699D01*
X0122394Y0264699D02*
X0122394Y0269455D01*
X0128300Y0269455D02*
X0128300Y0264699D01*
X0134206Y0264699D02*
X0134206Y0269455D01*
X0140111Y0269455D02*
X0140111Y0264699D01*
X0146017Y0264699D02*
X0146017Y0269455D01*
X0151922Y0269455D02*
X0151922Y0264699D01*
X0157828Y0264699D02*
X0157828Y0269455D01*
X0163733Y0269455D02*
X0163733Y0264699D01*
X0169639Y0264699D02*
X0169639Y0269455D01*
X0123725Y0192904D02*
X0118969Y0192904D01*
X0118969Y0186998D02*
X0123725Y0186998D01*
X0036383Y0169065D02*
X0031627Y0169065D01*
X0031627Y0163160D02*
X0036383Y0163160D01*
X0036383Y0157254D02*
X0031627Y0157254D01*
X0031627Y0151349D02*
X0036383Y0151349D01*
X0036426Y0127678D02*
X0031670Y0127678D01*
X0031670Y0121772D02*
X0036426Y0121772D01*
X0036426Y0115867D02*
X0031670Y0115867D01*
X0031670Y0109961D02*
X0036426Y0109961D01*
X0036776Y0229302D02*
X0032020Y0229302D01*
X0032020Y0235207D02*
X0036776Y0235207D01*
X0036776Y0241113D02*
X0032020Y0241113D01*
X0243517Y0195876D02*
X0248272Y0195876D01*
X0248272Y0189971D02*
X0243517Y0189971D01*
D21*
X0246209Y0233632D03*
X0246209Y0098199D03*
X0033611Y0082451D03*
X0033611Y0269853D03*
D22*
X0076800Y0129026D03*
X0076800Y0119026D03*
X0086800Y0119026D03*
X0086800Y0129026D03*
X0096800Y0129026D03*
X0096800Y0119026D03*
D23*
X0184300Y0127589D03*
X0184300Y0135463D03*
X0240550Y0135463D03*
X0240550Y0127589D03*
D24*
X0071800Y0049526D02*
X0071800Y0043526D01*
X0061800Y0043526D02*
X0061800Y0049526D01*
X0051800Y0049526D02*
X0051800Y0043526D01*
X0041800Y0043526D02*
X0041800Y0049526D01*
X0031800Y0049526D02*
X0031800Y0043526D01*
D25*
X0174300Y0109026D02*
X0174300Y0144026D01*
X0179300Y0149026D01*
X0186800Y0149026D01*
X0196800Y0159026D01*
X0239300Y0159026D01*
X0174300Y0109026D02*
X0175550Y0106526D01*
D26*
X0164300Y0106526D02*
X0144300Y0106526D01*
X0139300Y0111526D01*
X0139300Y0146526D01*
X0134300Y0151526D01*
X0106800Y0151526D01*
X0100550Y0157776D01*
X0096800Y0157776D01*
X0106800Y0151526D02*
X0106800Y0121526D01*
X0104300Y0119026D01*
X0096800Y0119026D01*
X0061800Y0076526D02*
X0061800Y0061526D01*
X0071800Y0051526D01*
X0071800Y0046526D01*
X0061800Y0076526D02*
X0044300Y0094026D01*
X0044300Y0106526D01*
X0040865Y0109961D01*
X0034048Y0109961D01*
D27*
X0151800Y0206526D02*
X0151800Y0216526D01*
X0159300Y0224026D01*
X0164300Y0224026D01*
X0171800Y0231526D01*
X0171800Y0236526D01*
X0171800Y0246526D01*
X0176800Y0251526D01*
X0216800Y0251526D01*
X0224300Y0259026D01*
X0239300Y0259026D01*
D28*
X0211800Y0134026D03*
D29*
X0028697Y0034088D02*
X0026334Y0035804D01*
X0024617Y0038167D01*
X0023715Y0040945D01*
X0023600Y0042406D01*
X0023600Y0075277D01*
X0024425Y0074242D01*
X0025402Y0073265D01*
X0026482Y0072404D01*
X0027652Y0071669D01*
X0028897Y0071070D01*
X0030201Y0070613D01*
X0031547Y0070306D01*
X0032811Y0070163D01*
X0032811Y0081651D01*
X0034411Y0081651D01*
X0034411Y0070163D01*
X0035675Y0070306D01*
X0037021Y0070613D01*
X0038325Y0071070D01*
X0039570Y0071669D01*
X0040740Y0072404D01*
X0041820Y0073265D01*
X0042797Y0074242D01*
X0043658Y0075322D01*
X0044393Y0076492D01*
X0044993Y0077737D01*
X0045449Y0079041D01*
X0045756Y0080388D01*
X0045899Y0081651D01*
X0034411Y0081651D01*
X0034411Y0083251D01*
X0045899Y0083251D01*
X0045756Y0084515D01*
X0045449Y0085862D01*
X0044993Y0087166D01*
X0044393Y0088410D01*
X0043658Y0089580D01*
X0042797Y0090660D01*
X0041820Y0091637D01*
X0040740Y0092498D01*
X0039570Y0093233D01*
X0038325Y0093833D01*
X0037021Y0094289D01*
X0035675Y0094596D01*
X0034411Y0094739D01*
X0034411Y0083251D01*
X0032811Y0083251D01*
X0032811Y0094739D01*
X0031547Y0094596D01*
X0030201Y0094289D01*
X0028897Y0093833D01*
X0027652Y0093233D01*
X0026482Y0092498D01*
X0025402Y0091637D01*
X0024425Y0090660D01*
X0023600Y0089625D01*
X0023600Y0262679D01*
X0024425Y0261644D01*
X0025402Y0260667D01*
X0026482Y0259806D01*
X0027652Y0259071D01*
X0028897Y0258471D01*
X0030201Y0258015D01*
X0031547Y0257707D01*
X0032811Y0257565D01*
X0032811Y0269053D01*
X0034411Y0269053D01*
X0034411Y0270653D01*
X0045899Y0270653D01*
X0045756Y0271916D01*
X0045449Y0273263D01*
X0044993Y0274567D01*
X0044393Y0275812D01*
X0043658Y0276982D01*
X0042797Y0278062D01*
X0041820Y0279039D01*
X0040785Y0279864D01*
X0246760Y0279864D01*
X0248347Y0279585D01*
X0251381Y0278267D01*
X0253860Y0276076D01*
X0255540Y0273226D01*
X0256257Y0269997D01*
X0256239Y0268930D01*
X0256220Y0268912D01*
X0256220Y0268252D01*
X0256158Y0267596D01*
X0256220Y0267519D01*
X0256220Y0240806D01*
X0255395Y0241841D01*
X0254418Y0242818D01*
X0253338Y0243679D01*
X0252169Y0244414D01*
X0250924Y0245014D01*
X0249620Y0245470D01*
X0248273Y0245778D01*
X0247009Y0245920D01*
X0247009Y0234432D01*
X0245409Y0234432D01*
X0245409Y0232832D01*
X0233922Y0232832D01*
X0234064Y0231569D01*
X0234372Y0230222D01*
X0234828Y0228918D01*
X0235427Y0227673D01*
X0236162Y0226503D01*
X0237024Y0225423D01*
X0238000Y0224446D01*
X0239081Y0223585D01*
X0240250Y0222850D01*
X0241495Y0222251D01*
X0242799Y0221794D01*
X0244146Y0221487D01*
X0245409Y0221345D01*
X0245409Y0232832D01*
X0247009Y0232832D01*
X0247009Y0221345D01*
X0248273Y0221487D01*
X0249620Y0221794D01*
X0250924Y0222251D01*
X0252169Y0222850D01*
X0253338Y0223585D01*
X0254418Y0224446D01*
X0255395Y0225423D01*
X0256220Y0226458D01*
X0256220Y0145880D01*
X0252354Y0145880D01*
X0251299Y0144826D01*
X0251299Y0118369D01*
X0252354Y0117315D01*
X0256220Y0117315D01*
X0256220Y0105373D01*
X0255395Y0106408D01*
X0254418Y0107385D01*
X0253338Y0108246D01*
X0252169Y0108981D01*
X0250924Y0109581D01*
X0249620Y0110037D01*
X0248273Y0110345D01*
X0247009Y0110487D01*
X0247009Y0098999D01*
X0245409Y0098999D01*
X0245409Y0097399D01*
X0233922Y0097399D01*
X0234064Y0096136D01*
X0234372Y0094789D01*
X0234828Y0093485D01*
X0235427Y0092240D01*
X0236162Y0091070D01*
X0237024Y0089990D01*
X0238000Y0089013D01*
X0239081Y0088152D01*
X0240250Y0087417D01*
X0241495Y0086818D01*
X0242799Y0086361D01*
X0244146Y0086054D01*
X0245409Y0085912D01*
X0245409Y0097399D01*
X0247009Y0097399D01*
X0247009Y0085912D01*
X0248273Y0086054D01*
X0249620Y0086361D01*
X0250924Y0086818D01*
X0252169Y0087417D01*
X0253338Y0088152D01*
X0254418Y0089013D01*
X0255395Y0089990D01*
X0256220Y0091025D01*
X0256220Y0074601D01*
X0255874Y0075036D01*
X0254981Y0075929D01*
X0253993Y0076717D01*
X0252923Y0077389D01*
X0251785Y0077937D01*
X0250592Y0078355D01*
X0249360Y0078636D01*
X0248273Y0078758D01*
X0248273Y0068328D01*
X0246673Y0068328D01*
X0246673Y0066728D01*
X0248273Y0066728D01*
X0248273Y0056298D01*
X0249360Y0056421D01*
X0250592Y0056702D01*
X0251785Y0057119D01*
X0252923Y0057668D01*
X0253993Y0058340D01*
X0254981Y0059128D01*
X0255874Y0060021D01*
X0256220Y0060455D01*
X0256220Y0042406D01*
X0256106Y0040945D01*
X0255203Y0038167D01*
X0253486Y0035804D01*
X0251123Y0034088D01*
X0248345Y0033185D01*
X0246885Y0033070D01*
X0032936Y0033070D01*
X0031475Y0033185D01*
X0028697Y0034088D01*
X0030260Y0033580D02*
X0249561Y0033580D01*
X0252625Y0035178D02*
X0027196Y0035178D01*
X0025628Y0036777D02*
X0254193Y0036777D01*
X0255271Y0038375D02*
X0194165Y0038375D01*
X0194009Y0038220D02*
X0214009Y0058220D01*
X0215106Y0059317D01*
X0215700Y0060750D01*
X0215700Y0086826D01*
X0220211Y0086826D01*
X0221500Y0088115D01*
X0221500Y0116826D01*
X0227711Y0116826D01*
X0229000Y0118115D01*
X0229000Y0144937D01*
X0227711Y0146226D01*
X0200889Y0146226D01*
X0199600Y0144937D01*
X0199600Y0088115D01*
X0200889Y0086826D01*
X0207900Y0086826D01*
X0207900Y0063141D01*
X0190185Y0045426D01*
X0108415Y0045426D01*
X0104009Y0049832D01*
X0102576Y0050426D01*
X0076190Y0050426D01*
X0075530Y0052018D01*
X0074292Y0053256D01*
X0073361Y0053642D01*
X0073273Y0053730D01*
X0064400Y0062603D01*
X0064400Y0077043D01*
X0064004Y0077999D01*
X0063273Y0078730D01*
X0046900Y0095103D01*
X0046900Y0107043D01*
X0046504Y0107999D01*
X0045773Y0108730D01*
X0045773Y0108730D01*
X0042338Y0112165D01*
X0041382Y0112561D01*
X0039169Y0112561D01*
X0038816Y0112914D01*
X0039629Y0113726D01*
X0039877Y0114326D01*
X0041260Y0114326D01*
X0047100Y0108150D01*
X0047100Y0095615D01*
X0048389Y0094326D01*
X0063389Y0079326D01*
X0072001Y0079326D01*
X0072498Y0078829D01*
X0073667Y0078345D01*
X0074933Y0078345D01*
X0076102Y0078829D01*
X0076997Y0079724D01*
X0077481Y0080893D01*
X0077481Y0082159D01*
X0076997Y0083328D01*
X0076102Y0084223D01*
X0074933Y0084707D01*
X0073667Y0084707D01*
X0072498Y0084223D01*
X0072001Y0083726D01*
X0065211Y0083726D01*
X0051500Y0097437D01*
X0051500Y0108995D01*
X0051525Y0109875D01*
X0051500Y0109901D01*
X0051500Y0109937D01*
X0050877Y0110560D01*
X0044407Y0117401D01*
X0044407Y0117437D01*
X0043785Y0118060D01*
X0043180Y0118700D01*
X0043144Y0118701D01*
X0043119Y0118726D01*
X0042238Y0118726D01*
X0041358Y0118751D01*
X0041332Y0118726D01*
X0038909Y0118726D01*
X0038816Y0118819D01*
X0039629Y0119632D01*
X0040204Y0121021D01*
X0040204Y0122524D01*
X0039629Y0123912D01*
X0039091Y0124450D01*
X0039148Y0124491D01*
X0039613Y0124956D01*
X0039999Y0125488D01*
X0040298Y0126074D01*
X0040501Y0126699D01*
X0040604Y0127349D01*
X0040604Y0127677D01*
X0034048Y0127677D01*
X0027492Y0127677D01*
X0027492Y0127349D01*
X0027595Y0126699D01*
X0027798Y0126074D01*
X0028097Y0125488D01*
X0028483Y0124956D01*
X0028948Y0124491D01*
X0029005Y0124450D01*
X0028467Y0123912D01*
X0027892Y0122524D01*
X0027892Y0121021D01*
X0028467Y0119632D01*
X0029280Y0118819D01*
X0028467Y0118007D01*
X0027892Y0116618D01*
X0027892Y0115115D01*
X0028467Y0113726D01*
X0029280Y0112914D01*
X0028467Y0112101D01*
X0027892Y0110712D01*
X0027892Y0109210D01*
X0028467Y0107821D01*
X0029530Y0106758D01*
X0030919Y0106183D01*
X0037177Y0106183D01*
X0038566Y0106758D01*
X0039169Y0107361D01*
X0039788Y0107361D01*
X0041700Y0105449D01*
X0041700Y0093509D01*
X0042096Y0092553D01*
X0059200Y0075449D01*
X0059200Y0061009D01*
X0059596Y0060053D01*
X0067941Y0051708D01*
X0067400Y0050401D01*
X0067400Y0042651D01*
X0068070Y0041034D01*
X0069308Y0039796D01*
X0070925Y0039126D01*
X0072675Y0039126D01*
X0074292Y0039796D01*
X0075530Y0041034D01*
X0076190Y0042626D01*
X0100185Y0042626D01*
X0103494Y0039317D01*
X0104591Y0038220D01*
X0106024Y0037626D01*
X0192576Y0037626D01*
X0194009Y0038220D01*
X0195763Y0039974D02*
X0255790Y0039974D01*
X0256155Y0041572D02*
X0197362Y0041572D01*
X0198960Y0043171D02*
X0256220Y0043171D01*
X0256220Y0044769D02*
X0200559Y0044769D01*
X0202157Y0046368D02*
X0223332Y0046368D01*
X0223519Y0046250D02*
X0224658Y0045702D01*
X0225850Y0045285D01*
X0227082Y0045004D01*
X0228169Y0044881D01*
X0228169Y0055311D01*
X0217739Y0055311D01*
X0217862Y0054224D01*
X0218143Y0052992D01*
X0218560Y0051799D01*
X0219109Y0050661D01*
X0219781Y0049591D01*
X0220568Y0048604D01*
X0221462Y0047710D01*
X0222450Y0046922D01*
X0223519Y0046250D01*
X0221206Y0047966D02*
X0203756Y0047966D01*
X0205354Y0049565D02*
X0219802Y0049565D01*
X0218867Y0051163D02*
X0206953Y0051163D01*
X0208551Y0052762D02*
X0218224Y0052762D01*
X0217847Y0054360D02*
X0210150Y0054360D01*
X0211748Y0055959D02*
X0228169Y0055959D01*
X0228169Y0055311D02*
X0228169Y0056911D01*
X0217739Y0056911D01*
X0217862Y0057998D01*
X0218143Y0059230D01*
X0218560Y0060423D01*
X0219109Y0061561D01*
X0219781Y0062631D01*
X0220568Y0063618D01*
X0221462Y0064512D01*
X0222450Y0065300D01*
X0223519Y0065972D01*
X0224658Y0066520D01*
X0225850Y0066937D01*
X0227082Y0067218D01*
X0228169Y0067341D01*
X0228169Y0056911D01*
X0229769Y0056911D01*
X0229769Y0067341D01*
X0230857Y0067218D01*
X0232088Y0066937D01*
X0233281Y0066520D01*
X0234419Y0065972D01*
X0235489Y0065300D01*
X0236477Y0064512D01*
X0236684Y0064305D01*
X0236647Y0064409D01*
X0236366Y0065641D01*
X0236243Y0066728D01*
X0246673Y0066728D01*
X0246673Y0056298D01*
X0245586Y0056421D01*
X0244354Y0056702D01*
X0243162Y0057119D01*
X0242023Y0057668D01*
X0240954Y0058340D01*
X0239966Y0059128D01*
X0239759Y0059334D01*
X0239795Y0059230D01*
X0240077Y0057998D01*
X0240199Y0056911D01*
X0229769Y0056911D01*
X0229769Y0055311D01*
X0229769Y0044881D01*
X0230857Y0045004D01*
X0232088Y0045285D01*
X0233281Y0045702D01*
X0234419Y0046250D01*
X0235489Y0046922D01*
X0236477Y0047710D01*
X0237370Y0048604D01*
X0238158Y0049591D01*
X0238830Y0050661D01*
X0239378Y0051799D01*
X0239795Y0052992D01*
X0240077Y0054224D01*
X0240199Y0055311D01*
X0229769Y0055311D01*
X0228169Y0055311D01*
X0228169Y0054360D02*
X0229769Y0054360D01*
X0229769Y0052762D02*
X0228169Y0052762D01*
X0228169Y0051163D02*
X0229769Y0051163D01*
X0229769Y0049565D02*
X0228169Y0049565D01*
X0228169Y0047966D02*
X0229769Y0047966D01*
X0229769Y0046368D02*
X0228169Y0046368D01*
X0234606Y0046368D02*
X0256220Y0046368D01*
X0256220Y0047966D02*
X0236733Y0047966D01*
X0238137Y0049565D02*
X0256220Y0049565D01*
X0256220Y0051163D02*
X0239072Y0051163D01*
X0239715Y0052762D02*
X0256220Y0052762D01*
X0256220Y0054360D02*
X0240092Y0054360D01*
X0240126Y0057558D02*
X0242252Y0057558D01*
X0239937Y0059156D02*
X0239812Y0059156D01*
X0246673Y0059156D02*
X0248273Y0059156D01*
X0248273Y0057558D02*
X0246673Y0057558D01*
X0246673Y0060755D02*
X0248273Y0060755D01*
X0248273Y0062353D02*
X0246673Y0062353D01*
X0246673Y0063952D02*
X0248273Y0063952D01*
X0248273Y0065550D02*
X0246673Y0065550D01*
X0246673Y0067149D02*
X0231162Y0067149D01*
X0229769Y0067149D02*
X0228169Y0067149D01*
X0226776Y0067149D02*
X0215700Y0067149D01*
X0215700Y0068747D02*
X0226584Y0068747D01*
X0227541Y0068491D02*
X0230398Y0068491D01*
X0233157Y0069230D01*
X0235631Y0070658D01*
X0237298Y0072326D01*
X0237064Y0071840D01*
X0236647Y0070647D01*
X0236366Y0069416D01*
X0236243Y0068328D01*
X0246673Y0068328D01*
X0246673Y0078758D01*
X0245586Y0078636D01*
X0244354Y0078355D01*
X0243162Y0077937D01*
X0242023Y0077389D01*
X0240954Y0076717D01*
X0239966Y0075929D01*
X0239072Y0075036D01*
X0238853Y0074760D01*
X0239079Y0075152D01*
X0239818Y0077911D01*
X0239818Y0080768D01*
X0239079Y0083527D01*
X0237650Y0086001D01*
X0235631Y0088021D01*
X0233157Y0089449D01*
X0230398Y0090188D01*
X0227541Y0090188D01*
X0224782Y0089449D01*
X0222308Y0088021D01*
X0220288Y0086001D01*
X0218860Y0083527D01*
X0218120Y0080768D01*
X0218120Y0077911D01*
X0218860Y0075152D01*
X0220288Y0072678D01*
X0222308Y0070658D01*
X0224782Y0069230D01*
X0227541Y0068491D01*
X0228169Y0065550D02*
X0229769Y0065550D01*
X0229769Y0063952D02*
X0228169Y0063952D01*
X0228169Y0062353D02*
X0229769Y0062353D01*
X0229769Y0060755D02*
X0228169Y0060755D01*
X0228169Y0059156D02*
X0229769Y0059156D01*
X0229769Y0057558D02*
X0228169Y0057558D01*
X0229769Y0055959D02*
X0256220Y0055959D01*
X0256220Y0057558D02*
X0252694Y0057558D01*
X0255009Y0059156D02*
X0256220Y0059156D01*
X0248273Y0068747D02*
X0246673Y0068747D01*
X0246673Y0070346D02*
X0248273Y0070346D01*
X0248273Y0071944D02*
X0246673Y0071944D01*
X0246673Y0073543D02*
X0248273Y0073543D01*
X0248273Y0075141D02*
X0246673Y0075141D01*
X0246673Y0076740D02*
X0248273Y0076740D01*
X0248273Y0078338D02*
X0246673Y0078338D01*
X0244307Y0078338D02*
X0239818Y0078338D01*
X0239818Y0079937D02*
X0256220Y0079937D01*
X0256220Y0081535D02*
X0239612Y0081535D01*
X0239184Y0083134D02*
X0256220Y0083134D01*
X0256220Y0084732D02*
X0238383Y0084732D01*
X0237320Y0086331D02*
X0242933Y0086331D01*
X0245409Y0086331D02*
X0247009Y0086331D01*
X0247009Y0087929D02*
X0245409Y0087929D01*
X0245409Y0089528D02*
X0247009Y0089528D01*
X0247009Y0091126D02*
X0245409Y0091126D01*
X0245409Y0092725D02*
X0247009Y0092725D01*
X0247009Y0094323D02*
X0245409Y0094323D01*
X0245409Y0095922D02*
X0247009Y0095922D01*
X0245409Y0097520D02*
X0232000Y0097520D01*
X0232000Y0096742D02*
X0231208Y0094830D01*
X0229746Y0093368D01*
X0227834Y0092576D01*
X0225766Y0092576D01*
X0223854Y0093368D01*
X0222392Y0094830D01*
X0221600Y0096742D01*
X0221600Y0098810D01*
X0222392Y0100722D01*
X0223854Y0102184D01*
X0225766Y0102976D01*
X0227834Y0102976D01*
X0229746Y0102184D01*
X0231208Y0100722D01*
X0232000Y0098810D01*
X0232000Y0096742D01*
X0231660Y0095922D02*
X0234113Y0095922D01*
X0234534Y0094323D02*
X0230701Y0094323D01*
X0228193Y0092725D02*
X0235194Y0092725D01*
X0236127Y0091126D02*
X0221500Y0091126D01*
X0221500Y0089528D02*
X0225076Y0089528D01*
X0225406Y0092725D02*
X0221500Y0092725D01*
X0221500Y0094323D02*
X0222899Y0094323D01*
X0221940Y0095922D02*
X0221500Y0095922D01*
X0221500Y0097520D02*
X0221600Y0097520D01*
X0221500Y0099119D02*
X0221728Y0099119D01*
X0221500Y0100717D02*
X0222390Y0100717D01*
X0221500Y0102316D02*
X0224172Y0102316D01*
X0221500Y0103914D02*
X0235310Y0103914D01*
X0235427Y0104158D02*
X0234828Y0102914D01*
X0234372Y0101610D01*
X0234064Y0100263D01*
X0233922Y0098999D01*
X0245409Y0098999D01*
X0245409Y0110487D01*
X0244146Y0110345D01*
X0242799Y0110037D01*
X0241495Y0109581D01*
X0240250Y0108981D01*
X0239081Y0108246D01*
X0238000Y0107385D01*
X0237024Y0106408D01*
X0236162Y0105328D01*
X0235427Y0104158D01*
X0236310Y0105513D02*
X0228889Y0105513D01*
X0229746Y0105868D02*
X0227834Y0105076D01*
X0225766Y0105076D01*
X0223854Y0105868D01*
X0222392Y0107330D01*
X0221600Y0109242D01*
X0221600Y0111310D01*
X0222392Y0113222D01*
X0223854Y0114684D01*
X0225766Y0115476D01*
X0227834Y0115476D01*
X0229746Y0114684D01*
X0231208Y0113222D01*
X0232000Y0111310D01*
X0232000Y0109242D01*
X0231208Y0107330D01*
X0229746Y0105868D01*
X0230989Y0107111D02*
X0237727Y0107111D01*
X0239818Y0108710D02*
X0231780Y0108710D01*
X0232000Y0110308D02*
X0243988Y0110308D01*
X0245409Y0110308D02*
X0247009Y0110308D01*
X0248431Y0110308D02*
X0256220Y0110308D01*
X0256220Y0108710D02*
X0252601Y0108710D01*
X0254692Y0107111D02*
X0256220Y0107111D01*
X0256220Y0105513D02*
X0256109Y0105513D01*
X0256220Y0111907D02*
X0231753Y0111907D01*
X0230924Y0113505D02*
X0256220Y0113505D01*
X0256220Y0115104D02*
X0228733Y0115104D01*
X0229000Y0118301D02*
X0251367Y0118301D01*
X0251299Y0119899D02*
X0229000Y0119899D01*
X0229000Y0121498D02*
X0251299Y0121498D01*
X0251299Y0123096D02*
X0229000Y0123096D01*
X0229000Y0124695D02*
X0237504Y0124695D01*
X0236989Y0125210D02*
X0238171Y0124028D01*
X0239715Y0123389D01*
X0241385Y0123389D01*
X0242929Y0124028D01*
X0244111Y0125210D01*
X0244750Y0126754D01*
X0244750Y0128424D01*
X0244111Y0129968D01*
X0242929Y0131150D01*
X0242536Y0131312D01*
X0242961Y0131529D01*
X0243547Y0131954D01*
X0244059Y0132466D01*
X0244484Y0133052D01*
X0244813Y0133697D01*
X0245037Y0134386D01*
X0245150Y0135101D01*
X0245150Y0135463D01*
X0245150Y0135825D01*
X0245037Y0136540D01*
X0244813Y0137229D01*
X0244484Y0137874D01*
X0244059Y0138460D01*
X0243547Y0138972D01*
X0242961Y0139397D01*
X0242316Y0139726D01*
X0241627Y0139950D01*
X0240912Y0140063D01*
X0240550Y0140063D01*
X0240550Y0135463D01*
X0240550Y0135463D01*
X0245150Y0135463D01*
X0240550Y0135463D01*
X0240550Y0135463D01*
X0240550Y0140063D01*
X0240188Y0140063D01*
X0239473Y0139950D01*
X0238784Y0139726D01*
X0238139Y0139397D01*
X0237553Y0138972D01*
X0237041Y0138460D01*
X0236616Y0137874D01*
X0236287Y0137229D01*
X0236063Y0136540D01*
X0235950Y0135825D01*
X0235950Y0135463D01*
X0240550Y0135463D01*
X0240550Y0135463D01*
X0235950Y0135463D01*
X0235950Y0135101D01*
X0236063Y0134386D01*
X0236287Y0133697D01*
X0236616Y0133052D01*
X0237041Y0132466D01*
X0237553Y0131954D01*
X0238139Y0131529D01*
X0238564Y0131312D01*
X0238171Y0131150D01*
X0236989Y0129968D01*
X0236350Y0128424D01*
X0236350Y0126754D01*
X0236989Y0125210D01*
X0236541Y0126293D02*
X0229000Y0126293D01*
X0229000Y0127892D02*
X0236350Y0127892D01*
X0236792Y0129491D02*
X0229000Y0129491D01*
X0229000Y0131089D02*
X0238110Y0131089D01*
X0236881Y0132688D02*
X0229000Y0132688D01*
X0229000Y0134286D02*
X0236096Y0134286D01*
X0235959Y0135885D02*
X0229000Y0135885D01*
X0229000Y0137483D02*
X0236417Y0137483D01*
X0237705Y0139082D02*
X0229000Y0139082D01*
X0229000Y0140680D02*
X0251299Y0140680D01*
X0251299Y0139082D02*
X0243395Y0139082D01*
X0244683Y0137483D02*
X0251299Y0137483D01*
X0251299Y0135885D02*
X0245141Y0135885D01*
X0245004Y0134286D02*
X0251299Y0134286D01*
X0251299Y0132688D02*
X0244219Y0132688D01*
X0242990Y0131089D02*
X0251299Y0131089D01*
X0251299Y0129491D02*
X0244308Y0129491D01*
X0244750Y0127892D02*
X0251299Y0127892D01*
X0251299Y0126293D02*
X0244559Y0126293D01*
X0243596Y0124695D02*
X0251299Y0124695D01*
X0256220Y0116702D02*
X0221500Y0116702D01*
X0221500Y0115104D02*
X0224867Y0115104D01*
X0222676Y0113505D02*
X0221500Y0113505D01*
X0221500Y0111907D02*
X0221847Y0111907D01*
X0221600Y0110308D02*
X0221500Y0110308D01*
X0221500Y0108710D02*
X0221820Y0108710D01*
X0221500Y0107111D02*
X0222611Y0107111D01*
X0221500Y0105513D02*
X0224711Y0105513D01*
X0219300Y0105513D02*
X0201800Y0105513D01*
X0201800Y0107111D02*
X0219300Y0107111D01*
X0219300Y0108710D02*
X0201800Y0108710D01*
X0201800Y0110308D02*
X0219300Y0110308D01*
X0219300Y0111907D02*
X0201800Y0111907D01*
X0201800Y0113505D02*
X0219300Y0113505D01*
X0219300Y0115104D02*
X0201800Y0115104D01*
X0201800Y0116702D02*
X0219300Y0116702D01*
X0219300Y0118301D02*
X0201800Y0118301D01*
X0201800Y0119899D02*
X0226800Y0119899D01*
X0226800Y0119026D02*
X0219300Y0119026D01*
X0219300Y0089026D01*
X0201800Y0089026D01*
X0201800Y0144026D01*
X0226800Y0144026D01*
X0226800Y0119026D01*
X0226800Y0121498D02*
X0201800Y0121498D01*
X0201800Y0123096D02*
X0226800Y0123096D01*
X0226800Y0124695D02*
X0201800Y0124695D01*
X0201800Y0126293D02*
X0226800Y0126293D01*
X0226800Y0127892D02*
X0201800Y0127892D01*
X0201800Y0129491D02*
X0226800Y0129491D01*
X0226800Y0131089D02*
X0201800Y0131089D01*
X0201800Y0132688D02*
X0226800Y0132688D01*
X0226800Y0134286D02*
X0201800Y0134286D01*
X0201800Y0135885D02*
X0226800Y0135885D01*
X0226800Y0137483D02*
X0201800Y0137483D01*
X0201800Y0139082D02*
X0226800Y0139082D01*
X0226800Y0140680D02*
X0201800Y0140680D01*
X0201800Y0142279D02*
X0226800Y0142279D01*
X0226800Y0143877D02*
X0201800Y0143877D01*
X0199600Y0143877D02*
X0197262Y0143877D01*
X0196500Y0143115D02*
X0200211Y0146826D01*
X0250211Y0146826D01*
X0251500Y0148115D01*
X0254000Y0150615D01*
X0254000Y0177437D01*
X0252711Y0178726D01*
X0247711Y0183726D01*
X0240211Y0183726D01*
X0236500Y0187437D01*
X0236500Y0217437D01*
X0235211Y0218726D01*
X0227711Y0226226D01*
X0217711Y0226226D01*
X0214000Y0229937D01*
X0214000Y0230508D01*
X0214066Y0230535D01*
X0215191Y0231660D01*
X0215800Y0233130D01*
X0215800Y0239922D01*
X0215191Y0241392D01*
X0214066Y0242517D01*
X0212596Y0243126D01*
X0211004Y0243126D01*
X0209534Y0242517D01*
X0208409Y0241392D01*
X0207800Y0239922D01*
X0207800Y0233130D01*
X0208409Y0231660D01*
X0209534Y0230535D01*
X0209600Y0230508D01*
X0209600Y0228115D01*
X0214600Y0223115D01*
X0215889Y0221826D01*
X0225889Y0221826D01*
X0232100Y0215615D01*
X0232100Y0185615D01*
X0237100Y0180615D01*
X0238389Y0179326D01*
X0245889Y0179326D01*
X0249600Y0175615D01*
X0249600Y0155579D01*
X0249497Y0155828D01*
X0249000Y0156325D01*
X0249000Y0174937D01*
X0246500Y0177437D01*
X0245211Y0178726D01*
X0237711Y0178726D01*
X0231500Y0184937D01*
X0231500Y0212437D01*
X0230211Y0213726D01*
X0226500Y0217437D01*
X0225211Y0218726D01*
X0200211Y0218726D01*
X0194000Y0224937D01*
X0194000Y0230508D01*
X0194066Y0230535D01*
X0195191Y0231660D01*
X0195800Y0233130D01*
X0195800Y0239922D01*
X0195191Y0241392D01*
X0194066Y0242517D01*
X0192596Y0243126D01*
X0191004Y0243126D01*
X0189534Y0242517D01*
X0188409Y0241392D01*
X0187800Y0239922D01*
X0187800Y0233130D01*
X0188409Y0231660D01*
X0189534Y0230535D01*
X0189600Y0230508D01*
X0189600Y0223115D01*
X0198389Y0214326D01*
X0223389Y0214326D01*
X0227100Y0210615D01*
X0227100Y0183115D01*
X0228389Y0181826D01*
X0235889Y0174326D01*
X0243389Y0174326D01*
X0244600Y0173115D01*
X0244600Y0156325D01*
X0244103Y0155828D01*
X0243619Y0154659D01*
X0243619Y0153393D01*
X0244103Y0152224D01*
X0244998Y0151329D01*
X0245247Y0151226D01*
X0198389Y0151226D01*
X0193389Y0146226D01*
X0192100Y0144937D01*
X0192100Y0085615D01*
X0202100Y0075615D01*
X0202100Y0064937D01*
X0193389Y0056226D01*
X0185211Y0056226D01*
X0183731Y0057706D01*
X0183731Y0058409D01*
X0183247Y0059578D01*
X0182352Y0060473D01*
X0181183Y0060957D01*
X0179917Y0060957D01*
X0178748Y0060473D01*
X0177853Y0059578D01*
X0177369Y0058409D01*
X0177369Y0057143D01*
X0177853Y0055974D01*
X0178748Y0055079D01*
X0179917Y0054595D01*
X0180620Y0054595D01*
X0183389Y0051826D01*
X0195211Y0051826D01*
X0196500Y0053115D01*
X0205211Y0061826D01*
X0205211Y0061826D01*
X0206500Y0063115D01*
X0206500Y0077437D01*
X0205211Y0078726D01*
X0196500Y0087437D01*
X0196500Y0143115D01*
X0196500Y0142279D02*
X0199600Y0142279D01*
X0199600Y0140680D02*
X0196500Y0140680D01*
X0196500Y0139082D02*
X0199600Y0139082D01*
X0199600Y0137483D02*
X0196500Y0137483D01*
X0196500Y0135885D02*
X0199600Y0135885D01*
X0199600Y0134286D02*
X0196500Y0134286D01*
X0196500Y0132688D02*
X0199600Y0132688D01*
X0199600Y0131089D02*
X0196500Y0131089D01*
X0196500Y0129491D02*
X0199600Y0129491D01*
X0199600Y0127892D02*
X0196500Y0127892D01*
X0196500Y0126293D02*
X0199600Y0126293D01*
X0199600Y0124695D02*
X0196500Y0124695D01*
X0196500Y0123096D02*
X0199600Y0123096D01*
X0199600Y0121498D02*
X0196500Y0121498D01*
X0196500Y0119899D02*
X0199600Y0119899D01*
X0199600Y0118301D02*
X0196500Y0118301D01*
X0196500Y0116702D02*
X0199600Y0116702D01*
X0199600Y0115104D02*
X0196500Y0115104D01*
X0196500Y0113505D02*
X0199600Y0113505D01*
X0199600Y0111907D02*
X0196500Y0111907D01*
X0196500Y0110308D02*
X0199600Y0110308D01*
X0199600Y0108710D02*
X0196500Y0108710D01*
X0196500Y0107111D02*
X0199600Y0107111D01*
X0199600Y0105513D02*
X0196500Y0105513D01*
X0196500Y0103914D02*
X0199600Y0103914D01*
X0199600Y0102316D02*
X0196500Y0102316D01*
X0196500Y0100717D02*
X0199600Y0100717D01*
X0199600Y0099119D02*
X0196500Y0099119D01*
X0196500Y0097520D02*
X0199600Y0097520D01*
X0199600Y0095922D02*
X0196500Y0095922D01*
X0196500Y0094323D02*
X0199600Y0094323D01*
X0199600Y0092725D02*
X0196500Y0092725D01*
X0196500Y0091126D02*
X0199600Y0091126D01*
X0199600Y0089528D02*
X0196500Y0089528D01*
X0196500Y0087929D02*
X0199785Y0087929D01*
X0201800Y0089528D02*
X0219300Y0089528D01*
X0219300Y0091126D02*
X0201800Y0091126D01*
X0201800Y0092725D02*
X0219300Y0092725D01*
X0219300Y0094323D02*
X0201800Y0094323D01*
X0201800Y0095922D02*
X0219300Y0095922D01*
X0219300Y0097520D02*
X0201800Y0097520D01*
X0201800Y0099119D02*
X0219300Y0099119D01*
X0219300Y0100717D02*
X0201800Y0100717D01*
X0201800Y0102316D02*
X0219300Y0102316D01*
X0219300Y0103914D02*
X0201800Y0103914D01*
X0192100Y0103914D02*
X0178844Y0103914D01*
X0179270Y0104405D02*
X0179362Y0104682D01*
X0179550Y0104869D01*
X0179550Y0105244D01*
X0179799Y0105990D01*
X0179680Y0107657D01*
X0179550Y0107917D01*
X0179550Y0108183D01*
X0179285Y0108448D01*
X0178500Y0110017D01*
X0178500Y0142286D01*
X0181040Y0144826D01*
X0187635Y0144826D01*
X0189179Y0145465D01*
X0198540Y0154826D01*
X0237550Y0154826D01*
X0238395Y0154476D01*
X0240205Y0154476D01*
X0241877Y0155169D01*
X0243157Y0156449D01*
X0243850Y0158121D01*
X0243850Y0159931D01*
X0243157Y0161603D01*
X0241877Y0162883D01*
X0240205Y0163576D01*
X0238395Y0163576D01*
X0237550Y0163226D01*
X0195965Y0163226D01*
X0194421Y0162587D01*
X0193239Y0161405D01*
X0185060Y0153226D01*
X0178465Y0153226D01*
X0176921Y0152587D01*
X0175739Y0151405D01*
X0171921Y0147587D01*
X0171921Y0147587D01*
X0170739Y0146405D01*
X0170100Y0144861D01*
X0170100Y0109708D01*
X0170051Y0109562D01*
X0170100Y0108877D01*
X0170100Y0108191D01*
X0170159Y0108048D01*
X0170170Y0107895D01*
X0170477Y0107281D01*
X0170739Y0106647D01*
X0170848Y0106538D01*
X0171550Y0105134D01*
X0171550Y0104869D01*
X0171815Y0104604D01*
X0172167Y0103900D01*
X0173429Y0102806D01*
X0173706Y0102714D01*
X0173893Y0102526D01*
X0174268Y0102526D01*
X0175014Y0102277D01*
X0176681Y0102396D01*
X0176941Y0102526D01*
X0177207Y0102526D01*
X0177472Y0102791D01*
X0178176Y0103143D01*
X0179270Y0104405D01*
X0179639Y0105513D02*
X0184711Y0105513D01*
X0183854Y0105868D02*
X0185766Y0105076D01*
X0187834Y0105076D01*
X0189746Y0105868D01*
X0191208Y0107330D01*
X0192000Y0109242D01*
X0192000Y0111310D01*
X0191208Y0113222D01*
X0189746Y0114684D01*
X0187834Y0115476D01*
X0185766Y0115476D01*
X0183854Y0114684D01*
X0182392Y0113222D01*
X0181600Y0111310D01*
X0181600Y0109242D01*
X0182392Y0107330D01*
X0183854Y0105868D01*
X0182611Y0107111D02*
X0179719Y0107111D01*
X0179154Y0108710D02*
X0181820Y0108710D01*
X0181600Y0110308D02*
X0178500Y0110308D01*
X0178500Y0111907D02*
X0181847Y0111907D01*
X0182676Y0113505D02*
X0178500Y0113505D01*
X0178500Y0115104D02*
X0184867Y0115104D01*
X0188733Y0115104D02*
X0192100Y0115104D01*
X0192100Y0116702D02*
X0178500Y0116702D01*
X0178500Y0118301D02*
X0192100Y0118301D01*
X0192100Y0119899D02*
X0178500Y0119899D01*
X0178500Y0121498D02*
X0192100Y0121498D01*
X0192100Y0123096D02*
X0178500Y0123096D01*
X0178500Y0124695D02*
X0181254Y0124695D01*
X0180739Y0125210D02*
X0181921Y0124028D01*
X0183465Y0123389D01*
X0185135Y0123389D01*
X0186679Y0124028D01*
X0187861Y0125210D01*
X0188500Y0126754D01*
X0188500Y0128424D01*
X0187861Y0129968D01*
X0186679Y0131150D01*
X0185770Y0131526D01*
X0186679Y0131902D01*
X0187861Y0133084D01*
X0188500Y0134628D01*
X0188500Y0136298D01*
X0187861Y0137842D01*
X0186679Y0139024D01*
X0185135Y0139663D01*
X0183465Y0139663D01*
X0181921Y0139024D01*
X0180739Y0137842D01*
X0180100Y0136298D01*
X0180100Y0134628D01*
X0180739Y0133084D01*
X0181921Y0131902D01*
X0182830Y0131526D01*
X0181921Y0131150D01*
X0180739Y0129968D01*
X0180100Y0128424D01*
X0180100Y0126754D01*
X0180739Y0125210D01*
X0180291Y0126293D02*
X0178500Y0126293D01*
X0178500Y0127892D02*
X0180100Y0127892D01*
X0180542Y0129491D02*
X0178500Y0129491D01*
X0178500Y0131089D02*
X0181860Y0131089D01*
X0181136Y0132688D02*
X0178500Y0132688D01*
X0178500Y0134286D02*
X0180241Y0134286D01*
X0180100Y0135885D02*
X0178500Y0135885D01*
X0178500Y0137483D02*
X0180591Y0137483D01*
X0182061Y0139082D02*
X0178500Y0139082D01*
X0178500Y0140680D02*
X0192100Y0140680D01*
X0192100Y0139082D02*
X0186539Y0139082D01*
X0188009Y0137483D02*
X0192100Y0137483D01*
X0192100Y0135885D02*
X0188500Y0135885D01*
X0188359Y0134286D02*
X0192100Y0134286D01*
X0192100Y0132688D02*
X0187464Y0132688D01*
X0186740Y0131089D02*
X0192100Y0131089D01*
X0192100Y0129491D02*
X0188058Y0129491D01*
X0188500Y0127892D02*
X0192100Y0127892D01*
X0192100Y0126293D02*
X0188309Y0126293D01*
X0187346Y0124695D02*
X0192100Y0124695D01*
X0192100Y0113505D02*
X0190924Y0113505D01*
X0191753Y0111907D02*
X0192100Y0111907D01*
X0192100Y0110308D02*
X0192000Y0110308D01*
X0192100Y0108710D02*
X0191780Y0108710D01*
X0192100Y0107111D02*
X0190989Y0107111D01*
X0192100Y0105513D02*
X0188889Y0105513D01*
X0187834Y0102976D02*
X0185766Y0102976D01*
X0183854Y0102184D01*
X0182392Y0100722D01*
X0181600Y0098810D01*
X0181600Y0096742D01*
X0182392Y0094830D01*
X0183854Y0093368D01*
X0185766Y0092576D01*
X0187834Y0092576D01*
X0189746Y0093368D01*
X0191208Y0094830D01*
X0192000Y0096742D01*
X0192000Y0098810D01*
X0191208Y0100722D01*
X0189746Y0102184D01*
X0187834Y0102976D01*
X0189428Y0102316D02*
X0192100Y0102316D01*
X0192100Y0100717D02*
X0191210Y0100717D01*
X0191872Y0099119D02*
X0192100Y0099119D01*
X0192100Y0097520D02*
X0192000Y0097520D01*
X0192100Y0095922D02*
X0191660Y0095922D01*
X0192100Y0094323D02*
X0190701Y0094323D01*
X0192100Y0092725D02*
X0188193Y0092725D01*
X0185406Y0092725D02*
X0177971Y0092725D01*
X0177373Y0092126D02*
X0179950Y0094703D01*
X0179950Y0096526D01*
X0179950Y0098349D01*
X0177373Y0100926D01*
X0175550Y0100926D01*
X0175550Y0096526D01*
X0175550Y0096526D01*
X0175550Y0100926D01*
X0173727Y0100926D01*
X0171150Y0098349D01*
X0171150Y0096526D01*
X0175550Y0096526D01*
X0179950Y0096526D01*
X0175550Y0096526D01*
X0175550Y0096526D01*
X0175550Y0096526D01*
X0175550Y0092126D01*
X0177373Y0092126D01*
X0175550Y0092126D02*
X0175550Y0096526D01*
X0175550Y0096526D01*
X0171150Y0096526D01*
X0171150Y0094703D01*
X0173727Y0092126D01*
X0175550Y0092126D01*
X0175550Y0092725D02*
X0175550Y0092725D01*
X0175550Y0094323D02*
X0175550Y0094323D01*
X0175550Y0095922D02*
X0175550Y0095922D01*
X0175550Y0097520D02*
X0175550Y0097520D01*
X0175550Y0099119D02*
X0175550Y0099119D01*
X0175550Y0100717D02*
X0175550Y0100717D01*
X0175556Y0102316D02*
X0184172Y0102316D01*
X0182390Y0100717D02*
X0177581Y0100717D01*
X0179180Y0099119D02*
X0181728Y0099119D01*
X0181600Y0097520D02*
X0179950Y0097520D01*
X0179950Y0095922D02*
X0181940Y0095922D01*
X0182899Y0094323D02*
X0179570Y0094323D01*
X0173129Y0092725D02*
X0166846Y0092725D01*
X0166696Y0092616D02*
X0167278Y0093039D01*
X0167787Y0093548D01*
X0168210Y0094130D01*
X0168537Y0094771D01*
X0168759Y0095455D01*
X0168872Y0096166D01*
X0168872Y0096440D01*
X0164386Y0096440D01*
X0164386Y0096612D01*
X0164214Y0096612D01*
X0164214Y0101098D01*
X0163940Y0101098D01*
X0163229Y0100985D01*
X0162545Y0100763D01*
X0161904Y0100436D01*
X0161322Y0100013D01*
X0160813Y0099504D01*
X0160390Y0098922D01*
X0160063Y0098281D01*
X0159841Y0097597D01*
X0159728Y0096886D01*
X0159728Y0096612D01*
X0164214Y0096612D01*
X0164214Y0096440D01*
X0164386Y0096440D01*
X0164386Y0091954D01*
X0164660Y0091954D01*
X0165371Y0092067D01*
X0166055Y0092289D01*
X0166696Y0092616D01*
X0164386Y0092725D02*
X0164214Y0092725D01*
X0164214Y0091954D02*
X0164214Y0096440D01*
X0159728Y0096440D01*
X0159728Y0096166D01*
X0159841Y0095455D01*
X0160063Y0094771D01*
X0160390Y0094130D01*
X0160813Y0093548D01*
X0161322Y0093039D01*
X0161904Y0092616D01*
X0162545Y0092289D01*
X0163229Y0092067D01*
X0163940Y0091954D01*
X0164214Y0091954D01*
X0164214Y0094323D02*
X0164386Y0094323D01*
X0164386Y0095922D02*
X0164214Y0095922D01*
X0164386Y0096612D02*
X0168872Y0096612D01*
X0168872Y0096886D01*
X0168759Y0097597D01*
X0168537Y0098281D01*
X0168210Y0098922D01*
X0167787Y0099504D01*
X0167278Y0100013D01*
X0166696Y0100436D01*
X0166055Y0100763D01*
X0165371Y0100985D01*
X0164660Y0101098D01*
X0164386Y0101098D01*
X0164386Y0096612D01*
X0164386Y0097520D02*
X0164214Y0097520D01*
X0164214Y0099119D02*
X0164386Y0099119D01*
X0164386Y0100717D02*
X0164214Y0100717D01*
X0162456Y0100717D02*
X0104470Y0100717D01*
X0103961Y0101226D02*
X0070211Y0101226D01*
X0066500Y0104937D01*
X0066500Y0128115D01*
X0084000Y0145615D01*
X0084000Y0162437D01*
X0082711Y0163726D01*
X0079000Y0167437D01*
X0079000Y0183108D01*
X0079066Y0183135D01*
X0080191Y0184260D01*
X0080800Y0185730D01*
X0080800Y0192522D01*
X0080191Y0193992D01*
X0080034Y0194149D01*
X0085211Y0199326D01*
X0086500Y0200615D01*
X0086500Y0222437D01*
X0079000Y0229937D01*
X0079000Y0238108D01*
X0079066Y0238135D01*
X0080191Y0239260D01*
X0080800Y0240730D01*
X0080800Y0247522D01*
X0080191Y0248992D01*
X0079066Y0250117D01*
X0077596Y0250726D01*
X0076004Y0250726D01*
X0074534Y0250117D01*
X0073409Y0248992D01*
X0072800Y0247522D01*
X0072800Y0240730D01*
X0073409Y0239260D01*
X0074534Y0238135D01*
X0074600Y0238108D01*
X0074600Y0228115D01*
X0075889Y0226826D01*
X0082100Y0220615D01*
X0082100Y0202437D01*
X0074953Y0195291D01*
X0074534Y0195117D01*
X0074000Y0194583D01*
X0074000Y0203469D01*
X0074534Y0202935D01*
X0076004Y0202326D01*
X0077596Y0202326D01*
X0079066Y0202935D01*
X0080191Y0204060D01*
X0080800Y0205530D01*
X0080800Y0212322D01*
X0080191Y0213792D01*
X0079066Y0214917D01*
X0077596Y0215526D01*
X0076004Y0215526D01*
X0074534Y0214917D01*
X0074000Y0214383D01*
X0074000Y0224937D01*
X0072711Y0226226D01*
X0069000Y0229937D01*
X0069000Y0238108D01*
X0069066Y0238135D01*
X0070191Y0239260D01*
X0070800Y0240730D01*
X0070800Y0247522D01*
X0070191Y0248992D01*
X0069066Y0250117D01*
X0067596Y0250726D01*
X0066004Y0250726D01*
X0064534Y0250117D01*
X0063409Y0248992D01*
X0062800Y0247522D01*
X0062800Y0240730D01*
X0063409Y0239260D01*
X0064534Y0238135D01*
X0064600Y0238108D01*
X0064600Y0228115D01*
X0069600Y0223115D01*
X0069600Y0214930D01*
X0069106Y0215289D01*
X0068489Y0215604D01*
X0067830Y0215818D01*
X0067146Y0215926D01*
X0066800Y0215926D01*
X0066800Y0211526D01*
X0066800Y0211526D01*
X0066800Y0215926D01*
X0066454Y0215926D01*
X0065770Y0215818D01*
X0065111Y0215604D01*
X0064494Y0215289D01*
X0064000Y0214930D01*
X0064000Y0219937D01*
X0062711Y0221226D01*
X0052436Y0231502D01*
X0039919Y0231502D01*
X0039166Y0232254D01*
X0039979Y0233067D01*
X0040554Y0234456D01*
X0040554Y0235959D01*
X0039979Y0237347D01*
X0039166Y0238160D01*
X0039979Y0238973D01*
X0040554Y0240361D01*
X0040554Y0241864D01*
X0039979Y0243253D01*
X0038916Y0244315D01*
X0037528Y0244891D01*
X0031269Y0244891D01*
X0029880Y0244315D01*
X0028818Y0243253D01*
X0028243Y0241864D01*
X0028243Y0240361D01*
X0028818Y0238973D01*
X0029630Y0238160D01*
X0028818Y0237347D01*
X0028243Y0235959D01*
X0028243Y0234456D01*
X0028818Y0233067D01*
X0029630Y0232254D01*
X0028818Y0231442D01*
X0028243Y0230053D01*
X0028243Y0228550D01*
X0028818Y0227162D01*
X0029880Y0226099D01*
X0031269Y0225524D01*
X0037528Y0225524D01*
X0038916Y0226099D01*
X0039919Y0227102D01*
X0050613Y0227102D01*
X0059600Y0218115D01*
X0059600Y0214383D01*
X0059066Y0214917D01*
X0057596Y0215526D01*
X0056004Y0215526D01*
X0054534Y0214917D01*
X0053409Y0213792D01*
X0052800Y0212322D01*
X0052800Y0205530D01*
X0053409Y0204060D01*
X0054534Y0202935D01*
X0056004Y0202326D01*
X0057596Y0202326D01*
X0059066Y0202935D01*
X0059600Y0203469D01*
X0059600Y0200615D01*
X0064600Y0195615D01*
X0064600Y0195144D01*
X0064534Y0195117D01*
X0063409Y0193992D01*
X0062800Y0192522D01*
X0062800Y0185730D01*
X0063409Y0184260D01*
X0064534Y0183135D01*
X0064600Y0183108D01*
X0064600Y0169937D01*
X0060889Y0166226D01*
X0059600Y0164937D01*
X0059600Y0159383D01*
X0059066Y0159917D01*
X0059000Y0159944D01*
X0059000Y0177437D01*
X0051500Y0184937D01*
X0051500Y0192437D01*
X0046500Y0197437D01*
X0045211Y0198726D01*
X0033389Y0198726D01*
X0029639Y0194976D01*
X0028350Y0193687D01*
X0028350Y0189983D01*
X0026550Y0188183D01*
X0026550Y0184869D01*
X0028893Y0182526D01*
X0032207Y0182526D01*
X0034550Y0184869D01*
X0034550Y0188183D01*
X0032750Y0189983D01*
X0032750Y0191865D01*
X0035211Y0194326D01*
X0043389Y0194326D01*
X0047100Y0190615D01*
X0047100Y0183115D01*
X0048389Y0181826D01*
X0054600Y0175615D01*
X0054600Y0159944D01*
X0054534Y0159917D01*
X0053409Y0158792D01*
X0052800Y0157322D01*
X0052800Y0150530D01*
X0053409Y0149060D01*
X0054534Y0147935D01*
X0056004Y0147326D01*
X0057596Y0147326D01*
X0059066Y0147935D01*
X0059600Y0148469D01*
X0059600Y0147437D01*
X0052100Y0139937D01*
X0052100Y0098115D01*
X0062100Y0088115D01*
X0062100Y0088115D01*
X0063389Y0086826D01*
X0098389Y0086826D01*
X0104600Y0080615D01*
X0104600Y0058115D01*
X0109600Y0053115D01*
X0110889Y0051826D01*
X0137747Y0051826D01*
X0137498Y0051723D01*
X0136603Y0050828D01*
X0136119Y0049659D01*
X0136119Y0048393D01*
X0136603Y0047224D01*
X0137498Y0046329D01*
X0138667Y0045845D01*
X0139933Y0045845D01*
X0141102Y0046329D01*
X0141599Y0046826D01*
X0167711Y0046826D01*
X0175211Y0054326D01*
X0176500Y0055615D01*
X0176500Y0070699D01*
X0176556Y0070763D01*
X0176500Y0071599D01*
X0176500Y0072437D01*
X0176440Y0072497D01*
X0176434Y0072582D01*
X0175804Y0073133D01*
X0175211Y0073726D01*
X0175127Y0073726D01*
X0170063Y0078157D01*
X0168244Y0078035D01*
X0168127Y0077901D01*
X0161076Y0077901D01*
X0161242Y0078066D01*
X0162018Y0079941D01*
X0162018Y0081970D01*
X0161242Y0083844D01*
X0159807Y0085279D01*
X0157933Y0086055D01*
X0155904Y0086055D01*
X0154029Y0085279D01*
X0152595Y0083844D01*
X0152410Y0083399D01*
X0152226Y0083844D01*
X0150791Y0085279D01*
X0148917Y0086055D01*
X0146888Y0086055D01*
X0145013Y0085279D01*
X0143579Y0083844D01*
X0143394Y0083399D01*
X0143210Y0083844D01*
X0141776Y0085279D01*
X0139901Y0086055D01*
X0137872Y0086055D01*
X0135998Y0085279D01*
X0134563Y0083844D01*
X0134379Y0083399D01*
X0134194Y0083844D01*
X0132760Y0085279D01*
X0130885Y0086055D01*
X0128856Y0086055D01*
X0126982Y0085279D01*
X0125552Y0083848D01*
X0125050Y0084538D01*
X0124438Y0085150D01*
X0123738Y0085659D01*
X0122966Y0086052D01*
X0122143Y0086320D01*
X0121288Y0086455D01*
X0121055Y0086455D01*
X0121055Y0081155D01*
X0120655Y0081155D01*
X0120655Y0080755D01*
X0121055Y0080755D01*
X0121055Y0075455D01*
X0121288Y0075455D01*
X0122143Y0075591D01*
X0122648Y0075755D01*
X0122461Y0075659D01*
X0121760Y0075150D01*
X0121148Y0074538D01*
X0120639Y0073838D01*
X0120246Y0073066D01*
X0119979Y0072243D01*
X0119843Y0071388D01*
X0119843Y0071155D01*
X0125143Y0071155D01*
X0125143Y0070755D01*
X0119843Y0070755D01*
X0119843Y0070522D01*
X0119979Y0069667D01*
X0120246Y0068844D01*
X0120639Y0068072D01*
X0121148Y0067372D01*
X0121760Y0066760D01*
X0122461Y0066251D01*
X0123232Y0065858D01*
X0124055Y0065591D01*
X0124910Y0065455D01*
X0125143Y0065455D01*
X0125143Y0070755D01*
X0125543Y0070755D01*
X0125543Y0065455D01*
X0125776Y0065455D01*
X0126631Y0065591D01*
X0127455Y0065858D01*
X0128226Y0066251D01*
X0128926Y0066760D01*
X0129538Y0067372D01*
X0130040Y0068062D01*
X0131470Y0066632D01*
X0133345Y0065855D01*
X0135374Y0065855D01*
X0137248Y0066632D01*
X0138683Y0068066D01*
X0138867Y0068511D01*
X0139051Y0068066D01*
X0140486Y0066632D01*
X0142360Y0065855D01*
X0144389Y0065855D01*
X0145227Y0066202D01*
X0145809Y0065608D01*
X0145013Y0065279D01*
X0143579Y0063844D01*
X0143394Y0063399D01*
X0143210Y0063844D01*
X0141776Y0065279D01*
X0139901Y0066055D01*
X0137872Y0066055D01*
X0135998Y0065279D01*
X0134563Y0063844D01*
X0134379Y0063399D01*
X0134194Y0063844D01*
X0132760Y0065279D01*
X0130885Y0066055D01*
X0128856Y0066055D01*
X0126982Y0065279D01*
X0125547Y0063844D01*
X0125363Y0063399D01*
X0125179Y0063844D01*
X0123744Y0065279D01*
X0121870Y0066055D01*
X0119841Y0066055D01*
X0118884Y0065659D01*
X0114000Y0070012D01*
X0114000Y0091187D01*
X0112711Y0092476D01*
X0112382Y0092805D01*
X0113470Y0092354D01*
X0115130Y0092354D01*
X0116663Y0092989D01*
X0117837Y0094163D01*
X0118472Y0095696D01*
X0118472Y0097356D01*
X0117837Y0098889D01*
X0116663Y0100063D01*
X0115130Y0100698D01*
X0113470Y0100698D01*
X0111937Y0100063D01*
X0110763Y0098889D01*
X0110128Y0097356D01*
X0110128Y0095696D01*
X0110579Y0094608D01*
X0103961Y0101226D01*
X0102643Y0102526D02*
X0105957Y0102526D01*
X0108300Y0104869D01*
X0108300Y0108183D01*
X0105957Y0110526D01*
X0102643Y0110526D01*
X0100300Y0108183D01*
X0100300Y0104869D01*
X0102643Y0102526D01*
X0101255Y0103914D02*
X0077345Y0103914D01*
X0078300Y0104869D02*
X0075957Y0102526D01*
X0072643Y0102526D01*
X0070300Y0104869D01*
X0070300Y0108183D01*
X0072643Y0110526D01*
X0075957Y0110526D01*
X0078300Y0108183D01*
X0078300Y0104869D01*
X0078300Y0105513D02*
X0100300Y0105513D01*
X0100300Y0107111D02*
X0078300Y0107111D01*
X0077773Y0108710D02*
X0100827Y0108710D01*
X0102426Y0110308D02*
X0076174Y0110308D01*
X0072426Y0110308D02*
X0066500Y0110308D01*
X0066500Y0108710D02*
X0070827Y0108710D01*
X0070300Y0107111D02*
X0066500Y0107111D01*
X0066500Y0105513D02*
X0070300Y0105513D01*
X0071255Y0103914D02*
X0067523Y0103914D01*
X0069121Y0102316D02*
X0174899Y0102316D01*
X0173519Y0100717D02*
X0166144Y0100717D01*
X0165130Y0102354D02*
X0166663Y0102989D01*
X0167837Y0104163D01*
X0168472Y0105696D01*
X0168472Y0107356D01*
X0167837Y0108889D01*
X0166663Y0110063D01*
X0165130Y0110698D01*
X0163470Y0110698D01*
X0161937Y0110063D01*
X0161000Y0109126D01*
X0145377Y0109126D01*
X0141900Y0112603D01*
X0141900Y0147043D01*
X0141504Y0147999D01*
X0136504Y0152999D01*
X0135773Y0153730D01*
X0134817Y0154126D01*
X0117800Y0154126D01*
X0117837Y0154163D01*
X0118472Y0155696D01*
X0118472Y0157356D01*
X0117837Y0158889D01*
X0116663Y0160063D01*
X0115130Y0160698D01*
X0113470Y0160698D01*
X0111937Y0160063D01*
X0110763Y0158889D01*
X0110128Y0157356D01*
X0110128Y0155696D01*
X0110763Y0154163D01*
X0110800Y0154126D01*
X0107877Y0154126D01*
X0102754Y0159249D01*
X0102023Y0159980D01*
X0101067Y0160376D01*
X0099857Y0160376D01*
X0098457Y0161776D01*
X0095143Y0161776D01*
X0092800Y0159433D01*
X0092800Y0156119D01*
X0095143Y0153776D01*
X0098457Y0153776D01*
X0099665Y0154984D01*
X0104200Y0150449D01*
X0104200Y0122603D01*
X0103223Y0121626D01*
X0101412Y0121626D01*
X0099012Y0124026D01*
X0101900Y0126913D01*
X0101900Y0131138D01*
X0098912Y0134126D01*
X0094688Y0134126D01*
X0091800Y0131238D01*
X0088912Y0134126D01*
X0084688Y0134126D01*
X0081800Y0131238D01*
X0078912Y0134126D01*
X0074688Y0134126D01*
X0071700Y0131138D01*
X0071700Y0126913D01*
X0074588Y0124026D01*
X0071700Y0121138D01*
X0071700Y0116913D01*
X0074688Y0113926D01*
X0078912Y0113926D01*
X0081800Y0116814D01*
X0084688Y0113926D01*
X0088912Y0113926D01*
X0091800Y0116814D01*
X0094688Y0113926D01*
X0098912Y0113926D01*
X0101412Y0116426D01*
X0104817Y0116426D01*
X0105773Y0116822D01*
X0108273Y0119322D01*
X0109004Y0120053D01*
X0109400Y0121009D01*
X0109400Y0148926D01*
X0110800Y0148926D01*
X0110763Y0148889D01*
X0110128Y0147356D01*
X0110128Y0145696D01*
X0110763Y0144163D01*
X0111937Y0142989D01*
X0113470Y0142354D01*
X0115130Y0142354D01*
X0116663Y0142989D01*
X0117837Y0144163D01*
X0118472Y0145696D01*
X0118472Y0147356D01*
X0117837Y0148889D01*
X0117800Y0148926D01*
X0133223Y0148926D01*
X0136700Y0145449D01*
X0136700Y0111009D01*
X0137096Y0110053D01*
X0137827Y0109322D01*
X0142827Y0104322D01*
X0143783Y0103926D01*
X0161000Y0103926D01*
X0161937Y0102989D01*
X0163470Y0102354D01*
X0165130Y0102354D01*
X0167588Y0103914D02*
X0172160Y0103914D01*
X0171361Y0105513D02*
X0168396Y0105513D01*
X0168472Y0107111D02*
X0170547Y0107111D01*
X0170100Y0108710D02*
X0167911Y0108710D01*
X0166070Y0110308D02*
X0170100Y0110308D01*
X0170100Y0111907D02*
X0142596Y0111907D01*
X0141900Y0113505D02*
X0161421Y0113505D01*
X0161937Y0112989D02*
X0163470Y0112354D01*
X0165130Y0112354D01*
X0166663Y0112989D01*
X0167837Y0114163D01*
X0168472Y0115696D01*
X0168472Y0117356D01*
X0167837Y0118889D01*
X0166663Y0120063D01*
X0165130Y0120698D01*
X0163470Y0120698D01*
X0161937Y0120063D01*
X0160763Y0118889D01*
X0160128Y0117356D01*
X0160128Y0115696D01*
X0160763Y0114163D01*
X0161937Y0112989D01*
X0160374Y0115104D02*
X0141900Y0115104D01*
X0141900Y0116702D02*
X0160128Y0116702D01*
X0160520Y0118301D02*
X0141900Y0118301D01*
X0141900Y0119899D02*
X0161774Y0119899D01*
X0163470Y0122354D02*
X0161937Y0122989D01*
X0160763Y0124163D01*
X0160128Y0125696D01*
X0160128Y0127356D01*
X0160763Y0128889D01*
X0161937Y0130063D01*
X0163470Y0130698D01*
X0165130Y0130698D01*
X0166663Y0130063D01*
X0167837Y0128889D01*
X0168472Y0127356D01*
X0168472Y0125696D01*
X0167837Y0124163D01*
X0166663Y0122989D01*
X0165130Y0122354D01*
X0163470Y0122354D01*
X0161830Y0123096D02*
X0141900Y0123096D01*
X0141900Y0121498D02*
X0170100Y0121498D01*
X0170100Y0123096D02*
X0166770Y0123096D01*
X0168057Y0124695D02*
X0170100Y0124695D01*
X0170100Y0126293D02*
X0168472Y0126293D01*
X0168250Y0127892D02*
X0170100Y0127892D01*
X0170100Y0129491D02*
X0167235Y0129491D01*
X0170100Y0131089D02*
X0141900Y0131089D01*
X0141900Y0129491D02*
X0161365Y0129491D01*
X0160350Y0127892D02*
X0141900Y0127892D01*
X0141900Y0126293D02*
X0160128Y0126293D01*
X0160543Y0124695D02*
X0141900Y0124695D01*
X0136700Y0124695D02*
X0134000Y0124695D01*
X0134000Y0123115D02*
X0134000Y0141727D01*
X0134497Y0142224D01*
X0134981Y0143393D01*
X0134981Y0144659D01*
X0134497Y0145828D01*
X0133602Y0146723D01*
X0132433Y0147207D01*
X0131167Y0147207D01*
X0129998Y0146723D01*
X0129103Y0145828D01*
X0128619Y0144659D01*
X0128619Y0143393D01*
X0129103Y0142224D01*
X0129600Y0141727D01*
X0129600Y0124937D01*
X0115293Y0110630D01*
X0115130Y0110698D01*
X0113470Y0110698D01*
X0111937Y0110063D01*
X0110763Y0108889D01*
X0110128Y0107356D01*
X0110128Y0105696D01*
X0110763Y0104163D01*
X0111937Y0102989D01*
X0113470Y0102354D01*
X0115130Y0102354D01*
X0116663Y0102989D01*
X0117837Y0104163D01*
X0118472Y0105696D01*
X0118472Y0107356D01*
X0118404Y0107519D01*
X0134000Y0123115D01*
X0133982Y0123096D02*
X0136700Y0123096D01*
X0136700Y0121498D02*
X0132383Y0121498D01*
X0130785Y0119899D02*
X0136700Y0119899D01*
X0136700Y0118301D02*
X0129186Y0118301D01*
X0127588Y0116702D02*
X0136700Y0116702D01*
X0136700Y0115104D02*
X0125989Y0115104D01*
X0124391Y0113505D02*
X0136700Y0113505D01*
X0136700Y0111907D02*
X0122792Y0111907D01*
X0121194Y0110308D02*
X0136990Y0110308D01*
X0138439Y0108710D02*
X0119595Y0108710D01*
X0118472Y0107111D02*
X0140038Y0107111D01*
X0141636Y0105513D02*
X0118396Y0105513D01*
X0117588Y0103914D02*
X0161012Y0103914D01*
X0160533Y0099119D02*
X0117607Y0099119D01*
X0118404Y0097520D02*
X0159829Y0097520D01*
X0159767Y0095922D02*
X0118472Y0095922D01*
X0117903Y0094323D02*
X0160291Y0094323D01*
X0161754Y0092725D02*
X0116024Y0092725D01*
X0114000Y0091126D02*
X0192100Y0091126D01*
X0192100Y0089528D02*
X0114000Y0089528D01*
X0114000Y0087929D02*
X0192100Y0087929D01*
X0192100Y0086331D02*
X0122073Y0086331D01*
X0121055Y0086331D02*
X0120655Y0086331D01*
X0120655Y0086455D02*
X0120422Y0086455D01*
X0119567Y0086320D01*
X0118744Y0086052D01*
X0117972Y0085659D01*
X0117272Y0085150D01*
X0116660Y0084538D01*
X0116151Y0083838D01*
X0115758Y0083066D01*
X0115491Y0082243D01*
X0115355Y0081388D01*
X0115355Y0081155D01*
X0120655Y0081155D01*
X0120655Y0086455D01*
X0119637Y0086331D02*
X0114000Y0086331D01*
X0114000Y0084732D02*
X0116854Y0084732D01*
X0115792Y0083134D02*
X0114000Y0083134D01*
X0114000Y0081535D02*
X0115378Y0081535D01*
X0115355Y0080755D02*
X0115355Y0080522D01*
X0115491Y0079667D01*
X0115758Y0078844D01*
X0116151Y0078072D01*
X0116660Y0077372D01*
X0117272Y0076760D01*
X0117972Y0076251D01*
X0118744Y0075858D01*
X0119567Y0075591D01*
X0120422Y0075455D01*
X0120655Y0075455D01*
X0120655Y0080755D01*
X0115355Y0080755D01*
X0115448Y0079937D02*
X0114000Y0079937D01*
X0114000Y0078338D02*
X0116016Y0078338D01*
X0117300Y0076740D02*
X0114000Y0076740D01*
X0114000Y0075141D02*
X0121751Y0075141D01*
X0121055Y0076740D02*
X0120655Y0076740D01*
X0120655Y0078338D02*
X0121055Y0078338D01*
X0121055Y0079937D02*
X0120655Y0079937D01*
X0120655Y0081535D02*
X0121055Y0081535D01*
X0121055Y0083134D02*
X0120655Y0083134D01*
X0120655Y0084732D02*
X0121055Y0084732D01*
X0124856Y0084732D02*
X0126435Y0084732D01*
X0125552Y0078062D02*
X0126982Y0076632D01*
X0128856Y0075855D01*
X0130885Y0075855D01*
X0132760Y0076632D01*
X0134194Y0078066D01*
X0134379Y0078511D01*
X0134563Y0078066D01*
X0135998Y0076632D01*
X0137872Y0075855D01*
X0139901Y0075855D01*
X0141776Y0076632D01*
X0143210Y0078066D01*
X0143394Y0078511D01*
X0143579Y0078066D01*
X0145013Y0076632D01*
X0146888Y0075855D01*
X0148917Y0075855D01*
X0150791Y0076632D01*
X0152226Y0078066D01*
X0152410Y0078511D01*
X0152595Y0078066D01*
X0154029Y0076632D01*
X0154572Y0076407D01*
X0154028Y0075797D01*
X0153405Y0076055D01*
X0151376Y0076055D01*
X0149502Y0075279D01*
X0148067Y0073844D01*
X0147883Y0073399D01*
X0147698Y0073844D01*
X0146264Y0075279D01*
X0144389Y0076055D01*
X0142360Y0076055D01*
X0140486Y0075279D01*
X0139051Y0073844D01*
X0138867Y0073399D01*
X0138683Y0073844D01*
X0137248Y0075279D01*
X0135374Y0076055D01*
X0133345Y0076055D01*
X0131470Y0075279D01*
X0130040Y0073848D01*
X0129538Y0074538D01*
X0128926Y0075150D01*
X0128226Y0075659D01*
X0127455Y0076052D01*
X0126631Y0076320D01*
X0125776Y0076455D01*
X0125543Y0076455D01*
X0125543Y0071155D01*
X0125143Y0071155D01*
X0125143Y0076455D01*
X0124910Y0076455D01*
X0124055Y0076320D01*
X0123550Y0076155D01*
X0123738Y0076251D01*
X0124438Y0076760D01*
X0125050Y0077372D01*
X0125552Y0078062D01*
X0124410Y0076740D02*
X0126874Y0076740D01*
X0125543Y0075141D02*
X0125143Y0075141D01*
X0125143Y0073543D02*
X0125543Y0073543D01*
X0125543Y0071944D02*
X0125143Y0071944D01*
X0125143Y0070346D02*
X0125543Y0070346D01*
X0125543Y0068747D02*
X0125143Y0068747D01*
X0125143Y0067149D02*
X0125543Y0067149D01*
X0125543Y0065550D02*
X0125143Y0065550D01*
X0124311Y0065550D02*
X0123089Y0065550D01*
X0121372Y0067149D02*
X0117213Y0067149D01*
X0115419Y0068747D02*
X0120296Y0068747D01*
X0119871Y0070346D02*
X0114000Y0070346D01*
X0114000Y0071944D02*
X0119931Y0071944D01*
X0120489Y0073543D02*
X0114000Y0073543D01*
X0111800Y0069026D02*
X0120855Y0060955D01*
X0125071Y0063952D02*
X0125655Y0063952D01*
X0126376Y0065550D02*
X0127637Y0065550D01*
X0129315Y0067149D02*
X0130953Y0067149D01*
X0132105Y0065550D02*
X0136653Y0065550D01*
X0137765Y0067149D02*
X0139969Y0067149D01*
X0141120Y0065550D02*
X0145669Y0065550D01*
X0143686Y0063952D02*
X0143103Y0063952D01*
X0134671Y0063952D02*
X0134087Y0063952D01*
X0138807Y0073543D02*
X0138926Y0073543D01*
X0140348Y0075141D02*
X0137386Y0075141D01*
X0135890Y0076740D02*
X0132868Y0076740D01*
X0134307Y0078338D02*
X0134450Y0078338D01*
X0131333Y0075141D02*
X0128935Y0075141D01*
X0133306Y0084732D02*
X0135451Y0084732D01*
X0142322Y0084732D02*
X0144467Y0084732D01*
X0143466Y0078338D02*
X0143323Y0078338D01*
X0141884Y0076740D02*
X0144905Y0076740D01*
X0146401Y0075141D02*
X0149364Y0075141D01*
X0147942Y0073543D02*
X0147823Y0073543D01*
X0150899Y0076740D02*
X0153921Y0076740D01*
X0152482Y0078338D02*
X0152339Y0078338D01*
X0151338Y0084732D02*
X0153483Y0084732D01*
X0160354Y0084732D02*
X0192983Y0084732D01*
X0194300Y0086526D02*
X0204300Y0076526D01*
X0204300Y0064026D01*
X0194300Y0054026D01*
X0184300Y0054026D01*
X0180550Y0057776D01*
X0179428Y0060755D02*
X0176500Y0060755D01*
X0176500Y0062353D02*
X0181603Y0062353D01*
X0182123Y0061833D02*
X0180001Y0063955D01*
X0178500Y0066555D01*
X0177723Y0069454D01*
X0177723Y0072456D01*
X0178500Y0075355D01*
X0180001Y0077955D01*
X0182123Y0080077D01*
X0184723Y0081578D01*
X0187622Y0082355D01*
X0190624Y0082355D01*
X0193523Y0081578D01*
X0196123Y0080077D01*
X0198245Y0077955D01*
X0199746Y0075355D01*
X0200523Y0072456D01*
X0200523Y0069454D01*
X0199746Y0066555D01*
X0198245Y0063955D01*
X0196123Y0061833D01*
X0193523Y0060332D01*
X0190624Y0059555D01*
X0187622Y0059555D01*
X0184723Y0060332D01*
X0182123Y0061833D01*
X0181672Y0060755D02*
X0183991Y0060755D01*
X0183422Y0059156D02*
X0196319Y0059156D01*
X0197917Y0060755D02*
X0194255Y0060755D01*
X0196643Y0062353D02*
X0199516Y0062353D01*
X0198241Y0063952D02*
X0201114Y0063952D01*
X0202100Y0065550D02*
X0199166Y0065550D01*
X0199905Y0067149D02*
X0202100Y0067149D01*
X0202100Y0068747D02*
X0200333Y0068747D01*
X0200523Y0070346D02*
X0202100Y0070346D01*
X0202100Y0071944D02*
X0200523Y0071944D01*
X0200232Y0073543D02*
X0202100Y0073543D01*
X0202100Y0075141D02*
X0199803Y0075141D01*
X0198947Y0076740D02*
X0200975Y0076740D01*
X0199377Y0078338D02*
X0197862Y0078338D01*
X0197778Y0079937D02*
X0196263Y0079937D01*
X0196180Y0081535D02*
X0193598Y0081535D01*
X0194581Y0083134D02*
X0161536Y0083134D01*
X0162018Y0081535D02*
X0184648Y0081535D01*
X0181982Y0079937D02*
X0162016Y0079937D01*
X0161354Y0078338D02*
X0180384Y0078338D01*
X0179299Y0076740D02*
X0171682Y0076740D01*
X0173509Y0075141D02*
X0178442Y0075141D01*
X0178014Y0073543D02*
X0175395Y0073543D01*
X0176500Y0071944D02*
X0177723Y0071944D01*
X0177723Y0070346D02*
X0176500Y0070346D01*
X0176500Y0068747D02*
X0177912Y0068747D01*
X0178341Y0067149D02*
X0176500Y0067149D01*
X0176500Y0065550D02*
X0179080Y0065550D01*
X0180004Y0063952D02*
X0176500Y0063952D01*
X0176500Y0059156D02*
X0177678Y0059156D01*
X0177369Y0057558D02*
X0176500Y0057558D01*
X0176500Y0055959D02*
X0177868Y0055959D01*
X0175246Y0054360D02*
X0180854Y0054360D01*
X0182453Y0052762D02*
X0173647Y0052762D01*
X0172049Y0051163D02*
X0195922Y0051163D01*
X0196147Y0052762D02*
X0197521Y0052762D01*
X0196500Y0053115D02*
X0196500Y0053115D01*
X0197746Y0054360D02*
X0199119Y0054360D01*
X0199344Y0055959D02*
X0200718Y0055959D01*
X0200943Y0057558D02*
X0202316Y0057558D01*
X0202541Y0059156D02*
X0203915Y0059156D01*
X0204140Y0060755D02*
X0205513Y0060755D01*
X0205738Y0062353D02*
X0207112Y0062353D01*
X0206500Y0063952D02*
X0207900Y0063952D01*
X0207900Y0065550D02*
X0206500Y0065550D01*
X0206500Y0067149D02*
X0207900Y0067149D01*
X0207900Y0068747D02*
X0206500Y0068747D01*
X0206500Y0070346D02*
X0207900Y0070346D01*
X0207900Y0071944D02*
X0206500Y0071944D01*
X0206500Y0073543D02*
X0207900Y0073543D01*
X0207900Y0075141D02*
X0206500Y0075141D01*
X0206500Y0076740D02*
X0207900Y0076740D01*
X0207900Y0078338D02*
X0205599Y0078338D01*
X0204001Y0079937D02*
X0207900Y0079937D01*
X0207900Y0081535D02*
X0202402Y0081535D01*
X0200804Y0083134D02*
X0207900Y0083134D01*
X0207900Y0084732D02*
X0199205Y0084732D01*
X0197607Y0086331D02*
X0207900Y0086331D01*
X0215700Y0086331D02*
X0220618Y0086331D01*
X0221315Y0087929D02*
X0222217Y0087929D01*
X0219556Y0084732D02*
X0215700Y0084732D01*
X0215700Y0083134D02*
X0218754Y0083134D01*
X0218326Y0081535D02*
X0215700Y0081535D01*
X0215700Y0079937D02*
X0218120Y0079937D01*
X0218120Y0078338D02*
X0215700Y0078338D01*
X0215700Y0076740D02*
X0218434Y0076740D01*
X0218866Y0075141D02*
X0215700Y0075141D01*
X0215700Y0073543D02*
X0219789Y0073543D01*
X0221022Y0071944D02*
X0215700Y0071944D01*
X0215700Y0070346D02*
X0222849Y0070346D01*
X0222848Y0065550D02*
X0215700Y0065550D01*
X0215700Y0063952D02*
X0220902Y0063952D01*
X0219606Y0062353D02*
X0215700Y0062353D01*
X0215700Y0060755D02*
X0218720Y0060755D01*
X0218126Y0059156D02*
X0214945Y0059156D01*
X0213347Y0057558D02*
X0217812Y0057558D01*
X0231355Y0068747D02*
X0236291Y0068747D01*
X0236578Y0070346D02*
X0235089Y0070346D01*
X0236917Y0071944D02*
X0237115Y0071944D01*
X0239073Y0075141D02*
X0239178Y0075141D01*
X0239504Y0076740D02*
X0240990Y0076740D01*
X0250639Y0078338D02*
X0256220Y0078338D01*
X0256220Y0076740D02*
X0253957Y0076740D01*
X0255769Y0075141D02*
X0256220Y0075141D01*
X0256220Y0086331D02*
X0249486Y0086331D01*
X0252984Y0087929D02*
X0256220Y0087929D01*
X0256220Y0089528D02*
X0254933Y0089528D01*
X0247009Y0099119D02*
X0245409Y0099119D01*
X0245409Y0100717D02*
X0247009Y0100717D01*
X0247009Y0102316D02*
X0245409Y0102316D01*
X0245409Y0103914D02*
X0247009Y0103914D01*
X0247009Y0105513D02*
X0245409Y0105513D01*
X0245409Y0107111D02*
X0247009Y0107111D01*
X0247009Y0108710D02*
X0245409Y0108710D01*
X0234619Y0102316D02*
X0229428Y0102316D01*
X0231210Y0100717D02*
X0234168Y0100717D01*
X0233935Y0099119D02*
X0231872Y0099119D01*
X0232862Y0089528D02*
X0237486Y0089528D01*
X0235722Y0087929D02*
X0239435Y0087929D01*
X0236387Y0065550D02*
X0235090Y0065550D01*
X0194720Y0057558D02*
X0183880Y0057558D01*
X0174300Y0056526D02*
X0174300Y0071526D01*
X0169300Y0075901D01*
X0164925Y0065901D02*
X0166800Y0064026D01*
X0166800Y0056526D01*
X0164300Y0054026D01*
X0111800Y0054026D01*
X0106800Y0059026D01*
X0106800Y0081526D01*
X0099300Y0089026D01*
X0064300Y0089026D01*
X0054300Y0099026D01*
X0054300Y0139026D01*
X0061800Y0146526D01*
X0061800Y0164026D01*
X0066800Y0169026D01*
X0066800Y0186526D01*
X0066800Y0196526D01*
X0061800Y0201526D01*
X0061800Y0219026D01*
X0051524Y0229302D01*
X0034398Y0229302D01*
X0029171Y0231795D02*
X0023600Y0231795D01*
X0023600Y0230197D02*
X0028302Y0230197D01*
X0028243Y0228598D02*
X0023600Y0228598D01*
X0023600Y0227000D02*
X0028980Y0227000D01*
X0023600Y0225401D02*
X0052314Y0225401D01*
X0053912Y0223803D02*
X0023600Y0223803D01*
X0023600Y0222204D02*
X0055511Y0222204D01*
X0057109Y0220606D02*
X0023600Y0220606D01*
X0023600Y0219007D02*
X0027374Y0219007D01*
X0026550Y0218183D02*
X0026550Y0214869D01*
X0028893Y0212526D01*
X0032207Y0212526D01*
X0034550Y0214869D01*
X0034550Y0218183D01*
X0032207Y0220526D01*
X0028893Y0220526D01*
X0026550Y0218183D01*
X0026550Y0217409D02*
X0023600Y0217409D01*
X0023600Y0215810D02*
X0026550Y0215810D01*
X0027208Y0214212D02*
X0023600Y0214212D01*
X0023600Y0212613D02*
X0028806Y0212613D01*
X0032294Y0212613D02*
X0040056Y0212613D01*
X0040143Y0212526D02*
X0043457Y0212526D01*
X0045800Y0214869D01*
X0045800Y0218183D01*
X0043457Y0220526D01*
X0040143Y0220526D01*
X0037800Y0218183D01*
X0037800Y0214869D01*
X0040143Y0212526D01*
X0038458Y0214212D02*
X0033892Y0214212D01*
X0034550Y0215810D02*
X0037800Y0215810D01*
X0037800Y0217409D02*
X0034550Y0217409D01*
X0033726Y0219007D02*
X0038624Y0219007D01*
X0039817Y0227000D02*
X0050715Y0227000D01*
X0053741Y0230197D02*
X0064600Y0230197D01*
X0064600Y0231795D02*
X0039626Y0231795D01*
X0040114Y0233394D02*
X0064600Y0233394D01*
X0064600Y0234992D02*
X0040554Y0234992D01*
X0040292Y0236591D02*
X0064600Y0236591D01*
X0064480Y0238189D02*
X0059120Y0238189D01*
X0059066Y0238135D02*
X0060191Y0239260D01*
X0060800Y0240730D01*
X0060800Y0247522D01*
X0060191Y0248992D01*
X0059066Y0250117D01*
X0057596Y0250726D01*
X0056004Y0250726D01*
X0054534Y0250117D01*
X0053409Y0248992D01*
X0052800Y0247522D01*
X0052800Y0240730D01*
X0053409Y0239260D01*
X0054534Y0238135D01*
X0056004Y0237526D01*
X0057596Y0237526D01*
X0059066Y0238135D01*
X0060410Y0239788D02*
X0063190Y0239788D01*
X0062800Y0241386D02*
X0060800Y0241386D01*
X0060800Y0242985D02*
X0062800Y0242985D01*
X0062800Y0244583D02*
X0060800Y0244583D01*
X0060800Y0246182D02*
X0062800Y0246182D01*
X0062907Y0247780D02*
X0060693Y0247780D01*
X0059804Y0249379D02*
X0063796Y0249379D01*
X0069804Y0249379D02*
X0073796Y0249379D01*
X0072907Y0247780D02*
X0070693Y0247780D01*
X0070800Y0246182D02*
X0072800Y0246182D01*
X0072800Y0244583D02*
X0070800Y0244583D01*
X0070800Y0242985D02*
X0072800Y0242985D01*
X0072800Y0241386D02*
X0070800Y0241386D01*
X0070410Y0239788D02*
X0073190Y0239788D01*
X0074480Y0238189D02*
X0069120Y0238189D01*
X0069000Y0236591D02*
X0074600Y0236591D01*
X0074600Y0234992D02*
X0069000Y0234992D01*
X0069000Y0233394D02*
X0074600Y0233394D01*
X0074600Y0231795D02*
X0069000Y0231795D01*
X0069000Y0230197D02*
X0074600Y0230197D01*
X0074600Y0228598D02*
X0070339Y0228598D01*
X0071938Y0227000D02*
X0075715Y0227000D01*
X0077314Y0225401D02*
X0073536Y0225401D01*
X0074000Y0223803D02*
X0078912Y0223803D01*
X0080511Y0222204D02*
X0074000Y0222204D01*
X0074000Y0220606D02*
X0082100Y0220606D01*
X0082100Y0219007D02*
X0074000Y0219007D01*
X0074000Y0217409D02*
X0082100Y0217409D01*
X0082100Y0215810D02*
X0074000Y0215810D01*
X0069600Y0215810D02*
X0067853Y0215810D01*
X0066800Y0215810D02*
X0066800Y0215810D01*
X0065747Y0215810D02*
X0064000Y0215810D01*
X0064000Y0217409D02*
X0069600Y0217409D01*
X0069600Y0219007D02*
X0064000Y0219007D01*
X0063332Y0220606D02*
X0069600Y0220606D01*
X0069600Y0222204D02*
X0061733Y0222204D01*
X0060135Y0223803D02*
X0068912Y0223803D01*
X0067314Y0225401D02*
X0058536Y0225401D01*
X0056938Y0227000D02*
X0065715Y0227000D01*
X0064600Y0228598D02*
X0055339Y0228598D01*
X0054480Y0238189D02*
X0039196Y0238189D01*
X0040317Y0239788D02*
X0053190Y0239788D01*
X0052800Y0241386D02*
X0040554Y0241386D01*
X0040090Y0242985D02*
X0052800Y0242985D01*
X0052800Y0244583D02*
X0038270Y0244583D01*
X0030527Y0244583D02*
X0023600Y0244583D01*
X0023600Y0242985D02*
X0028707Y0242985D01*
X0028243Y0241386D02*
X0023600Y0241386D01*
X0023600Y0239788D02*
X0028480Y0239788D01*
X0029601Y0238189D02*
X0023600Y0238189D01*
X0023600Y0236591D02*
X0028504Y0236591D01*
X0028243Y0234992D02*
X0023600Y0234992D01*
X0023600Y0233394D02*
X0028682Y0233394D01*
X0023600Y0246182D02*
X0052800Y0246182D01*
X0052907Y0247780D02*
X0023600Y0247780D01*
X0023600Y0249379D02*
X0053796Y0249379D01*
X0063754Y0261565D02*
X0062692Y0262628D01*
X0062117Y0264017D01*
X0062117Y0270275D01*
X0062692Y0271664D01*
X0063754Y0272727D01*
X0065143Y0273302D01*
X0066646Y0273302D01*
X0068035Y0272727D01*
X0068572Y0272189D01*
X0068613Y0272246D01*
X0069078Y0272711D01*
X0069610Y0273097D01*
X0070196Y0273396D01*
X0070822Y0273599D01*
X0071471Y0273702D01*
X0071800Y0273702D01*
X0071800Y0267146D01*
X0071800Y0260590D01*
X0072129Y0260590D01*
X0072778Y0260693D01*
X0073404Y0260896D01*
X0073990Y0261195D01*
X0074522Y0261581D01*
X0074987Y0262046D01*
X0075028Y0262103D01*
X0075565Y0261565D01*
X0076954Y0260990D01*
X0078457Y0260990D01*
X0079846Y0261565D01*
X0080383Y0262103D01*
X0080424Y0262046D01*
X0080889Y0261581D01*
X0081421Y0261195D01*
X0082007Y0260896D01*
X0082633Y0260693D01*
X0083282Y0260590D01*
X0083611Y0260590D01*
X0083611Y0267146D01*
X0083611Y0267146D01*
X0083611Y0260590D01*
X0083940Y0260590D01*
X0084589Y0260693D01*
X0085215Y0260896D01*
X0085801Y0261195D01*
X0086333Y0261581D01*
X0086798Y0262046D01*
X0086839Y0262103D01*
X0087376Y0261565D01*
X0088765Y0260990D01*
X0090268Y0260990D01*
X0091657Y0261565D01*
X0092719Y0262628D01*
X0093294Y0264017D01*
X0093294Y0270275D01*
X0092719Y0271664D01*
X0091657Y0272727D01*
X0090268Y0273302D01*
X0088765Y0273302D01*
X0087376Y0272727D01*
X0086839Y0272189D01*
X0086798Y0272246D01*
X0086333Y0272711D01*
X0085801Y0273097D01*
X0085215Y0273396D01*
X0084589Y0273599D01*
X0083940Y0273702D01*
X0083611Y0273702D01*
X0083282Y0273702D01*
X0082633Y0273599D01*
X0082007Y0273396D01*
X0081421Y0273097D01*
X0080889Y0272711D01*
X0080424Y0272246D01*
X0080383Y0272189D01*
X0079846Y0272727D01*
X0078457Y0273302D01*
X0076954Y0273302D01*
X0075565Y0272727D01*
X0075028Y0272189D01*
X0074987Y0272246D01*
X0074522Y0272711D01*
X0073990Y0273097D01*
X0073404Y0273396D01*
X0072778Y0273599D01*
X0072129Y0273702D01*
X0071800Y0273702D01*
X0071800Y0267146D01*
X0071800Y0267146D01*
X0071800Y0260590D01*
X0071471Y0260590D01*
X0070822Y0260693D01*
X0070196Y0260896D01*
X0069610Y0261195D01*
X0069078Y0261581D01*
X0068613Y0262046D01*
X0068572Y0262103D01*
X0068035Y0261565D01*
X0066646Y0260990D01*
X0065143Y0260990D01*
X0063754Y0261565D01*
X0063153Y0262167D02*
X0043214Y0262167D01*
X0042797Y0261644D02*
X0043658Y0262724D01*
X0044393Y0263894D01*
X0044993Y0265138D01*
X0045449Y0266442D01*
X0045756Y0267789D01*
X0045899Y0269053D01*
X0034411Y0269053D01*
X0034411Y0257565D01*
X0035675Y0257707D01*
X0037021Y0258015D01*
X0038325Y0258471D01*
X0039570Y0259071D01*
X0040740Y0259806D01*
X0041820Y0260667D01*
X0042797Y0261644D01*
X0041697Y0260568D02*
X0092731Y0260568D01*
X0093389Y0261226D02*
X0083389Y0251226D01*
X0082100Y0249937D01*
X0082100Y0230615D01*
X0089599Y0223116D01*
X0089594Y0217224D01*
X0089557Y0212527D01*
X0089534Y0212517D01*
X0088409Y0211392D01*
X0087800Y0209922D01*
X0087800Y0203130D01*
X0088409Y0201660D01*
X0088800Y0201269D01*
X0088800Y0192179D01*
X0089257Y0191077D01*
X0092800Y0187533D01*
X0092800Y0186119D01*
X0095143Y0183776D01*
X0098457Y0183776D01*
X0100800Y0186119D01*
X0100800Y0189415D01*
X0102100Y0188115D01*
X0102100Y0184937D01*
X0100889Y0183726D01*
X0084724Y0183726D01*
X0084227Y0184223D01*
X0083058Y0184707D01*
X0081792Y0184707D01*
X0080623Y0184223D01*
X0079728Y0183328D01*
X0079244Y0182159D01*
X0079244Y0180893D01*
X0079728Y0179724D01*
X0080623Y0178829D01*
X0081792Y0178345D01*
X0083058Y0178345D01*
X0084227Y0178829D01*
X0084724Y0179326D01*
X0102711Y0179326D01*
X0104000Y0180615D01*
X0106500Y0183115D01*
X0106500Y0189937D01*
X0105211Y0191226D01*
X0102686Y0193751D01*
X0103667Y0193345D01*
X0104933Y0193345D01*
X0106102Y0193829D01*
X0106997Y0194724D01*
X0107481Y0195893D01*
X0107481Y0196596D01*
X0107711Y0196826D01*
X0109000Y0198115D01*
X0109000Y0201069D01*
X0109534Y0200535D01*
X0111004Y0199926D01*
X0112596Y0199926D01*
X0114066Y0200535D01*
X0115191Y0201660D01*
X0115800Y0203130D01*
X0115800Y0209922D01*
X0115191Y0211392D01*
X0114066Y0212517D01*
X0112596Y0213126D01*
X0111004Y0213126D01*
X0109534Y0212517D01*
X0109000Y0211983D01*
X0109000Y0215615D01*
X0122711Y0229326D01*
X0123817Y0230432D01*
X0124066Y0230535D01*
X0125191Y0231660D01*
X0125800Y0233130D01*
X0125800Y0239922D01*
X0125191Y0241392D01*
X0124066Y0242517D01*
X0122596Y0243126D01*
X0121004Y0243126D01*
X0119534Y0242517D01*
X0118409Y0241392D01*
X0117800Y0239922D01*
X0117800Y0233130D01*
X0118409Y0231660D01*
X0118616Y0231453D01*
X0104600Y0217437D01*
X0104600Y0211983D01*
X0104066Y0212517D01*
X0102596Y0213126D01*
X0101004Y0213126D01*
X0099534Y0212517D01*
X0099000Y0211983D01*
X0099000Y0213115D01*
X0114000Y0228115D01*
X0114000Y0230508D01*
X0114066Y0230535D01*
X0115191Y0231660D01*
X0115800Y0233130D01*
X0115800Y0239922D01*
X0115191Y0241392D01*
X0114066Y0242517D01*
X0112596Y0243126D01*
X0111004Y0243126D01*
X0109534Y0242517D01*
X0109000Y0241983D01*
X0109000Y0243115D01*
X0115211Y0249326D01*
X0157711Y0249326D01*
X0159000Y0250615D01*
X0165211Y0256826D01*
X0205843Y0256826D01*
X0207643Y0255026D01*
X0210957Y0255026D01*
X0213300Y0257369D01*
X0213300Y0260683D01*
X0210957Y0263026D01*
X0207643Y0263026D01*
X0205843Y0261226D01*
X0171966Y0261226D01*
X0172360Y0261512D01*
X0172825Y0261977D01*
X0173212Y0262509D01*
X0173510Y0263095D01*
X0173714Y0263721D01*
X0173817Y0264370D01*
X0173817Y0267077D01*
X0169639Y0267077D01*
X0169639Y0267077D01*
X0173817Y0267077D01*
X0173817Y0269784D01*
X0173714Y0270433D01*
X0173510Y0271059D01*
X0173212Y0271645D01*
X0172825Y0272177D01*
X0172360Y0272642D01*
X0171828Y0273028D01*
X0171242Y0273327D01*
X0170617Y0273530D01*
X0169967Y0273633D01*
X0169639Y0273633D01*
X0169639Y0267077D01*
X0169639Y0267077D01*
X0169639Y0273633D01*
X0169310Y0273633D01*
X0168660Y0273530D01*
X0168035Y0273327D01*
X0167449Y0273028D01*
X0166917Y0272642D01*
X0166452Y0272177D01*
X0166411Y0272120D01*
X0165873Y0272658D01*
X0164485Y0273233D01*
X0162982Y0273233D01*
X0161593Y0272658D01*
X0160780Y0271845D01*
X0160634Y0271991D01*
X0162769Y0274326D01*
X0178389Y0274326D01*
X0183389Y0269326D01*
X0205843Y0269326D01*
X0207643Y0267526D01*
X0210957Y0267526D01*
X0213300Y0269869D01*
X0213300Y0273183D01*
X0210957Y0275526D01*
X0207643Y0275526D01*
X0205843Y0273726D01*
X0185211Y0273726D01*
X0181500Y0277437D01*
X0180211Y0278726D01*
X0162654Y0278726D01*
X0162612Y0278764D01*
X0161751Y0278726D01*
X0160889Y0278726D01*
X0160848Y0278686D01*
X0160791Y0278683D01*
X0160210Y0278047D01*
X0159600Y0277437D01*
X0159600Y0277380D01*
X0156268Y0273736D01*
X0155658Y0273126D01*
X0155658Y0273069D01*
X0155620Y0273027D01*
X0155638Y0272609D01*
X0154875Y0271845D01*
X0154062Y0272658D01*
X0152674Y0273233D01*
X0151171Y0273233D01*
X0149782Y0272658D01*
X0148969Y0271845D01*
X0148157Y0272658D01*
X0146768Y0273233D01*
X0145265Y0273233D01*
X0143876Y0272658D01*
X0143064Y0271845D01*
X0142251Y0272658D01*
X0140863Y0273233D01*
X0139360Y0273233D01*
X0137971Y0272658D01*
X0137158Y0271845D01*
X0136346Y0272658D01*
X0134957Y0273233D01*
X0133454Y0273233D01*
X0132065Y0272658D01*
X0131253Y0271845D01*
X0130440Y0272658D01*
X0129051Y0273233D01*
X0127549Y0273233D01*
X0126160Y0272658D01*
X0125347Y0271845D01*
X0124535Y0272658D01*
X0123146Y0273233D01*
X0121643Y0273233D01*
X0120254Y0272658D01*
X0119442Y0271845D01*
X0118629Y0272658D01*
X0117240Y0273233D01*
X0115737Y0273233D01*
X0114349Y0272658D01*
X0113286Y0271595D01*
X0112711Y0270207D01*
X0112711Y0263948D01*
X0113286Y0262559D01*
X0114349Y0261496D01*
X0115002Y0261226D01*
X0093389Y0261226D01*
X0092258Y0262167D02*
X0113678Y0262167D01*
X0112787Y0263765D02*
X0093190Y0263765D01*
X0093294Y0265364D02*
X0112711Y0265364D01*
X0112711Y0266962D02*
X0093294Y0266962D01*
X0093294Y0268561D02*
X0112711Y0268561D01*
X0112711Y0270160D02*
X0093294Y0270160D01*
X0092625Y0271758D02*
X0113449Y0271758D01*
X0122394Y0267077D02*
X0122425Y0265276D01*
X0122425Y0262151D01*
X0119300Y0259026D01*
X0094300Y0259026D01*
X0084300Y0249026D01*
X0084300Y0231526D01*
X0091800Y0224026D01*
X0089598Y0222204D02*
X0086500Y0222204D01*
X0086500Y0220606D02*
X0089597Y0220606D01*
X0089595Y0219007D02*
X0086500Y0219007D01*
X0086500Y0217409D02*
X0089594Y0217409D01*
X0089583Y0215810D02*
X0086500Y0215810D01*
X0086500Y0214212D02*
X0089570Y0214212D01*
X0089558Y0212613D02*
X0086500Y0212613D01*
X0086500Y0211015D02*
X0088253Y0211015D01*
X0087800Y0209416D02*
X0086500Y0209416D01*
X0086500Y0207818D02*
X0087800Y0207818D01*
X0087800Y0206219D02*
X0086500Y0206219D01*
X0086500Y0204621D02*
X0087800Y0204621D01*
X0087845Y0203022D02*
X0086500Y0203022D01*
X0086500Y0201424D02*
X0088646Y0201424D01*
X0088800Y0199825D02*
X0085710Y0199825D01*
X0084300Y0201526D02*
X0084300Y0221526D01*
X0076800Y0229026D01*
X0076800Y0241526D01*
X0079120Y0238189D02*
X0082100Y0238189D01*
X0082100Y0236591D02*
X0079000Y0236591D01*
X0079000Y0234992D02*
X0082100Y0234992D01*
X0082100Y0233394D02*
X0079000Y0233394D01*
X0079000Y0231795D02*
X0082100Y0231795D01*
X0082518Y0230197D02*
X0079000Y0230197D01*
X0080339Y0228598D02*
X0084116Y0228598D01*
X0085715Y0227000D02*
X0081938Y0227000D01*
X0083536Y0225401D02*
X0087314Y0225401D01*
X0088912Y0223803D02*
X0085135Y0223803D01*
X0082100Y0214212D02*
X0079771Y0214212D01*
X0080679Y0212613D02*
X0082100Y0212613D01*
X0082100Y0211015D02*
X0080800Y0211015D01*
X0080800Y0209416D02*
X0082100Y0209416D01*
X0082100Y0207818D02*
X0080800Y0207818D01*
X0080800Y0206219D02*
X0082100Y0206219D01*
X0082100Y0204621D02*
X0080423Y0204621D01*
X0079153Y0203022D02*
X0082100Y0203022D01*
X0081086Y0201424D02*
X0074000Y0201424D01*
X0074000Y0203022D02*
X0074447Y0203022D01*
X0074000Y0199825D02*
X0079488Y0199825D01*
X0077889Y0198227D02*
X0074000Y0198227D01*
X0074000Y0196628D02*
X0076291Y0196628D01*
X0074447Y0195029D02*
X0074000Y0195029D01*
X0076800Y0194026D02*
X0084300Y0201526D01*
X0084112Y0198227D02*
X0088800Y0198227D01*
X0088800Y0196628D02*
X0082513Y0196628D01*
X0080915Y0195029D02*
X0088800Y0195029D01*
X0088800Y0193431D02*
X0080423Y0193431D01*
X0080800Y0191832D02*
X0088944Y0191832D01*
X0090099Y0190234D02*
X0080800Y0190234D01*
X0080800Y0188635D02*
X0091698Y0188635D01*
X0092800Y0187037D02*
X0080800Y0187037D01*
X0080679Y0185438D02*
X0093481Y0185438D01*
X0095079Y0183840D02*
X0084610Y0183840D01*
X0082425Y0181526D02*
X0101800Y0181526D01*
X0104300Y0184026D01*
X0104300Y0189026D01*
X0096800Y0196526D01*
X0096800Y0214026D01*
X0111800Y0229026D01*
X0111800Y0236526D01*
X0115800Y0236591D02*
X0117800Y0236591D01*
X0117800Y0238189D02*
X0115800Y0238189D01*
X0115800Y0239788D02*
X0117800Y0239788D01*
X0118407Y0241386D02*
X0115193Y0241386D01*
X0112936Y0242985D02*
X0120664Y0242985D01*
X0122936Y0242985D02*
X0130664Y0242985D01*
X0131004Y0243126D02*
X0129534Y0242517D01*
X0128409Y0241392D01*
X0127800Y0239922D01*
X0127800Y0233130D01*
X0128409Y0231660D01*
X0129534Y0230535D01*
X0131004Y0229926D01*
X0132596Y0229926D01*
X0134066Y0230535D01*
X0135191Y0231660D01*
X0135800Y0233130D01*
X0135800Y0239922D01*
X0135191Y0241392D01*
X0134066Y0242517D01*
X0132596Y0243126D01*
X0131004Y0243126D01*
X0132936Y0242985D02*
X0140664Y0242985D01*
X0141004Y0243126D02*
X0139534Y0242517D01*
X0138409Y0241392D01*
X0137800Y0239922D01*
X0137800Y0233130D01*
X0138409Y0231660D01*
X0139534Y0230535D01*
X0141004Y0229926D01*
X0142596Y0229926D01*
X0144066Y0230535D01*
X0145191Y0231660D01*
X0145800Y0233130D01*
X0145800Y0239922D01*
X0145191Y0241392D01*
X0144066Y0242517D01*
X0142596Y0243126D01*
X0141004Y0243126D01*
X0142936Y0242985D02*
X0149682Y0242985D01*
X0149494Y0242889D02*
X0148934Y0242482D01*
X0148444Y0241992D01*
X0148037Y0241432D01*
X0147722Y0240815D01*
X0147508Y0240156D01*
X0147400Y0239472D01*
X0147400Y0236526D01*
X0151800Y0236526D01*
X0151800Y0236526D01*
X0151800Y0243526D01*
X0152146Y0243526D01*
X0152830Y0243418D01*
X0153489Y0243204D01*
X0154106Y0242889D01*
X0154666Y0242482D01*
X0155156Y0241992D01*
X0155563Y0241432D01*
X0155878Y0240815D01*
X0156092Y0240156D01*
X0156200Y0239472D01*
X0156200Y0236526D01*
X0151800Y0236526D01*
X0151800Y0236526D01*
X0151800Y0243526D01*
X0151454Y0243526D01*
X0150770Y0243418D01*
X0150111Y0243204D01*
X0149494Y0242889D01*
X0148013Y0241386D02*
X0145193Y0241386D01*
X0145800Y0239788D02*
X0147450Y0239788D01*
X0147400Y0238189D02*
X0145800Y0238189D01*
X0145800Y0236591D02*
X0147400Y0236591D01*
X0147400Y0236526D02*
X0147400Y0233580D01*
X0147508Y0232896D01*
X0147722Y0232237D01*
X0148037Y0231620D01*
X0148444Y0231060D01*
X0148934Y0230570D01*
X0149494Y0230163D01*
X0150111Y0229848D01*
X0150770Y0229634D01*
X0151454Y0229526D01*
X0151800Y0229526D01*
X0152146Y0229526D01*
X0152830Y0229634D01*
X0153489Y0229848D01*
X0154106Y0230163D01*
X0154666Y0230570D01*
X0155156Y0231060D01*
X0155563Y0231620D01*
X0155878Y0232237D01*
X0156092Y0232896D01*
X0156200Y0233580D01*
X0156200Y0236526D01*
X0151800Y0236526D01*
X0151800Y0236526D01*
X0151800Y0229526D01*
X0151800Y0236526D01*
X0151800Y0236526D01*
X0147400Y0236526D01*
X0147400Y0234992D02*
X0145800Y0234992D01*
X0145800Y0233394D02*
X0147429Y0233394D01*
X0147947Y0231795D02*
X0145247Y0231795D01*
X0143249Y0230197D02*
X0149447Y0230197D01*
X0151800Y0230197D02*
X0151800Y0230197D01*
X0151800Y0231795D02*
X0151800Y0231795D01*
X0151800Y0233394D02*
X0151800Y0233394D01*
X0151800Y0234992D02*
X0151800Y0234992D01*
X0151800Y0236591D02*
X0151800Y0236591D01*
X0151800Y0238189D02*
X0151800Y0238189D01*
X0151800Y0239788D02*
X0151800Y0239788D01*
X0151800Y0241386D02*
X0151800Y0241386D01*
X0151800Y0242985D02*
X0151800Y0242985D01*
X0153918Y0242985D02*
X0160664Y0242985D01*
X0161004Y0243126D02*
X0159534Y0242517D01*
X0158409Y0241392D01*
X0157800Y0239922D01*
X0157800Y0233130D01*
X0158409Y0231660D01*
X0159534Y0230535D01*
X0161004Y0229926D01*
X0162596Y0229926D01*
X0164066Y0230535D01*
X0165191Y0231660D01*
X0165800Y0233130D01*
X0165800Y0239922D01*
X0165191Y0241392D01*
X0164066Y0242517D01*
X0162596Y0243126D01*
X0161004Y0243126D01*
X0162936Y0242985D02*
X0168400Y0242985D01*
X0168400Y0244583D02*
X0110469Y0244583D01*
X0110664Y0242985D02*
X0109000Y0242985D01*
X0106800Y0244026D02*
X0106800Y0231526D01*
X0101800Y0226526D01*
X0096800Y0226526D01*
X0091800Y0231526D01*
X0091800Y0236526D01*
X0101800Y0236526D02*
X0101800Y0246526D01*
X0109989Y0254892D01*
X0154871Y0254892D01*
X0158020Y0258042D01*
X0158020Y0266884D01*
X0157828Y0267077D01*
X0157858Y0267672D01*
X0157858Y0272215D01*
X0161800Y0276526D01*
X0179300Y0276526D01*
X0184300Y0271526D01*
X0209300Y0271526D01*
X0211992Y0268561D02*
X0236608Y0268561D01*
X0237643Y0267526D02*
X0235300Y0269869D01*
X0235300Y0273183D01*
X0237643Y0275526D01*
X0240957Y0275526D01*
X0243300Y0273183D01*
X0243300Y0269869D01*
X0240957Y0267526D01*
X0237643Y0267526D01*
X0235300Y0270160D02*
X0213300Y0270160D01*
X0213300Y0271758D02*
X0235300Y0271758D01*
X0235474Y0273357D02*
X0213126Y0273357D01*
X0211528Y0274955D02*
X0237072Y0274955D01*
X0241528Y0274955D02*
X0254520Y0274955D01*
X0255463Y0273357D02*
X0243126Y0273357D01*
X0243300Y0271758D02*
X0255866Y0271758D01*
X0256221Y0270160D02*
X0243300Y0270160D01*
X0241992Y0268561D02*
X0256220Y0268561D01*
X0256220Y0266962D02*
X0173817Y0266962D01*
X0173817Y0265364D02*
X0256220Y0265364D01*
X0256220Y0263765D02*
X0173721Y0263765D01*
X0172963Y0262167D02*
X0206784Y0262167D01*
X0209300Y0259026D02*
X0164300Y0259026D01*
X0164320Y0266491D01*
X0163733Y0267077D01*
X0169639Y0268561D02*
X0169639Y0268561D01*
X0169639Y0270160D02*
X0169639Y0270160D01*
X0169639Y0271758D02*
X0169639Y0271758D01*
X0169639Y0273357D02*
X0169639Y0273357D01*
X0171151Y0273357D02*
X0179358Y0273357D01*
X0180957Y0271758D02*
X0173130Y0271758D01*
X0173757Y0270160D02*
X0182555Y0270160D01*
X0183982Y0274955D02*
X0207072Y0274955D01*
X0206608Y0268561D02*
X0173817Y0268561D01*
X0168126Y0273357D02*
X0161883Y0273357D01*
X0158844Y0276554D02*
X0043927Y0276554D01*
X0044806Y0274955D02*
X0157383Y0274955D01*
X0155888Y0273357D02*
X0085292Y0273357D01*
X0083611Y0273357D02*
X0083611Y0273357D01*
X0083611Y0273702D02*
X0083611Y0267146D01*
X0083611Y0267146D01*
X0083611Y0273702D01*
X0081930Y0273357D02*
X0073481Y0273357D01*
X0071800Y0273357D02*
X0071800Y0273357D01*
X0071800Y0271758D02*
X0071800Y0271758D01*
X0071800Y0270160D02*
X0071800Y0270160D01*
X0071800Y0268561D02*
X0071800Y0268561D01*
X0071800Y0267146D02*
X0071800Y0267146D01*
X0071800Y0266962D02*
X0071800Y0266962D01*
X0071800Y0265364D02*
X0071800Y0265364D01*
X0071800Y0263765D02*
X0071800Y0263765D01*
X0071800Y0262167D02*
X0071800Y0262167D01*
X0062221Y0263765D02*
X0044313Y0263765D01*
X0045072Y0265364D02*
X0062117Y0265364D01*
X0062117Y0266962D02*
X0045568Y0266962D01*
X0045843Y0268561D02*
X0062117Y0268561D01*
X0062117Y0270160D02*
X0034411Y0270160D01*
X0034411Y0268561D02*
X0032811Y0268561D01*
X0032811Y0266962D02*
X0034411Y0266962D01*
X0034411Y0265364D02*
X0032811Y0265364D01*
X0032811Y0263765D02*
X0034411Y0263765D01*
X0034411Y0262167D02*
X0032811Y0262167D01*
X0032811Y0260568D02*
X0034411Y0260568D01*
X0034411Y0258970D02*
X0032811Y0258970D01*
X0027861Y0258970D02*
X0023600Y0258970D01*
X0023600Y0260568D02*
X0025526Y0260568D01*
X0024008Y0262167D02*
X0023600Y0262167D01*
X0023600Y0257371D02*
X0089534Y0257371D01*
X0087936Y0255773D02*
X0023600Y0255773D01*
X0023600Y0254174D02*
X0086337Y0254174D01*
X0084739Y0252576D02*
X0023600Y0252576D01*
X0023600Y0250977D02*
X0083140Y0250977D01*
X0082100Y0249379D02*
X0079804Y0249379D01*
X0080693Y0247780D02*
X0082100Y0247780D01*
X0082100Y0246182D02*
X0080800Y0246182D01*
X0080800Y0244583D02*
X0082100Y0244583D01*
X0082100Y0242985D02*
X0080800Y0242985D01*
X0080800Y0241386D02*
X0082100Y0241386D01*
X0082100Y0239788D02*
X0080410Y0239788D01*
X0066800Y0241526D02*
X0066800Y0229026D01*
X0071800Y0224026D01*
X0071800Y0146526D01*
X0059300Y0134026D01*
X0059300Y0101526D01*
X0066800Y0094026D01*
X0101800Y0094026D01*
X0106800Y0089026D01*
X0103619Y0089096D02*
X0103619Y0088393D01*
X0104025Y0087412D01*
X0100211Y0091226D01*
X0065211Y0091226D01*
X0056500Y0099937D01*
X0056500Y0138115D01*
X0064000Y0145615D01*
X0064000Y0147922D01*
X0064494Y0147563D01*
X0065111Y0147248D01*
X0065770Y0147034D01*
X0066454Y0146926D01*
X0066800Y0146926D01*
X0067146Y0146926D01*
X0067830Y0147034D01*
X0068489Y0147248D01*
X0069106Y0147563D01*
X0069600Y0147922D01*
X0069600Y0147437D01*
X0058389Y0136226D01*
X0057100Y0134937D01*
X0057100Y0100615D01*
X0064600Y0093115D01*
X0065889Y0091826D01*
X0100889Y0091826D01*
X0103619Y0089096D01*
X0103187Y0089528D02*
X0101910Y0089528D01*
X0101588Y0091126D02*
X0100311Y0091126D01*
X0103508Y0087929D02*
X0103811Y0087929D01*
X0100483Y0084732D02*
X0064205Y0084732D01*
X0062607Y0086331D02*
X0098884Y0086331D01*
X0102081Y0083134D02*
X0077077Y0083134D01*
X0077481Y0081535D02*
X0086223Y0081535D01*
X0086297Y0081578D02*
X0083698Y0080077D01*
X0081575Y0077955D01*
X0080075Y0075355D01*
X0079298Y0072456D01*
X0079298Y0069454D01*
X0080075Y0066555D01*
X0081575Y0063955D01*
X0083698Y0061833D01*
X0086297Y0060332D01*
X0089197Y0059555D01*
X0092198Y0059555D01*
X0095098Y0060332D01*
X0097697Y0061833D01*
X0099820Y0063955D01*
X0101321Y0066555D01*
X0102098Y0069454D01*
X0102098Y0072456D01*
X0101321Y0075355D01*
X0099820Y0077955D01*
X0097697Y0080077D01*
X0095098Y0081578D01*
X0092198Y0082355D01*
X0089197Y0082355D01*
X0086297Y0081578D01*
X0083557Y0079937D02*
X0077085Y0079937D01*
X0074300Y0081526D02*
X0064300Y0081526D01*
X0049300Y0096526D01*
X0049300Y0109026D01*
X0042207Y0116526D01*
X0036800Y0116526D01*
X0034048Y0115867D01*
X0028762Y0118301D02*
X0023600Y0118301D01*
X0023600Y0119899D02*
X0028356Y0119899D01*
X0027892Y0121498D02*
X0023600Y0121498D01*
X0023600Y0123096D02*
X0028129Y0123096D01*
X0028744Y0124695D02*
X0023600Y0124695D01*
X0023600Y0126293D02*
X0027727Y0126293D01*
X0027492Y0127678D02*
X0034048Y0127678D01*
X0034048Y0131855D01*
X0031341Y0131855D01*
X0030692Y0131753D01*
X0030066Y0131549D01*
X0029480Y0131251D01*
X0028948Y0130864D01*
X0028483Y0130399D01*
X0028097Y0129867D01*
X0027798Y0129281D01*
X0027595Y0128656D01*
X0027492Y0128006D01*
X0027492Y0127678D01*
X0027492Y0127892D02*
X0023600Y0127892D01*
X0023600Y0129491D02*
X0027905Y0129491D01*
X0029258Y0131089D02*
X0023600Y0131089D01*
X0023600Y0132688D02*
X0044600Y0132688D01*
X0044600Y0134286D02*
X0023600Y0134286D01*
X0023600Y0135885D02*
X0044600Y0135885D01*
X0044600Y0137483D02*
X0023600Y0137483D01*
X0023600Y0139082D02*
X0044600Y0139082D01*
X0044600Y0140680D02*
X0023600Y0140680D01*
X0023600Y0142279D02*
X0044600Y0142279D01*
X0044600Y0143877D02*
X0023600Y0143877D01*
X0023600Y0145476D02*
X0044600Y0145476D01*
X0044600Y0147074D02*
X0023600Y0147074D01*
X0023600Y0148673D02*
X0028960Y0148673D01*
X0029487Y0148146D02*
X0030875Y0147571D01*
X0037134Y0147571D01*
X0038523Y0148146D01*
X0039585Y0149209D01*
X0040161Y0150597D01*
X0040161Y0152100D01*
X0039585Y0153489D01*
X0039048Y0154026D01*
X0039104Y0154068D01*
X0039569Y0154533D01*
X0039956Y0155065D01*
X0040255Y0155651D01*
X0040458Y0156276D01*
X0040561Y0156926D01*
X0040561Y0157254D01*
X0034005Y0157254D01*
X0034005Y0157254D01*
X0040561Y0157254D01*
X0040561Y0157583D01*
X0040458Y0158233D01*
X0040255Y0158858D01*
X0039956Y0159444D01*
X0039569Y0159976D01*
X0039104Y0160441D01*
X0039048Y0160482D01*
X0039585Y0161020D01*
X0040161Y0162408D01*
X0040161Y0163911D01*
X0039585Y0165300D01*
X0039048Y0165837D01*
X0039104Y0165879D01*
X0039569Y0166344D01*
X0039956Y0166876D01*
X0040255Y0167462D01*
X0040458Y0168087D01*
X0040561Y0168737D01*
X0040561Y0169065D01*
X0034005Y0169065D01*
X0034005Y0169065D01*
X0040561Y0169065D01*
X0040561Y0169394D01*
X0040458Y0170044D01*
X0040255Y0170669D01*
X0039956Y0171255D01*
X0039569Y0171787D01*
X0039104Y0172252D01*
X0038572Y0172639D01*
X0037986Y0172937D01*
X0037361Y0173140D01*
X0036711Y0173243D01*
X0034005Y0173243D01*
X0034005Y0169065D01*
X0027449Y0169065D01*
X0027449Y0168737D01*
X0027552Y0168087D01*
X0027755Y0167462D01*
X0028053Y0166876D01*
X0028440Y0166344D01*
X0028905Y0165879D01*
X0028962Y0165837D01*
X0028424Y0165300D01*
X0027849Y0163911D01*
X0027849Y0162408D01*
X0028424Y0161020D01*
X0028962Y0160482D01*
X0028905Y0160441D01*
X0028440Y0159976D01*
X0028053Y0159444D01*
X0027755Y0158858D01*
X0027552Y0158233D01*
X0027449Y0157583D01*
X0027449Y0157254D01*
X0027449Y0156926D01*
X0027552Y0156276D01*
X0027755Y0155651D01*
X0028053Y0155065D01*
X0028440Y0154533D01*
X0028905Y0154068D01*
X0028962Y0154026D01*
X0028424Y0153489D01*
X0027849Y0152100D01*
X0027849Y0150597D01*
X0028424Y0149209D01*
X0029487Y0148146D01*
X0027984Y0150271D02*
X0023600Y0150271D01*
X0023600Y0151870D02*
X0027849Y0151870D01*
X0028415Y0153468D02*
X0023600Y0153468D01*
X0023600Y0155067D02*
X0028052Y0155067D01*
X0027490Y0156665D02*
X0023600Y0156665D01*
X0023600Y0158264D02*
X0027562Y0158264D01*
X0027449Y0157254D02*
X0034005Y0157254D01*
X0027449Y0157254D01*
X0028357Y0159862D02*
X0023600Y0159862D01*
X0023600Y0161461D02*
X0028241Y0161461D01*
X0027849Y0163059D02*
X0023600Y0163059D01*
X0023600Y0164658D02*
X0028158Y0164658D01*
X0028527Y0166256D02*
X0023600Y0166256D01*
X0023600Y0167855D02*
X0027627Y0167855D01*
X0027449Y0169065D02*
X0034005Y0169065D01*
X0034005Y0169065D01*
X0034005Y0169065D01*
X0034005Y0173243D01*
X0031298Y0173243D01*
X0030648Y0173140D01*
X0030023Y0172937D01*
X0029437Y0172639D01*
X0028905Y0172252D01*
X0028440Y0171787D01*
X0028053Y0171255D01*
X0027755Y0170669D01*
X0027552Y0170044D01*
X0027449Y0169394D01*
X0027449Y0169065D01*
X0027458Y0169453D02*
X0023600Y0169453D01*
X0023600Y0171052D02*
X0027950Y0171052D01*
X0029460Y0172650D02*
X0023600Y0172650D01*
X0023600Y0174249D02*
X0044600Y0174249D01*
X0044600Y0174312D02*
X0044600Y0123825D01*
X0044103Y0123328D01*
X0043619Y0122159D01*
X0043619Y0120893D01*
X0044103Y0119724D01*
X0044998Y0118829D01*
X0046167Y0118345D01*
X0047433Y0118345D01*
X0048602Y0118829D01*
X0049497Y0119724D01*
X0049981Y0120893D01*
X0049981Y0122159D01*
X0049497Y0123328D01*
X0049000Y0123825D01*
X0049000Y0172490D01*
X0049230Y0172720D01*
X0049933Y0172720D01*
X0051102Y0173204D01*
X0051997Y0174099D01*
X0052481Y0175268D01*
X0052481Y0176534D01*
X0051997Y0177703D01*
X0051102Y0178598D01*
X0049933Y0179082D01*
X0048667Y0179082D01*
X0047498Y0178598D01*
X0046603Y0177703D01*
X0046119Y0176534D01*
X0046119Y0175831D01*
X0045889Y0175601D01*
X0044600Y0174312D01*
X0044600Y0172650D02*
X0038549Y0172650D01*
X0040060Y0171052D02*
X0044600Y0171052D01*
X0044600Y0169453D02*
X0040551Y0169453D01*
X0040382Y0167855D02*
X0044600Y0167855D01*
X0044600Y0166256D02*
X0039482Y0166256D01*
X0039851Y0164658D02*
X0044600Y0164658D01*
X0044600Y0163059D02*
X0040161Y0163059D01*
X0039768Y0161461D02*
X0044600Y0161461D01*
X0044600Y0159862D02*
X0039652Y0159862D01*
X0040448Y0158264D02*
X0044600Y0158264D01*
X0044600Y0156665D02*
X0040519Y0156665D01*
X0039957Y0155067D02*
X0044600Y0155067D01*
X0044600Y0153468D02*
X0039594Y0153468D01*
X0040161Y0151870D02*
X0044600Y0151870D01*
X0044600Y0150271D02*
X0040026Y0150271D01*
X0039049Y0148673D02*
X0044600Y0148673D01*
X0049000Y0148673D02*
X0053796Y0148673D01*
X0052907Y0150271D02*
X0049000Y0150271D01*
X0049000Y0151870D02*
X0052800Y0151870D01*
X0052800Y0153468D02*
X0049000Y0153468D01*
X0049000Y0155067D02*
X0052800Y0155067D01*
X0052800Y0156665D02*
X0049000Y0156665D01*
X0049000Y0158264D02*
X0053190Y0158264D01*
X0054479Y0159862D02*
X0049000Y0159862D01*
X0049000Y0161461D02*
X0054600Y0161461D01*
X0054600Y0163059D02*
X0049000Y0163059D01*
X0049000Y0164658D02*
X0054600Y0164658D01*
X0054600Y0166256D02*
X0049000Y0166256D01*
X0049000Y0167855D02*
X0054600Y0167855D01*
X0054600Y0169453D02*
X0049000Y0169453D01*
X0049000Y0171052D02*
X0054600Y0171052D01*
X0054600Y0172650D02*
X0049161Y0172650D01*
X0046800Y0173401D02*
X0049300Y0175901D01*
X0046119Y0175847D02*
X0023600Y0175847D01*
X0023600Y0177446D02*
X0046497Y0177446D01*
X0048576Y0179044D02*
X0023600Y0179044D01*
X0023600Y0180643D02*
X0049572Y0180643D01*
X0050024Y0179044D02*
X0051170Y0179044D01*
X0052103Y0177446D02*
X0052769Y0177446D01*
X0052481Y0175847D02*
X0054367Y0175847D01*
X0054600Y0174249D02*
X0052059Y0174249D01*
X0056800Y0176526D02*
X0049300Y0184026D01*
X0049300Y0191526D01*
X0044300Y0196526D01*
X0034300Y0196526D01*
X0030550Y0192776D01*
X0030550Y0186526D01*
X0033521Y0183840D02*
X0038829Y0183840D01*
X0037800Y0184869D02*
X0037800Y0188183D01*
X0040143Y0190526D01*
X0043457Y0190526D01*
X0045800Y0188183D01*
X0045800Y0184869D01*
X0043457Y0182526D01*
X0040143Y0182526D01*
X0037800Y0184869D01*
X0037800Y0185438D02*
X0034550Y0185438D01*
X0034550Y0187037D02*
X0037800Y0187037D01*
X0038253Y0188635D02*
X0034097Y0188635D01*
X0032750Y0190234D02*
X0039851Y0190234D01*
X0043749Y0190234D02*
X0047100Y0190234D01*
X0047100Y0188635D02*
X0045347Y0188635D01*
X0045800Y0187037D02*
X0047100Y0187037D01*
X0047100Y0185438D02*
X0045800Y0185438D01*
X0044771Y0183840D02*
X0047100Y0183840D01*
X0047973Y0182241D02*
X0023600Y0182241D01*
X0023600Y0183840D02*
X0027579Y0183840D01*
X0026550Y0185438D02*
X0023600Y0185438D01*
X0023600Y0187037D02*
X0026550Y0187037D01*
X0027003Y0188635D02*
X0023600Y0188635D01*
X0023600Y0190234D02*
X0028350Y0190234D01*
X0028350Y0191832D02*
X0023600Y0191832D01*
X0023600Y0193431D02*
X0028350Y0193431D01*
X0029692Y0195029D02*
X0023600Y0195029D01*
X0023600Y0196628D02*
X0031291Y0196628D01*
X0032889Y0198227D02*
X0023600Y0198227D01*
X0023600Y0199825D02*
X0060390Y0199825D01*
X0059600Y0201424D02*
X0023600Y0201424D01*
X0023600Y0203022D02*
X0054447Y0203022D01*
X0053177Y0204621D02*
X0023600Y0204621D01*
X0023600Y0206219D02*
X0052800Y0206219D01*
X0052800Y0207818D02*
X0023600Y0207818D01*
X0023600Y0209416D02*
X0052800Y0209416D01*
X0052800Y0211015D02*
X0023600Y0211015D01*
X0034316Y0193431D02*
X0044284Y0193431D01*
X0045882Y0191832D02*
X0032750Y0191832D01*
X0045711Y0198227D02*
X0061988Y0198227D01*
X0063587Y0196628D02*
X0047309Y0196628D01*
X0048908Y0195029D02*
X0054447Y0195029D01*
X0054534Y0195117D02*
X0053409Y0193992D01*
X0052800Y0192522D01*
X0052800Y0185730D01*
X0053409Y0184260D01*
X0054534Y0183135D01*
X0056004Y0182526D01*
X0057596Y0182526D01*
X0059066Y0183135D01*
X0060191Y0184260D01*
X0060800Y0185730D01*
X0060800Y0192522D01*
X0060191Y0193992D01*
X0059066Y0195117D01*
X0057596Y0195726D01*
X0056004Y0195726D01*
X0054534Y0195117D01*
X0053177Y0193431D02*
X0050506Y0193431D01*
X0051500Y0191832D02*
X0052800Y0191832D01*
X0052800Y0190234D02*
X0051500Y0190234D01*
X0051500Y0188635D02*
X0052800Y0188635D01*
X0052800Y0187037D02*
X0051500Y0187037D01*
X0051500Y0185438D02*
X0052921Y0185438D01*
X0052597Y0183840D02*
X0053829Y0183840D01*
X0054196Y0182241D02*
X0064600Y0182241D01*
X0064600Y0180643D02*
X0055794Y0180643D01*
X0057393Y0179044D02*
X0064600Y0179044D01*
X0064600Y0177446D02*
X0058991Y0177446D01*
X0059000Y0175847D02*
X0064600Y0175847D01*
X0064600Y0174249D02*
X0059000Y0174249D01*
X0059000Y0172650D02*
X0064600Y0172650D01*
X0064600Y0171052D02*
X0059000Y0171052D01*
X0059000Y0169453D02*
X0064116Y0169453D01*
X0062518Y0167855D02*
X0059000Y0167855D01*
X0059000Y0166256D02*
X0060919Y0166256D01*
X0059600Y0164658D02*
X0059000Y0164658D01*
X0059000Y0163059D02*
X0059600Y0163059D01*
X0059600Y0161461D02*
X0059000Y0161461D01*
X0059121Y0159862D02*
X0059600Y0159862D01*
X0056800Y0156526D02*
X0056800Y0176526D01*
X0059771Y0183840D02*
X0063829Y0183840D01*
X0062921Y0185438D02*
X0060679Y0185438D01*
X0060800Y0187037D02*
X0062800Y0187037D01*
X0062800Y0188635D02*
X0060800Y0188635D01*
X0060800Y0190234D02*
X0062800Y0190234D01*
X0062800Y0191832D02*
X0060800Y0191832D01*
X0060423Y0193431D02*
X0063177Y0193431D01*
X0064447Y0195029D02*
X0059153Y0195029D01*
X0059153Y0203022D02*
X0059600Y0203022D01*
X0064000Y0202922D02*
X0064494Y0202563D01*
X0065111Y0202248D01*
X0065770Y0202034D01*
X0066454Y0201926D01*
X0066800Y0201926D01*
X0067146Y0201926D01*
X0067830Y0202034D01*
X0068489Y0202248D01*
X0069106Y0202563D01*
X0069600Y0202922D01*
X0069600Y0194583D01*
X0069066Y0195117D01*
X0069000Y0195144D01*
X0069000Y0197437D01*
X0067711Y0198726D01*
X0064000Y0202437D01*
X0064000Y0202922D01*
X0065014Y0201424D02*
X0069600Y0201424D01*
X0069600Y0199825D02*
X0066612Y0199825D01*
X0066800Y0201926D02*
X0066800Y0211526D01*
X0066800Y0201926D01*
X0066800Y0203022D02*
X0066800Y0203022D01*
X0066800Y0204621D02*
X0066800Y0204621D01*
X0066800Y0206219D02*
X0066800Y0206219D01*
X0066800Y0207818D02*
X0066800Y0207818D01*
X0066800Y0209416D02*
X0066800Y0209416D01*
X0066800Y0211015D02*
X0066800Y0211015D01*
X0066800Y0211526D02*
X0066800Y0211526D01*
X0066800Y0212613D02*
X0066800Y0212613D01*
X0066800Y0214212D02*
X0066800Y0214212D01*
X0059600Y0215810D02*
X0045800Y0215810D01*
X0045800Y0217409D02*
X0059600Y0217409D01*
X0058708Y0219007D02*
X0044976Y0219007D01*
X0045142Y0214212D02*
X0053829Y0214212D01*
X0052921Y0212613D02*
X0043544Y0212613D01*
X0068211Y0198227D02*
X0069600Y0198227D01*
X0069600Y0196628D02*
X0069000Y0196628D01*
X0069153Y0195029D02*
X0069600Y0195029D01*
X0076800Y0194026D02*
X0076800Y0186526D01*
X0076800Y0166526D01*
X0081800Y0161526D01*
X0081800Y0146526D01*
X0064300Y0129026D01*
X0064300Y0104026D01*
X0069300Y0099026D01*
X0103050Y0099026D01*
X0111800Y0090276D01*
X0111800Y0069026D01*
X0104600Y0068747D02*
X0101908Y0068747D01*
X0102098Y0070346D02*
X0104600Y0070346D01*
X0104600Y0071944D02*
X0102098Y0071944D01*
X0101806Y0073543D02*
X0104600Y0073543D01*
X0104600Y0075141D02*
X0101378Y0075141D01*
X0100522Y0076740D02*
X0104600Y0076740D01*
X0104600Y0078338D02*
X0099437Y0078338D01*
X0097838Y0079937D02*
X0104600Y0079937D01*
X0103680Y0081535D02*
X0095172Y0081535D01*
X0081959Y0078338D02*
X0063665Y0078338D01*
X0064400Y0076740D02*
X0066357Y0076740D01*
X0065300Y0075683D02*
X0065300Y0072369D01*
X0067643Y0070026D01*
X0070957Y0070026D01*
X0073300Y0072369D01*
X0073300Y0075683D01*
X0070957Y0078026D01*
X0067643Y0078026D01*
X0065300Y0075683D01*
X0065300Y0075141D02*
X0064400Y0075141D01*
X0064400Y0073543D02*
X0065300Y0073543D01*
X0065725Y0071944D02*
X0064400Y0071944D01*
X0064400Y0070346D02*
X0067324Y0070346D01*
X0067643Y0068026D02*
X0065300Y0065683D01*
X0065300Y0062369D01*
X0067643Y0060026D01*
X0070957Y0060026D01*
X0073300Y0062369D01*
X0073300Y0065683D01*
X0070957Y0068026D01*
X0067643Y0068026D01*
X0066766Y0067149D02*
X0064400Y0067149D01*
X0064400Y0068747D02*
X0079487Y0068747D01*
X0079298Y0070346D02*
X0071276Y0070346D01*
X0072875Y0071944D02*
X0079298Y0071944D01*
X0079589Y0073543D02*
X0073300Y0073543D01*
X0073300Y0075141D02*
X0080017Y0075141D01*
X0080874Y0076740D02*
X0072243Y0076740D01*
X0071834Y0067149D02*
X0079915Y0067149D01*
X0080655Y0065550D02*
X0073300Y0065550D01*
X0073300Y0063952D02*
X0081579Y0063952D01*
X0083178Y0062353D02*
X0073284Y0062353D01*
X0071685Y0060755D02*
X0085566Y0060755D01*
X0074787Y0052762D02*
X0109953Y0052762D01*
X0108354Y0054360D02*
X0072642Y0054360D01*
X0071044Y0055959D02*
X0106756Y0055959D01*
X0105157Y0057558D02*
X0069445Y0057558D01*
X0067847Y0059156D02*
X0104600Y0059156D01*
X0104600Y0060755D02*
X0095830Y0060755D01*
X0098218Y0062353D02*
X0104600Y0062353D01*
X0104600Y0063952D02*
X0099816Y0063952D01*
X0100741Y0065550D02*
X0104600Y0065550D01*
X0104600Y0067149D02*
X0101480Y0067149D01*
X0104276Y0049565D02*
X0136119Y0049565D01*
X0136296Y0047966D02*
X0105875Y0047966D01*
X0107473Y0046368D02*
X0137459Y0046368D01*
X0139300Y0049026D02*
X0166800Y0049026D01*
X0174300Y0056526D01*
X0170450Y0049565D02*
X0194324Y0049565D01*
X0192725Y0047966D02*
X0168852Y0047966D01*
X0191127Y0046368D02*
X0141141Y0046368D01*
X0136939Y0051163D02*
X0075884Y0051163D01*
X0067716Y0051163D02*
X0066315Y0051163D01*
X0066248Y0051369D02*
X0066482Y0050650D01*
X0066600Y0049904D01*
X0066600Y0046726D01*
X0062000Y0046726D01*
X0061600Y0046726D01*
X0061600Y0054326D01*
X0061422Y0054326D01*
X0060676Y0054208D01*
X0059957Y0053974D01*
X0059284Y0053631D01*
X0058673Y0053187D01*
X0058139Y0052653D01*
X0057695Y0052042D01*
X0057352Y0051369D01*
X0057118Y0050650D01*
X0057000Y0049904D01*
X0057000Y0046726D01*
X0061600Y0046726D01*
X0061600Y0046326D01*
X0057000Y0046326D01*
X0057000Y0043148D01*
X0057118Y0042402D01*
X0057352Y0041683D01*
X0057695Y0041010D01*
X0058139Y0040399D01*
X0058673Y0039865D01*
X0059284Y0039421D01*
X0059957Y0039078D01*
X0060676Y0038844D01*
X0061422Y0038726D01*
X0061600Y0038726D01*
X0061600Y0046326D01*
X0062000Y0046326D01*
X0062000Y0046726D01*
X0062000Y0054326D01*
X0062178Y0054326D01*
X0062924Y0054208D01*
X0063643Y0053974D01*
X0064316Y0053631D01*
X0064927Y0053187D01*
X0065461Y0052653D01*
X0065905Y0052042D01*
X0066248Y0051369D01*
X0066887Y0052762D02*
X0065352Y0052762D01*
X0065289Y0054360D02*
X0023600Y0054360D01*
X0023600Y0052762D02*
X0028813Y0052762D01*
X0029308Y0053256D02*
X0028070Y0052018D01*
X0027400Y0050401D01*
X0027400Y0042651D01*
X0028070Y0041034D01*
X0029308Y0039796D01*
X0030925Y0039126D01*
X0032675Y0039126D01*
X0034292Y0039796D01*
X0035530Y0041034D01*
X0036200Y0042651D01*
X0036200Y0050401D01*
X0035530Y0052018D01*
X0034292Y0053256D01*
X0032675Y0053926D01*
X0030925Y0053926D01*
X0029308Y0053256D01*
X0027716Y0051163D02*
X0023600Y0051163D01*
X0023600Y0049565D02*
X0027400Y0049565D01*
X0027400Y0047966D02*
X0023600Y0047966D01*
X0023600Y0046368D02*
X0027400Y0046368D01*
X0027400Y0044769D02*
X0023600Y0044769D01*
X0023600Y0043171D02*
X0027400Y0043171D01*
X0027847Y0041572D02*
X0023666Y0041572D01*
X0024031Y0039974D02*
X0029130Y0039974D01*
X0024550Y0038375D02*
X0104435Y0038375D01*
X0102837Y0039974D02*
X0074470Y0039974D01*
X0075753Y0041572D02*
X0101238Y0041572D01*
X0069130Y0039974D02*
X0065036Y0039974D01*
X0064927Y0039865D02*
X0065461Y0040399D01*
X0065905Y0041010D01*
X0066248Y0041683D01*
X0066482Y0042402D01*
X0066600Y0043148D01*
X0066600Y0046326D01*
X0062000Y0046326D01*
X0062000Y0038726D01*
X0062178Y0038726D01*
X0062924Y0038844D01*
X0063643Y0039078D01*
X0064316Y0039421D01*
X0064927Y0039865D01*
X0066192Y0041572D02*
X0067847Y0041572D01*
X0067400Y0043171D02*
X0066600Y0043171D01*
X0066600Y0044769D02*
X0067400Y0044769D01*
X0067400Y0046368D02*
X0062000Y0046368D01*
X0061600Y0046368D02*
X0056200Y0046368D01*
X0056200Y0047966D02*
X0057000Y0047966D01*
X0057000Y0049565D02*
X0056200Y0049565D01*
X0056200Y0050401D02*
X0055530Y0052018D01*
X0054292Y0053256D01*
X0052675Y0053926D01*
X0050925Y0053926D01*
X0049308Y0053256D01*
X0048070Y0052018D01*
X0047400Y0050401D01*
X0047400Y0042651D01*
X0048070Y0041034D01*
X0049308Y0039796D01*
X0050925Y0039126D01*
X0052675Y0039126D01*
X0054292Y0039796D01*
X0055530Y0041034D01*
X0056200Y0042651D01*
X0056200Y0050401D01*
X0055884Y0051163D02*
X0057285Y0051163D01*
X0058248Y0052762D02*
X0054787Y0052762D01*
X0048813Y0052762D02*
X0044787Y0052762D01*
X0044292Y0053256D02*
X0045530Y0052018D01*
X0046200Y0050401D01*
X0046200Y0042651D01*
X0045530Y0041034D01*
X0044292Y0039796D01*
X0042675Y0039126D01*
X0040925Y0039126D01*
X0039308Y0039796D01*
X0038070Y0041034D01*
X0037400Y0042651D01*
X0037400Y0050401D01*
X0038070Y0052018D01*
X0039308Y0053256D01*
X0040925Y0053926D01*
X0042675Y0053926D01*
X0044292Y0053256D01*
X0045884Y0051163D02*
X0047716Y0051163D01*
X0047400Y0049565D02*
X0046200Y0049565D01*
X0046200Y0047966D02*
X0047400Y0047966D01*
X0047400Y0046368D02*
X0046200Y0046368D01*
X0046200Y0044769D02*
X0047400Y0044769D01*
X0047400Y0043171D02*
X0046200Y0043171D01*
X0045753Y0041572D02*
X0047847Y0041572D01*
X0049130Y0039974D02*
X0044470Y0039974D01*
X0039130Y0039974D02*
X0034470Y0039974D01*
X0035753Y0041572D02*
X0037847Y0041572D01*
X0037400Y0043171D02*
X0036200Y0043171D01*
X0036200Y0044769D02*
X0037400Y0044769D01*
X0037400Y0046368D02*
X0036200Y0046368D01*
X0036200Y0047966D02*
X0037400Y0047966D01*
X0037400Y0049565D02*
X0036200Y0049565D01*
X0035884Y0051163D02*
X0037716Y0051163D01*
X0038813Y0052762D02*
X0034787Y0052762D01*
X0023600Y0055959D02*
X0063690Y0055959D01*
X0062092Y0057558D02*
X0023600Y0057558D01*
X0023600Y0059156D02*
X0060493Y0059156D01*
X0059305Y0060755D02*
X0023600Y0060755D01*
X0023600Y0062353D02*
X0059200Y0062353D01*
X0059200Y0063952D02*
X0023600Y0063952D01*
X0023600Y0065550D02*
X0059200Y0065550D01*
X0059200Y0067149D02*
X0023600Y0067149D01*
X0023600Y0068747D02*
X0059200Y0068747D01*
X0059200Y0070346D02*
X0035849Y0070346D01*
X0034411Y0070346D02*
X0032811Y0070346D01*
X0031373Y0070346D02*
X0023600Y0070346D01*
X0023600Y0071944D02*
X0027214Y0071944D01*
X0025125Y0073543D02*
X0023600Y0073543D01*
X0023600Y0075141D02*
X0023708Y0075141D01*
X0032811Y0075141D02*
X0034411Y0075141D01*
X0034411Y0073543D02*
X0032811Y0073543D01*
X0032811Y0071944D02*
X0034411Y0071944D01*
X0034411Y0076740D02*
X0032811Y0076740D01*
X0032811Y0078338D02*
X0034411Y0078338D01*
X0034411Y0079937D02*
X0032811Y0079937D01*
X0032811Y0081535D02*
X0034411Y0081535D01*
X0034411Y0083134D02*
X0051515Y0083134D01*
X0049917Y0084732D02*
X0045707Y0084732D01*
X0045285Y0086331D02*
X0048318Y0086331D01*
X0046720Y0087929D02*
X0044625Y0087929D01*
X0045121Y0089528D02*
X0043691Y0089528D01*
X0043523Y0091126D02*
X0042331Y0091126D01*
X0042025Y0092725D02*
X0040380Y0092725D01*
X0041700Y0094323D02*
X0036872Y0094323D01*
X0034411Y0094323D02*
X0032811Y0094323D01*
X0032811Y0092725D02*
X0034411Y0092725D01*
X0034411Y0091126D02*
X0032811Y0091126D01*
X0032811Y0089528D02*
X0034411Y0089528D01*
X0034411Y0087929D02*
X0032811Y0087929D01*
X0032811Y0086331D02*
X0034411Y0086331D01*
X0034411Y0084732D02*
X0032811Y0084732D01*
X0024891Y0091126D02*
X0023600Y0091126D01*
X0023600Y0092725D02*
X0026842Y0092725D01*
X0023600Y0094323D02*
X0030350Y0094323D01*
X0023600Y0095922D02*
X0041700Y0095922D01*
X0041700Y0097520D02*
X0023600Y0097520D01*
X0023600Y0099119D02*
X0041700Y0099119D01*
X0041700Y0100717D02*
X0023600Y0100717D01*
X0023600Y0102316D02*
X0041700Y0102316D01*
X0041700Y0103914D02*
X0023600Y0103914D01*
X0023600Y0105513D02*
X0041636Y0105513D01*
X0040038Y0107111D02*
X0038919Y0107111D01*
X0042596Y0111907D02*
X0043548Y0111907D01*
X0044195Y0110308D02*
X0045059Y0110308D01*
X0045793Y0108710D02*
X0046571Y0108710D01*
X0046872Y0107111D02*
X0047100Y0107111D01*
X0047100Y0105513D02*
X0046900Y0105513D01*
X0046900Y0103914D02*
X0047100Y0103914D01*
X0047100Y0102316D02*
X0046900Y0102316D01*
X0046900Y0100717D02*
X0047100Y0100717D01*
X0047100Y0099119D02*
X0046900Y0099119D01*
X0046900Y0097520D02*
X0047100Y0097520D01*
X0047100Y0095922D02*
X0046900Y0095922D01*
X0047680Y0094323D02*
X0048391Y0094323D01*
X0049278Y0092725D02*
X0049990Y0092725D01*
X0050877Y0091126D02*
X0051588Y0091126D01*
X0052475Y0089528D02*
X0053187Y0089528D01*
X0054074Y0087929D02*
X0054785Y0087929D01*
X0055672Y0086331D02*
X0056384Y0086331D01*
X0057271Y0084732D02*
X0057983Y0084732D01*
X0058869Y0083134D02*
X0059581Y0083134D01*
X0060468Y0081535D02*
X0061180Y0081535D01*
X0062066Y0079937D02*
X0062778Y0079937D01*
X0057909Y0076740D02*
X0044512Y0076740D01*
X0045203Y0078338D02*
X0056311Y0078338D01*
X0054712Y0079937D02*
X0045653Y0079937D01*
X0045886Y0081535D02*
X0053114Y0081535D01*
X0059200Y0075141D02*
X0043514Y0075141D01*
X0042097Y0073543D02*
X0059200Y0073543D01*
X0059200Y0071944D02*
X0040008Y0071944D01*
X0057811Y0091126D02*
X0059088Y0091126D01*
X0059410Y0089528D02*
X0060687Y0089528D01*
X0061008Y0087929D02*
X0062285Y0087929D01*
X0063712Y0092725D02*
X0064990Y0092725D01*
X0063391Y0094323D02*
X0062114Y0094323D01*
X0061793Y0095922D02*
X0060515Y0095922D01*
X0060194Y0097520D02*
X0058917Y0097520D01*
X0058596Y0099119D02*
X0057318Y0099119D01*
X0057100Y0100717D02*
X0056500Y0100717D01*
X0056500Y0102316D02*
X0057100Y0102316D01*
X0057100Y0103914D02*
X0056500Y0103914D01*
X0056500Y0105513D02*
X0057100Y0105513D01*
X0057100Y0107111D02*
X0056500Y0107111D01*
X0056500Y0108710D02*
X0057100Y0108710D01*
X0057100Y0110308D02*
X0056500Y0110308D01*
X0056500Y0111907D02*
X0057100Y0111907D01*
X0057100Y0113505D02*
X0056500Y0113505D01*
X0056500Y0115104D02*
X0057100Y0115104D01*
X0057100Y0116702D02*
X0056500Y0116702D01*
X0056500Y0118301D02*
X0057100Y0118301D01*
X0057100Y0119899D02*
X0056500Y0119899D01*
X0056500Y0121498D02*
X0057100Y0121498D01*
X0057100Y0123096D02*
X0056500Y0123096D01*
X0056500Y0124695D02*
X0057100Y0124695D01*
X0057100Y0126293D02*
X0056500Y0126293D01*
X0056500Y0127892D02*
X0057100Y0127892D01*
X0057100Y0129491D02*
X0056500Y0129491D01*
X0056500Y0131089D02*
X0057100Y0131089D01*
X0057100Y0132688D02*
X0056500Y0132688D01*
X0056500Y0134286D02*
X0057100Y0134286D01*
X0056500Y0135885D02*
X0058047Y0135885D01*
X0056500Y0137483D02*
X0059646Y0137483D01*
X0061244Y0139082D02*
X0057467Y0139082D01*
X0059065Y0140680D02*
X0062843Y0140680D01*
X0064441Y0142279D02*
X0060664Y0142279D01*
X0062262Y0143877D02*
X0066040Y0143877D01*
X0067638Y0145476D02*
X0063861Y0145476D01*
X0064000Y0147074D02*
X0065647Y0147074D01*
X0066800Y0147074D02*
X0066800Y0147074D01*
X0066800Y0146926D02*
X0066800Y0156526D01*
X0066800Y0156526D01*
X0066800Y0160926D01*
X0067146Y0160926D01*
X0067830Y0160818D01*
X0068489Y0160604D01*
X0069106Y0160289D01*
X0069600Y0159930D01*
X0069600Y0183669D01*
X0069066Y0183135D01*
X0069000Y0183108D01*
X0069000Y0168115D01*
X0064000Y0163115D01*
X0064000Y0159930D01*
X0064494Y0160289D01*
X0065111Y0160604D01*
X0065770Y0160818D01*
X0066454Y0160926D01*
X0066800Y0160926D01*
X0066800Y0156526D01*
X0066800Y0156526D01*
X0066800Y0146926D01*
X0067953Y0147074D02*
X0069237Y0147074D01*
X0066800Y0148673D02*
X0066800Y0148673D01*
X0066800Y0150271D02*
X0066800Y0150271D01*
X0066800Y0151870D02*
X0066800Y0151870D01*
X0066800Y0153468D02*
X0066800Y0153468D01*
X0066800Y0155067D02*
X0066800Y0155067D01*
X0066800Y0156665D02*
X0066800Y0156665D01*
X0066800Y0158264D02*
X0066800Y0158264D01*
X0066800Y0159862D02*
X0066800Y0159862D01*
X0064000Y0161461D02*
X0069600Y0161461D01*
X0069600Y0163059D02*
X0064000Y0163059D01*
X0065543Y0164658D02*
X0069600Y0164658D01*
X0069600Y0166256D02*
X0067142Y0166256D01*
X0068740Y0167855D02*
X0069600Y0167855D01*
X0069600Y0169453D02*
X0069000Y0169453D01*
X0069000Y0171052D02*
X0069600Y0171052D01*
X0069600Y0172650D02*
X0069000Y0172650D01*
X0069000Y0174249D02*
X0069600Y0174249D01*
X0069600Y0175847D02*
X0069000Y0175847D01*
X0069000Y0177446D02*
X0069600Y0177446D01*
X0069600Y0179044D02*
X0069000Y0179044D01*
X0069000Y0180643D02*
X0069600Y0180643D01*
X0069600Y0182241D02*
X0069000Y0182241D01*
X0079000Y0182241D02*
X0079278Y0182241D01*
X0079348Y0180643D02*
X0079000Y0180643D01*
X0079000Y0179044D02*
X0080408Y0179044D01*
X0079000Y0177446D02*
X0134900Y0177446D01*
X0134900Y0177203D02*
X0137477Y0174626D01*
X0139300Y0174626D01*
X0141123Y0174626D01*
X0143700Y0177203D01*
X0143700Y0179026D01*
X0143700Y0180849D01*
X0141123Y0183426D01*
X0139300Y0183426D01*
X0139300Y0179026D01*
X0139300Y0179026D01*
X0143700Y0179026D01*
X0139300Y0179026D01*
X0139300Y0179026D01*
X0139300Y0183426D01*
X0137477Y0183426D01*
X0134900Y0180849D01*
X0134900Y0179026D01*
X0139300Y0179026D01*
X0139300Y0179026D01*
X0139300Y0174626D01*
X0139300Y0179026D01*
X0139300Y0179026D01*
X0134900Y0179026D01*
X0134900Y0177203D01*
X0134900Y0179044D02*
X0084442Y0179044D01*
X0079000Y0175847D02*
X0136256Y0175847D01*
X0139300Y0175847D02*
X0139300Y0175847D01*
X0139300Y0177446D02*
X0139300Y0177446D01*
X0139300Y0179044D02*
X0139300Y0179044D01*
X0139300Y0180643D02*
X0139300Y0180643D01*
X0139300Y0182241D02*
X0139300Y0182241D01*
X0142307Y0182241D02*
X0146859Y0182241D01*
X0147643Y0183026D02*
X0145300Y0180683D01*
X0145300Y0177369D01*
X0147643Y0175026D01*
X0150957Y0175026D01*
X0153300Y0177369D01*
X0153300Y0180683D01*
X0150957Y0183026D01*
X0147643Y0183026D01*
X0145300Y0180643D02*
X0143700Y0180643D01*
X0143700Y0179044D02*
X0145300Y0179044D01*
X0145300Y0177446D02*
X0143700Y0177446D01*
X0142344Y0175847D02*
X0146822Y0175847D01*
X0151778Y0175847D02*
X0160510Y0175847D01*
X0162100Y0177437D02*
X0153389Y0168726D01*
X0117904Y0168726D01*
X0117837Y0168889D01*
X0116663Y0170063D01*
X0115130Y0170698D01*
X0113470Y0170698D01*
X0111937Y0170063D01*
X0110763Y0168889D01*
X0110128Y0167356D01*
X0110128Y0165696D01*
X0110763Y0164163D01*
X0111937Y0162989D01*
X0113470Y0162354D01*
X0115130Y0162354D01*
X0116663Y0162989D01*
X0117837Y0164163D01*
X0117904Y0164326D01*
X0155211Y0164326D01*
X0165211Y0174326D01*
X0192711Y0174326D01*
X0202711Y0184326D01*
X0217711Y0184326D01*
X0222711Y0189326D01*
X0224000Y0190615D01*
X0224000Y0200508D01*
X0224066Y0200535D01*
X0225191Y0201660D01*
X0225800Y0203130D01*
X0225800Y0209922D01*
X0225191Y0211392D01*
X0224066Y0212517D01*
X0222596Y0213126D01*
X0221004Y0213126D01*
X0219534Y0212517D01*
X0218409Y0211392D01*
X0217800Y0209922D01*
X0217800Y0203130D01*
X0218409Y0201660D01*
X0219534Y0200535D01*
X0219600Y0200508D01*
X0219600Y0192437D01*
X0215889Y0188726D01*
X0200889Y0188726D01*
X0199600Y0187437D01*
X0190889Y0178726D01*
X0163389Y0178726D01*
X0162100Y0177437D01*
X0162109Y0177446D02*
X0153300Y0177446D01*
X0153300Y0179044D02*
X0159783Y0179044D01*
X0159998Y0178829D02*
X0161167Y0178345D01*
X0162433Y0178345D01*
X0163602Y0178829D01*
X0164099Y0179326D01*
X0190211Y0179326D01*
X0191500Y0180615D01*
X0199000Y0188115D01*
X0199000Y0194937D01*
X0197711Y0196226D01*
X0194000Y0199937D01*
X0194000Y0200508D01*
X0194066Y0200535D01*
X0195191Y0201660D01*
X0195800Y0203130D01*
X0195800Y0209922D01*
X0195191Y0211392D01*
X0194066Y0212517D01*
X0192596Y0213126D01*
X0191004Y0213126D01*
X0189534Y0212517D01*
X0188409Y0211392D01*
X0187800Y0209922D01*
X0187800Y0203130D01*
X0188409Y0201660D01*
X0189534Y0200535D01*
X0189600Y0200508D01*
X0189600Y0198115D01*
X0194600Y0193115D01*
X0194600Y0189937D01*
X0192463Y0187800D01*
X0192900Y0188855D01*
X0192900Y0190447D01*
X0192291Y0191917D01*
X0191166Y0193042D01*
X0189696Y0193651D01*
X0182904Y0193651D01*
X0181434Y0193042D01*
X0180309Y0191917D01*
X0179700Y0190447D01*
X0179700Y0188855D01*
X0180309Y0187385D01*
X0181434Y0186260D01*
X0182904Y0185651D01*
X0189696Y0185651D01*
X0190751Y0186088D01*
X0188389Y0183726D01*
X0179124Y0183726D01*
X0179497Y0184099D01*
X0179981Y0185268D01*
X0179981Y0186534D01*
X0179497Y0187703D01*
X0179000Y0188200D01*
X0179000Y0201069D01*
X0179534Y0200535D01*
X0181004Y0199926D01*
X0182596Y0199926D01*
X0184066Y0200535D01*
X0185191Y0201660D01*
X0185800Y0203130D01*
X0185800Y0209922D01*
X0185191Y0211392D01*
X0184066Y0212517D01*
X0182596Y0213126D01*
X0181004Y0213126D01*
X0179534Y0212517D01*
X0179000Y0211983D01*
X0179000Y0218115D01*
X0182711Y0221826D01*
X0182711Y0221826D01*
X0184000Y0223115D01*
X0184000Y0230508D01*
X0184066Y0230535D01*
X0185191Y0231660D01*
X0185800Y0233130D01*
X0185800Y0239922D01*
X0185191Y0241392D01*
X0184066Y0242517D01*
X0182596Y0243126D01*
X0181004Y0243126D01*
X0179534Y0242517D01*
X0178409Y0241392D01*
X0177800Y0239922D01*
X0177800Y0233130D01*
X0178409Y0231660D01*
X0179534Y0230535D01*
X0179600Y0230508D01*
X0179600Y0224937D01*
X0175889Y0221226D01*
X0175889Y0221226D01*
X0174600Y0219937D01*
X0174600Y0211983D01*
X0174066Y0212517D01*
X0172596Y0213126D01*
X0171004Y0213126D01*
X0169534Y0212517D01*
X0168409Y0211392D01*
X0167800Y0209922D01*
X0167800Y0203130D01*
X0168409Y0201660D01*
X0169534Y0200535D01*
X0171004Y0199926D01*
X0172596Y0199926D01*
X0174066Y0200535D01*
X0174600Y0201069D01*
X0174600Y0188200D01*
X0174103Y0187703D01*
X0173619Y0186534D01*
X0173619Y0185268D01*
X0174103Y0184099D01*
X0174476Y0183726D01*
X0164099Y0183726D01*
X0163602Y0184223D01*
X0162433Y0184707D01*
X0161167Y0184707D01*
X0159998Y0184223D01*
X0159103Y0183328D01*
X0158619Y0182159D01*
X0158619Y0180893D01*
X0159103Y0179724D01*
X0159998Y0178829D01*
X0158723Y0180643D02*
X0153300Y0180643D01*
X0151741Y0182241D02*
X0158653Y0182241D01*
X0159615Y0183840D02*
X0126475Y0183840D01*
X0126447Y0183812D02*
X0126912Y0184277D01*
X0127298Y0184809D01*
X0127597Y0185395D01*
X0127800Y0186020D01*
X0127903Y0186670D01*
X0127903Y0186998D01*
X0121347Y0186998D01*
X0121347Y0186998D01*
X0121347Y0182820D01*
X0118640Y0182820D01*
X0117991Y0182923D01*
X0117366Y0183127D01*
X0116780Y0183425D01*
X0116248Y0183812D01*
X0115783Y0184277D01*
X0115396Y0184809D01*
X0115097Y0185395D01*
X0114894Y0186020D01*
X0114791Y0186670D01*
X0114791Y0186998D01*
X0121347Y0186998D01*
X0121347Y0186998D01*
X0121347Y0182820D01*
X0124054Y0182820D01*
X0124704Y0182923D01*
X0125329Y0183127D01*
X0125915Y0183425D01*
X0126447Y0183812D01*
X0127611Y0185438D02*
X0173619Y0185438D01*
X0173827Y0187037D02*
X0172943Y0187037D01*
X0173291Y0187385D02*
X0173900Y0188855D01*
X0173900Y0190447D01*
X0173291Y0191917D01*
X0172166Y0193042D01*
X0170696Y0193651D01*
X0163904Y0193651D01*
X0162434Y0193042D01*
X0161309Y0191917D01*
X0160700Y0190447D01*
X0160700Y0188855D01*
X0161309Y0187385D01*
X0162434Y0186260D01*
X0163904Y0185651D01*
X0170696Y0185651D01*
X0172166Y0186260D01*
X0173291Y0187385D01*
X0173809Y0188635D02*
X0174600Y0188635D01*
X0174600Y0190234D02*
X0173900Y0190234D01*
X0173326Y0191832D02*
X0174600Y0191832D01*
X0174600Y0193431D02*
X0171227Y0193431D01*
X0174600Y0195029D02*
X0153300Y0195029D01*
X0153300Y0195058D02*
X0150957Y0197401D01*
X0147643Y0197401D01*
X0145300Y0195058D01*
X0145300Y0191744D01*
X0147643Y0189401D01*
X0150957Y0189401D01*
X0153300Y0191744D01*
X0153300Y0195058D01*
X0153300Y0193431D02*
X0163373Y0193431D01*
X0161274Y0191832D02*
X0153300Y0191832D01*
X0151790Y0190234D02*
X0160700Y0190234D01*
X0160791Y0188635D02*
X0127580Y0188635D01*
X0127597Y0188602D02*
X0127298Y0189188D01*
X0126912Y0189720D01*
X0126447Y0190185D01*
X0126390Y0190226D01*
X0126928Y0190764D01*
X0127503Y0192152D01*
X0127503Y0193655D01*
X0126928Y0195044D01*
X0125865Y0196107D01*
X0124477Y0196682D01*
X0118218Y0196682D01*
X0116829Y0196107D01*
X0115766Y0195044D01*
X0115191Y0193655D01*
X0115191Y0192152D01*
X0115766Y0190764D01*
X0116304Y0190226D01*
X0116248Y0190185D01*
X0115783Y0189720D01*
X0115396Y0189188D01*
X0115097Y0188602D01*
X0114894Y0187977D01*
X0114791Y0187327D01*
X0114791Y0186998D01*
X0121347Y0186998D01*
X0121347Y0186998D01*
X0127903Y0186998D01*
X0127903Y0187327D01*
X0127800Y0187977D01*
X0127597Y0188602D01*
X0127903Y0187037D02*
X0161657Y0187037D01*
X0163985Y0183840D02*
X0174362Y0183840D01*
X0176800Y0185901D02*
X0176800Y0219026D01*
X0181800Y0224026D01*
X0181800Y0236526D01*
X0177800Y0236591D02*
X0175800Y0236591D01*
X0175800Y0238189D02*
X0177800Y0238189D01*
X0177800Y0239788D02*
X0175800Y0239788D01*
X0175800Y0239922D02*
X0175200Y0241370D01*
X0175200Y0245118D01*
X0178208Y0248126D01*
X0217476Y0248126D01*
X0218726Y0248644D01*
X0225708Y0255626D01*
X0237043Y0255626D01*
X0237643Y0255026D01*
X0240957Y0255026D01*
X0243300Y0257369D01*
X0243300Y0260683D01*
X0240957Y0263026D01*
X0237643Y0263026D01*
X0237043Y0262426D01*
X0223624Y0262426D01*
X0222374Y0261908D01*
X0221418Y0260952D01*
X0215392Y0254926D01*
X0176124Y0254926D01*
X0174874Y0254408D01*
X0173918Y0253452D01*
X0168918Y0248452D01*
X0168400Y0247202D01*
X0168400Y0241370D01*
X0167800Y0239922D01*
X0167800Y0233130D01*
X0168033Y0232567D01*
X0162892Y0227426D01*
X0158624Y0227426D01*
X0157374Y0226908D01*
X0156418Y0225952D01*
X0148918Y0218452D01*
X0148400Y0217202D01*
X0148400Y0211370D01*
X0147800Y0209922D01*
X0147800Y0203130D01*
X0148409Y0201660D01*
X0149534Y0200535D01*
X0151004Y0199926D01*
X0152596Y0199926D01*
X0154066Y0200535D01*
X0155191Y0201660D01*
X0155800Y0203130D01*
X0155800Y0209922D01*
X0155200Y0211370D01*
X0155200Y0215118D01*
X0160708Y0220626D01*
X0164976Y0220626D01*
X0166226Y0221144D01*
X0173726Y0228644D01*
X0174682Y0229600D01*
X0175200Y0230850D01*
X0175200Y0231682D01*
X0175800Y0233130D01*
X0175800Y0239922D01*
X0175200Y0241386D02*
X0178407Y0241386D01*
X0180664Y0242985D02*
X0175200Y0242985D01*
X0175200Y0244583D02*
X0240601Y0244583D01*
X0240250Y0244414D02*
X0239081Y0243679D01*
X0238000Y0242818D01*
X0237024Y0241841D01*
X0236162Y0240761D01*
X0235427Y0239591D01*
X0234828Y0238347D01*
X0234372Y0237043D01*
X0234064Y0235696D01*
X0233922Y0234432D01*
X0245409Y0234432D01*
X0245409Y0245920D01*
X0244146Y0245778D01*
X0242799Y0245470D01*
X0241495Y0245014D01*
X0240250Y0244414D01*
X0238209Y0242985D02*
X0222936Y0242985D01*
X0222596Y0243126D02*
X0221004Y0243126D01*
X0219534Y0242517D01*
X0218409Y0241392D01*
X0217800Y0239922D01*
X0217800Y0233130D01*
X0218409Y0231660D01*
X0219534Y0230535D01*
X0221004Y0229926D01*
X0222596Y0229926D01*
X0224066Y0230535D01*
X0225191Y0231660D01*
X0225800Y0233130D01*
X0225800Y0239922D01*
X0225191Y0241392D01*
X0224066Y0242517D01*
X0222596Y0243126D01*
X0220664Y0242985D02*
X0212936Y0242985D01*
X0210664Y0242985D02*
X0202936Y0242985D01*
X0202596Y0243126D02*
X0201004Y0243126D01*
X0199534Y0242517D01*
X0198409Y0241392D01*
X0197800Y0239922D01*
X0197800Y0233130D01*
X0198409Y0231660D01*
X0199534Y0230535D01*
X0201004Y0229926D01*
X0202596Y0229926D01*
X0204066Y0230535D01*
X0205191Y0231660D01*
X0205800Y0233130D01*
X0205800Y0239922D01*
X0205191Y0241392D01*
X0204066Y0242517D01*
X0202596Y0243126D01*
X0200664Y0242985D02*
X0192936Y0242985D01*
X0190664Y0242985D02*
X0182936Y0242985D01*
X0185193Y0241386D02*
X0188407Y0241386D01*
X0187800Y0239788D02*
X0185800Y0239788D01*
X0185800Y0238189D02*
X0187800Y0238189D01*
X0187800Y0236591D02*
X0185800Y0236591D01*
X0185800Y0234992D02*
X0187800Y0234992D01*
X0187800Y0233394D02*
X0185800Y0233394D01*
X0185247Y0231795D02*
X0188353Y0231795D01*
X0189600Y0230197D02*
X0184000Y0230197D01*
X0184000Y0228598D02*
X0189600Y0228598D01*
X0189600Y0227000D02*
X0184000Y0227000D01*
X0184000Y0225401D02*
X0189600Y0225401D01*
X0189600Y0223803D02*
X0184000Y0223803D01*
X0183089Y0222204D02*
X0190511Y0222204D01*
X0191800Y0224026D02*
X0199300Y0216526D01*
X0224300Y0216526D01*
X0229300Y0211526D01*
X0229300Y0184026D01*
X0236800Y0176526D01*
X0244300Y0176526D01*
X0246800Y0174026D01*
X0246800Y0154026D01*
X0244458Y0151870D02*
X0195583Y0151870D01*
X0193985Y0150271D02*
X0197434Y0150271D01*
X0199300Y0149026D02*
X0194300Y0144026D01*
X0194300Y0086526D01*
X0171530Y0094323D02*
X0168309Y0094323D01*
X0168833Y0095922D02*
X0171150Y0095922D01*
X0171150Y0097520D02*
X0168771Y0097520D01*
X0168067Y0099119D02*
X0171920Y0099119D01*
X0162530Y0110308D02*
X0144195Y0110308D01*
X0136700Y0126293D02*
X0134000Y0126293D01*
X0134000Y0127892D02*
X0136700Y0127892D01*
X0136700Y0129491D02*
X0134000Y0129491D01*
X0134000Y0131089D02*
X0136700Y0131089D01*
X0136700Y0132688D02*
X0134000Y0132688D01*
X0134000Y0134286D02*
X0136700Y0134286D01*
X0136700Y0135885D02*
X0134000Y0135885D01*
X0134000Y0137483D02*
X0136700Y0137483D01*
X0136700Y0139082D02*
X0134000Y0139082D01*
X0134000Y0140680D02*
X0136700Y0140680D01*
X0136700Y0142279D02*
X0134519Y0142279D01*
X0134981Y0143877D02*
X0136700Y0143877D01*
X0136673Y0145476D02*
X0134643Y0145476D01*
X0135075Y0147074D02*
X0132754Y0147074D01*
X0133476Y0148673D02*
X0117926Y0148673D01*
X0118472Y0147074D02*
X0130846Y0147074D01*
X0128957Y0145476D02*
X0118380Y0145476D01*
X0117551Y0143877D02*
X0128619Y0143877D01*
X0129081Y0142279D02*
X0109400Y0142279D01*
X0109400Y0143877D02*
X0111049Y0143877D01*
X0110220Y0145476D02*
X0109400Y0145476D01*
X0109400Y0147074D02*
X0110128Y0147074D01*
X0110674Y0148673D02*
X0109400Y0148673D01*
X0104200Y0148673D02*
X0084000Y0148673D01*
X0084000Y0150271D02*
X0104200Y0150271D01*
X0102779Y0151870D02*
X0084000Y0151870D01*
X0084000Y0153468D02*
X0101181Y0153468D01*
X0105338Y0156665D02*
X0110128Y0156665D01*
X0110389Y0155067D02*
X0106936Y0155067D01*
X0103739Y0158264D02*
X0110504Y0158264D01*
X0111737Y0159862D02*
X0102141Y0159862D01*
X0098772Y0161461D02*
X0180384Y0161461D01*
X0180443Y0161603D02*
X0179750Y0159931D01*
X0179750Y0158121D01*
X0180443Y0156449D01*
X0181723Y0155169D01*
X0183395Y0154476D01*
X0185205Y0154476D01*
X0186877Y0155169D01*
X0188157Y0156449D01*
X0188850Y0158121D01*
X0188850Y0159931D01*
X0188157Y0161603D01*
X0186877Y0162883D01*
X0185205Y0163576D01*
X0183395Y0163576D01*
X0181723Y0162883D01*
X0180443Y0161603D01*
X0179750Y0159862D02*
X0167429Y0159862D01*
X0167278Y0160013D02*
X0166696Y0160436D01*
X0166055Y0160763D01*
X0165371Y0160985D01*
X0164660Y0161098D01*
X0164386Y0161098D01*
X0164386Y0156612D01*
X0164214Y0156612D01*
X0164214Y0161098D01*
X0163940Y0161098D01*
X0163229Y0160985D01*
X0162545Y0160763D01*
X0161904Y0160436D01*
X0161322Y0160013D01*
X0160813Y0159504D01*
X0160390Y0158922D01*
X0160063Y0158281D01*
X0159841Y0157597D01*
X0159728Y0156886D01*
X0159728Y0156612D01*
X0164214Y0156612D01*
X0164214Y0156440D01*
X0164386Y0156440D01*
X0164386Y0156612D01*
X0168872Y0156612D01*
X0168872Y0156886D01*
X0168759Y0157597D01*
X0168537Y0158281D01*
X0168210Y0158922D01*
X0167787Y0159504D01*
X0167278Y0160013D01*
X0168542Y0158264D02*
X0179750Y0158264D01*
X0180353Y0156665D02*
X0168872Y0156665D01*
X0168872Y0156440D02*
X0164386Y0156440D01*
X0164386Y0151954D01*
X0164660Y0151954D01*
X0165371Y0152067D01*
X0166055Y0152289D01*
X0166696Y0152616D01*
X0167278Y0153039D01*
X0167787Y0153548D01*
X0168210Y0154130D01*
X0168537Y0154771D01*
X0168759Y0155455D01*
X0168872Y0156166D01*
X0168872Y0156440D01*
X0168633Y0155067D02*
X0181969Y0155067D01*
X0185303Y0153468D02*
X0167707Y0153468D01*
X0164386Y0153468D02*
X0164214Y0153468D01*
X0164214Y0151954D02*
X0164214Y0156440D01*
X0159728Y0156440D01*
X0159728Y0156166D01*
X0159841Y0155455D01*
X0160063Y0154771D01*
X0160390Y0154130D01*
X0160813Y0153548D01*
X0161322Y0153039D01*
X0161904Y0152616D01*
X0162545Y0152289D01*
X0163229Y0152067D01*
X0163940Y0151954D01*
X0164214Y0151954D01*
X0163470Y0150698D02*
X0161937Y0150063D01*
X0161400Y0149526D01*
X0150129Y0149526D01*
X0149689Y0149966D01*
X0148198Y0150583D01*
X0146583Y0150583D01*
X0145092Y0149966D01*
X0143951Y0148824D01*
X0143333Y0147333D01*
X0143333Y0145719D01*
X0143951Y0144228D01*
X0145092Y0143086D01*
X0146583Y0142469D01*
X0148198Y0142469D01*
X0149689Y0143086D01*
X0150129Y0143526D01*
X0161400Y0143526D01*
X0161937Y0142989D01*
X0163470Y0142354D01*
X0165130Y0142354D01*
X0166663Y0142989D01*
X0167837Y0144163D01*
X0168472Y0145696D01*
X0168472Y0147356D01*
X0167837Y0148889D01*
X0166663Y0150063D01*
X0165130Y0150698D01*
X0163470Y0150698D01*
X0162441Y0150271D02*
X0148952Y0150271D01*
X0145830Y0150271D02*
X0139232Y0150271D01*
X0140830Y0148673D02*
X0143888Y0148673D01*
X0143333Y0147074D02*
X0141887Y0147074D01*
X0141900Y0145476D02*
X0143434Y0145476D01*
X0144301Y0143877D02*
X0141900Y0143877D01*
X0141900Y0142279D02*
X0170100Y0142279D01*
X0170100Y0143877D02*
X0167551Y0143877D01*
X0168380Y0145476D02*
X0170354Y0145476D01*
X0171408Y0147074D02*
X0168472Y0147074D01*
X0167926Y0148673D02*
X0173007Y0148673D01*
X0174605Y0150271D02*
X0166159Y0150271D01*
X0164386Y0155067D02*
X0164214Y0155067D01*
X0164214Y0156665D02*
X0164386Y0156665D01*
X0164386Y0158264D02*
X0164214Y0158264D01*
X0164214Y0159862D02*
X0164386Y0159862D01*
X0165130Y0162354D02*
X0166663Y0162989D01*
X0167837Y0164163D01*
X0168472Y0165696D01*
X0168472Y0167356D01*
X0167837Y0168889D01*
X0166663Y0170063D01*
X0165130Y0170698D01*
X0163470Y0170698D01*
X0161937Y0170063D01*
X0160763Y0168889D01*
X0160128Y0167356D01*
X0160128Y0165696D01*
X0160763Y0164163D01*
X0161937Y0162989D01*
X0163470Y0162354D01*
X0165130Y0162354D01*
X0166733Y0163059D02*
X0182147Y0163059D01*
X0182250Y0164076D02*
X0179350Y0166976D01*
X0179350Y0169026D01*
X0184300Y0169026D01*
X0184300Y0169026D01*
X0184300Y0173976D01*
X0186350Y0173976D01*
X0189250Y0171076D01*
X0189250Y0169026D01*
X0184300Y0169026D01*
X0184300Y0173976D01*
X0182250Y0173976D01*
X0179350Y0171076D01*
X0179350Y0169026D01*
X0184300Y0169026D01*
X0184300Y0169026D01*
X0184300Y0169026D01*
X0189250Y0169026D01*
X0189250Y0166976D01*
X0186350Y0164076D01*
X0184300Y0164076D01*
X0184300Y0169026D01*
X0184300Y0169026D01*
X0184300Y0164076D01*
X0182250Y0164076D01*
X0181668Y0164658D02*
X0168042Y0164658D01*
X0168472Y0166256D02*
X0180069Y0166256D01*
X0179350Y0167855D02*
X0168265Y0167855D01*
X0167272Y0169453D02*
X0179350Y0169453D01*
X0179350Y0171052D02*
X0161937Y0171052D01*
X0161328Y0169453D02*
X0160339Y0169453D01*
X0160335Y0167855D02*
X0158740Y0167855D01*
X0160128Y0166256D02*
X0157142Y0166256D01*
X0155543Y0164658D02*
X0160558Y0164658D01*
X0161867Y0163059D02*
X0116733Y0163059D01*
X0116863Y0159862D02*
X0161171Y0159862D01*
X0160058Y0158264D02*
X0118096Y0158264D01*
X0118472Y0156665D02*
X0159728Y0156665D01*
X0159967Y0155067D02*
X0118211Y0155067D01*
X0111867Y0163059D02*
X0083378Y0163059D01*
X0084000Y0161461D02*
X0094828Y0161461D01*
X0093229Y0159862D02*
X0084000Y0159862D01*
X0084000Y0158264D02*
X0092800Y0158264D01*
X0092800Y0156665D02*
X0084000Y0156665D01*
X0084000Y0155067D02*
X0093852Y0155067D01*
X0084000Y0147074D02*
X0104200Y0147074D01*
X0104200Y0145476D02*
X0083861Y0145476D01*
X0082262Y0143877D02*
X0104200Y0143877D01*
X0104200Y0142279D02*
X0080664Y0142279D01*
X0079065Y0140680D02*
X0104200Y0140680D01*
X0104200Y0139082D02*
X0077467Y0139082D01*
X0075868Y0137483D02*
X0104200Y0137483D01*
X0104200Y0135885D02*
X0074270Y0135885D01*
X0072671Y0134286D02*
X0104200Y0134286D01*
X0104200Y0132688D02*
X0100351Y0132688D01*
X0101900Y0131089D02*
X0104200Y0131089D01*
X0104200Y0129491D02*
X0101900Y0129491D01*
X0101900Y0127892D02*
X0104200Y0127892D01*
X0104200Y0126293D02*
X0101280Y0126293D01*
X0099681Y0124695D02*
X0104200Y0124695D01*
X0104200Y0123096D02*
X0099942Y0123096D01*
X0105485Y0116702D02*
X0110128Y0116702D01*
X0110128Y0117356D02*
X0110128Y0115696D01*
X0110763Y0114163D01*
X0111937Y0112989D01*
X0113470Y0112354D01*
X0115130Y0112354D01*
X0116663Y0112989D01*
X0117837Y0114163D01*
X0118472Y0115696D01*
X0118472Y0117356D01*
X0117837Y0118889D01*
X0116663Y0120063D01*
X0115130Y0120698D01*
X0113470Y0120698D01*
X0111937Y0120063D01*
X0110763Y0118889D01*
X0110128Y0117356D01*
X0110520Y0118301D02*
X0107252Y0118301D01*
X0108273Y0119322D02*
X0108273Y0119322D01*
X0108850Y0119899D02*
X0111774Y0119899D01*
X0109400Y0121498D02*
X0126161Y0121498D01*
X0127759Y0123096D02*
X0116770Y0123096D01*
X0116663Y0122989D02*
X0117837Y0124163D01*
X0118472Y0125696D01*
X0118472Y0127356D01*
X0117837Y0128889D01*
X0116663Y0130063D01*
X0115130Y0130698D01*
X0113470Y0130698D01*
X0111937Y0130063D01*
X0110763Y0128889D01*
X0110128Y0127356D01*
X0110128Y0125696D01*
X0110763Y0124163D01*
X0111937Y0122989D01*
X0113470Y0122354D01*
X0115130Y0122354D01*
X0116663Y0122989D01*
X0118057Y0124695D02*
X0129358Y0124695D01*
X0129600Y0126293D02*
X0118472Y0126293D01*
X0118250Y0127892D02*
X0129600Y0127892D01*
X0129600Y0129491D02*
X0117235Y0129491D01*
X0115934Y0132688D02*
X0129600Y0132688D01*
X0129600Y0134286D02*
X0117888Y0134286D01*
X0117837Y0134163D02*
X0118472Y0135696D01*
X0118472Y0137356D01*
X0117837Y0138889D01*
X0116663Y0140063D01*
X0115130Y0140698D01*
X0113470Y0140698D01*
X0111937Y0140063D01*
X0110763Y0138889D01*
X0110128Y0137356D01*
X0110128Y0135696D01*
X0110763Y0134163D01*
X0111937Y0132989D01*
X0113470Y0132354D01*
X0115130Y0132354D01*
X0116663Y0132989D01*
X0117837Y0134163D01*
X0118472Y0135885D02*
X0129600Y0135885D01*
X0129600Y0137483D02*
X0118419Y0137483D01*
X0117644Y0139082D02*
X0129600Y0139082D01*
X0129600Y0140680D02*
X0115172Y0140680D01*
X0113428Y0140680D02*
X0109400Y0140680D01*
X0109400Y0139082D02*
X0110956Y0139082D01*
X0110181Y0137483D02*
X0109400Y0137483D01*
X0109400Y0135885D02*
X0110128Y0135885D01*
X0110712Y0134286D02*
X0109400Y0134286D01*
X0109400Y0132688D02*
X0112666Y0132688D01*
X0111365Y0129491D02*
X0109400Y0129491D01*
X0109400Y0131089D02*
X0129600Y0131089D01*
X0131800Y0124026D02*
X0114300Y0106526D01*
X0112530Y0110308D02*
X0106174Y0110308D01*
X0107773Y0108710D02*
X0110689Y0108710D01*
X0110128Y0107111D02*
X0108300Y0107111D01*
X0108300Y0105513D02*
X0110204Y0105513D01*
X0111012Y0103914D02*
X0107345Y0103914D01*
X0106068Y0099119D02*
X0110993Y0099119D01*
X0110196Y0097520D02*
X0107667Y0097520D01*
X0109265Y0095922D02*
X0110128Y0095922D01*
X0112462Y0092725D02*
X0112576Y0092725D01*
X0116570Y0111907D02*
X0066500Y0111907D01*
X0066500Y0113505D02*
X0111421Y0113505D01*
X0110374Y0115104D02*
X0100090Y0115104D01*
X0093510Y0115104D02*
X0090090Y0115104D01*
X0091689Y0116702D02*
X0091911Y0116702D01*
X0083510Y0115104D02*
X0080090Y0115104D01*
X0081689Y0116702D02*
X0081911Y0116702D01*
X0073510Y0115104D02*
X0066500Y0115104D01*
X0066500Y0116702D02*
X0071911Y0116702D01*
X0071700Y0118301D02*
X0066500Y0118301D01*
X0066500Y0119899D02*
X0071700Y0119899D01*
X0072059Y0121498D02*
X0066500Y0121498D01*
X0066500Y0123096D02*
X0073658Y0123096D01*
X0073919Y0124695D02*
X0066500Y0124695D01*
X0066500Y0126293D02*
X0072320Y0126293D01*
X0071700Y0127892D02*
X0066500Y0127892D01*
X0067876Y0129491D02*
X0071700Y0129491D01*
X0071700Y0131089D02*
X0069474Y0131089D01*
X0071073Y0132688D02*
X0073249Y0132688D01*
X0080351Y0132688D02*
X0083249Y0132688D01*
X0090351Y0132688D02*
X0093249Y0132688D01*
X0109400Y0127892D02*
X0110350Y0127892D01*
X0110128Y0126293D02*
X0109400Y0126293D01*
X0109400Y0124695D02*
X0110543Y0124695D01*
X0109400Y0123096D02*
X0111830Y0123096D01*
X0116826Y0119899D02*
X0124562Y0119899D01*
X0122964Y0118301D02*
X0118080Y0118301D01*
X0118472Y0116702D02*
X0121365Y0116702D01*
X0119767Y0115104D02*
X0118226Y0115104D01*
X0118168Y0113505D02*
X0117179Y0113505D01*
X0131800Y0124026D02*
X0131800Y0144026D01*
X0137633Y0151870D02*
X0176204Y0151870D01*
X0180091Y0143877D02*
X0192100Y0143877D01*
X0192100Y0142279D02*
X0178500Y0142279D01*
X0170100Y0140680D02*
X0165172Y0140680D01*
X0165130Y0140698D02*
X0163470Y0140698D01*
X0161937Y0140063D01*
X0160763Y0138889D01*
X0160128Y0137356D01*
X0160128Y0135696D01*
X0160763Y0134163D01*
X0161937Y0132989D01*
X0163470Y0132354D01*
X0165130Y0132354D01*
X0166663Y0132989D01*
X0167837Y0134163D01*
X0168472Y0135696D01*
X0168472Y0137356D01*
X0167837Y0138889D01*
X0166663Y0140063D01*
X0165130Y0140698D01*
X0163428Y0140680D02*
X0141900Y0140680D01*
X0141900Y0139082D02*
X0160956Y0139082D01*
X0160181Y0137483D02*
X0141900Y0137483D01*
X0141900Y0135885D02*
X0160128Y0135885D01*
X0160712Y0134286D02*
X0141900Y0134286D01*
X0141900Y0132688D02*
X0162666Y0132688D01*
X0165934Y0132688D02*
X0170100Y0132688D01*
X0170100Y0134286D02*
X0167888Y0134286D01*
X0168472Y0135885D02*
X0170100Y0135885D01*
X0170100Y0137483D02*
X0168419Y0137483D01*
X0167644Y0139082D02*
X0170100Y0139082D01*
X0160892Y0153468D02*
X0136035Y0153468D01*
X0154300Y0166526D02*
X0164300Y0176526D01*
X0191800Y0176526D01*
X0201800Y0186526D01*
X0216800Y0186526D01*
X0221800Y0191526D01*
X0221800Y0206526D01*
X0225800Y0206219D02*
X0227100Y0206219D01*
X0227100Y0204621D02*
X0225800Y0204621D01*
X0225755Y0203022D02*
X0227100Y0203022D01*
X0227100Y0201424D02*
X0224954Y0201424D01*
X0224000Y0199825D02*
X0227100Y0199825D01*
X0227100Y0198227D02*
X0224000Y0198227D01*
X0224000Y0196628D02*
X0227100Y0196628D01*
X0227100Y0195029D02*
X0224000Y0195029D01*
X0224000Y0193431D02*
X0227100Y0193431D01*
X0227100Y0191832D02*
X0224000Y0191832D01*
X0223619Y0190234D02*
X0227100Y0190234D01*
X0227100Y0188635D02*
X0222021Y0188635D01*
X0220422Y0187037D02*
X0227100Y0187037D01*
X0227100Y0185438D02*
X0218824Y0185438D01*
X0216123Y0183426D02*
X0218700Y0180849D01*
X0218700Y0179026D01*
X0214300Y0179026D01*
X0214300Y0179026D01*
X0214300Y0183426D01*
X0216123Y0183426D01*
X0217307Y0182241D02*
X0227973Y0182241D01*
X0227100Y0183840D02*
X0202225Y0183840D01*
X0202643Y0183026D02*
X0200300Y0180683D01*
X0200300Y0177369D01*
X0202643Y0175026D01*
X0205957Y0175026D01*
X0208300Y0177369D01*
X0208300Y0180683D01*
X0205957Y0183026D01*
X0202643Y0183026D01*
X0201859Y0182241D02*
X0200627Y0182241D01*
X0200300Y0180643D02*
X0199028Y0180643D01*
X0200300Y0179044D02*
X0197430Y0179044D01*
X0195831Y0177446D02*
X0200300Y0177446D01*
X0201822Y0175847D02*
X0194233Y0175847D01*
X0191207Y0179044D02*
X0163817Y0179044D01*
X0161800Y0181526D02*
X0189300Y0181526D01*
X0196800Y0189026D01*
X0196800Y0194026D01*
X0191800Y0199026D01*
X0191800Y0206526D01*
X0195800Y0206219D02*
X0197800Y0206219D01*
X0197800Y0204621D02*
X0195800Y0204621D01*
X0195755Y0203022D02*
X0197845Y0203022D01*
X0197800Y0203130D02*
X0198409Y0201660D01*
X0199534Y0200535D01*
X0201004Y0199926D01*
X0202596Y0199926D01*
X0204066Y0200535D01*
X0205191Y0201660D01*
X0205800Y0203130D01*
X0205800Y0209922D01*
X0205191Y0211392D01*
X0204066Y0212517D01*
X0202596Y0213126D01*
X0201004Y0213126D01*
X0199534Y0212517D01*
X0198409Y0211392D01*
X0197800Y0209922D01*
X0197800Y0203130D01*
X0198646Y0201424D02*
X0194954Y0201424D01*
X0194112Y0199825D02*
X0219600Y0199825D01*
X0219600Y0198227D02*
X0195711Y0198227D01*
X0197309Y0196628D02*
X0201304Y0196628D01*
X0202477Y0197801D02*
X0199900Y0195224D01*
X0199900Y0193401D01*
X0204300Y0193401D01*
X0204300Y0193401D01*
X0204300Y0197801D01*
X0206123Y0197801D01*
X0208700Y0195224D01*
X0208700Y0193401D01*
X0204300Y0193401D01*
X0204300Y0193401D01*
X0204300Y0197801D01*
X0202477Y0197801D01*
X0204300Y0196628D02*
X0204300Y0196628D01*
X0204300Y0195029D02*
X0204300Y0195029D01*
X0204300Y0193431D02*
X0204300Y0193431D01*
X0204300Y0193401D02*
X0204300Y0193401D01*
X0208700Y0193401D01*
X0208700Y0191578D01*
X0206123Y0189001D01*
X0204300Y0189001D01*
X0204300Y0193401D01*
X0204300Y0193401D01*
X0204300Y0189001D01*
X0202477Y0189001D01*
X0199900Y0191578D01*
X0199900Y0193401D01*
X0204300Y0193401D01*
X0204300Y0191832D02*
X0204300Y0191832D01*
X0204300Y0190234D02*
X0204300Y0190234D01*
X0201245Y0190234D02*
X0199000Y0190234D01*
X0199000Y0191832D02*
X0199900Y0191832D01*
X0199900Y0193431D02*
X0199000Y0193431D01*
X0198908Y0195029D02*
X0199900Y0195029D01*
X0194284Y0193431D02*
X0190227Y0193431D01*
X0192326Y0191832D02*
X0194600Y0191832D01*
X0194600Y0190234D02*
X0192900Y0190234D01*
X0192809Y0188635D02*
X0193298Y0188635D01*
X0196324Y0185438D02*
X0197601Y0185438D01*
X0197922Y0187037D02*
X0199200Y0187037D01*
X0199000Y0188635D02*
X0200798Y0188635D01*
X0196003Y0183840D02*
X0194725Y0183840D01*
X0194404Y0182241D02*
X0193127Y0182241D01*
X0192806Y0180643D02*
X0191528Y0180643D01*
X0188503Y0183840D02*
X0179238Y0183840D01*
X0179981Y0185438D02*
X0190101Y0185438D01*
X0180657Y0187037D02*
X0179773Y0187037D01*
X0179791Y0188635D02*
X0179000Y0188635D01*
X0179000Y0190234D02*
X0179700Y0190234D01*
X0180274Y0191832D02*
X0179000Y0191832D01*
X0179000Y0193431D02*
X0182373Y0193431D01*
X0179000Y0195029D02*
X0192685Y0195029D01*
X0191087Y0196628D02*
X0179000Y0196628D01*
X0179000Y0198227D02*
X0189600Y0198227D01*
X0189600Y0199825D02*
X0179000Y0199825D01*
X0174600Y0199825D02*
X0163417Y0199825D01*
X0163489Y0199848D02*
X0164106Y0200163D01*
X0164666Y0200570D01*
X0165156Y0201060D01*
X0165563Y0201620D01*
X0165878Y0202237D01*
X0166092Y0202896D01*
X0166200Y0203580D01*
X0166200Y0206526D01*
X0166200Y0209472D01*
X0166092Y0210156D01*
X0165878Y0210815D01*
X0165563Y0211432D01*
X0165156Y0211992D01*
X0164666Y0212482D01*
X0164106Y0212889D01*
X0163489Y0213204D01*
X0162830Y0213418D01*
X0162146Y0213526D01*
X0161800Y0213526D01*
X0161800Y0206526D01*
X0161800Y0206526D01*
X0166200Y0206526D01*
X0161800Y0206526D01*
X0161800Y0206526D01*
X0161800Y0213526D01*
X0161454Y0213526D01*
X0160770Y0213418D01*
X0160111Y0213204D01*
X0159494Y0212889D01*
X0158934Y0212482D01*
X0158444Y0211992D01*
X0158037Y0211432D01*
X0157722Y0210815D01*
X0157508Y0210156D01*
X0157400Y0209472D01*
X0157400Y0206526D01*
X0161800Y0206526D01*
X0161800Y0206526D01*
X0161800Y0199526D01*
X0162146Y0199526D01*
X0162830Y0199634D01*
X0163489Y0199848D01*
X0161800Y0199825D02*
X0161800Y0199825D01*
X0161800Y0199526D02*
X0161800Y0206526D01*
X0161800Y0206526D01*
X0157400Y0206526D01*
X0157400Y0203580D01*
X0157508Y0202896D01*
X0157722Y0202237D01*
X0158037Y0201620D01*
X0158444Y0201060D01*
X0158934Y0200570D01*
X0159494Y0200163D01*
X0160111Y0199848D01*
X0160770Y0199634D01*
X0161454Y0199526D01*
X0161800Y0199526D01*
X0160183Y0199825D02*
X0109000Y0199825D01*
X0109000Y0198227D02*
X0174600Y0198227D01*
X0174600Y0196628D02*
X0151730Y0196628D01*
X0146870Y0196628D02*
X0142296Y0196628D01*
X0141123Y0197801D02*
X0139300Y0197801D01*
X0139300Y0193401D01*
X0139300Y0193401D01*
X0143700Y0193401D01*
X0143700Y0195224D01*
X0141123Y0197801D01*
X0139300Y0197801D02*
X0139300Y0193401D01*
X0139300Y0193401D01*
X0139300Y0193401D01*
X0134900Y0193401D01*
X0134900Y0195224D01*
X0137477Y0197801D01*
X0139300Y0197801D01*
X0139300Y0196628D02*
X0139300Y0196628D01*
X0139300Y0195029D02*
X0139300Y0195029D01*
X0139300Y0193431D02*
X0139300Y0193431D01*
X0139300Y0193401D02*
X0143700Y0193401D01*
X0143700Y0191578D01*
X0141123Y0189001D01*
X0139300Y0189001D01*
X0139300Y0193401D01*
X0139300Y0193401D01*
X0139300Y0189001D01*
X0137477Y0189001D01*
X0134900Y0191578D01*
X0134900Y0193401D01*
X0139300Y0193401D01*
X0139300Y0191832D02*
X0139300Y0191832D01*
X0139300Y0190234D02*
X0139300Y0190234D01*
X0142355Y0190234D02*
X0146810Y0190234D01*
X0145300Y0191832D02*
X0143700Y0191832D01*
X0143700Y0193431D02*
X0145300Y0193431D01*
X0145300Y0195029D02*
X0143700Y0195029D01*
X0142596Y0199926D02*
X0144066Y0200535D01*
X0145191Y0201660D01*
X0145800Y0203130D01*
X0145800Y0209922D01*
X0145191Y0211392D01*
X0144066Y0212517D01*
X0142596Y0213126D01*
X0141004Y0213126D01*
X0139534Y0212517D01*
X0138409Y0211392D01*
X0137800Y0209922D01*
X0137800Y0203130D01*
X0138409Y0201660D01*
X0139534Y0200535D01*
X0141004Y0199926D01*
X0142596Y0199926D01*
X0144954Y0201424D02*
X0148646Y0201424D01*
X0147845Y0203022D02*
X0145755Y0203022D01*
X0145800Y0204621D02*
X0147800Y0204621D01*
X0147800Y0206219D02*
X0145800Y0206219D01*
X0145800Y0207818D02*
X0147800Y0207818D01*
X0147800Y0209416D02*
X0145800Y0209416D01*
X0145347Y0211015D02*
X0148253Y0211015D01*
X0148400Y0212613D02*
X0143834Y0212613D01*
X0148400Y0214212D02*
X0127597Y0214212D01*
X0129195Y0215810D02*
X0148400Y0215810D01*
X0148485Y0217409D02*
X0130794Y0217409D01*
X0131500Y0218115D02*
X0131500Y0224937D01*
X0129356Y0227081D01*
X0129356Y0227784D01*
X0128872Y0228953D01*
X0127977Y0229848D01*
X0126808Y0230332D01*
X0125542Y0230332D01*
X0124373Y0229848D01*
X0123478Y0228953D01*
X0122994Y0227784D01*
X0122994Y0226518D01*
X0123478Y0225349D01*
X0124373Y0224454D01*
X0125542Y0223970D01*
X0126245Y0223970D01*
X0127100Y0223115D01*
X0127100Y0219937D01*
X0120889Y0213726D01*
X0120889Y0213726D01*
X0119783Y0212620D01*
X0119534Y0212517D01*
X0118409Y0211392D01*
X0117800Y0209922D01*
X0117800Y0203130D01*
X0118409Y0201660D01*
X0119534Y0200535D01*
X0121004Y0199926D01*
X0122596Y0199926D01*
X0124066Y0200535D01*
X0125191Y0201660D01*
X0125800Y0203130D01*
X0125800Y0209922D01*
X0125191Y0211392D01*
X0124984Y0211599D01*
X0131500Y0218115D01*
X0131500Y0219007D02*
X0149473Y0219007D01*
X0151071Y0220606D02*
X0131500Y0220606D01*
X0131500Y0222204D02*
X0152670Y0222204D01*
X0154268Y0223803D02*
X0131500Y0223803D01*
X0131036Y0225401D02*
X0155867Y0225401D01*
X0157595Y0227000D02*
X0129438Y0227000D01*
X0129019Y0228598D02*
X0164064Y0228598D01*
X0163249Y0230197D02*
X0165662Y0230197D01*
X0165247Y0231795D02*
X0167261Y0231795D01*
X0167800Y0233394D02*
X0165800Y0233394D01*
X0165800Y0234992D02*
X0167800Y0234992D01*
X0167800Y0236591D02*
X0165800Y0236591D01*
X0165800Y0238189D02*
X0167800Y0238189D01*
X0167800Y0239788D02*
X0165800Y0239788D01*
X0165193Y0241386D02*
X0168400Y0241386D01*
X0168400Y0246182D02*
X0112067Y0246182D01*
X0113666Y0247780D02*
X0168639Y0247780D01*
X0169845Y0249379D02*
X0157764Y0249379D01*
X0159363Y0250977D02*
X0171443Y0250977D01*
X0173042Y0252576D02*
X0160961Y0252576D01*
X0162560Y0254174D02*
X0174640Y0254174D01*
X0177863Y0247780D02*
X0256220Y0247780D01*
X0256220Y0246182D02*
X0176264Y0246182D01*
X0175800Y0234992D02*
X0177800Y0234992D01*
X0177800Y0233394D02*
X0175800Y0233394D01*
X0175247Y0231795D02*
X0178353Y0231795D01*
X0179600Y0230197D02*
X0174930Y0230197D01*
X0173681Y0228598D02*
X0179600Y0228598D01*
X0179600Y0227000D02*
X0172082Y0227000D01*
X0170484Y0225401D02*
X0179600Y0225401D01*
X0178465Y0223803D02*
X0168885Y0223803D01*
X0167287Y0222204D02*
X0176867Y0222204D01*
X0175268Y0220606D02*
X0160688Y0220606D01*
X0159089Y0219007D02*
X0174600Y0219007D01*
X0174600Y0217409D02*
X0157491Y0217409D01*
X0155892Y0215810D02*
X0174600Y0215810D01*
X0174600Y0214212D02*
X0155200Y0214212D01*
X0155200Y0212613D02*
X0159114Y0212613D01*
X0157824Y0211015D02*
X0155347Y0211015D01*
X0155800Y0209416D02*
X0157400Y0209416D01*
X0157400Y0207818D02*
X0155800Y0207818D01*
X0155800Y0206219D02*
X0157400Y0206219D01*
X0157400Y0204621D02*
X0155800Y0204621D01*
X0155755Y0203022D02*
X0157488Y0203022D01*
X0158179Y0201424D02*
X0154954Y0201424D01*
X0161800Y0201424D02*
X0161800Y0201424D01*
X0161800Y0203022D02*
X0161800Y0203022D01*
X0161800Y0204621D02*
X0161800Y0204621D01*
X0161800Y0206219D02*
X0161800Y0206219D01*
X0161800Y0207818D02*
X0161800Y0207818D01*
X0161800Y0209416D02*
X0161800Y0209416D01*
X0161800Y0211015D02*
X0161800Y0211015D01*
X0161800Y0212613D02*
X0161800Y0212613D01*
X0164486Y0212613D02*
X0169766Y0212613D01*
X0168253Y0211015D02*
X0165776Y0211015D01*
X0166200Y0209416D02*
X0167800Y0209416D01*
X0167800Y0207818D02*
X0166200Y0207818D01*
X0166200Y0206219D02*
X0167800Y0206219D01*
X0167800Y0204621D02*
X0166200Y0204621D01*
X0166112Y0203022D02*
X0167845Y0203022D01*
X0168646Y0201424D02*
X0165421Y0201424D01*
X0173834Y0212613D02*
X0174600Y0212613D01*
X0179000Y0212613D02*
X0179766Y0212613D01*
X0179000Y0214212D02*
X0223503Y0214212D01*
X0223834Y0212613D02*
X0225102Y0212613D01*
X0225347Y0211015D02*
X0226700Y0211015D01*
X0227100Y0209416D02*
X0225800Y0209416D01*
X0225800Y0207818D02*
X0227100Y0207818D01*
X0231500Y0207818D02*
X0232100Y0207818D01*
X0232100Y0209416D02*
X0231500Y0209416D01*
X0231500Y0211015D02*
X0232100Y0211015D01*
X0232100Y0212613D02*
X0231324Y0212613D01*
X0232100Y0214212D02*
X0229726Y0214212D01*
X0228127Y0215810D02*
X0231905Y0215810D01*
X0230306Y0217409D02*
X0226529Y0217409D01*
X0228708Y0219007D02*
X0199930Y0219007D01*
X0198332Y0220606D02*
X0227109Y0220606D01*
X0226800Y0224026D02*
X0234300Y0216526D01*
X0234300Y0186526D01*
X0239300Y0181526D01*
X0246800Y0181526D01*
X0251800Y0176526D01*
X0251800Y0151526D01*
X0249300Y0149026D01*
X0199300Y0149026D01*
X0198861Y0145476D02*
X0200138Y0145476D01*
X0195835Y0148673D02*
X0192386Y0148673D01*
X0190788Y0147074D02*
X0194237Y0147074D01*
X0192638Y0145476D02*
X0189189Y0145476D01*
X0186901Y0155067D02*
X0186631Y0155067D01*
X0188247Y0156665D02*
X0188500Y0156665D01*
X0188850Y0158264D02*
X0190098Y0158264D01*
X0188850Y0159862D02*
X0191697Y0159862D01*
X0193295Y0161461D02*
X0188216Y0161461D01*
X0186453Y0163059D02*
X0195562Y0163059D01*
X0188531Y0166256D02*
X0235069Y0166256D01*
X0234350Y0166976D02*
X0234350Y0169026D01*
X0239300Y0169026D01*
X0239300Y0169026D01*
X0239300Y0173976D01*
X0241350Y0173976D01*
X0244250Y0171076D01*
X0244250Y0169026D01*
X0239300Y0169026D01*
X0239300Y0173976D01*
X0237250Y0173976D01*
X0234350Y0171076D01*
X0234350Y0169026D01*
X0239300Y0169026D01*
X0239300Y0169026D01*
X0239300Y0169026D01*
X0244250Y0169026D01*
X0244250Y0166976D01*
X0241350Y0164076D01*
X0239300Y0164076D01*
X0239300Y0169026D01*
X0239300Y0169026D01*
X0239300Y0164076D01*
X0237250Y0164076D01*
X0234350Y0166976D01*
X0234350Y0167855D02*
X0189250Y0167855D01*
X0189250Y0169453D02*
X0234350Y0169453D01*
X0234350Y0171052D02*
X0189250Y0171052D01*
X0187676Y0172650D02*
X0235924Y0172650D01*
X0239300Y0172650D02*
X0239300Y0172650D01*
X0239300Y0171052D02*
X0239300Y0171052D01*
X0239300Y0169453D02*
X0239300Y0169453D01*
X0239300Y0167855D02*
X0239300Y0167855D01*
X0239300Y0166256D02*
X0239300Y0166256D01*
X0239300Y0164658D02*
X0239300Y0164658D01*
X0241932Y0164658D02*
X0244600Y0164658D01*
X0244600Y0166256D02*
X0243531Y0166256D01*
X0244250Y0167855D02*
X0244600Y0167855D01*
X0244600Y0169453D02*
X0244250Y0169453D01*
X0244250Y0171052D02*
X0244600Y0171052D01*
X0244600Y0172650D02*
X0242676Y0172650D01*
X0243466Y0174249D02*
X0165134Y0174249D01*
X0163536Y0172650D02*
X0180924Y0172650D01*
X0184300Y0172650D02*
X0184300Y0172650D01*
X0184300Y0171052D02*
X0184300Y0171052D01*
X0184300Y0169453D02*
X0184300Y0169453D01*
X0184300Y0167855D02*
X0184300Y0167855D01*
X0184300Y0166256D02*
X0184300Y0166256D01*
X0184300Y0164658D02*
X0184300Y0164658D01*
X0186932Y0164658D02*
X0236668Y0164658D01*
X0241453Y0163059D02*
X0244600Y0163059D01*
X0244600Y0161461D02*
X0243216Y0161461D01*
X0243850Y0159862D02*
X0244600Y0159862D01*
X0244600Y0158264D02*
X0243850Y0158264D01*
X0243247Y0156665D02*
X0244600Y0156665D01*
X0243788Y0155067D02*
X0241631Y0155067D01*
X0243619Y0153468D02*
X0197182Y0153468D01*
X0206778Y0175847D02*
X0211256Y0175847D01*
X0212477Y0174626D02*
X0214300Y0174626D01*
X0216123Y0174626D01*
X0218700Y0177203D01*
X0218700Y0179026D01*
X0214300Y0179026D01*
X0214300Y0179026D01*
X0214300Y0183426D01*
X0212477Y0183426D01*
X0209900Y0180849D01*
X0209900Y0179026D01*
X0214300Y0179026D01*
X0214300Y0179026D01*
X0214300Y0174626D01*
X0214300Y0179026D01*
X0214300Y0179026D01*
X0209900Y0179026D01*
X0209900Y0177203D01*
X0212477Y0174626D01*
X0214300Y0175847D02*
X0214300Y0175847D01*
X0214300Y0177446D02*
X0214300Y0177446D01*
X0214300Y0179044D02*
X0214300Y0179044D01*
X0214300Y0180643D02*
X0214300Y0180643D01*
X0214300Y0182241D02*
X0214300Y0182241D01*
X0211293Y0182241D02*
X0206741Y0182241D01*
X0208300Y0180643D02*
X0209900Y0180643D01*
X0209900Y0179044D02*
X0208300Y0179044D01*
X0208300Y0177446D02*
X0209900Y0177446D01*
X0217344Y0175847D02*
X0234367Y0175847D01*
X0232769Y0177446D02*
X0218700Y0177446D01*
X0218700Y0179044D02*
X0231170Y0179044D01*
X0229572Y0180643D02*
X0218700Y0180643D01*
X0215957Y0189401D02*
X0212643Y0189401D01*
X0210300Y0191744D01*
X0210300Y0195058D01*
X0212643Y0197401D01*
X0215957Y0197401D01*
X0218300Y0195058D01*
X0218300Y0191744D01*
X0215957Y0189401D01*
X0216790Y0190234D02*
X0217397Y0190234D01*
X0218300Y0191832D02*
X0218995Y0191832D01*
X0219600Y0193431D02*
X0218300Y0193431D01*
X0218300Y0195029D02*
X0219600Y0195029D01*
X0219600Y0196628D02*
X0216730Y0196628D01*
X0214066Y0200535D02*
X0215191Y0201660D01*
X0215800Y0203130D01*
X0215800Y0209922D01*
X0215191Y0211392D01*
X0214066Y0212517D01*
X0212596Y0213126D01*
X0211004Y0213126D01*
X0209534Y0212517D01*
X0208409Y0211392D01*
X0207800Y0209922D01*
X0207800Y0203130D01*
X0208409Y0201660D01*
X0209534Y0200535D01*
X0211004Y0199926D01*
X0212596Y0199926D01*
X0214066Y0200535D01*
X0214954Y0201424D02*
X0218646Y0201424D01*
X0217845Y0203022D02*
X0215755Y0203022D01*
X0215800Y0204621D02*
X0217800Y0204621D01*
X0217800Y0206219D02*
X0215800Y0206219D01*
X0215800Y0207818D02*
X0217800Y0207818D01*
X0217800Y0209416D02*
X0215800Y0209416D01*
X0215347Y0211015D02*
X0218253Y0211015D01*
X0219766Y0212613D02*
X0213834Y0212613D01*
X0209766Y0212613D02*
X0203834Y0212613D01*
X0205347Y0211015D02*
X0208253Y0211015D01*
X0207800Y0209416D02*
X0205800Y0209416D01*
X0205800Y0207818D02*
X0207800Y0207818D01*
X0207800Y0206219D02*
X0205800Y0206219D01*
X0205800Y0204621D02*
X0207800Y0204621D01*
X0207845Y0203022D02*
X0205755Y0203022D01*
X0204954Y0201424D02*
X0208646Y0201424D01*
X0207296Y0196628D02*
X0211870Y0196628D01*
X0210300Y0195029D02*
X0208700Y0195029D01*
X0208700Y0193431D02*
X0210300Y0193431D01*
X0210300Y0191832D02*
X0208700Y0191832D01*
X0207355Y0190234D02*
X0211810Y0190234D01*
X0197800Y0207818D02*
X0195800Y0207818D01*
X0195800Y0209416D02*
X0197800Y0209416D01*
X0198253Y0211015D02*
X0195347Y0211015D01*
X0193834Y0212613D02*
X0199766Y0212613D01*
X0196905Y0215810D02*
X0179000Y0215810D01*
X0179000Y0217409D02*
X0195306Y0217409D01*
X0193708Y0219007D02*
X0179892Y0219007D01*
X0181491Y0220606D02*
X0192109Y0220606D01*
X0191800Y0224026D02*
X0191800Y0236526D01*
X0195800Y0236591D02*
X0197800Y0236591D01*
X0197800Y0238189D02*
X0195800Y0238189D01*
X0195800Y0239788D02*
X0197800Y0239788D01*
X0198407Y0241386D02*
X0195193Y0241386D01*
X0195800Y0234992D02*
X0197800Y0234992D01*
X0197800Y0233394D02*
X0195800Y0233394D01*
X0195247Y0231795D02*
X0198353Y0231795D01*
X0200351Y0230197D02*
X0194000Y0230197D01*
X0194000Y0228598D02*
X0209600Y0228598D01*
X0209600Y0230197D02*
X0203249Y0230197D01*
X0205247Y0231795D02*
X0208353Y0231795D01*
X0207800Y0233394D02*
X0205800Y0233394D01*
X0205800Y0234992D02*
X0207800Y0234992D01*
X0207800Y0236591D02*
X0205800Y0236591D01*
X0205800Y0238189D02*
X0207800Y0238189D01*
X0207800Y0239788D02*
X0205800Y0239788D01*
X0205193Y0241386D02*
X0208407Y0241386D01*
X0211800Y0236526D02*
X0211800Y0229026D01*
X0216800Y0224026D01*
X0226800Y0224026D01*
X0228536Y0225401D02*
X0237046Y0225401D01*
X0235850Y0227000D02*
X0216938Y0227000D01*
X0215339Y0228598D02*
X0234982Y0228598D01*
X0234380Y0230197D02*
X0223249Y0230197D01*
X0225247Y0231795D02*
X0234039Y0231795D01*
X0233985Y0234992D02*
X0225800Y0234992D01*
X0225800Y0233394D02*
X0245409Y0233394D01*
X0245409Y0234992D02*
X0247009Y0234992D01*
X0247009Y0236591D02*
X0245409Y0236591D01*
X0245409Y0238189D02*
X0247009Y0238189D01*
X0247009Y0239788D02*
X0245409Y0239788D01*
X0245409Y0241386D02*
X0247009Y0241386D01*
X0247009Y0242985D02*
X0245409Y0242985D01*
X0245409Y0244583D02*
X0247009Y0244583D01*
X0251818Y0244583D02*
X0256220Y0244583D01*
X0256220Y0242985D02*
X0254209Y0242985D01*
X0255758Y0241386D02*
X0256220Y0241386D01*
X0256220Y0249379D02*
X0219461Y0249379D01*
X0221060Y0250977D02*
X0256220Y0250977D01*
X0256220Y0252576D02*
X0222658Y0252576D01*
X0224257Y0254174D02*
X0256220Y0254174D01*
X0256220Y0255773D02*
X0241704Y0255773D01*
X0243300Y0257371D02*
X0256220Y0257371D01*
X0256220Y0258970D02*
X0243300Y0258970D01*
X0243300Y0260568D02*
X0256220Y0260568D01*
X0256220Y0262167D02*
X0241816Y0262167D01*
X0253319Y0276554D02*
X0182384Y0276554D01*
X0180785Y0278152D02*
X0251511Y0278152D01*
X0247403Y0279751D02*
X0040927Y0279751D01*
X0042707Y0278152D02*
X0160306Y0278152D01*
X0164300Y0259026D02*
X0156800Y0251526D01*
X0114300Y0251526D01*
X0106800Y0244026D01*
X0115800Y0234992D02*
X0117800Y0234992D01*
X0117800Y0233394D02*
X0115800Y0233394D01*
X0115247Y0231795D02*
X0118353Y0231795D01*
X0117359Y0230197D02*
X0114000Y0230197D01*
X0114000Y0228598D02*
X0115761Y0228598D01*
X0114162Y0227000D02*
X0112885Y0227000D01*
X0112564Y0225401D02*
X0111286Y0225401D01*
X0110965Y0223803D02*
X0109688Y0223803D01*
X0109367Y0222204D02*
X0108089Y0222204D01*
X0107768Y0220606D02*
X0106491Y0220606D01*
X0106170Y0219007D02*
X0104892Y0219007D01*
X0104600Y0217409D02*
X0103294Y0217409D01*
X0104600Y0215810D02*
X0101695Y0215810D01*
X0100097Y0214212D02*
X0104600Y0214212D01*
X0104600Y0212613D02*
X0103834Y0212613D01*
X0099766Y0212613D02*
X0099000Y0212613D01*
X0091741Y0210404D02*
X0091800Y0206526D01*
X0104300Y0196526D02*
X0106800Y0199026D01*
X0106800Y0216526D01*
X0121800Y0231526D01*
X0121800Y0236526D01*
X0125800Y0236591D02*
X0127800Y0236591D01*
X0127800Y0238189D02*
X0125800Y0238189D01*
X0125800Y0239788D02*
X0127800Y0239788D01*
X0128407Y0241386D02*
X0125193Y0241386D01*
X0125800Y0234992D02*
X0127800Y0234992D01*
X0127800Y0233394D02*
X0125800Y0233394D01*
X0125247Y0231795D02*
X0128353Y0231795D01*
X0127135Y0230197D02*
X0130351Y0230197D01*
X0133249Y0230197D02*
X0140351Y0230197D01*
X0138353Y0231795D02*
X0135247Y0231795D01*
X0135800Y0233394D02*
X0137800Y0233394D01*
X0137800Y0234992D02*
X0135800Y0234992D01*
X0135800Y0236591D02*
X0137800Y0236591D01*
X0137800Y0238189D02*
X0135800Y0238189D01*
X0135800Y0239788D02*
X0137800Y0239788D01*
X0138407Y0241386D02*
X0135193Y0241386D01*
X0125215Y0230197D02*
X0123582Y0230197D01*
X0123331Y0228598D02*
X0121984Y0228598D01*
X0122994Y0227000D02*
X0120385Y0227000D01*
X0118786Y0225401D02*
X0123457Y0225401D01*
X0126175Y0227151D02*
X0129300Y0224026D01*
X0129300Y0219026D01*
X0121800Y0211526D01*
X0121800Y0206526D01*
X0125800Y0206219D02*
X0127800Y0206219D01*
X0127800Y0204621D02*
X0125800Y0204621D01*
X0125755Y0203022D02*
X0127845Y0203022D01*
X0127800Y0203130D02*
X0128409Y0201660D01*
X0129534Y0200535D01*
X0131004Y0199926D01*
X0132596Y0199926D01*
X0134066Y0200535D01*
X0135191Y0201660D01*
X0135800Y0203130D01*
X0135800Y0209922D01*
X0135191Y0211392D01*
X0134066Y0212517D01*
X0132596Y0213126D01*
X0131004Y0213126D01*
X0129534Y0212517D01*
X0128409Y0211392D01*
X0127800Y0209922D01*
X0127800Y0203130D01*
X0128646Y0201424D02*
X0124954Y0201424D01*
X0124607Y0196628D02*
X0136304Y0196628D01*
X0134900Y0195029D02*
X0126934Y0195029D01*
X0127503Y0193431D02*
X0134900Y0193431D01*
X0134900Y0191832D02*
X0127371Y0191832D01*
X0126398Y0190234D02*
X0136245Y0190234D01*
X0136293Y0182241D02*
X0105627Y0182241D01*
X0106500Y0183840D02*
X0116219Y0183840D01*
X0115083Y0185438D02*
X0106500Y0185438D01*
X0106500Y0187037D02*
X0114791Y0187037D01*
X0115114Y0188635D02*
X0106500Y0188635D01*
X0106203Y0190234D02*
X0116296Y0190234D01*
X0115324Y0191832D02*
X0104605Y0191832D01*
X0105141Y0193431D02*
X0115191Y0193431D01*
X0115761Y0195029D02*
X0107123Y0195029D01*
X0107513Y0196628D02*
X0118088Y0196628D01*
X0118646Y0201424D02*
X0114954Y0201424D01*
X0115755Y0203022D02*
X0117845Y0203022D01*
X0117800Y0204621D02*
X0115800Y0204621D01*
X0115800Y0206219D02*
X0117800Y0206219D01*
X0117800Y0207818D02*
X0115800Y0207818D01*
X0115800Y0209416D02*
X0117800Y0209416D01*
X0118253Y0211015D02*
X0115347Y0211015D01*
X0113834Y0212613D02*
X0119766Y0212613D01*
X0121374Y0214212D02*
X0109000Y0214212D01*
X0109000Y0212613D02*
X0109766Y0212613D01*
X0109195Y0215810D02*
X0122973Y0215810D01*
X0124571Y0217409D02*
X0110794Y0217409D01*
X0112392Y0219007D02*
X0126170Y0219007D01*
X0127100Y0220606D02*
X0113991Y0220606D01*
X0115589Y0222204D02*
X0127100Y0222204D01*
X0126412Y0223803D02*
X0117188Y0223803D01*
X0125998Y0212613D02*
X0129766Y0212613D01*
X0128253Y0211015D02*
X0125347Y0211015D01*
X0125800Y0209416D02*
X0127800Y0209416D01*
X0127800Y0207818D02*
X0125800Y0207818D01*
X0133834Y0212613D02*
X0139766Y0212613D01*
X0138253Y0211015D02*
X0135347Y0211015D01*
X0135800Y0209416D02*
X0137800Y0209416D01*
X0137800Y0207818D02*
X0135800Y0207818D01*
X0135800Y0206219D02*
X0137800Y0206219D01*
X0137800Y0204621D02*
X0135800Y0204621D01*
X0135755Y0203022D02*
X0137845Y0203022D01*
X0138646Y0201424D02*
X0134954Y0201424D01*
X0121347Y0185438D02*
X0121347Y0185438D01*
X0121347Y0183840D02*
X0121347Y0183840D01*
X0134900Y0180643D02*
X0104028Y0180643D01*
X0101003Y0183840D02*
X0098521Y0183840D01*
X0100119Y0185438D02*
X0102100Y0185438D01*
X0102100Y0187037D02*
X0100800Y0187037D01*
X0100800Y0188635D02*
X0101579Y0188635D01*
X0103006Y0193431D02*
X0103459Y0193431D01*
X0080240Y0183840D02*
X0079771Y0183840D01*
X0079000Y0174249D02*
X0158912Y0174249D01*
X0157313Y0172650D02*
X0079000Y0172650D01*
X0079000Y0171052D02*
X0155715Y0171052D01*
X0154116Y0169453D02*
X0117272Y0169453D01*
X0114300Y0166526D02*
X0154300Y0166526D01*
X0184954Y0201424D02*
X0188646Y0201424D01*
X0187845Y0203022D02*
X0185755Y0203022D01*
X0185800Y0204621D02*
X0187800Y0204621D01*
X0187800Y0206219D02*
X0185800Y0206219D01*
X0185800Y0207818D02*
X0187800Y0207818D01*
X0187800Y0209416D02*
X0185800Y0209416D01*
X0185347Y0211015D02*
X0188253Y0211015D01*
X0189766Y0212613D02*
X0183834Y0212613D01*
X0195135Y0223803D02*
X0213912Y0223803D01*
X0212314Y0225401D02*
X0194000Y0225401D01*
X0194000Y0227000D02*
X0210715Y0227000D01*
X0214000Y0230197D02*
X0220351Y0230197D01*
X0218353Y0231795D02*
X0215247Y0231795D01*
X0215800Y0233394D02*
X0217800Y0233394D01*
X0217800Y0234992D02*
X0215800Y0234992D01*
X0215800Y0236591D02*
X0217800Y0236591D01*
X0217800Y0238189D02*
X0215800Y0238189D01*
X0215800Y0239788D02*
X0217800Y0239788D01*
X0218407Y0241386D02*
X0215193Y0241386D01*
X0225193Y0241386D02*
X0236661Y0241386D01*
X0235551Y0239788D02*
X0225800Y0239788D01*
X0225800Y0238189D02*
X0234773Y0238189D01*
X0234268Y0236591D02*
X0225800Y0236591D01*
X0230135Y0223803D02*
X0238808Y0223803D01*
X0241628Y0222204D02*
X0231733Y0222204D01*
X0233332Y0220606D02*
X0256220Y0220606D01*
X0256220Y0222204D02*
X0250791Y0222204D01*
X0253611Y0223803D02*
X0256220Y0223803D01*
X0256220Y0225401D02*
X0255373Y0225401D01*
X0256220Y0219007D02*
X0234930Y0219007D01*
X0236500Y0217409D02*
X0256220Y0217409D01*
X0256220Y0215810D02*
X0236500Y0215810D01*
X0236500Y0214212D02*
X0256220Y0214212D01*
X0256220Y0212613D02*
X0236500Y0212613D01*
X0236500Y0211015D02*
X0256220Y0211015D01*
X0256220Y0209416D02*
X0236500Y0209416D01*
X0236500Y0207818D02*
X0256220Y0207818D01*
X0256220Y0206219D02*
X0236500Y0206219D01*
X0236500Y0204621D02*
X0256220Y0204621D01*
X0256220Y0203022D02*
X0236500Y0203022D01*
X0236500Y0201424D02*
X0256220Y0201424D01*
X0256220Y0199825D02*
X0236500Y0199825D01*
X0236500Y0198227D02*
X0240524Y0198227D01*
X0240314Y0198016D02*
X0241376Y0199079D01*
X0242765Y0199654D01*
X0249024Y0199654D01*
X0250412Y0199079D01*
X0251475Y0198016D01*
X0252050Y0196628D01*
X0256220Y0196628D01*
X0256220Y0198227D02*
X0251265Y0198227D01*
X0252050Y0196628D02*
X0252050Y0195125D01*
X0251475Y0193736D01*
X0250938Y0193199D01*
X0250994Y0193158D01*
X0251459Y0192693D01*
X0251846Y0192161D01*
X0252144Y0191575D01*
X0252348Y0190949D01*
X0252450Y0190300D01*
X0252450Y0189971D01*
X0245895Y0189971D01*
X0245895Y0189971D01*
X0252450Y0189971D01*
X0252450Y0189642D01*
X0252348Y0188993D01*
X0252144Y0188367D01*
X0251846Y0187781D01*
X0251459Y0187249D01*
X0250994Y0186784D01*
X0250462Y0186398D01*
X0249876Y0186099D01*
X0249251Y0185896D01*
X0248601Y0185793D01*
X0245895Y0185793D01*
X0245895Y0189971D01*
X0245894Y0189971D01*
X0245894Y0189971D01*
X0239339Y0189971D01*
X0239339Y0190300D01*
X0239441Y0190949D01*
X0239645Y0191575D01*
X0239943Y0192161D01*
X0240330Y0192693D01*
X0240795Y0193158D01*
X0240851Y0193199D01*
X0240314Y0193736D01*
X0239739Y0195125D01*
X0239739Y0196628D01*
X0236500Y0196628D01*
X0236500Y0195029D02*
X0239778Y0195029D01*
X0239739Y0196628D02*
X0240314Y0198016D01*
X0240619Y0193431D02*
X0236500Y0193431D01*
X0236500Y0191832D02*
X0239776Y0191832D01*
X0239339Y0190234D02*
X0236500Y0190234D01*
X0236500Y0188635D02*
X0239557Y0188635D01*
X0239645Y0188367D02*
X0239943Y0187781D01*
X0240330Y0187249D01*
X0240795Y0186784D01*
X0241327Y0186398D01*
X0241913Y0186099D01*
X0242538Y0185896D01*
X0243188Y0185793D01*
X0245894Y0185793D01*
X0245894Y0189971D01*
X0239339Y0189971D01*
X0239339Y0189642D01*
X0239441Y0188993D01*
X0239645Y0188367D01*
X0240542Y0187037D02*
X0236900Y0187037D01*
X0238499Y0185438D02*
X0256220Y0185438D01*
X0256220Y0183840D02*
X0240097Y0183840D01*
X0237072Y0180643D02*
X0235794Y0180643D01*
X0235473Y0182241D02*
X0234196Y0182241D01*
X0233875Y0183840D02*
X0232597Y0183840D01*
X0232276Y0185438D02*
X0231500Y0185438D01*
X0231500Y0187037D02*
X0232100Y0187037D01*
X0232100Y0188635D02*
X0231500Y0188635D01*
X0231500Y0190234D02*
X0232100Y0190234D01*
X0232100Y0191832D02*
X0231500Y0191832D01*
X0231500Y0193431D02*
X0232100Y0193431D01*
X0232100Y0195029D02*
X0231500Y0195029D01*
X0231500Y0196628D02*
X0232100Y0196628D01*
X0232100Y0198227D02*
X0231500Y0198227D01*
X0231500Y0199825D02*
X0232100Y0199825D01*
X0232100Y0201424D02*
X0231500Y0201424D01*
X0231500Y0203022D02*
X0232100Y0203022D01*
X0232100Y0204621D02*
X0231500Y0204621D01*
X0231500Y0206219D02*
X0232100Y0206219D01*
X0245409Y0222204D02*
X0247009Y0222204D01*
X0247009Y0223803D02*
X0245409Y0223803D01*
X0245409Y0225401D02*
X0247009Y0225401D01*
X0247009Y0227000D02*
X0245409Y0227000D01*
X0245409Y0228598D02*
X0247009Y0228598D01*
X0247009Y0230197D02*
X0245409Y0230197D01*
X0245409Y0231795D02*
X0247009Y0231795D01*
X0219436Y0258970D02*
X0213300Y0258970D01*
X0213300Y0260568D02*
X0221034Y0260568D01*
X0222998Y0262167D02*
X0211816Y0262167D01*
X0213300Y0257371D02*
X0217837Y0257371D01*
X0216239Y0255773D02*
X0211704Y0255773D01*
X0206896Y0255773D02*
X0164158Y0255773D01*
X0158407Y0241386D02*
X0155587Y0241386D01*
X0156150Y0239788D02*
X0157800Y0239788D01*
X0157800Y0238189D02*
X0156200Y0238189D01*
X0156200Y0236591D02*
X0157800Y0236591D01*
X0157800Y0234992D02*
X0156200Y0234992D01*
X0156171Y0233394D02*
X0157800Y0233394D01*
X0158353Y0231795D02*
X0155653Y0231795D01*
X0154153Y0230197D02*
X0160351Y0230197D01*
X0196733Y0222204D02*
X0215511Y0222204D01*
X0245894Y0188635D02*
X0245895Y0188635D01*
X0245894Y0187037D02*
X0245895Y0187037D01*
X0251247Y0187037D02*
X0256220Y0187037D01*
X0256220Y0188635D02*
X0252231Y0188635D01*
X0252450Y0190234D02*
X0256220Y0190234D01*
X0256220Y0191832D02*
X0252013Y0191832D01*
X0251170Y0193431D02*
X0256220Y0193431D01*
X0256220Y0195029D02*
X0252011Y0195029D01*
X0249196Y0182241D02*
X0256220Y0182241D01*
X0256220Y0180643D02*
X0250794Y0180643D01*
X0252393Y0179044D02*
X0256220Y0179044D01*
X0256220Y0177446D02*
X0253991Y0177446D01*
X0254000Y0175847D02*
X0256220Y0175847D01*
X0256220Y0174249D02*
X0254000Y0174249D01*
X0254000Y0172650D02*
X0256220Y0172650D01*
X0256220Y0171052D02*
X0254000Y0171052D01*
X0254000Y0169453D02*
X0256220Y0169453D01*
X0256220Y0167855D02*
X0254000Y0167855D01*
X0254000Y0166256D02*
X0256220Y0166256D01*
X0256220Y0164658D02*
X0254000Y0164658D01*
X0254000Y0163059D02*
X0256220Y0163059D01*
X0256220Y0161461D02*
X0254000Y0161461D01*
X0254000Y0159862D02*
X0256220Y0159862D01*
X0256220Y0158264D02*
X0254000Y0158264D01*
X0254000Y0156665D02*
X0256220Y0156665D01*
X0256220Y0155067D02*
X0254000Y0155067D01*
X0254000Y0153468D02*
X0256220Y0153468D01*
X0256220Y0151870D02*
X0254000Y0151870D01*
X0253656Y0150271D02*
X0256220Y0150271D01*
X0256220Y0148673D02*
X0252058Y0148673D01*
X0250459Y0147074D02*
X0256220Y0147074D01*
X0251949Y0145476D02*
X0228462Y0145476D01*
X0229000Y0143877D02*
X0251299Y0143877D01*
X0251299Y0142279D02*
X0229000Y0142279D01*
X0240550Y0139082D02*
X0240550Y0139082D01*
X0240550Y0137483D02*
X0240550Y0137483D01*
X0240550Y0135885D02*
X0240550Y0135885D01*
X0249000Y0156665D02*
X0249600Y0156665D01*
X0249600Y0158264D02*
X0249000Y0158264D01*
X0249000Y0159862D02*
X0249600Y0159862D01*
X0249600Y0161461D02*
X0249000Y0161461D01*
X0249000Y0163059D02*
X0249600Y0163059D01*
X0249600Y0164658D02*
X0249000Y0164658D01*
X0249000Y0166256D02*
X0249600Y0166256D01*
X0249600Y0167855D02*
X0249000Y0167855D01*
X0249000Y0169453D02*
X0249600Y0169453D01*
X0249600Y0171052D02*
X0249000Y0171052D01*
X0249000Y0172650D02*
X0249600Y0172650D01*
X0249600Y0174249D02*
X0249000Y0174249D01*
X0249367Y0175847D02*
X0248090Y0175847D01*
X0247769Y0177446D02*
X0246491Y0177446D01*
X0246170Y0179044D02*
X0237393Y0179044D01*
X0170100Y0119899D02*
X0166826Y0119899D01*
X0168080Y0118301D02*
X0170100Y0118301D01*
X0170100Y0116702D02*
X0168472Y0116702D01*
X0168226Y0115104D02*
X0170100Y0115104D01*
X0170100Y0113505D02*
X0167179Y0113505D01*
X0114300Y0166526D02*
X0114123Y0166703D01*
X0111328Y0169453D02*
X0079000Y0169453D01*
X0079000Y0167855D02*
X0110335Y0167855D01*
X0110128Y0166256D02*
X0080181Y0166256D01*
X0081779Y0164658D02*
X0110558Y0164658D01*
X0059237Y0147074D02*
X0049000Y0147074D01*
X0049000Y0145476D02*
X0057638Y0145476D01*
X0056040Y0143877D02*
X0049000Y0143877D01*
X0049000Y0142279D02*
X0054441Y0142279D01*
X0052843Y0140680D02*
X0049000Y0140680D01*
X0049000Y0139082D02*
X0052100Y0139082D01*
X0052100Y0137483D02*
X0049000Y0137483D01*
X0049000Y0135885D02*
X0052100Y0135885D01*
X0052100Y0134286D02*
X0049000Y0134286D01*
X0049000Y0132688D02*
X0052100Y0132688D01*
X0052100Y0131089D02*
X0049000Y0131089D01*
X0049000Y0129491D02*
X0052100Y0129491D01*
X0052100Y0127892D02*
X0049000Y0127892D01*
X0049000Y0126293D02*
X0052100Y0126293D01*
X0052100Y0124695D02*
X0049000Y0124695D01*
X0049593Y0123096D02*
X0052100Y0123096D01*
X0052100Y0121498D02*
X0049981Y0121498D01*
X0049569Y0119899D02*
X0052100Y0119899D01*
X0052100Y0118301D02*
X0043557Y0118301D01*
X0044031Y0119899D02*
X0039740Y0119899D01*
X0040204Y0121498D02*
X0043619Y0121498D01*
X0044007Y0123096D02*
X0039967Y0123096D01*
X0039352Y0124695D02*
X0044600Y0124695D01*
X0044600Y0126293D02*
X0040369Y0126293D01*
X0040604Y0127678D02*
X0040604Y0128006D01*
X0040501Y0128656D01*
X0040298Y0129281D01*
X0039999Y0129867D01*
X0039613Y0130399D01*
X0039148Y0130864D01*
X0038616Y0131251D01*
X0038030Y0131549D01*
X0037404Y0131753D01*
X0036755Y0131855D01*
X0034048Y0131855D01*
X0034048Y0127678D01*
X0034048Y0127678D01*
X0034048Y0127677D01*
X0034048Y0127678D01*
X0040604Y0127678D01*
X0040604Y0127892D02*
X0044600Y0127892D01*
X0044600Y0129491D02*
X0040191Y0129491D01*
X0038838Y0131089D02*
X0044600Y0131089D01*
X0046800Y0121526D02*
X0046800Y0173401D01*
X0034005Y0172650D02*
X0034005Y0172650D01*
X0034005Y0171052D02*
X0034005Y0171052D01*
X0034005Y0169453D02*
X0034005Y0169453D01*
X0034005Y0157254D02*
X0034005Y0157254D01*
X0034048Y0131089D02*
X0034048Y0131089D01*
X0034048Y0129491D02*
X0034048Y0129491D01*
X0034048Y0127892D02*
X0034048Y0127892D01*
X0027927Y0116702D02*
X0023600Y0116702D01*
X0023600Y0115104D02*
X0027897Y0115104D01*
X0028688Y0113505D02*
X0023600Y0113505D01*
X0023600Y0111907D02*
X0028387Y0111907D01*
X0027892Y0110308D02*
X0023600Y0110308D01*
X0023600Y0108710D02*
X0028099Y0108710D01*
X0029177Y0107111D02*
X0023600Y0107111D01*
X0039408Y0113505D02*
X0042036Y0113505D01*
X0045069Y0116702D02*
X0052100Y0116702D01*
X0052100Y0115104D02*
X0046580Y0115104D01*
X0048092Y0113505D02*
X0052100Y0113505D01*
X0052100Y0111907D02*
X0049604Y0111907D01*
X0051129Y0110308D02*
X0052100Y0110308D01*
X0052100Y0108710D02*
X0051500Y0108710D01*
X0051500Y0107111D02*
X0052100Y0107111D01*
X0052100Y0105513D02*
X0051500Y0105513D01*
X0051500Y0103914D02*
X0052100Y0103914D01*
X0052100Y0102316D02*
X0051500Y0102316D01*
X0051500Y0100717D02*
X0052100Y0100717D01*
X0052100Y0099119D02*
X0051500Y0099119D01*
X0051500Y0097520D02*
X0052694Y0097520D01*
X0053015Y0095922D02*
X0054293Y0095922D01*
X0054614Y0094323D02*
X0055891Y0094323D01*
X0056212Y0092725D02*
X0057490Y0092725D01*
X0064400Y0065550D02*
X0065300Y0065550D01*
X0065300Y0063952D02*
X0064400Y0063952D01*
X0064650Y0062353D02*
X0065316Y0062353D01*
X0066248Y0060755D02*
X0066915Y0060755D01*
X0062000Y0052762D02*
X0061600Y0052762D01*
X0061600Y0051163D02*
X0062000Y0051163D01*
X0062000Y0049565D02*
X0061600Y0049565D01*
X0061600Y0047966D02*
X0062000Y0047966D01*
X0062000Y0044769D02*
X0061600Y0044769D01*
X0061600Y0043171D02*
X0062000Y0043171D01*
X0062000Y0041572D02*
X0061600Y0041572D01*
X0061600Y0039974D02*
X0062000Y0039974D01*
X0058564Y0039974D02*
X0054470Y0039974D01*
X0055753Y0041572D02*
X0057408Y0041572D01*
X0057000Y0043171D02*
X0056200Y0043171D01*
X0056200Y0044769D02*
X0057000Y0044769D01*
X0066600Y0047966D02*
X0067400Y0047966D01*
X0067400Y0049565D02*
X0066600Y0049565D01*
X0091741Y0210404D02*
X0091800Y0224026D01*
X0091133Y0258970D02*
X0039361Y0258970D01*
X0045774Y0271758D02*
X0062786Y0271758D01*
X0070119Y0273357D02*
X0045416Y0273357D01*
X0083611Y0271758D02*
X0083611Y0271758D01*
X0083611Y0270160D02*
X0083611Y0270160D01*
X0083611Y0268561D02*
X0083611Y0268561D01*
X0083611Y0266962D02*
X0083611Y0266962D01*
X0083611Y0265364D02*
X0083611Y0265364D01*
X0083611Y0263765D02*
X0083611Y0263765D01*
X0083611Y0262167D02*
X0083611Y0262167D01*
D30*
X0211800Y0134026D02*
X0211800Y0061526D01*
X0191800Y0041526D01*
X0106800Y0041526D01*
X0101800Y0046526D01*
X0071800Y0046526D01*
D31*
X0074300Y0081526D03*
X0089300Y0106526D03*
X0106800Y0089026D03*
X0139300Y0049026D03*
X0176800Y0084026D03*
X0180550Y0057776D03*
X0131800Y0144026D03*
X0129300Y0159026D03*
X0146800Y0159026D03*
X0161800Y0181526D03*
X0176800Y0185901D03*
X0146800Y0226526D03*
X0126175Y0227151D03*
X0104300Y0196526D03*
X0082425Y0181526D03*
X0049300Y0175901D03*
X0031800Y0204026D03*
X0046800Y0121526D03*
X0224300Y0271526D03*
X0246800Y0154026D03*
D32*
X0169300Y0075901D02*
X0156800Y0075901D01*
X0152391Y0070955D01*
X0148321Y0065901D02*
X0143375Y0070955D01*
X0148321Y0065901D02*
X0164925Y0065901D01*
D33*
X0164300Y0146526D02*
X0147391Y0146526D01*
X0096800Y0187776D02*
X0091800Y0192776D01*
X0091800Y0206526D01*
D34*
X0147391Y0146526D03*
M02*
